<svg width="80" height="80" viewBox="0 0 80 80" fill="none" xmlns="http://www.w3.org/2000/svg">
<circle cx="40" cy="40" r="40" fill="#222222"/>
<path d="M51.2487 28H43.0634C42.8643 28 42.6733 28.0792 42.5324 28.2202C42.3916 28.3612 42.3125 28.5524 42.3125 28.7518C42.3125 28.9512 42.3916 29.1424 42.5324 29.2834C42.6733 29.4244 42.8643 29.5036 43.0634 29.5036H49.469L42.8457 36.2698C42.7766 36.3403 42.7222 36.4239 42.6854 36.5155C42.6486 36.6072 42.6302 36.7052 42.6312 36.804C42.6323 36.9028 42.6527 37.0004 42.6915 37.0912C42.7302 37.1821 42.7864 37.2644 42.8569 37.3335C42.9274 37.4027 43.0109 37.4572 43.1024 37.494C43.194 37.5308 43.2919 37.5493 43.3906 37.5482C43.4892 37.5472 43.5867 37.5267 43.6775 37.4879C43.7682 37.4491 43.8505 37.3929 43.9195 37.3223L50.4977 30.6012V36.9464C50.4977 37.1458 50.5769 37.337 50.7177 37.478C50.8585 37.619 51.0495 37.6982 51.2487 37.6982C51.4479 37.6982 51.6389 37.619 51.7797 37.478C51.9205 37.337 51.9996 37.1458 51.9996 36.9464V28.7518C51.9996 28.5524 51.9205 28.3612 51.7797 28.2202C51.6389 28.0792 51.4479 28 51.2487 28Z" fill="white"/>
<path d="M35.1339 34.5636L28.3755 38.4504C28.2609 38.5166 28.1658 38.612 28.0999 38.7269C28.0339 38.8417 27.9995 38.972 28 39.1045V47.3742C27.9995 47.5067 28.0339 47.6369 28.0999 47.7518C28.1658 47.8667 28.2609 47.962 28.3755 48.0283L35.1339 51.9C35.2481 51.966 35.3776 52.0007 35.5094 52.0007C35.6412 52.0007 35.7707 51.966 35.8849 51.9L42.6433 48.0283C42.7579 47.962 42.853 47.8667 42.919 47.7518C42.9849 47.6369 43.0193 47.5067 43.0188 47.3742V39.1045C43.0193 38.972 42.9849 38.8417 42.919 38.7269C42.853 38.612 42.7579 38.5166 42.6433 38.4504L35.8849 34.5636C35.7707 34.4976 35.6412 34.4629 35.5094 34.4629C35.3776 34.4629 35.2481 34.4976 35.1339 34.5636ZM34.7284 49.8626L29.4718 46.8555V40.36L34.7284 43.3671V49.8626ZM35.4794 42.2846L30.0801 39.1796L35.4794 36.1048L40.8937 39.2022L35.4794 42.2846ZM41.4869 46.863L36.2303 49.8702V43.3671L41.4869 40.36V46.863Z" fill="white"/>
</svg>
