<svg width="80" height="80" viewBox="0 0 80 80" fill="none" xmlns="http://www.w3.org/2000/svg">
<circle cx="40" cy="40" r="40" fill="#222222"/>
<path d="M36.71 35.7109L39 33.4109V43.0009C39 43.2661 39.1054 43.5204 39.2929 43.708C39.4804 43.8955 39.7348 44.0009 40 44.0009C40.2652 44.0009 40.5196 43.8955 40.7071 43.708C40.8946 43.5204 41 43.2661 41 43.0009V33.4109L43.29 35.7109C43.383 35.8046 43.4936 35.879 43.6154 35.9298C43.7373 35.9805 43.868 36.0067 44 36.0067C44.132 36.0067 44.2627 35.9805 44.3846 35.9298C44.5064 35.879 44.617 35.8046 44.71 35.7109C44.8037 35.6179 44.8781 35.5073 44.9289 35.3854C44.9797 35.2636 45.0058 35.1329 45.0058 35.0009C45.0058 34.8689 44.9797 34.7382 44.9289 34.6163C44.8781 34.4944 44.8037 34.3838 44.71 34.2909L40.71 30.2909C40.6149 30.1998 40.5028 30.1285 40.38 30.0809C40.1365 29.9809 39.8635 29.9809 39.62 30.0809C39.4972 30.1285 39.3851 30.1998 39.29 30.2909L35.29 34.2909C35.1968 34.3841 35.1228 34.4948 35.0723 34.6166C35.0219 34.7384 34.9959 34.869 34.9959 35.0009C34.9959 35.1327 35.0219 35.2633 35.0723 35.3851C35.1228 35.5069 35.1968 35.6176 35.29 35.7109C35.3832 35.8041 35.4939 35.8781 35.6158 35.9285C35.7376 35.979 35.8681 36.005 36 36.005C36.1319 36.005 36.2624 35.979 36.3842 35.9285C36.5061 35.8781 36.6168 35.8041 36.71 35.7109ZM49 42.0009C48.7348 42.0009 48.4804 42.1062 48.2929 42.2938C48.1054 42.4813 48 42.7357 48 43.0009V47.0009C48 47.2661 47.8946 47.5204 47.7071 47.708C47.5196 47.8955 47.2652 48.0009 47 48.0009H33C32.7348 48.0009 32.4804 47.8955 32.2929 47.708C32.1054 47.5204 32 47.2661 32 47.0009V43.0009C32 42.7357 31.8946 42.4813 31.7071 42.2938C31.5196 42.1062 31.2652 42.0009 31 42.0009C30.7348 42.0009 30.4804 42.1062 30.2929 42.2938C30.1054 42.4813 30 42.7357 30 43.0009V47.0009C30 47.7965 30.3161 48.5596 30.8787 49.1222C31.4413 49.6848 32.2044 50.0009 33 50.0009H47C47.7956 50.0009 48.5587 49.6848 49.1213 49.1222C49.6839 48.5596 50 47.7965 50 47.0009V43.0009C50 42.7357 49.8946 42.4813 49.7071 42.2938C49.5196 42.1062 49.2652 42.0009 49 42.0009Z" fill="white"/>
</svg>
