<svg width="355" height="230" viewBox="0 0 355 230" fill="none" xmlns="http://www.w3.org/2000/svg">
<rect x="0.5" y="0.5" width="354" height="229" rx="9.5" fill="white" stroke="#EAEAEA"/>
<path d="M126.805 31.1393L128.332 29.6059V35.9993C128.332 36.1761 128.402 36.3457 128.527 36.4707C128.652 36.5957 128.822 36.6659 128.999 36.6659C129.176 36.6659 129.345 36.5957 129.47 36.4707C129.595 36.3457 129.665 36.1761 129.665 35.9993V29.6059L131.192 31.1393C131.254 31.2018 131.328 31.2514 131.409 31.2852C131.49 31.3191 131.577 31.3365 131.665 31.3365C131.753 31.3365 131.841 31.3191 131.922 31.2852C132.003 31.2514 132.077 31.2018 132.139 31.1393C132.201 31.0773 132.251 31.0036 132.285 30.9223C132.318 30.8411 132.336 30.754 132.336 30.6659C132.336 30.5779 132.318 30.4908 132.285 30.4096C132.251 30.3283 132.201 30.2546 132.139 30.1926L129.472 27.5259C129.409 27.4653 129.334 27.4177 129.252 27.3859C129.09 27.3193 128.908 27.3193 128.745 27.3859C128.664 27.4177 128.589 27.4653 128.525 27.5259L125.859 30.1926C125.797 30.2548 125.747 30.3286 125.714 30.4098C125.68 30.491 125.663 30.578 125.663 30.6659C125.663 30.7539 125.68 30.8409 125.714 30.9221C125.747 31.0033 125.797 31.0771 125.859 31.1393C125.921 31.2014 125.995 31.2507 126.076 31.2844C126.157 31.318 126.244 31.3353 126.332 31.3353C126.42 31.3353 126.507 31.318 126.588 31.2844C126.669 31.2507 126.743 31.2014 126.805 31.1393ZM134.999 35.3326C134.822 35.3326 134.652 35.4029 134.527 35.5279C134.402 35.6529 134.332 35.8225 134.332 35.9993V38.6659C134.332 38.8428 134.262 39.0123 134.137 39.1374C134.012 39.2624 133.842 39.3326 133.665 39.3326H124.332C124.155 39.3326 123.986 39.2624 123.861 39.1374C123.736 39.0123 123.665 38.8428 123.665 38.6659V35.9993C123.665 35.8225 123.595 35.6529 123.47 35.5279C123.345 35.4029 123.176 35.3326 122.999 35.3326C122.822 35.3326 122.652 35.4029 122.527 35.5279C122.402 35.6529 122.332 35.8225 122.332 35.9993V38.6659C122.332 39.1964 122.543 39.7051 122.918 40.0802C123.293 40.4552 123.802 40.6659 124.332 40.6659H133.665C134.196 40.6659 134.705 40.4552 135.08 40.0802C135.455 39.7051 135.665 39.1964 135.665 38.6659V35.9993C135.665 35.8225 135.595 35.6529 135.47 35.5279C135.345 35.4029 135.176 35.3326 134.999 35.3326Z" fill="black"/>
<path d="M148.91 39H154.669V37.96H150.08V34.736H154.201V33.696H150.08V31.122H154.669V30.082H148.91V39ZM154.85 39H156.124L157.957 36.413L159.777 39H161.051L158.555 35.581L160.804 32.5H159.543L157.957 34.749L156.358 32.5H155.084L157.359 35.581L154.85 39ZM162.148 41.418H163.188V37.895C163.695 38.636 164.644 39.13 165.567 39.13C167.491 39.13 168.778 37.778 168.778 35.75C168.778 33.722 167.491 32.37 165.567 32.37C164.644 32.37 163.695 32.864 163.188 33.605V32.5H162.148V41.418ZM165.463 38.22C164.098 38.22 163.188 37.232 163.188 35.75C163.188 34.268 164.098 33.28 165.463 33.28C166.828 33.28 167.738 34.268 167.738 35.75C167.738 37.232 166.828 38.22 165.463 38.22ZM172.983 39.13C174.946 39.13 176.246 37.778 176.246 35.75C176.246 33.722 174.946 32.37 172.983 32.37C171.02 32.37 169.72 33.722 169.72 35.75C169.72 37.778 171.02 39.13 172.983 39.13ZM172.983 38.22C171.644 38.22 170.76 37.232 170.76 35.75C170.76 34.268 171.644 33.28 172.983 33.28C174.322 33.28 175.206 34.268 175.206 35.75C175.206 37.232 174.322 38.22 172.983 38.22ZM183.558 38.22C183.064 38.22 182.726 37.869 182.726 37.336V33.41H184.624V32.5H182.726V30.082H181.686V32.5H180.776H180.269C179.567 32.5 178.813 32.864 178.41 33.397V32.5H177.37V39H178.41V35.334C178.41 34.177 179.19 33.41 180.36 33.41H180.646H181.686V37.336C181.686 38.415 182.466 39.13 183.623 39.13C183.935 39.13 184.364 39.078 184.689 39V38.22H183.558ZM188.837 39H192.022C194.57 39 196.273 37.206 196.273 34.528C196.273 31.863 194.57 30.082 192.022 30.082H188.837V39ZM190.007 37.96V31.122H192.022C193.868 31.122 195.103 32.487 195.103 34.528C195.103 36.582 193.868 37.96 192.022 37.96H190.007ZM200.377 39.13C201.261 39.13 202.184 38.636 202.691 37.908V39H203.731V32.5H202.691V33.592C202.184 32.864 201.261 32.37 200.377 32.37C198.479 32.37 197.205 33.722 197.205 35.75C197.205 37.778 198.479 39.13 200.377 39.13ZM200.481 38.22C199.142 38.22 198.245 37.232 198.245 35.75C198.245 34.268 199.142 33.28 200.481 33.28C201.807 33.28 202.691 34.268 202.691 35.75C202.691 37.232 201.807 38.22 200.481 38.22ZM207.62 39.13C207.932 39.13 208.361 39.078 208.686 39V38.22H207.555C207.061 38.22 206.723 37.869 206.723 37.336V33.41H208.621V32.5H206.723V30.082H205.683V32.5H204.643V33.41H205.683V37.336C205.683 38.415 206.463 39.13 207.62 39.13ZM212.463 39.13C213.347 39.13 214.27 38.636 214.777 37.908V39H215.817V32.5H214.777V33.592C214.27 32.864 213.347 32.37 212.463 32.37C210.565 32.37 209.291 33.722 209.291 35.75C209.291 37.778 210.565 39.13 212.463 39.13ZM212.567 38.22C211.228 38.22 210.331 37.232 210.331 35.75C210.331 34.268 211.228 33.28 212.567 33.28C213.893 33.28 214.777 34.268 214.777 35.75C214.777 37.232 213.893 38.22 212.567 38.22ZM219.768 39.13C221.445 39.13 222.563 38.324 222.563 37.128C222.563 36.023 221.926 35.542 219.924 35.126C218.754 34.84 218.39 34.606 218.39 34.164C218.39 33.631 218.936 33.28 219.768 33.28C220.522 33.28 221.159 33.67 221.354 34.255L222.303 34.021C221.952 33.033 220.938 32.37 219.768 32.37C218.312 32.37 217.35 33.124 217.35 34.242C217.35 35.23 217.909 35.659 219.703 36.062C221.172 36.4 221.536 36.634 221.536 37.18C221.536 37.804 220.834 38.22 219.768 38.22C218.676 38.22 217.935 37.648 217.909 36.79H216.934C216.96 38.194 218.091 39.13 219.768 39.13ZM226.76 39.13C228.216 39.13 229.464 38.194 229.88 36.79H228.84C228.554 37.648 227.722 38.22 226.76 38.22C225.486 38.22 224.602 37.31 224.55 35.958H229.919L230.023 35.854C230.023 33.761 228.723 32.37 226.76 32.37C224.797 32.37 223.497 33.722 223.497 35.75C223.497 37.778 224.797 39.13 226.76 39.13ZM224.602 35.048C224.849 33.917 225.629 33.28 226.76 33.28C227.891 33.28 228.671 33.917 228.918 35.048H224.602ZM233.341 39.13C233.653 39.13 234.082 39.078 234.407 39V38.22H233.276C232.782 38.22 232.444 37.869 232.444 37.336V33.41H234.342V32.5H232.444V30.082H231.404V32.5H230.364V33.41H231.404V37.336C231.404 38.415 232.184 39.13 233.341 39.13Z" fill="black"/>
<rect x="74.5" y="100.5" width="207" height="29" rx="1.5" stroke="black"/>
<path d="M134.91 120H140.669V118.96H136.08V115.736H140.201V114.696H136.08V112.122H140.669V111.082H134.91V120ZM140.85 120H142.124L143.957 117.413L145.777 120H147.051L144.555 116.581L146.804 113.5H145.543L143.957 115.749L142.358 113.5H141.084L143.359 116.581L140.85 120ZM148.148 122.418H149.188V118.895C149.695 119.636 150.644 120.13 151.567 120.13C153.491 120.13 154.778 118.778 154.778 116.75C154.778 114.722 153.491 113.37 151.567 113.37C150.644 113.37 149.695 113.864 149.188 114.605V113.5H148.148V122.418ZM151.463 119.22C150.098 119.22 149.188 118.232 149.188 116.75C149.188 115.268 150.098 114.28 151.463 114.28C152.828 114.28 153.738 115.268 153.738 116.75C153.738 118.232 152.828 119.22 151.463 119.22ZM158.983 120.13C160.946 120.13 162.246 118.778 162.246 116.75C162.246 114.722 160.946 113.37 158.983 113.37C157.02 113.37 155.72 114.722 155.72 116.75C155.72 118.778 157.02 120.13 158.983 120.13ZM158.983 119.22C157.644 119.22 156.76 118.232 156.76 116.75C156.76 115.268 157.644 114.28 158.983 114.28C160.322 114.28 161.206 115.268 161.206 116.75C161.206 118.232 160.322 119.22 158.983 119.22ZM169.558 119.22C169.064 119.22 168.726 118.869 168.726 118.336V114.41H170.624V113.5H168.726V111.082H167.686V113.5H166.776H166.269C165.567 113.5 164.813 113.864 164.41 114.397V113.5H163.37V120H164.41V116.334C164.41 115.177 165.19 114.41 166.36 114.41H166.646H167.686V118.336C167.686 119.415 168.466 120.13 169.623 120.13C169.935 120.13 170.364 120.078 170.689 120V119.22H169.558ZM174.837 120H178.022C180.57 120 182.273 118.206 182.273 115.528C182.273 112.863 180.57 111.082 178.022 111.082H174.837V120ZM176.007 118.96V112.122H178.022C179.868 112.122 181.103 113.487 181.103 115.528C181.103 117.582 179.868 118.96 178.022 118.96H176.007ZM186.377 120.13C187.261 120.13 188.184 119.636 188.691 118.908V120H189.731V113.5H188.691V114.592C188.184 113.864 187.261 113.37 186.377 113.37C184.479 113.37 183.205 114.722 183.205 116.75C183.205 118.778 184.479 120.13 186.377 120.13ZM186.481 119.22C185.142 119.22 184.245 118.232 184.245 116.75C184.245 115.268 185.142 114.28 186.481 114.28C187.807 114.28 188.691 115.268 188.691 116.75C188.691 118.232 187.807 119.22 186.481 119.22ZM193.62 120.13C193.932 120.13 194.361 120.078 194.686 120V119.22H193.555C193.061 119.22 192.723 118.869 192.723 118.336V114.41H194.621V113.5H192.723V111.082H191.683V113.5H190.643V114.41H191.683V118.336C191.683 119.415 192.463 120.13 193.62 120.13ZM198.463 120.13C199.347 120.13 200.27 119.636 200.777 118.908V120H201.817V113.5H200.777V114.592C200.27 113.864 199.347 113.37 198.463 113.37C196.565 113.37 195.291 114.722 195.291 116.75C195.291 118.778 196.565 120.13 198.463 120.13ZM198.567 119.22C197.228 119.22 196.331 118.232 196.331 116.75C196.331 115.268 197.228 114.28 198.567 114.28C199.893 114.28 200.777 115.268 200.777 116.75C200.777 118.232 199.893 119.22 198.567 119.22ZM205.768 120.13C207.445 120.13 208.563 119.324 208.563 118.128C208.563 117.023 207.926 116.542 205.924 116.126C204.754 115.84 204.39 115.606 204.39 115.164C204.39 114.631 204.936 114.28 205.768 114.28C206.522 114.28 207.159 114.67 207.354 115.255L208.303 115.021C207.952 114.033 206.938 113.37 205.768 113.37C204.312 113.37 203.35 114.124 203.35 115.242C203.35 116.23 203.909 116.659 205.703 117.062C207.172 117.4 207.536 117.634 207.536 118.18C207.536 118.804 206.834 119.22 205.768 119.22C204.676 119.22 203.935 118.648 203.909 117.79H202.934C202.96 119.194 204.091 120.13 205.768 120.13ZM212.76 120.13C214.216 120.13 215.464 119.194 215.88 117.79H214.84C214.554 118.648 213.722 119.22 212.76 119.22C211.486 119.22 210.602 118.31 210.55 116.958H215.919L216.023 116.854C216.023 114.761 214.723 113.37 212.76 113.37C210.797 113.37 209.497 114.722 209.497 116.75C209.497 118.778 210.797 120.13 212.76 120.13ZM210.602 116.048C210.849 114.917 211.629 114.28 212.76 114.28C213.891 114.28 214.671 114.917 214.918 116.048H210.602ZM219.341 120.13C219.653 120.13 220.082 120.078 220.407 120V119.22H219.276C218.782 119.22 218.444 118.869 218.444 118.336V114.41H220.342V113.5H218.444V111.082H217.404V113.5H216.364V114.41H217.404V118.336C217.404 119.415 218.184 120.13 219.341 120.13Z" fill="black"/>
</svg>
