<svg width="80" height="80" viewBox="0 0 80 80" fill="none" xmlns="http://www.w3.org/2000/svg">
<circle cx="40" cy="40" r="40" fill="#222222"/>
<path d="M47.9999 51.9997C50.2089 51.9997 51.9997 50.2089 51.9997 47.9999C51.9997 45.7908 50.2089 44 47.9999 44C45.7908 44 44 45.7908 44 47.9999C44 50.2089 45.7908 51.9997 47.9999 51.9997Z" stroke="white" stroke-width="1.5" stroke-linecap="round" stroke-linejoin="round"/>
<path d="M31.9999 35.9997C34.2089 35.9997 35.9997 34.2089 35.9997 31.9999C35.9997 29.7908 34.2089 28 31.9999 28C29.7908 28 28 29.7908 28 31.9999C28 34.2089 29.7908 35.9997 31.9999 35.9997Z" stroke="white" stroke-width="1.5" stroke-linecap="round" stroke-linejoin="round"/>
<path d="M32 51.9995V36C32 39.1825 33.2642 42.2346 35.5146 44.485C37.765 46.7354 40.8171 47.9996 43.9996 47.9996" stroke="white" stroke-width="1.5" stroke-linecap="round" stroke-linejoin="round"/>
</svg>
