<svg width="80" height="80" viewBox="0 0 80 80" fill="none" xmlns="http://www.w3.org/2000/svg">
<circle cx="40" cy="40" r="40" fill="#222222"/>
<path d="M43.5 41.5C43.5 43.5 41 45 41 46.5H39C39 45 36.5 43.5 36.5 41.5C36.5 39.57 38.07 38 40 38C41.93 38 43.5 39.57 43.5 41.5ZM41 47.5H39V49H41V47.5ZM47 41C47 42.68 46.41 44.21 45.42 45.42L46.84 46.84C47.6089 45.9427 48.1931 44.9024 48.5591 43.7788C48.9251 42.6552 49.0656 41.4704 48.9727 40.2924C48.8798 39.1143 48.5553 37.9662 48.0177 36.9139C47.4801 35.8616 46.7401 34.9257 45.84 34.16L44.42 35.58C45.2254 36.2352 45.8749 37.0616 46.3211 37.9991C46.7674 38.9366 46.9993 39.9617 47 41ZM44 33L40 29V32C37.6131 32 35.3239 32.9482 33.636 34.636C31.9482 36.3239 31 38.6131 31 41C31 43.23 31.82 45.27 33.16 46.84L34.58 45.42C33.5558 44.175 32.9971 42.6122 33 41C33 37.14 36.14 34 40 34V37L44 33Z" fill="white"/>
</svg>
