<svg width="80" height="80" viewBox="0 0 80 80" fill="none" xmlns="http://www.w3.org/2000/svg">
<circle cx="40" cy="40" r="40" fill="#222222"/>
<path d="M40.2305 39.998V49.9994" stroke="white" stroke-width="2" stroke-linecap="round" stroke-linejoin="round"/>
<path d="M49.5533 47.0996C50.6371 46.5087 51.4934 45.5737 51.9868 44.4421C52.4803 43.3106 52.5828 42.0469 52.2783 40.8506C51.9738 39.6543 51.2796 38.5934 50.3053 37.8355C49.3309 37.0775 48.1318 36.6657 46.8974 36.6648H45.4972C45.1608 35.3638 44.5339 34.156 43.6635 33.1321C42.7932 32.1083 41.7021 31.2951 40.4722 30.7536C39.2423 30.2121 37.9057 29.9566 36.5628 30.006C35.2199 30.0555 33.9057 30.4088 32.719 31.0393C31.5323 31.6698 30.5039 32.5611 29.7113 33.6462C28.9186 34.7313 28.3823 35.982 28.1426 37.3043C27.9029 38.6265 27.966 39.9859 28.3273 41.2802C28.6886 42.5745 29.3386 43.7701 30.2284 44.7771" stroke="white" stroke-width="2" stroke-linecap="round" stroke-linejoin="round"/>
<path d="M44.6713 44.4431L40.2263 39.998L35.7812 44.4431" stroke="white" stroke-width="2" stroke-linecap="round" stroke-linejoin="round"/>
</svg>
