<svg width="47" height="41" viewBox="0 0 47 41" fill="none" xmlns="http://www.w3.org/2000/svg">
<path d="M23.5 19.8965V24.7466M23.5 24.7466H12.5C12.2239 24.7466 12 24.9704 12 25.2466V28.2739M23.5 24.7466V28.2739M23.5 24.7466H34.5C34.7761 24.7466 35 24.9704 35 25.2466V28.2739" stroke="white" stroke-width="0.3" stroke-linecap="round"/>
<path d="M0 40.9998V38.8852H47V40.9998H0ZM6.53544 36.7706C5.47874 36.7706 4.59663 36.4442 3.8891 35.7915C3.18004 35.1402 2.82551 34.3275 2.82551 33.3533V12.6933C2.82551 11.7206 3.18004 10.9085 3.8891 10.2572C4.59816 9.60593 5.48027 9.28027 6.53544 9.28027H40.4646C41.5213 9.28027 42.4034 9.60593 43.1109 10.2572C43.82 10.91 44.1745 11.7227 44.1745 12.6954V33.3554C44.1745 34.3282 43.8207 35.1402 43.1132 35.7915C42.4057 36.4428 41.5228 36.7692 40.4646 36.7706H6.53544ZM6.53544 34.6559H40.4646C40.8168 34.6559 41.1407 34.5199 41.4363 34.2478C41.7303 33.9771 41.8773 33.679 41.8773 33.3533V12.6933C41.8773 12.3691 41.7303 12.0716 41.4363 11.8009C41.1407 11.5302 40.8168 11.3949 40.4646 11.3949H6.53544C6.1832 11.3949 5.8593 11.5302 5.56373 11.8009C5.2697 12.0716 5.12268 12.3698 5.12268 12.6954V33.3554C5.12268 33.6797 5.2697 33.9771 5.56373 34.2478C5.8593 34.5199 6.1832 34.6559 6.53544 34.6559Z" fill="white"/>
<rect x="15" width="17" height="21.9908" rx="1" fill="white"/>
<path d="M17 2.09473H23.439M17 4.35019H23.439M17 6.60566H29M17 8.86112H29M17 11.4388H29M23.439 13.6943H29M23.439 16.2719H29M23.439 18.8496H29" stroke="#11256D" stroke-width="0.5" stroke-linecap="round" stroke-linejoin="round"/>
<rect x="25" y="2.09473" width="4" height="3.14154" fill="#11256D"/>
<rect x="17" y="13.6133" width="5" height="5.2359" fill="#11256D"/>
<path d="M33.8353 18.6556L31.6393 16.6061C32.2977 15.8057 32.6052 14.8015 32.4992 13.7974C32.3932 12.7933 31.8817 11.8644 31.0686 11.1991C30.2554 10.5338 29.2015 10.182 28.1205 10.215C27.0395 10.248 26.0125 10.6634 25.2477 11.3768C24.4829 12.0903 24.0377 13.0484 24.0023 14.0568C23.9669 15.0653 24.344 16.0485 25.0572 16.8071C25.7703 17.5657 26.7661 18.0428 27.8424 18.1416C28.9188 18.2405 29.9951 17.9537 30.8532 17.3395L33.0511 19.3903C33.1027 19.4384 33.164 19.4766 33.2314 19.5027C33.2989 19.5288 33.3711 19.5422 33.4441 19.5422C33.5171 19.5422 33.5894 19.5288 33.6569 19.5027C33.7243 19.4766 33.7856 19.4384 33.8372 19.3903C33.8888 19.3421 33.9298 19.285 33.9577 19.2221C33.9856 19.1591 34 19.0917 34 19.0236C34 18.9555 33.9856 18.8881 33.9577 18.8252C33.9298 18.7623 33.8888 18.7051 33.8372 18.6569L33.8353 18.6556ZM25.1191 14.1904C25.1191 13.6102 25.3036 13.043 25.6491 12.5606C25.9946 12.0782 26.4857 11.7022 27.0603 11.4802C27.6349 11.2582 28.2671 11.2001 28.8771 11.3133C29.487 11.4265 30.0473 11.7059 30.4871 12.1161C30.9269 12.5264 31.2263 13.049 31.3477 13.6181C31.469 14.1871 31.4067 14.7769 31.1687 15.3129C30.9307 15.8489 30.5277 16.3071 30.0106 16.6294C29.4935 16.9517 28.8855 17.1238 28.2636 17.1238C27.4299 17.123 26.6306 16.8137 26.0411 16.2637C25.4516 15.7138 25.12 14.9681 25.1191 14.1904Z" fill="#C4C4C4"/>
<rect x="10" y="29.3213" width="4" height="4.18872" rx="0.5" fill="white"/>
<rect x="21" y="29.3213" width="5" height="4.18872" rx="0.5" fill="white"/>
<rect x="32" y="29.3213" width="5" height="4.18872" rx="0.5" fill="white"/>
</svg>
