<svg width="42" height="41" viewBox="0 0 42 41" fill="none" xmlns="http://www.w3.org/2000/svg">
<path d="M41 5V39C41 39.5523 40.5523 40 40 40H2C1.44771 40 1 39.5523 1 39V5V2C1 1.44772 1.44772 1 2 1H40C40.5523 1 41 1.44772 41 2V5Z" fill="#11256D"/>
<path d="M1 5H41M1 5V39C1 39.5523 1.44771 40 2 40H40C40.5523 40 41 39.5523 41 39V5M1 5V2C1 1.44772 1.44772 1 2 1H40C40.5523 1 41 1.44772 41 2V5" stroke="white" stroke-width="2" stroke-linecap="round"/>
<path d="M17.5522 16L22.8972 21M23.0522 24L17.5522 29" stroke="white" stroke-width="0.3" stroke-linecap="round"/>
<path d="M12.0522 11.5L14.8972 14" stroke="white" stroke-width="0.3" stroke-linecap="round"/>
<circle cx="9.86207" cy="19.9998" r="1.61207" stroke="white" stroke-width="0.5"/>
<circle cx="16.0701" cy="15.0349" r="1.61207" stroke="white" stroke-width="0.5"/>
<circle cx="10.4143" cy="10.8621" r="1.61207" stroke="white" stroke-width="0.5"/>
<path d="M12.1582 33.7734L14.7377 31.0003" stroke="white" stroke-width="0.3" stroke-linecap="round"/>
<circle cx="1.86207" cy="1.86207" r="1.61207" transform="matrix(0.994942 -0.10045 -0.10045 -0.994942 8.92627 36.6123)" stroke="white" stroke-width="0.5"/>
<circle cx="32.7244" cy="12.5505" r="1.61207" fill="white" stroke="white" stroke-width="0.5"/>
<circle cx="32.7244" cy="18.7576" r="1.61207" stroke="white" stroke-width="0.5"/>
<circle cx="32.7244" cy="24.9666" r="1.61207" fill="white" stroke="white" stroke-width="0.5"/>
<circle cx="32.7244" cy="31.1736" r="1.61207" stroke="white" stroke-width="0.5"/>
<circle cx="22.2766" cy="22.4822" r="1.61207" stroke="white" stroke-width="0.5"/>
<circle cx="16.0701" cy="29.9314" r="1.61207" stroke="white" stroke-width="0.5"/>
<circle cx="16.0701" cy="22.4822" r="1.61207" stroke="white" stroke-width="0.5"/>
<circle cx="9.86207" cy="24.9666" r="1.61207" stroke="white" stroke-width="0.5"/>
<path d="M16.0696 16.8957V20.6198M16.0696 24.344V28.0681M17.9317 22.4819H20.4144M14.5522 21.5L11.5522 20.6198M11.7248 24.9646L14.5522 23.5M14.5522 16L10.5522 18.5" stroke="white" stroke-width="0.3" stroke-linecap="round"/>
<path d="M10.5522 26.5L14.5522 29" stroke="white" stroke-width="0.3" stroke-linecap="round"/>
</svg>
