<svg width="42" height="45" viewBox="0 0 42 45" fill="none" xmlns="http://www.w3.org/2000/svg">
<path d="M0 44.9235V43.1308H41.1789V44.9235H0ZM5.726 41.3382C4.80018 41.3382 4.02732 41.0615 3.40742 40.5081C2.78618 39.956 2.47556 39.267 2.47556 38.4412V20.9266C2.47556 20.102 2.78618 19.4136 3.40742 18.8614C4.02866 18.3093 4.80152 18.0332 5.726 18.0332H35.4529C36.3787 18.0332 37.1516 18.3093 37.7715 18.8614C38.3927 19.4148 38.7033 20.1038 38.7033 20.9284V38.443C38.7033 39.2676 38.3934 39.956 37.7735 40.5081C37.1536 41.0603 36.3801 41.337 35.4529 41.3382H5.726ZM5.726 39.5455H35.4529C35.7615 39.5455 36.0453 39.4301 36.3043 39.1995C36.5619 38.97 36.6907 38.7172 36.6907 38.4412V20.9266C36.6907 20.6517 36.5619 20.3996 36.3043 20.1701C36.0453 19.9406 35.7615 19.8259 35.4529 19.8259H5.726C5.41739 19.8259 5.13361 19.9406 4.87465 20.1701C4.61703 20.3996 4.48822 20.6523 4.48822 20.9284V38.443C4.48822 38.7178 4.61703 38.97 4.87465 39.1995C5.13361 39.4301 5.41739 39.5455 5.726 39.5455Z" fill="white"/>
<circle cx="25.6559" cy="2.37126" r="1.22477" stroke="white"/>
<path d="M20.6973 12.2887V5.82078M23.0688 13.3667V9.27032L25.656 6.57537V3.44922M23.0688 15.6304H25.4404V11.2107L27.9197 8.51573H31.1537M18.1101 13.9056V9.48592L15.6307 6.57537V3.44922M18.1101 15.4148H15.9541V11.2107L13.5826 8.51573H10.3486" stroke="white"/>
<circle cx="20.6974" cy="4.31266" r="1.22477" stroke="white"/>
<circle cx="32.7707" cy="8.40836" r="1.22477" stroke="white"/>
<circle cx="15.7384" cy="1.72477" r="1.22477" stroke="white"/>
<circle cx="8.6237" cy="8.40836" r="1.22477" stroke="white"/>
<circle cx="20.5896" cy="16.9245" r="6.36009" fill="#11256D"/>
<path d="M19.4586 21.0671L19.2784 19.7764C19.1808 19.7427 19.0889 19.7024 19.0027 19.6554C18.9165 19.6083 18.8319 19.5579 18.749 19.5041L17.4088 20.0083L16.1699 18.0924L17.33 17.3058C17.3225 17.2588 17.3187 17.2134 17.3187 17.1699V16.8976C17.3187 16.8538 17.3225 16.8083 17.33 16.7613L16.1699 15.9747L17.4088 14.0588L18.749 14.563C18.8316 14.5092 18.918 14.4588 19.0081 14.4117C19.0982 14.3647 19.1883 14.3243 19.2784 14.2907L19.4586 13H21.9363L22.1165 14.2907C22.2141 14.3243 22.3062 14.3647 22.3927 14.4117C22.4792 14.4588 22.5636 14.5092 22.6459 14.563L23.9861 14.0588L25.225 15.9747L24.0649 16.7613C24.0724 16.8083 24.0762 16.8538 24.0762 16.8976V17.1695C24.0762 17.2133 24.0687 17.2588 24.0537 17.3058L25.2137 18.0924L23.9748 20.0083L22.6459 19.5041C22.5633 19.5579 22.4769 19.6083 22.3868 19.6554C22.2967 19.7024 22.2066 19.7427 22.1165 19.7764L21.9363 21.0671H19.4586ZM20.72 18.4453C21.1555 18.4453 21.5271 18.3075 21.835 18.0319C22.1428 17.7562 22.2967 17.4235 22.2967 17.0335C22.2967 16.6436 22.1428 16.3109 21.835 16.0352C21.5271 15.7596 21.1555 15.6218 20.72 15.6218C20.277 15.6218 19.9034 15.7596 19.5991 16.0352C19.2949 16.3109 19.1429 16.6436 19.1432 17.0335C19.1432 17.4235 19.2953 17.7562 19.5996 18.0319C19.9038 18.3075 20.2773 18.4453 20.72 18.4453Z" fill="white"/>
<path d="M9.29834 27.2314H31.7204" stroke="white"/>
<path d="M9.40625 29.3877H31.8283" stroke="white"/>
<path d="M9.40625 31.7588H31.8283" stroke="white"/>
<path d="M9.40625 33.915H23.42" stroke="white"/>
</svg>
