<svg width="71" height="70" viewBox="0 0 71 70" fill="none" xmlns="http://www.w3.org/2000/svg">
<path fill-rule="evenodd" clip-rule="evenodd" d="M17.4116 64.8451C17.4116 67.6909 15.5291 70 13.198 70C10.8713 70 8.98438 67.6953 8.98438 64.8451V5.15049C8.98438 2.30914 10.8713 0 13.198 0C15.5291 0 17.4116 2.30474 17.4116 5.15049V64.8451Z" fill="black"/>
<path fill-rule="evenodd" clip-rule="evenodd" d="M64.6164 8.60742C67.6425 8.60742 70.0968 10.5339 70.0968 12.9134C70.0968 15.2929 67.6425 17.2194 64.6164 17.2194H5.48036C2.45429 17.2194 0 15.2929 0 12.9134C0 10.5339 2.45429 8.60742 5.48036 8.60742H64.6164Z" fill="black"/>
<path d="M65.1981 30.7661V30.7666V52.1646C65.1981 53.3396 64.96 54.1339 64.5815 54.6836C64.2066 55.228 63.6558 55.588 62.919 55.8234C62.1731 56.0616 61.2611 56.1641 60.2021 56.2031C59.4468 56.2309 58.6422 56.2261 57.7889 56.2211C57.4438 56.219 57.0908 56.217 56.7298 56.217H31.1401C30.7792 56.217 30.4261 56.219 30.0811 56.2211C29.2278 56.2261 28.4232 56.2309 27.6679 56.2031C26.6088 56.1641 25.6969 56.0616 24.9509 55.8234C24.2142 55.588 23.6634 55.228 23.2885 54.6836C22.91 54.1339 22.6719 53.3396 22.6719 52.1646V30.7666C22.6719 29.5807 22.8827 28.7785 23.2233 28.2257C23.557 27.6842 24.0459 27.3322 24.7099 27.1017C25.3872 26.8666 26.2309 26.7638 27.2422 26.7244C27.964 26.6963 28.7431 26.7009 29.5852 26.7058C29.9246 26.7078 30.2741 26.7099 30.6343 26.7099H57.1477C57.5074 26.7099 57.857 26.7078 58.1968 26.7058C59.0417 26.7009 59.826 26.6963 60.5544 26.7244C61.5743 26.7638 62.4304 26.8666 63.1199 27.1025C63.797 27.334 64.2966 27.6876 64.6371 28.2294C64.984 28.7815 65.1992 29.5822 65.1981 30.7661Z" stroke="black"/>
<path fill-rule="evenodd" clip-rule="evenodd" d="M26.3906 12.8213H30.5119V25.4622H26.3906V12.8213Z" fill="black"/>
<path fill-rule="evenodd" clip-rule="evenodd" d="M57.1797 12.8213H61.301V25.4622H57.1797V12.8213Z" fill="black"/>
<path d="M54.7058 31H47.7764C47.6077 31 47.446 31.067 47.3268 31.1862C47.2076 31.3054 47.1406 31.4671 47.1406 31.6357C47.1406 31.8043 47.2076 31.966 47.3268 32.0853C47.446 32.2045 47.6077 32.2715 47.7764 32.2715H53.1991L47.592 37.993C47.5336 38.0527 47.4874 38.1233 47.4563 38.2008C47.4251 38.2783 47.4096 38.3612 47.4105 38.4448C47.4113 38.5283 47.4287 38.6108 47.4615 38.6877C47.4942 38.7645 47.5418 38.8341 47.6015 38.8926C47.6612 38.951 47.7318 38.9971 47.8093 39.0282C47.8869 39.0594 47.9697 39.075 48.0533 39.0741C48.1368 39.0732 48.2193 39.0559 48.2962 39.0231C48.373 38.9903 48.4426 38.9427 48.5011 38.883L54.0701 33.1996V38.5652C54.0701 38.7338 54.137 38.8955 54.2563 39.0147C54.3755 39.1339 54.5372 39.2009 54.7058 39.2009C54.8744 39.2009 55.0361 39.1339 55.1553 39.0147C55.2745 38.8955 55.3415 38.7338 55.3415 38.5652V31.6357C55.3415 31.4671 55.2745 31.3054 55.1553 31.1862C55.0361 31.067 54.8744 31 54.7058 31Z" fill="#11256D"/>
<path d="M41.6499 36.55C41.5533 36.4942 41.4437 36.4648 41.3321 36.4648C41.2205 36.4648 41.1108 36.4942 41.0142 36.55L35.4961 39.7287L41.3575 43.0789L47.1998 39.735L41.6499 36.55Z" fill="#11256D"/>
<path d="M35 47.3572C34.9996 47.4692 35.0287 47.5794 35.0845 47.6765C35.1404 47.7736 35.2209 47.8543 35.3179 47.9103L40.7215 50.9999V44.0069L35 40.7139V47.3572Z" fill="#11256D"/>
<path d="M41.9922 51.0004L47.3959 47.9108C47.4929 47.8548 47.5734 47.7741 47.6292 47.677C47.685 47.5799 47.7142 47.4697 47.7137 47.3577V40.7207L41.9922 43.9947V51.0004Z" fill="#11256D"/>
</svg>
