<svg width="71" height="70" viewBox="0 0 71 70" fill="none" xmlns="http://www.w3.org/2000/svg">
<path fill-rule="evenodd" clip-rule="evenodd" d="M17.4116 64.8451C17.4116 67.6909 15.5291 70 13.198 70C10.8713 70 8.98438 67.6953 8.98438 64.8451V5.15049C8.98438 2.30914 10.8713 0 13.198 0C15.5291 0 17.4116 2.30474 17.4116 5.15049V64.8451Z" fill="black"/>
<path fill-rule="evenodd" clip-rule="evenodd" d="M64.6164 8.60742C67.6425 8.60742 70.0968 10.5339 70.0968 12.9134C70.0968 15.2929 67.6425 17.2194 64.6164 17.2194H5.48036C2.45429 17.2194 0 15.2929 0 12.9134C0 10.5339 2.45429 8.60742 5.48036 8.60742H64.6164Z" fill="black"/>
<path d="M65.1981 30.7661V30.7666V52.1646C65.1981 53.3396 64.96 54.1339 64.5815 54.6836C64.2066 55.228 63.6558 55.588 62.919 55.8234C62.1731 56.0616 61.2611 56.1641 60.2021 56.2031C59.4468 56.2309 58.6422 56.2261 57.7889 56.2211C57.4438 56.219 57.0908 56.217 56.7298 56.217H31.1401C30.7792 56.217 30.4261 56.219 30.0811 56.2211C29.2278 56.2261 28.4232 56.2309 27.6679 56.2031C26.6088 56.1641 25.6969 56.0616 24.9509 55.8234C24.2142 55.588 23.6634 55.228 23.2885 54.6836C22.91 54.1339 22.6719 53.3396 22.6719 52.1646V30.7666C22.6719 29.5807 22.8827 28.7785 23.2233 28.2257C23.557 27.6842 24.0459 27.3322 24.7099 27.1017C25.3872 26.8666 26.2309 26.7638 27.2422 26.7244C27.964 26.6963 28.7431 26.7009 29.5852 26.7058C29.9246 26.7078 30.2741 26.7099 30.6343 26.7099H57.1477C57.5074 26.7099 57.857 26.7078 58.1968 26.7058C59.0417 26.7009 59.826 26.6963 60.5544 26.7244C61.5743 26.7638 62.4304 26.8666 63.1199 27.1025C63.797 27.334 64.2966 27.6876 64.6371 28.2294C64.984 28.7815 65.1992 29.5822 65.1981 30.7661Z" stroke="black"/>
<path fill-rule="evenodd" clip-rule="evenodd" d="M26.3906 12.8213H30.5119V25.4622H26.3906V12.8213Z" fill="black"/>
<path fill-rule="evenodd" clip-rule="evenodd" d="M57.1797 12.8213H61.301V25.4622H57.1797V12.8213Z" fill="black"/>
<path fill-rule="evenodd" clip-rule="evenodd" d="M48.5073 38.6826C48.5652 38.7407 48.6112 38.8097 48.6426 38.8856C48.6739 38.9615 48.6901 39.0429 48.6901 39.1251C48.6901 39.2073 48.6739 39.2888 48.6426 39.3647C48.6112 39.4406 48.5652 39.5096 48.5073 39.5676L44.774 43.3176C44.7162 43.3758 44.6475 43.422 44.5719 43.4535C44.4963 43.485 44.4153 43.5013 44.3334 43.5013C44.2516 43.5013 44.1705 43.485 44.0949 43.4535C44.0194 43.422 43.9507 43.3758 43.8929 43.3176L42.0262 41.4426C41.9684 41.3845 41.9225 41.3155 41.8912 41.2396C41.8599 41.1637 41.8438 41.0823 41.8438 41.0001C41.8437 40.918 41.8599 40.8366 41.8912 40.7607C41.9225 40.6847 41.9684 40.6158 42.0262 40.5576C42.0841 40.4995 42.1528 40.4534 42.2283 40.422C42.3039 40.3905 42.3849 40.3744 42.4668 40.3744C42.5486 40.3744 42.6296 40.3905 42.7052 40.422C42.7808 40.4534 42.8494 40.4995 42.9073 40.5576L44.3334 41.9914L47.6262 38.6826C47.684 38.6244 47.7527 38.5783 47.8283 38.5467C47.9039 38.5152 47.9849 38.499 48.0668 38.499C48.1486 38.499 48.2296 38.5152 48.3052 38.5467C48.3808 38.5783 48.4495 38.6244 48.5073 38.6826Z" fill="#11256D"/>
<path d="M38.7311 31H51.1755C51.8356 31 52.4687 31.2634 52.9354 31.7322C53.4022 32.2011 53.6644 32.837 53.6644 33.5V48.5C53.6644 49.163 53.4022 49.7989 52.9354 50.2678C52.4687 50.7366 51.8356 51 51.1755 51H38.7311C38.071 51 37.4379 50.7366 36.9712 50.2678C36.5044 49.7989 36.2422 49.163 36.2422 48.5V47.25H37.4866V48.5C37.4866 48.8315 37.6177 49.1495 37.8511 49.3839C38.0845 49.6183 38.401 49.75 38.7311 49.75H51.1755C51.5056 49.75 51.8221 49.6183 52.0555 49.3839C52.2889 49.1495 52.42 48.8315 52.42 48.5V33.5C52.42 33.1685 52.2889 32.8505 52.0555 32.6161C51.8221 32.3817 51.5056 32.25 51.1755 32.25H38.7311C38.401 32.25 38.0845 32.3817 37.8511 32.6161C37.6177 32.8505 37.4866 33.1685 37.4866 33.5V34.75H36.2422V33.5C36.2422 32.837 36.5044 32.2011 36.9712 31.7322C37.4379 31.2634 38.071 31 38.7311 31V31Z" fill="#11256D"/>
<path d="M36.2444 37.25V36.625C36.2444 36.4592 36.31 36.3003 36.4267 36.1831C36.5434 36.0658 36.7016 36 36.8667 36C37.0317 36 37.19 36.0658 37.3066 36.1831C37.4233 36.3003 37.4889 36.4592 37.4889 36.625V37.25H38.1111C38.2761 37.25 38.4344 37.3158 38.5511 37.4331C38.6678 37.5503 38.7333 37.7092 38.7333 37.875C38.7333 38.0408 38.6678 38.1997 38.5511 38.3169C38.4344 38.4342 38.2761 38.5 38.1111 38.5H35.6222C35.4572 38.5 35.2989 38.4342 35.1822 38.3169C35.0656 38.1997 35 38.0408 35 37.875C35 37.7092 35.0656 37.5503 35.1822 37.4331C35.2989 37.3158 35.4572 37.25 35.6222 37.25H36.2444ZM36.2444 41V40.375C36.2444 40.2092 36.31 40.0503 36.4267 39.9331C36.5434 39.8158 36.7016 39.75 36.8667 39.75C37.0317 39.75 37.19 39.8158 37.3066 39.9331C37.4233 40.0503 37.4889 40.2092 37.4889 40.375V41H38.1111C38.2761 41 38.4344 41.0658 38.5511 41.1831C38.6678 41.3003 38.7333 41.4592 38.7333 41.625C38.7333 41.7908 38.6678 41.9497 38.5511 42.0669C38.4344 42.1842 38.2761 42.25 38.1111 42.25H35.6222C35.4572 42.25 35.2989 42.1842 35.1822 42.0669C35.0656 41.9497 35 41.7908 35 41.625C35 41.4592 35.0656 41.3003 35.1822 41.1831C35.2989 41.0658 35.4572 41 35.6222 41H36.2444ZM36.2444 44.75V44.125C36.2444 43.9592 36.31 43.8003 36.4267 43.6831C36.5434 43.5658 36.7016 43.5 36.8667 43.5C37.0317 43.5 37.19 43.5658 37.3066 43.6831C37.4233 43.8003 37.4889 43.9592 37.4889 44.125V44.75H38.1111C38.2761 44.75 38.4344 44.8158 38.5511 44.9331C38.6678 45.0503 38.7333 45.2092 38.7333 45.375C38.7333 45.5408 38.6678 45.6997 38.5511 45.8169C38.4344 45.9342 38.2761 46 38.1111 46H35.6222C35.4572 46 35.2989 45.9342 35.1822 45.8169C35.0656 45.6997 35 45.5408 35 45.375C35 45.2092 35.0656 45.0503 35.1822 44.9331C35.2989 44.8158 35.4572 44.75 35.6222 44.75H36.2444Z" fill="#11256D"/>
</svg>
