<svg width="508" height="368" viewBox="0 0 508 368" fill="none" xmlns="http://www.w3.org/2000/svg">
<g filter="url(#filter0_d_271_8829)">
<rect x="5" y="1" width="498" height="58" rx="4" fill="white" stroke="#11256D" stroke-width="2"/>
<path d="M196.25 37H191.761V22.4545H196.449C197.86 22.4545 199.067 22.7457 200.071 23.3281C201.075 23.9058 201.844 24.7367 202.379 25.821C202.914 26.9006 203.182 28.1932 203.182 29.6989C203.182 31.214 202.912 32.5185 202.372 33.6122C201.832 34.7012 201.046 35.5393 200.014 36.1264C198.982 36.7088 197.727 37 196.25 37ZM193.523 35.4375H196.136C197.339 35.4375 198.336 35.2055 199.126 34.7415C199.917 34.2775 200.507 33.617 200.895 32.7599C201.283 31.9029 201.477 30.8826 201.477 29.6989C201.477 28.5246 201.286 27.5137 200.902 26.6662C200.518 25.8139 199.946 25.1605 199.183 24.706C198.421 24.2467 197.472 24.017 196.335 24.017H193.523V35.4375ZM208.319 37.2557C207.628 37.2557 207.001 37.1255 206.437 36.8651C205.874 36.5999 205.426 36.2188 205.095 35.7216C204.763 35.2197 204.598 34.6136 204.598 33.9034C204.598 33.2784 204.721 32.7718 204.967 32.3835C205.213 31.9905 205.542 31.6828 205.954 31.4602C206.366 31.2377 206.821 31.072 207.318 30.9631C207.82 30.8494 208.324 30.7595 208.831 30.6932C209.494 30.608 210.031 30.544 210.443 30.5014C210.86 30.4541 211.163 30.3759 211.352 30.267C211.546 30.1581 211.643 29.9687 211.643 29.6989V29.642C211.643 28.9413 211.451 28.3968 211.068 28.0085C210.689 27.6203 210.114 27.4261 209.342 27.4261C208.542 27.4261 207.914 27.6013 207.46 27.9517C207.005 28.3021 206.686 28.6761 206.501 29.0739L204.91 28.5057C205.194 27.8428 205.573 27.3267 206.047 26.9574C206.525 26.5833 207.046 26.3229 207.609 26.1761C208.177 26.0246 208.736 25.9489 209.285 25.9489C209.636 25.9489 210.038 25.9915 210.493 26.0767C210.952 26.1572 211.395 26.3253 211.821 26.581C212.252 26.8366 212.609 27.2225 212.893 27.7386C213.177 28.2547 213.319 28.946 213.319 29.8125V37H211.643V35.5227H211.558C211.444 35.7595 211.255 36.0128 210.99 36.2827C210.725 36.5526 210.372 36.7822 209.932 36.9716C209.491 37.161 208.954 37.2557 208.319 37.2557ZM208.575 35.75C209.238 35.75 209.797 35.6198 210.251 35.3594C210.71 35.099 211.056 34.7628 211.288 34.3509C211.525 33.9389 211.643 33.5057 211.643 33.0511V31.517C211.572 31.6023 211.416 31.6804 211.174 31.7514C210.938 31.8177 210.663 31.8769 210.351 31.929C210.043 31.9763 209.742 32.0189 209.449 32.0568C209.16 32.09 208.925 32.1184 208.745 32.142C208.31 32.1989 207.903 32.2912 207.524 32.419C207.15 32.5421 206.847 32.7292 206.615 32.9801C206.387 33.2263 206.274 33.5625 206.274 33.9886C206.274 34.571 206.489 35.0114 206.92 35.3097C207.356 35.6032 207.907 35.75 208.575 35.75ZM220.323 26.0909V27.5114H214.67V26.0909H220.323ZM216.317 23.4773H217.993V33.875C217.993 34.3485 218.062 34.7036 218.199 34.9403C218.341 35.1723 218.521 35.3286 218.739 35.4091C218.962 35.4848 219.196 35.5227 219.442 35.5227C219.627 35.5227 219.778 35.5133 219.897 35.4943C220.015 35.4706 220.11 35.4517 220.181 35.4375L220.522 36.9432C220.408 36.9858 220.25 37.0284 220.046 37.071C219.842 37.1184 219.584 37.142 219.272 37.142C218.798 37.142 218.334 37.0402 217.88 36.8366C217.43 36.633 217.056 36.3229 216.758 35.9062C216.464 35.4896 216.317 34.964 216.317 34.3295V23.4773ZM225.254 37.2557C224.563 37.2557 223.936 37.1255 223.372 36.8651C222.809 36.5999 222.361 36.2188 222.03 35.7216C221.699 35.2197 221.533 34.6136 221.533 33.9034C221.533 33.2784 221.656 32.7718 221.902 32.3835C222.148 31.9905 222.477 31.6828 222.889 31.4602C223.301 31.2377 223.756 31.072 224.253 30.9631C224.755 30.8494 225.259 30.7595 225.766 30.6932C226.429 30.608 226.966 30.544 227.378 30.5014C227.795 30.4541 228.098 30.3759 228.287 30.267C228.481 30.1581 228.578 29.9687 228.578 29.6989V29.642C228.578 28.9413 228.387 28.3968 228.003 28.0085C227.624 27.6203 227.049 27.4261 226.277 27.4261C225.477 27.4261 224.85 27.6013 224.395 27.9517C223.941 28.3021 223.621 28.6761 223.436 29.0739L221.845 28.5057C222.129 27.8428 222.508 27.3267 222.982 26.9574C223.46 26.5833 223.981 26.3229 224.544 26.1761C225.112 26.0246 225.671 25.9489 226.22 25.9489C226.571 25.9489 226.973 25.9915 227.428 26.0767C227.887 26.1572 228.33 26.3253 228.756 26.581C229.187 26.8366 229.544 27.2225 229.828 27.7386C230.112 28.2547 230.254 28.946 230.254 29.8125V37H228.578V35.5227H228.493C228.379 35.7595 228.19 36.0128 227.925 36.2827C227.66 36.5526 227.307 36.7822 226.867 36.9716C226.426 37.161 225.889 37.2557 225.254 37.2557ZM225.51 35.75C226.173 35.75 226.732 35.6198 227.186 35.3594C227.646 35.099 227.991 34.7628 228.223 34.3509C228.46 33.9389 228.578 33.5057 228.578 33.0511V31.517C228.507 31.6023 228.351 31.6804 228.11 31.7514C227.873 31.8177 227.598 31.8769 227.286 31.929C226.978 31.9763 226.677 32.0189 226.384 32.0568C226.095 32.09 225.861 32.1184 225.681 32.142C225.245 32.1989 224.838 32.2912 224.459 32.419C224.085 32.5421 223.782 32.7292 223.55 32.9801C223.323 33.2263 223.209 33.5625 223.209 33.9886C223.209 34.571 223.424 35.0114 223.855 35.3097C224.291 35.6032 224.843 35.75 225.51 35.75ZM239.327 22.4545V37H237.566V22.4545H239.327ZM243.508 30.4375V37H241.832V26.0909H243.451V27.7955H243.593C243.849 27.2415 244.237 26.7964 244.758 26.4602C245.279 26.1193 245.951 25.9489 246.775 25.9489C247.514 25.9489 248.16 26.1004 248.714 26.4034C249.268 26.7017 249.699 27.1562 250.006 27.767C250.314 28.3731 250.468 29.1402 250.468 30.0682V37H248.792V30.1818C248.792 29.3248 248.569 28.6572 248.124 28.179C247.679 27.696 247.068 27.4545 246.292 27.4545C245.757 27.4545 245.279 27.5705 244.857 27.8026C244.441 28.0346 244.112 28.3731 243.87 28.8182C243.629 29.2633 243.508 29.803 243.508 30.4375ZM257.134 41.3182C256.325 41.3182 255.629 41.214 255.046 41.0057C254.464 40.8021 253.979 40.5322 253.59 40.196C253.207 39.8646 252.901 39.5095 252.674 39.1307L254.009 38.1932C254.161 38.392 254.353 38.6193 254.585 38.875C254.817 39.1354 255.134 39.3603 255.536 39.5497C255.944 39.7438 256.476 39.8409 257.134 39.8409C258.015 39.8409 258.742 39.6278 259.315 39.2017C259.888 38.7756 260.174 38.108 260.174 37.1989V34.983H260.032C259.909 35.1818 259.734 35.428 259.507 35.7216C259.284 36.0104 258.962 36.2685 258.541 36.4957C258.124 36.7183 257.561 36.8295 256.85 36.8295C255.97 36.8295 255.179 36.6212 254.478 36.2045C253.782 35.7879 253.23 35.1818 252.823 34.3864C252.421 33.5909 252.22 32.625 252.22 31.4886C252.22 30.3712 252.416 29.3982 252.809 28.5696C253.202 27.7363 253.749 27.0923 254.45 26.6378C255.15 26.1785 255.96 25.9489 256.879 25.9489C257.589 25.9489 258.152 26.0672 258.569 26.304C258.99 26.536 259.312 26.8011 259.535 27.0994C259.762 27.393 259.937 27.6345 260.061 27.8239H260.231V26.0909H261.85V37.3125C261.85 38.25 261.637 39.0123 261.211 39.5994C260.79 40.1913 260.221 40.6245 259.507 40.8991C258.796 41.1785 258.006 41.3182 257.134 41.3182ZM257.078 35.3239C257.75 35.3239 258.318 35.17 258.782 34.8622C259.246 34.5545 259.599 34.1117 259.84 33.5341C260.082 32.9564 260.203 32.2652 260.203 31.4602C260.203 30.6742 260.084 29.9806 259.847 29.3793C259.611 28.7779 259.26 28.3068 258.796 27.9659C258.332 27.625 257.759 27.4545 257.078 27.4545C256.367 27.4545 255.775 27.6345 255.302 27.9943C254.833 28.3542 254.48 28.8371 254.244 29.4432C254.012 30.0492 253.896 30.7216 253.896 31.4602C253.896 32.2178 254.014 32.8878 254.251 33.4702C254.492 34.0478 254.847 34.5024 255.316 34.8338C255.79 35.1605 256.377 35.3239 257.078 35.3239ZM268.692 37.2273C267.641 37.2273 266.734 36.9953 265.972 36.5312C265.215 36.0625 264.63 35.4091 264.218 34.571C263.811 33.7282 263.607 32.7481 263.607 31.6307C263.607 30.5133 263.811 29.5284 264.218 28.6761C264.63 27.8191 265.203 27.1515 265.937 26.6733C266.675 26.1903 267.537 25.9489 268.522 25.9489C269.09 25.9489 269.651 26.0436 270.205 26.233C270.759 26.4223 271.263 26.7301 271.718 27.1562C272.172 27.5777 272.535 28.1364 272.805 28.8324C273.074 29.5284 273.209 30.3854 273.209 31.4034V32.1136H264.8V30.6648H271.505C271.505 30.0492 271.382 29.5 271.136 29.017C270.894 28.5341 270.548 28.1529 270.099 27.8736C269.654 27.5942 269.128 27.4545 268.522 27.4545C267.854 27.4545 267.277 27.6203 266.789 27.9517C266.306 28.2784 265.934 28.7045 265.674 29.2301C265.413 29.7557 265.283 30.3191 265.283 30.9205V31.8864C265.283 32.7102 265.425 33.4086 265.709 33.9815C265.998 34.5497 266.398 34.983 266.91 35.2812C267.421 35.5748 268.015 35.7216 268.692 35.7216C269.133 35.7216 269.53 35.66 269.886 35.5369C270.245 35.4091 270.555 35.2197 270.816 34.9688C271.076 34.7131 271.278 34.3958 271.42 34.017L273.039 34.4716C272.868 35.0208 272.582 35.5038 272.18 35.9205C271.777 36.3324 271.28 36.6544 270.688 36.8864C270.096 37.1136 269.431 37.2273 268.692 37.2273ZM282.686 28.5341L281.181 28.9602C281.086 28.7093 280.946 28.4654 280.762 28.2287C280.582 27.9872 280.336 27.7884 280.023 27.6321C279.711 27.4759 279.31 27.3977 278.823 27.3977C278.155 27.3977 277.599 27.5516 277.154 27.8594C276.713 28.1624 276.493 28.5483 276.493 29.017C276.493 29.4337 276.645 29.7628 276.948 30.0043C277.251 30.2457 277.724 30.447 278.368 30.608L279.988 31.0057C280.963 31.2424 281.69 31.6046 282.168 32.0923C282.646 32.5753 282.885 33.1979 282.885 33.9602C282.885 34.5852 282.705 35.1439 282.345 35.6364C281.99 36.1288 281.493 36.517 280.854 36.8011C280.215 37.0852 279.471 37.2273 278.624 37.2273C277.511 37.2273 276.59 36.9858 275.861 36.5028C275.132 36.0199 274.67 35.3144 274.476 34.3864L276.067 33.9886C276.219 34.5758 276.505 35.0161 276.926 35.3097C277.353 35.6032 277.909 35.75 278.595 35.75C279.377 35.75 279.997 35.5843 280.456 35.2528C280.92 34.9167 281.152 34.5142 281.152 34.0455C281.152 33.6667 281.02 33.3494 280.755 33.0938C280.489 32.8333 280.082 32.6392 279.533 32.5114L277.715 32.0852C276.716 31.8485 275.982 31.4815 275.513 30.9844C275.049 30.4825 274.817 29.8551 274.817 29.1023C274.817 28.4867 274.99 27.9422 275.336 27.4688C275.686 26.9953 276.162 26.6236 276.763 26.3537C277.369 26.0838 278.056 25.9489 278.823 25.9489C279.902 25.9489 280.75 26.1856 281.365 26.6591C281.986 27.1326 282.426 27.7576 282.686 28.5341ZM289.353 26.0909V27.5114H283.699V26.0909H289.353ZM285.347 23.4773H287.023V33.875C287.023 34.3485 287.092 34.7036 287.229 34.9403C287.371 35.1723 287.551 35.3286 287.769 35.4091C287.991 35.4848 288.226 35.5227 288.472 35.5227C288.657 35.5227 288.808 35.5133 288.926 35.4943C289.045 35.4706 289.14 35.4517 289.211 35.4375L289.551 36.9432C289.438 36.9858 289.279 37.0284 289.076 37.071C288.872 37.1184 288.614 37.142 288.301 37.142C287.828 37.142 287.364 37.0402 286.909 36.8366C286.46 36.633 286.086 36.3229 285.787 35.9062C285.494 35.4896 285.347 34.964 285.347 34.3295V23.4773ZM291.074 37V26.0909H292.75V37H291.074ZM291.926 24.2727C291.599 24.2727 291.318 24.1615 291.081 23.9389C290.849 23.7164 290.733 23.4489 290.733 23.1364C290.733 22.8239 290.849 22.5563 291.081 22.3338C291.318 22.1113 291.599 22 291.926 22C292.253 22 292.532 22.1113 292.764 22.3338C293.001 22.5563 293.119 22.8239 293.119 23.1364C293.119 23.4489 293.001 23.7164 292.764 23.9389C292.532 24.1615 292.253 24.2727 291.926 24.2727ZM299.452 37.2273C298.467 37.2273 297.603 36.9929 296.86 36.5241C296.121 36.0554 295.543 35.3996 295.127 34.5568C294.715 33.714 294.509 32.7292 294.509 31.6023C294.509 30.4659 294.715 29.474 295.127 28.6264C295.543 27.7789 296.121 27.1207 296.86 26.652C297.603 26.1832 298.467 25.9489 299.452 25.9489C300.437 25.9489 301.298 26.1832 302.037 26.652C302.78 27.1207 303.358 27.7789 303.77 28.6264C304.187 29.474 304.395 30.4659 304.395 31.6023C304.395 32.7292 304.187 33.714 303.77 34.5568C303.358 35.3996 302.78 36.0554 302.037 36.5241C301.298 36.9929 300.437 37.2273 299.452 37.2273ZM299.452 35.7216C300.2 35.7216 300.815 35.5298 301.298 35.1463C301.781 34.7628 302.139 34.2585 302.371 33.6335C302.603 33.0085 302.719 32.3314 302.719 31.6023C302.719 30.8731 302.603 30.1937 302.371 29.5639C302.139 28.9342 301.781 28.4252 301.298 28.0369C300.815 27.6487 300.2 27.4545 299.452 27.4545C298.704 27.4545 298.088 27.6487 297.605 28.0369C297.122 28.4252 296.765 28.9342 296.533 29.5639C296.301 30.1937 296.185 30.8731 296.185 31.6023C296.185 32.3314 296.301 33.0085 296.533 33.6335C296.765 34.2585 297.122 34.7628 297.605 35.1463C298.088 35.5298 298.704 35.7216 299.452 35.7216ZM307.83 30.4375V37H306.154V26.0909H307.773V27.7955H307.915C308.171 27.2415 308.559 26.7964 309.08 26.4602C309.601 26.1193 310.273 25.9489 311.097 25.9489C311.835 25.9489 312.482 26.1004 313.036 26.4034C313.59 26.7017 314.021 27.1562 314.328 27.767C314.636 28.3731 314.79 29.1402 314.79 30.0682V37H313.114V30.1818C313.114 29.3248 312.891 28.6572 312.446 28.179C312.001 27.696 311.39 27.4545 310.614 27.4545C310.079 27.4545 309.601 27.5705 309.179 27.8026C308.763 28.0346 308.433 28.3731 308.192 28.8182C307.95 29.2633 307.83 29.803 307.83 30.4375Z" fill="black"/>
<path d="M245.066 81.3778C245.197 81.2461 245.376 81.1721 245.562 81.1721C245.749 81.1721 245.927 81.2461 246.059 81.3778L253.297 88.6141V69.6871C253.297 69.5007 253.371 69.3218 253.503 69.19C253.635 69.0581 253.813 68.984 254 68.984C254.186 68.984 254.365 69.0581 254.497 69.19C254.629 69.3218 254.703 69.5007 254.703 69.6871V88.6141L261.941 81.3778C262.074 81.2536 262.25 81.186 262.432 81.1892C262.614 81.1924 262.788 81.2662 262.917 81.395C263.046 81.5238 263.12 81.6976 263.123 81.8798C263.126 82.0619 263.059 82.2382 262.934 82.3715L254.497 90.809C254.365 90.9407 254.186 91.0146 254 91.0146C253.814 91.0146 253.635 90.9407 253.503 90.809L245.066 82.3715C244.934 82.2397 244.86 82.061 244.86 81.8746C244.86 81.6883 244.934 81.5096 245.066 81.3778Z" fill="#11256D"/>
<rect x="5" y="101" width="498" height="58" rx="4" fill="white" stroke="#11256D" stroke-width="2"/>
<path d="M101.25 137H96.7614V122.455H101.449C102.86 122.455 104.067 122.746 105.071 123.328C106.075 123.906 106.844 124.737 107.379 125.821C107.914 126.901 108.182 128.193 108.182 129.699C108.182 131.214 107.912 132.518 107.372 133.612C106.832 134.701 106.046 135.539 105.014 136.126C103.982 136.709 102.727 137 101.25 137ZM98.5227 135.438H101.136C102.339 135.438 103.336 135.205 104.126 134.741C104.917 134.277 105.507 133.617 105.895 132.76C106.283 131.903 106.477 130.883 106.477 129.699C106.477 128.525 106.286 127.514 105.902 126.666C105.518 125.814 104.946 125.161 104.183 124.706C103.421 124.247 102.472 124.017 101.335 124.017H98.5227V135.438ZM114.683 137.227C113.632 137.227 112.725 136.995 111.963 136.531C111.205 136.062 110.62 135.409 110.209 134.571C109.801 133.728 109.598 132.748 109.598 131.631C109.598 130.513 109.801 129.528 110.209 128.676C110.62 127.819 111.193 127.152 111.927 126.673C112.666 126.19 113.528 125.949 114.512 125.949C115.081 125.949 115.642 126.044 116.196 126.233C116.75 126.422 117.254 126.73 117.709 127.156C118.163 127.578 118.525 128.136 118.795 128.832C119.065 129.528 119.2 130.385 119.2 131.403V132.114H110.791V130.665H117.495C117.495 130.049 117.372 129.5 117.126 129.017C116.885 128.534 116.539 128.153 116.089 127.874C115.644 127.594 115.119 127.455 114.512 127.455C113.845 127.455 113.267 127.62 112.78 127.952C112.297 128.278 111.925 128.705 111.664 129.23C111.404 129.756 111.274 130.319 111.274 130.92V131.886C111.274 132.71 111.416 133.409 111.7 133.982C111.989 134.55 112.389 134.983 112.9 135.281C113.412 135.575 114.006 135.722 114.683 135.722C115.123 135.722 115.521 135.66 115.876 135.537C116.236 135.409 116.546 135.22 116.807 134.969C117.067 134.713 117.268 134.396 117.41 134.017L119.03 134.472C118.859 135.021 118.573 135.504 118.17 135.92C117.768 136.332 117.271 136.654 116.679 136.886C116.087 137.114 115.422 137.227 114.683 137.227ZM125.808 126.091V127.511H119.927V126.091H125.808ZM121.688 137V124.585C121.688 123.96 121.835 123.439 122.129 123.023C122.422 122.606 122.803 122.294 123.272 122.085C123.741 121.877 124.236 121.773 124.757 121.773C125.168 121.773 125.505 121.806 125.765 121.872C126.025 121.938 126.22 122 126.347 122.057L125.864 123.506C125.779 123.477 125.661 123.442 125.509 123.399C125.363 123.357 125.168 123.335 124.927 123.335C124.373 123.335 123.973 123.475 123.727 123.754C123.485 124.034 123.364 124.443 123.364 124.983V137H121.688ZM127.357 137V126.091H129.033V137H127.357ZM128.209 124.273C127.882 124.273 127.601 124.161 127.364 123.939C127.132 123.716 127.016 123.449 127.016 123.136C127.016 122.824 127.132 122.556 127.364 122.334C127.601 122.111 127.882 122 128.209 122C128.536 122 128.815 122.111 129.047 122.334C129.284 122.556 129.402 122.824 129.402 123.136C129.402 123.449 129.284 123.716 129.047 123.939C128.815 124.161 128.536 124.273 128.209 124.273ZM132.979 130.438V137H131.303V126.091H132.922V127.795H133.064C133.32 127.241 133.708 126.796 134.229 126.46C134.75 126.119 135.422 125.949 136.246 125.949C136.985 125.949 137.631 126.1 138.185 126.403C138.739 126.702 139.17 127.156 139.478 127.767C139.785 128.373 139.939 129.14 139.939 130.068V137H138.263V130.182C138.263 129.325 138.041 128.657 137.595 128.179C137.15 127.696 136.54 127.455 135.763 127.455C135.228 127.455 134.75 127.571 134.328 127.803C133.912 128.035 133.583 128.373 133.341 128.818C133.1 129.263 132.979 129.803 132.979 130.438ZM146.776 137.227C145.725 137.227 144.818 136.995 144.056 136.531C143.298 136.062 142.713 135.409 142.301 134.571C141.894 133.728 141.691 132.748 141.691 131.631C141.691 130.513 141.894 129.528 142.301 128.676C142.713 127.819 143.286 127.152 144.02 126.673C144.759 126.19 145.621 125.949 146.605 125.949C147.174 125.949 147.735 126.044 148.289 126.233C148.843 126.422 149.347 126.73 149.801 127.156C150.256 127.578 150.618 128.136 150.888 128.832C151.158 129.528 151.293 130.385 151.293 131.403V132.114H142.884V130.665H149.588C149.588 130.049 149.465 129.5 149.219 129.017C148.978 128.534 148.632 128.153 148.182 127.874C147.737 127.594 147.212 127.455 146.605 127.455C145.938 127.455 145.36 127.62 144.873 127.952C144.39 128.278 144.018 128.705 143.757 129.23C143.497 129.756 143.367 130.319 143.367 130.92V131.886C143.367 132.71 143.509 133.409 143.793 133.982C144.082 134.55 144.482 134.983 144.993 135.281C145.505 135.575 146.099 135.722 146.776 135.722C147.216 135.722 147.614 135.66 147.969 135.537C148.329 135.409 148.639 135.22 148.9 134.969C149.16 134.713 149.361 134.396 149.503 134.017L151.123 134.472C150.952 135.021 150.666 135.504 150.263 135.92C149.861 136.332 149.364 136.654 148.772 136.886C148.18 137.114 147.515 137.227 146.776 137.227ZM169.8 127H168.038C167.934 126.493 167.752 126.048 167.491 125.665C167.236 125.281 166.923 124.959 166.554 124.699C166.189 124.434 165.784 124.235 165.339 124.102C164.894 123.97 164.43 123.903 163.947 123.903C163.067 123.903 162.269 124.126 161.554 124.571C160.844 125.016 160.278 125.672 159.856 126.538C159.44 127.405 159.231 128.468 159.231 129.727C159.231 130.987 159.44 132.05 159.856 132.916C160.278 133.783 160.844 134.438 161.554 134.884C162.269 135.329 163.067 135.551 163.947 135.551C164.43 135.551 164.894 135.485 165.339 135.352C165.784 135.22 166.189 135.023 166.554 134.763C166.923 134.498 167.236 134.173 167.491 133.79C167.752 133.402 167.934 132.956 168.038 132.455H169.8C169.667 133.198 169.425 133.863 169.075 134.45C168.725 135.037 168.289 135.537 167.768 135.949C167.247 136.356 166.663 136.666 166.014 136.879C165.37 137.092 164.681 137.199 163.947 137.199C162.707 137.199 161.603 136.896 160.638 136.29C159.672 135.684 158.912 134.822 158.358 133.705C157.804 132.587 157.527 131.261 157.527 129.727C157.527 128.193 157.804 126.867 158.358 125.75C158.912 124.633 159.672 123.771 160.638 123.165C161.603 122.559 162.707 122.256 163.947 122.256C164.681 122.256 165.37 122.362 166.014 122.575C166.663 122.788 167.247 123.101 167.768 123.513C168.289 123.92 168.725 124.417 169.075 125.004C169.425 125.587 169.667 126.252 169.8 127ZM178.493 132.54V126.091H180.17V137H178.493V135.153H178.38C178.124 135.707 177.726 136.179 177.187 136.567C176.647 136.95 175.965 137.142 175.141 137.142C174.459 137.142 173.853 136.993 173.323 136.695C172.793 136.392 172.376 135.937 172.073 135.331C171.77 134.72 171.618 133.951 171.618 133.023V126.091H173.295V132.909C173.295 133.705 173.517 134.339 173.962 134.812C174.412 135.286 174.985 135.523 175.681 135.523C176.098 135.523 176.521 135.416 176.952 135.203C177.388 134.99 177.752 134.663 178.046 134.223C178.344 133.783 178.493 133.222 178.493 132.54ZM190.167 128.534L188.661 128.96C188.566 128.709 188.427 128.465 188.242 128.229C188.062 127.987 187.816 127.788 187.503 127.632C187.191 127.476 186.791 127.398 186.303 127.398C185.636 127.398 185.079 127.552 184.634 127.859C184.194 128.162 183.974 128.548 183.974 129.017C183.974 129.434 184.125 129.763 184.428 130.004C184.731 130.246 185.205 130.447 185.849 130.608L187.468 131.006C188.443 131.242 189.17 131.605 189.648 132.092C190.127 132.575 190.366 133.198 190.366 133.96C190.366 134.585 190.186 135.144 189.826 135.636C189.471 136.129 188.974 136.517 188.334 136.801C187.695 137.085 186.952 137.227 186.104 137.227C184.992 137.227 184.071 136.986 183.342 136.503C182.612 136.02 182.151 135.314 181.957 134.386L183.548 133.989C183.699 134.576 183.985 135.016 184.407 135.31C184.833 135.603 185.389 135.75 186.076 135.75C186.857 135.75 187.477 135.584 187.937 135.253C188.401 134.917 188.633 134.514 188.633 134.045C188.633 133.667 188.5 133.349 188.235 133.094C187.97 132.833 187.563 132.639 187.013 132.511L185.195 132.085C184.196 131.848 183.462 131.482 182.994 130.984C182.53 130.482 182.298 129.855 182.298 129.102C182.298 128.487 182.47 127.942 182.816 127.469C183.166 126.995 183.642 126.624 184.244 126.354C184.85 126.084 185.536 125.949 186.303 125.949C187.383 125.949 188.23 126.186 188.846 126.659C189.466 127.133 189.906 127.758 190.167 128.534ZM196.833 126.091V127.511H191.18V126.091H196.833ZM192.827 123.477H194.504V133.875C194.504 134.348 194.572 134.704 194.71 134.94C194.852 135.172 195.031 135.329 195.249 135.409C195.472 135.485 195.706 135.523 195.952 135.523C196.137 135.523 196.289 135.513 196.407 135.494C196.525 135.471 196.62 135.452 196.691 135.438L197.032 136.943C196.918 136.986 196.76 137.028 196.556 137.071C196.353 137.118 196.094 137.142 195.782 137.142C195.308 137.142 194.844 137.04 194.39 136.837C193.94 136.633 193.566 136.323 193.268 135.906C192.974 135.49 192.827 134.964 192.827 134.33V123.477ZM202.869 137.227C201.884 137.227 201.02 136.993 200.277 136.524C199.538 136.055 198.96 135.4 198.544 134.557C198.132 133.714 197.926 132.729 197.926 131.602C197.926 130.466 198.132 129.474 198.544 128.626C198.96 127.779 199.538 127.121 200.277 126.652C201.02 126.183 201.884 125.949 202.869 125.949C203.854 125.949 204.716 126.183 205.454 126.652C206.198 127.121 206.775 127.779 207.187 128.626C207.604 129.474 207.812 130.466 207.812 131.602C207.812 132.729 207.604 133.714 207.187 134.557C206.775 135.4 206.198 136.055 205.454 136.524C204.716 136.993 203.854 137.227 202.869 137.227ZM202.869 135.722C203.617 135.722 204.233 135.53 204.716 135.146C205.199 134.763 205.556 134.259 205.788 133.634C206.02 133.009 206.136 132.331 206.136 131.602C206.136 130.873 206.02 130.194 205.788 129.564C205.556 128.934 205.199 128.425 204.716 128.037C204.233 127.649 203.617 127.455 202.869 127.455C202.121 127.455 201.505 127.649 201.022 128.037C200.539 128.425 200.182 128.934 199.95 129.564C199.718 130.194 199.602 130.873 199.602 131.602C199.602 132.331 199.718 133.009 199.95 133.634C200.182 134.259 200.539 134.763 201.022 135.146C201.505 135.53 202.121 135.722 202.869 135.722ZM209.571 137V126.091H211.19V127.795H211.332C211.559 127.213 211.926 126.761 212.433 126.439C212.94 126.112 213.548 125.949 214.258 125.949C214.978 125.949 215.577 126.112 216.055 126.439C216.538 126.761 216.915 127.213 217.184 127.795H217.298C217.577 127.232 217.996 126.785 218.555 126.453C219.114 126.117 219.784 125.949 220.565 125.949C221.541 125.949 222.338 126.254 222.959 126.865C223.579 127.471 223.889 128.416 223.889 129.699V137H222.213V129.699C222.213 128.894 221.993 128.319 221.552 127.973C221.112 127.627 220.594 127.455 219.997 127.455C219.23 127.455 218.636 127.687 218.214 128.151C217.793 128.61 217.582 129.192 217.582 129.898V137H215.878V129.528C215.878 128.908 215.676 128.409 215.274 128.03C214.871 127.646 214.353 127.455 213.719 127.455C213.283 127.455 212.876 127.571 212.497 127.803C212.123 128.035 211.82 128.357 211.588 128.768C211.361 129.176 211.247 129.647 211.247 130.182V137H209.571ZM231.206 137V122.455H239.984V124.017H232.967V128.932H239.53V130.494H232.967V135.438H240.098V137H231.206ZM243.808 130.438V137H242.132V126.091H243.751V127.795H243.893C244.149 127.241 244.537 126.796 245.058 126.46C245.579 126.119 246.251 125.949 247.075 125.949C247.814 125.949 248.46 126.1 249.014 126.403C249.568 126.702 249.999 127.156 250.306 127.767C250.614 128.373 250.768 129.14 250.768 130.068V137H249.092V130.182C249.092 129.325 248.869 128.657 248.424 128.179C247.979 127.696 247.368 127.455 246.592 127.455C246.057 127.455 245.579 127.571 245.157 127.803C244.741 128.035 244.412 128.373 244.17 128.818C243.929 129.263 243.808 129.803 243.808 130.438ZM257.775 126.091V127.511H252.122V126.091H257.775ZM253.77 123.477H255.446V133.875C255.446 134.348 255.514 134.704 255.652 134.94C255.794 135.172 255.974 135.329 256.191 135.409C256.414 135.485 256.648 135.523 256.895 135.523C257.079 135.523 257.231 135.513 257.349 135.494C257.468 135.471 257.562 135.452 257.633 135.438L257.974 136.943C257.861 136.986 257.702 137.028 257.498 137.071C257.295 137.118 257.037 137.142 256.724 137.142C256.251 137.142 255.787 137.04 255.332 136.837C254.882 136.633 254.508 136.323 254.21 135.906C253.916 135.49 253.77 134.964 253.77 134.33V123.477ZM259.497 137V126.091H261.173V137H259.497ZM260.349 124.273C260.022 124.273 259.74 124.161 259.504 123.939C259.272 123.716 259.156 123.449 259.156 123.136C259.156 122.824 259.272 122.556 259.504 122.334C259.74 122.111 260.022 122 260.349 122C260.676 122 260.955 122.111 261.187 122.334C261.424 122.556 261.542 122.824 261.542 123.136C261.542 123.449 261.424 123.716 261.187 123.939C260.955 124.161 260.676 124.273 260.349 124.273ZM268.187 126.091V127.511H262.534V126.091H268.187ZM264.181 123.477H265.857V133.875C265.857 134.348 265.926 134.704 266.063 134.94C266.205 135.172 266.385 135.329 266.603 135.409C266.826 135.485 267.06 135.523 267.306 135.523C267.491 135.523 267.643 135.513 267.761 135.494C267.879 135.471 267.974 135.452 268.045 135.438L268.386 136.943C268.272 136.986 268.114 137.028 267.91 137.071C267.706 137.118 267.448 137.142 267.136 137.142C266.662 137.142 266.198 137.04 265.744 136.837C265.294 136.633 264.92 136.323 264.622 135.906C264.328 135.49 264.181 134.964 264.181 134.33V123.477ZM269.908 137V126.091H271.584V137H269.908ZM270.761 124.273C270.434 124.273 270.152 124.161 269.915 123.939C269.683 123.716 269.567 123.449 269.567 123.136C269.567 122.824 269.683 122.556 269.915 122.334C270.152 122.111 270.434 122 270.761 122C271.087 122 271.367 122.111 271.599 122.334C271.835 122.556 271.954 122.824 271.954 123.136C271.954 123.449 271.835 123.716 271.599 123.939C271.367 124.161 271.087 124.273 270.761 124.273ZM278.428 137.227C277.377 137.227 276.47 136.995 275.708 136.531C274.951 136.062 274.366 135.409 273.954 134.571C273.547 133.728 273.343 132.748 273.343 131.631C273.343 130.513 273.547 129.528 273.954 128.676C274.366 127.819 274.939 127.152 275.673 126.673C276.411 126.19 277.273 125.949 278.258 125.949C278.826 125.949 279.387 126.044 279.941 126.233C280.495 126.422 280.999 126.73 281.454 127.156C281.908 127.578 282.271 128.136 282.54 128.832C282.81 129.528 282.945 130.385 282.945 131.403V132.114H274.536V130.665H281.241C281.241 130.049 281.118 129.5 280.871 129.017C280.63 128.534 280.284 128.153 279.835 127.874C279.389 127.594 278.864 127.455 278.258 127.455C277.59 127.455 277.013 127.62 276.525 127.952C276.042 128.278 275.67 128.705 275.41 129.23C275.149 129.756 275.019 130.319 275.019 130.92V131.886C275.019 132.71 275.161 133.409 275.445 133.982C275.734 134.55 276.134 134.983 276.646 135.281C277.157 135.575 277.751 135.722 278.428 135.722C278.869 135.722 279.266 135.66 279.621 135.537C279.981 135.409 280.291 135.22 280.552 134.969C280.812 134.713 281.013 134.396 281.156 134.017L282.775 134.472C282.604 135.021 282.318 135.504 281.915 135.92C281.513 136.332 281.016 136.654 280.424 136.886C279.832 137.114 279.167 137.227 278.428 137.227ZM292.422 128.534L290.917 128.96C290.822 128.709 290.682 128.465 290.498 128.229C290.318 127.987 290.071 127.788 289.759 127.632C289.446 127.476 289.046 127.398 288.559 127.398C287.891 127.398 287.335 127.552 286.89 127.859C286.449 128.162 286.229 128.548 286.229 129.017C286.229 129.434 286.381 129.763 286.684 130.004C286.987 130.246 287.46 130.447 288.104 130.608L289.723 131.006C290.699 131.242 291.426 131.605 291.904 132.092C292.382 132.575 292.621 133.198 292.621 133.96C292.621 134.585 292.441 135.144 292.081 135.636C291.726 136.129 291.229 136.517 290.59 136.801C289.951 137.085 289.207 137.227 288.36 137.227C287.247 137.227 286.326 136.986 285.597 136.503C284.868 136.02 284.406 135.314 284.212 134.386L285.803 133.989C285.954 134.576 286.241 135.016 286.662 135.31C287.088 135.603 287.645 135.75 288.331 135.75C289.113 135.75 289.733 135.584 290.192 135.253C290.656 134.917 290.888 134.514 290.888 134.045C290.888 133.667 290.756 133.349 290.49 133.094C290.225 132.833 289.818 132.639 289.269 132.511L287.451 132.085C286.452 131.848 285.718 131.482 285.249 130.984C284.785 130.482 284.553 129.855 284.553 129.102C284.553 128.487 284.726 127.942 285.071 127.469C285.422 126.995 285.898 126.624 286.499 126.354C287.105 126.084 287.792 125.949 288.559 125.949C289.638 125.949 290.486 126.186 291.101 126.659C291.722 127.133 292.162 127.758 292.422 128.534ZM296.844 135.011L296.731 135.778C296.65 136.318 296.527 136.896 296.361 137.511C296.2 138.127 296.032 138.707 295.857 139.251C295.682 139.796 295.537 140.229 295.424 140.551H294.145C294.207 140.248 294.287 139.848 294.387 139.351C294.486 138.854 294.586 138.297 294.685 137.682C294.789 137.071 294.875 136.446 294.941 135.807L295.026 135.011H296.844ZM308.691 137H304.202V122.455H308.889C310.3 122.455 311.508 122.746 312.512 123.328C313.515 123.906 314.285 124.737 314.82 125.821C315.355 126.901 315.622 128.193 315.622 129.699C315.622 131.214 315.353 132.518 314.813 133.612C314.273 134.701 313.487 135.539 312.455 136.126C311.423 136.709 310.168 137 308.691 137ZM305.963 135.438H308.577C309.78 135.438 310.776 135.205 311.567 134.741C312.358 134.277 312.947 133.617 313.336 132.76C313.724 131.903 313.918 130.883 313.918 129.699C313.918 128.525 313.726 127.514 313.343 126.666C312.959 125.814 312.386 125.161 311.624 124.706C310.862 124.247 309.912 124.017 308.776 124.017H305.963V135.438ZM322.124 137.227C321.072 137.227 320.166 136.995 319.403 136.531C318.646 136.062 318.061 135.409 317.649 134.571C317.242 133.728 317.038 132.748 317.038 131.631C317.038 130.513 317.242 129.528 317.649 128.676C318.061 127.819 318.634 127.152 319.368 126.673C320.107 126.19 320.968 125.949 321.953 125.949C322.521 125.949 323.082 126.044 323.636 126.233C324.19 126.422 324.695 126.73 325.149 127.156C325.604 127.578 325.966 128.136 326.236 128.832C326.506 129.528 326.641 130.385 326.641 131.403V132.114H318.232V130.665H324.936C324.936 130.049 324.813 129.5 324.567 129.017C324.325 128.534 323.98 128.153 323.53 127.874C323.085 127.594 322.559 127.455 321.953 127.455C321.286 127.455 320.708 127.62 320.22 127.952C319.737 128.278 319.366 128.705 319.105 129.23C318.845 129.756 318.714 130.319 318.714 130.92V131.886C318.714 132.71 318.857 133.409 319.141 133.982C319.429 134.55 319.83 134.983 320.341 135.281C320.852 135.575 321.446 135.722 322.124 135.722C322.564 135.722 322.962 135.66 323.317 135.537C323.677 135.409 323.987 135.22 324.247 134.969C324.508 134.713 324.709 134.396 324.851 134.017L326.47 134.472C326.3 135.021 326.013 135.504 325.611 135.92C325.208 136.332 324.711 136.654 324.119 136.886C323.527 137.114 322.862 137.227 322.124 137.227ZM333.248 126.091V127.511H327.368V126.091H333.248ZM329.129 137V124.585C329.129 123.96 329.276 123.439 329.569 123.023C329.863 122.606 330.244 122.294 330.713 122.085C331.182 121.877 331.676 121.773 332.197 121.773C332.609 121.773 332.945 121.806 333.206 121.872C333.466 121.938 333.66 122 333.788 122.057L333.305 123.506C333.22 123.477 333.102 123.442 332.95 123.399C332.803 123.357 332.609 123.335 332.368 123.335C331.814 123.335 331.414 123.475 331.167 123.754C330.926 124.034 330.805 124.443 330.805 124.983V137H329.129ZM334.797 137V126.091H336.474V137H334.797ZM335.65 124.273C335.323 124.273 335.041 124.161 334.804 123.939C334.572 123.716 334.456 123.449 334.456 123.136C334.456 122.824 334.572 122.556 334.804 122.334C335.041 122.111 335.323 122 335.65 122C335.976 122 336.256 122.111 336.488 122.334C336.724 122.556 336.843 122.824 336.843 123.136C336.843 123.449 336.724 123.716 336.488 123.939C336.256 124.161 335.976 124.273 335.65 124.273ZM340.42 130.438V137H338.743V126.091H340.363V127.795H340.505C340.761 127.241 341.149 126.796 341.67 126.46C342.19 126.119 342.863 125.949 343.687 125.949C344.425 125.949 345.072 126.1 345.626 126.403C346.18 126.702 346.61 127.156 346.918 127.767C347.226 128.373 347.38 129.14 347.38 130.068V137H345.704V130.182C345.704 129.325 345.481 128.657 345.036 128.179C344.591 127.696 343.98 127.455 343.204 127.455C342.669 127.455 342.19 127.571 341.769 127.803C341.352 128.035 341.023 128.373 340.782 128.818C340.54 129.263 340.42 129.803 340.42 130.438ZM354.217 137.227C353.165 137.227 352.259 136.995 351.496 136.531C350.739 136.062 350.154 135.409 349.742 134.571C349.335 133.728 349.131 132.748 349.131 131.631C349.131 130.513 349.335 129.528 349.742 128.676C350.154 127.819 350.727 127.152 351.461 126.673C352.2 126.19 353.061 125.949 354.046 125.949C354.614 125.949 355.175 126.044 355.729 126.233C356.283 126.422 356.788 126.73 357.242 127.156C357.697 127.578 358.059 128.136 358.329 128.832C358.599 129.528 358.734 130.385 358.734 131.403V132.114H350.325V130.665H357.029C357.029 130.049 356.906 129.5 356.66 129.017C356.418 128.534 356.073 128.153 355.623 127.874C355.178 127.594 354.652 127.455 354.046 127.455C353.378 127.455 352.801 127.62 352.313 127.952C351.83 128.278 351.459 128.705 351.198 129.23C350.938 129.756 350.807 130.319 350.807 130.92V131.886C350.807 132.71 350.95 133.409 351.234 133.982C351.522 134.55 351.923 134.983 352.434 135.281C352.945 135.575 353.539 135.722 354.217 135.722C354.657 135.722 355.055 135.66 355.41 135.537C355.77 135.409 356.08 135.22 356.34 134.969C356.601 134.713 356.802 134.396 356.944 134.017L358.563 134.472C358.393 135.021 358.106 135.504 357.704 135.92C357.301 136.332 356.804 136.654 356.212 136.886C355.62 137.114 354.955 137.227 354.217 137.227ZM365.536 137V122.455H370.45C371.587 122.455 372.519 122.649 373.249 123.037C373.978 123.42 374.518 123.948 374.868 124.621C375.218 125.293 375.394 126.058 375.394 126.915C375.394 127.772 375.218 128.532 374.868 129.195C374.518 129.857 373.98 130.378 373.256 130.757C372.531 131.131 371.606 131.318 370.479 131.318H366.502V129.727H370.422C371.198 129.727 371.823 129.614 372.297 129.386C372.775 129.159 373.121 128.837 373.334 128.42C373.552 127.999 373.661 127.497 373.661 126.915C373.661 126.332 373.552 125.823 373.334 125.388C373.116 124.952 372.768 124.616 372.29 124.379C371.812 124.138 371.18 124.017 370.394 124.017H367.297V137H365.536ZM372.382 130.466L375.962 137H373.916L370.394 130.466H372.382ZM384.176 132.54V126.091H385.852V137H384.176V135.153H384.063C383.807 135.707 383.409 136.179 382.869 136.567C382.33 136.95 381.648 137.142 380.824 137.142C380.142 137.142 379.536 136.993 379.006 136.695C378.476 136.392 378.059 135.937 377.756 135.331C377.453 134.72 377.301 133.951 377.301 133.023V126.091H378.977V132.909C378.977 133.705 379.2 134.339 379.645 134.812C380.095 135.286 380.668 135.523 381.364 135.523C381.78 135.523 382.204 135.416 382.635 135.203C383.071 134.99 383.435 134.663 383.729 134.223C384.027 133.783 384.176 133.222 384.176 132.54ZM389.799 122.455V137H388.122V122.455H389.799ZM396.642 137.227C395.591 137.227 394.684 136.995 393.922 136.531C393.165 136.062 392.58 135.409 392.168 134.571C391.761 133.728 391.557 132.748 391.557 131.631C391.557 130.513 391.761 129.528 392.168 128.676C392.58 127.819 393.153 127.152 393.887 126.673C394.625 126.19 395.487 125.949 396.472 125.949C397.04 125.949 397.601 126.044 398.155 126.233C398.709 126.422 399.213 126.73 399.668 127.156C400.122 127.578 400.485 128.136 400.755 128.832C401.024 129.528 401.159 130.385 401.159 131.403V132.114H392.75V130.665H399.455C399.455 130.049 399.332 129.5 399.085 129.017C398.844 128.534 398.498 128.153 398.049 127.874C397.603 127.594 397.078 127.455 396.472 127.455C395.804 127.455 395.227 127.62 394.739 127.952C394.256 128.278 393.884 128.705 393.624 129.23C393.363 129.756 393.233 130.319 393.233 130.92V131.886C393.233 132.71 393.375 133.409 393.659 133.982C393.948 134.55 394.348 134.983 394.86 135.281C395.371 135.575 395.965 135.722 396.642 135.722C397.083 135.722 397.48 135.66 397.835 135.537C398.195 135.409 398.505 135.22 398.766 134.969C399.026 134.713 399.228 134.396 399.37 134.017L400.989 134.472C400.818 135.021 400.532 135.504 400.13 135.92C399.727 136.332 399.23 136.654 398.638 136.886C398.046 137.114 397.381 137.227 396.642 137.227ZM410.636 128.534L409.131 128.96C409.036 128.709 408.896 128.465 408.712 128.229C408.532 127.987 408.286 127.788 407.973 127.632C407.661 127.476 407.26 127.398 406.773 127.398C406.105 127.398 405.549 127.552 405.104 127.859C404.663 128.162 404.443 128.548 404.443 129.017C404.443 129.434 404.595 129.763 404.898 130.004C405.201 130.246 405.674 130.447 406.318 130.608L407.938 131.006C408.913 131.242 409.64 131.605 410.118 132.092C410.596 132.575 410.835 133.198 410.835 133.96C410.835 134.585 410.655 135.144 410.295 135.636C409.94 136.129 409.443 136.517 408.804 136.801C408.165 137.085 407.421 137.227 406.574 137.227C405.461 137.227 404.54 136.986 403.811 136.503C403.082 136.02 402.62 135.314 402.426 134.386L404.017 133.989C404.169 134.576 404.455 135.016 404.876 135.31C405.303 135.603 405.859 135.75 406.545 135.75C407.327 135.75 407.947 135.584 408.406 135.253C408.87 134.917 409.102 134.514 409.102 134.045C409.102 133.667 408.97 133.349 408.705 133.094C408.439 132.833 408.032 132.639 407.483 132.511L405.665 132.085C404.666 131.848 403.932 131.482 403.463 130.984C402.999 130.482 402.767 129.855 402.767 129.102C402.767 128.487 402.94 127.942 403.286 127.469C403.636 126.995 404.112 126.624 404.713 126.354C405.319 126.084 406.006 125.949 406.773 125.949C407.852 125.949 408.7 126.186 409.315 126.659C409.936 127.133 410.376 127.758 410.636 128.534Z" fill="black"/>
<path d="M245.066 181.378C245.197 181.246 245.376 181.172 245.562 181.172C245.749 181.172 245.927 181.246 246.059 181.378L253.297 188.614V169.687C253.297 169.501 253.371 169.322 253.503 169.19C253.635 169.058 253.813 168.984 254 168.984C254.186 168.984 254.365 169.058 254.497 169.19C254.629 169.322 254.703 169.501 254.703 169.687V188.614L261.941 181.378C262.074 181.254 262.25 181.186 262.432 181.189C262.614 181.192 262.788 181.266 262.917 181.395C263.046 181.524 263.12 181.698 263.123 181.88C263.126 182.062 263.059 182.238 262.934 182.372L254.497 190.809C254.365 190.941 254.186 191.015 254 191.015C253.814 191.015 253.635 190.941 253.503 190.809L245.066 182.372C244.934 182.24 244.86 182.061 244.86 181.875C244.86 181.688 244.934 181.51 245.066 181.378Z" fill="#11256D"/>
<rect x="5" y="201" width="498" height="58" rx="4" fill="white" stroke="#11256D" stroke-width="2"/>
<path d="M140.358 222.455L144.676 234.699H144.847L149.165 222.455H151.011L145.67 237H143.852L138.511 222.455H140.358ZM154.444 237.256C153.753 237.256 153.126 237.125 152.562 236.865C151.999 236.6 151.551 236.219 151.22 235.722C150.888 235.22 150.723 234.614 150.723 233.903C150.723 233.278 150.846 232.772 151.092 232.384C151.338 231.991 151.667 231.683 152.079 231.46C152.491 231.238 152.946 231.072 153.443 230.963C153.945 230.849 154.449 230.759 154.956 230.693C155.619 230.608 156.156 230.544 156.568 230.501C156.985 230.454 157.288 230.376 157.477 230.267C157.671 230.158 157.768 229.969 157.768 229.699V229.642C157.768 228.941 157.576 228.397 157.193 228.009C156.814 227.62 156.239 227.426 155.467 227.426C154.667 227.426 154.039 227.601 153.585 227.952C153.13 228.302 152.811 228.676 152.626 229.074L151.035 228.506C151.319 227.843 151.698 227.327 152.172 226.957C152.65 226.583 153.171 226.323 153.734 226.176C154.302 226.025 154.861 225.949 155.41 225.949C155.761 225.949 156.163 225.991 156.618 226.077C157.077 226.157 157.52 226.325 157.946 226.581C158.377 226.837 158.734 227.223 159.018 227.739C159.302 228.255 159.444 228.946 159.444 229.812V237H157.768V235.523H157.683C157.569 235.759 157.38 236.013 157.115 236.283C156.85 236.553 156.497 236.782 156.057 236.972C155.616 237.161 155.079 237.256 154.444 237.256ZM154.7 235.75C155.363 235.75 155.922 235.62 156.376 235.359C156.835 235.099 157.181 234.763 157.413 234.351C157.65 233.939 157.768 233.506 157.768 233.051V231.517C157.697 231.602 157.541 231.68 157.299 231.751C157.063 231.818 156.788 231.877 156.476 231.929C156.168 231.976 155.867 232.019 155.574 232.057C155.285 232.09 155.05 232.118 154.87 232.142C154.435 232.199 154.028 232.291 153.649 232.419C153.275 232.542 152.972 232.729 152.74 232.98C152.512 233.226 152.399 233.562 152.399 233.989C152.399 234.571 152.614 235.011 153.045 235.31C153.481 235.603 154.032 235.75 154.7 235.75ZM163.38 222.455V237H161.704V222.455H163.38ZM165.65 237V226.091H167.326V237H165.65ZM166.502 224.273C166.175 224.273 165.894 224.161 165.657 223.939C165.425 223.716 165.309 223.449 165.309 223.136C165.309 222.824 165.425 222.556 165.657 222.334C165.894 222.111 166.175 222 166.502 222C166.829 222 167.108 222.111 167.34 222.334C167.577 222.556 167.695 222.824 167.695 223.136C167.695 223.449 167.577 223.716 167.34 223.939C167.108 224.161 166.829 224.273 166.502 224.273ZM173.715 237.227C172.806 237.227 172.003 236.998 171.307 236.538C170.611 236.074 170.067 235.421 169.674 234.578C169.281 233.731 169.084 232.729 169.084 231.574C169.084 230.428 169.281 229.434 169.674 228.591C170.067 227.748 170.614 227.097 171.315 226.638C172.015 226.179 172.825 225.949 173.744 225.949C174.454 225.949 175.015 226.067 175.427 226.304C175.843 226.536 176.161 226.801 176.378 227.099C176.601 227.393 176.774 227.634 176.897 227.824H177.039V222.455H178.715V237H177.096V235.324H176.897C176.774 235.523 176.599 235.774 176.371 236.077C176.144 236.375 175.82 236.643 175.398 236.879C174.977 237.111 174.416 237.227 173.715 237.227ZM173.942 235.722C174.615 235.722 175.183 235.546 175.647 235.196C176.111 234.841 176.464 234.351 176.705 233.726C176.947 233.096 177.067 232.369 177.067 231.545C177.067 230.731 176.949 230.018 176.712 229.408C176.476 228.792 176.125 228.314 175.661 227.973C175.197 227.627 174.624 227.455 173.942 227.455C173.232 227.455 172.64 227.637 172.167 228.001C171.698 228.361 171.345 228.851 171.109 229.472C170.877 230.087 170.761 230.778 170.761 231.545C170.761 232.322 170.879 233.027 171.116 233.662C171.357 234.292 171.712 234.794 172.181 235.168C172.655 235.537 173.242 235.722 173.942 235.722ZM184.428 237.256C183.737 237.256 183.109 237.125 182.546 236.865C181.982 236.6 181.535 236.219 181.203 235.722C180.872 235.22 180.706 234.614 180.706 233.903C180.706 233.278 180.829 232.772 181.076 232.384C181.322 231.991 181.651 231.683 182.063 231.46C182.475 231.238 182.929 231.072 183.426 230.963C183.928 230.849 184.433 230.759 184.939 230.693C185.602 230.608 186.14 230.544 186.551 230.501C186.968 230.454 187.271 230.376 187.461 230.267C187.655 230.158 187.752 229.969 187.752 229.699V229.642C187.752 228.941 187.56 228.397 187.176 228.009C186.798 227.62 186.222 227.426 185.451 227.426C184.65 227.426 184.023 227.601 183.569 227.952C183.114 228.302 182.794 228.676 182.61 229.074L181.019 228.506C181.303 227.843 181.682 227.327 182.155 226.957C182.633 226.583 183.154 226.323 183.718 226.176C184.286 226.025 184.845 225.949 185.394 225.949C185.744 225.949 186.147 225.991 186.601 226.077C187.06 226.157 187.503 226.325 187.929 226.581C188.36 226.837 188.718 227.223 189.002 227.739C189.286 228.255 189.428 228.946 189.428 229.812V237H187.752V235.523H187.667C187.553 235.759 187.364 236.013 187.098 236.283C186.833 236.553 186.48 236.782 186.04 236.972C185.6 237.161 185.062 237.256 184.428 237.256ZM184.684 235.75C185.346 235.75 185.905 235.62 186.36 235.359C186.819 235.099 187.165 234.763 187.397 234.351C187.633 233.939 187.752 233.506 187.752 233.051V231.517C187.681 231.602 187.525 231.68 187.283 231.751C187.046 231.818 186.772 231.877 186.459 231.929C186.151 231.976 185.851 232.019 185.557 232.057C185.268 232.09 185.034 232.118 184.854 232.142C184.418 232.199 184.011 232.291 183.632 232.419C183.258 232.542 182.955 232.729 182.723 232.98C182.496 233.226 182.382 233.562 182.382 233.989C182.382 234.571 182.598 235.011 183.029 235.31C183.464 235.603 184.016 235.75 184.684 235.75ZM196.432 226.091V227.511H190.778V226.091H196.432ZM192.426 223.477H194.102V233.875C194.102 234.348 194.171 234.704 194.308 234.94C194.45 235.172 194.63 235.329 194.848 235.409C195.07 235.485 195.305 235.523 195.551 235.523C195.736 235.523 195.887 235.513 196.005 235.494C196.124 235.471 196.218 235.452 196.289 235.438L196.63 236.943C196.517 236.986 196.358 237.028 196.155 237.071C195.951 237.118 195.693 237.142 195.38 237.142C194.907 237.142 194.443 237.04 193.988 236.837C193.539 236.633 193.164 236.323 192.866 235.906C192.573 235.49 192.426 234.964 192.426 234.33V223.477ZM202.61 237.227C201.558 237.227 200.652 236.995 199.889 236.531C199.132 236.062 198.547 235.409 198.135 234.571C197.728 233.728 197.524 232.748 197.524 231.631C197.524 230.513 197.728 229.528 198.135 228.676C198.547 227.819 199.12 227.152 199.854 226.673C200.592 226.19 201.454 225.949 202.439 225.949C203.007 225.949 203.568 226.044 204.122 226.233C204.676 226.422 205.181 226.73 205.635 227.156C206.09 227.578 206.452 228.136 206.722 228.832C206.992 229.528 207.127 230.385 207.127 231.403V232.114H198.717V230.665H205.422C205.422 230.049 205.299 229.5 205.053 229.017C204.811 228.534 204.466 228.153 204.016 227.874C203.571 227.594 203.045 227.455 202.439 227.455C201.771 227.455 201.194 227.62 200.706 227.952C200.223 228.278 199.851 228.705 199.591 229.23C199.331 229.756 199.2 230.319 199.2 230.92V231.886C199.2 232.71 199.342 233.409 199.627 233.982C199.915 234.55 200.315 234.983 200.827 235.281C201.338 235.575 201.932 235.722 202.61 235.722C203.05 235.722 203.448 235.66 203.803 235.537C204.163 235.409 204.473 235.22 204.733 234.969C204.994 234.713 205.195 234.396 205.337 234.017L206.956 234.472C206.786 235.021 206.499 235.504 206.097 235.92C205.694 236.332 205.197 236.654 204.605 236.886C204.013 237.114 203.348 237.227 202.61 237.227ZM213.929 222.455H216.031L220.974 234.528H221.144L226.088 222.455H228.19V237H226.542V225.949H226.4L221.855 237H220.264L215.718 225.949H215.576V237H213.929V222.455ZM235.126 237.227C234.141 237.227 233.277 236.993 232.534 236.524C231.795 236.055 231.217 235.4 230.801 234.557C230.389 233.714 230.183 232.729 230.183 231.602C230.183 230.466 230.389 229.474 230.801 228.626C231.217 227.779 231.795 227.121 232.534 226.652C233.277 226.183 234.141 225.949 235.126 225.949C236.111 225.949 236.973 226.183 237.711 226.652C238.455 227.121 239.032 227.779 239.444 228.626C239.861 229.474 240.069 230.466 240.069 231.602C240.069 232.729 239.861 233.714 239.444 234.557C239.032 235.4 238.455 236.055 237.711 236.524C236.973 236.993 236.111 237.227 235.126 237.227ZM235.126 235.722C235.874 235.722 236.49 235.53 236.973 235.146C237.456 234.763 237.813 234.259 238.045 233.634C238.277 233.009 238.393 232.331 238.393 231.602C238.393 230.873 238.277 230.194 238.045 229.564C237.813 228.934 237.456 228.425 236.973 228.037C236.49 227.649 235.874 227.455 235.126 227.455C234.378 227.455 233.762 227.649 233.279 228.037C232.797 228.425 232.439 228.934 232.207 229.564C231.975 230.194 231.859 230.873 231.859 231.602C231.859 232.331 231.975 233.009 232.207 233.634C232.439 234.259 232.797 234.763 233.279 235.146C233.762 235.53 234.378 235.722 235.126 235.722ZM245.947 237.227C245.038 237.227 244.236 236.998 243.539 236.538C242.843 236.074 242.299 235.421 241.906 234.578C241.513 233.731 241.316 232.729 241.316 231.574C241.316 230.428 241.513 229.434 241.906 228.591C242.299 227.748 242.846 227.097 243.547 226.638C244.247 226.179 245.057 225.949 245.976 225.949C246.686 225.949 247.247 226.067 247.659 226.304C248.075 226.536 248.393 226.801 248.611 227.099C248.833 227.393 249.006 227.634 249.129 227.824H249.271V222.455H250.947V237H249.328V235.324H249.129C249.006 235.523 248.831 235.774 248.603 236.077C248.376 236.375 248.052 236.643 247.63 236.879C247.209 237.111 246.648 237.227 245.947 237.227ZM246.174 235.722C246.847 235.722 247.415 235.546 247.879 235.196C248.343 234.841 248.696 234.351 248.937 233.726C249.179 233.096 249.299 232.369 249.299 231.545C249.299 230.731 249.181 230.018 248.944 229.408C248.708 228.792 248.357 228.314 247.893 227.973C247.429 227.627 246.856 227.455 246.174 227.455C245.464 227.455 244.872 227.637 244.399 228.001C243.93 228.361 243.577 228.851 243.341 229.472C243.109 230.087 242.993 230.778 242.993 231.545C242.993 232.322 243.111 233.027 243.348 233.662C243.589 234.292 243.944 234.794 244.413 235.168C244.887 235.537 245.474 235.722 246.174 235.722ZM258.024 237.227C256.972 237.227 256.066 236.995 255.303 236.531C254.546 236.062 253.961 235.409 253.549 234.571C253.142 233.728 252.938 232.748 252.938 231.631C252.938 230.513 253.142 229.528 253.549 228.676C253.961 227.819 254.534 227.152 255.268 226.673C256.007 226.19 256.868 225.949 257.853 225.949C258.421 225.949 258.982 226.044 259.536 226.233C260.09 226.422 260.595 226.73 261.049 227.156C261.504 227.578 261.866 228.136 262.136 228.832C262.406 229.528 262.541 230.385 262.541 231.403V232.114H254.132V230.665H260.836C260.836 230.049 260.713 229.5 260.467 229.017C260.225 228.534 259.88 228.153 259.43 227.874C258.985 227.594 258.459 227.455 257.853 227.455C257.186 227.455 256.608 227.62 256.12 227.952C255.637 228.278 255.266 228.705 255.005 229.23C254.745 229.756 254.614 230.319 254.614 230.92V231.886C254.614 232.71 254.757 233.409 255.041 233.982C255.329 234.55 255.73 234.983 256.241 235.281C256.752 235.575 257.346 235.722 258.024 235.722C258.464 235.722 258.862 235.66 259.217 235.537C259.577 235.409 259.887 235.22 260.147 234.969C260.408 234.713 260.609 234.396 260.751 234.017L262.37 234.472C262.2 235.021 261.913 235.504 261.511 235.92C261.108 236.332 260.611 236.654 260.019 236.886C259.427 237.114 258.762 237.227 258.024 237.227ZM265.966 222.455V237H264.29V222.455H265.966ZM273.289 237V222.455H278.203C279.345 222.455 280.277 222.661 281.002 223.072C281.731 223.48 282.271 224.031 282.621 224.727C282.971 225.423 283.147 226.2 283.147 227.057C283.147 227.914 282.971 228.693 282.621 229.393C282.275 230.094 281.74 230.653 281.016 231.07C280.292 231.482 279.364 231.688 278.232 231.688H274.709V230.125H278.175C278.956 230.125 279.584 229.99 280.057 229.72C280.531 229.45 280.874 229.086 281.087 228.626C281.305 228.162 281.414 227.639 281.414 227.057C281.414 226.474 281.305 225.954 281.087 225.494C280.874 225.035 280.528 224.675 280.05 224.415C279.572 224.15 278.937 224.017 278.147 224.017H275.05V237H273.289ZM284.957 237V226.091H286.576V227.739H286.69C286.889 227.199 287.248 226.761 287.769 226.425C288.29 226.089 288.877 225.92 289.531 225.92C289.654 225.92 289.808 225.923 289.992 225.928C290.177 225.932 290.317 225.939 290.411 225.949V227.653C290.354 227.639 290.224 227.618 290.021 227.589C289.822 227.556 289.611 227.54 289.389 227.54C288.858 227.54 288.385 227.651 287.968 227.874C287.556 228.091 287.229 228.394 286.988 228.783C286.751 229.166 286.633 229.604 286.633 230.097V237H284.957ZM295.84 237.227C294.789 237.227 293.882 236.995 293.12 236.531C292.362 236.062 291.777 235.409 291.366 234.571C290.958 233.728 290.755 232.748 290.755 231.631C290.755 230.513 290.958 229.528 291.366 228.676C291.777 227.819 292.35 227.152 293.084 226.673C293.823 226.19 294.685 225.949 295.67 225.949C296.238 225.949 296.799 226.044 297.353 226.233C297.907 226.422 298.411 226.73 298.866 227.156C299.32 227.578 299.682 228.136 299.952 228.832C300.222 229.528 300.357 230.385 300.357 231.403V232.114H291.948V230.665H298.652C298.652 230.049 298.529 229.5 298.283 229.017C298.042 228.534 297.696 228.153 297.246 227.874C296.801 227.594 296.276 227.455 295.67 227.455C295.002 227.455 294.424 227.62 293.937 227.952C293.454 228.278 293.082 228.705 292.822 229.23C292.561 229.756 292.431 230.319 292.431 230.92V231.886C292.431 232.71 292.573 233.409 292.857 233.982C293.146 234.55 293.546 234.983 294.057 235.281C294.569 235.575 295.163 235.722 295.84 235.722C296.28 235.722 296.678 235.66 297.033 235.537C297.393 235.409 297.703 235.22 297.964 234.969C298.224 234.713 298.425 234.396 298.567 234.017L300.187 234.472C300.016 235.021 299.73 235.504 299.327 235.92C298.925 236.332 298.428 236.654 297.836 236.886C297.244 237.114 296.579 237.227 295.84 237.227ZM306.226 237.227C305.317 237.227 304.514 236.998 303.818 236.538C303.122 236.074 302.578 235.421 302.185 234.578C301.792 233.731 301.595 232.729 301.595 231.574C301.595 230.428 301.792 229.434 302.185 228.591C302.578 227.748 303.125 227.097 303.826 226.638C304.526 226.179 305.336 225.949 306.254 225.949C306.965 225.949 307.526 226.067 307.938 226.304C308.354 226.536 308.672 226.801 308.889 227.099C309.112 227.393 309.285 227.634 309.408 227.824H309.55V222.455H311.226V237H309.607V235.324H309.408C309.285 235.523 309.11 235.774 308.882 236.077C308.655 236.375 308.331 236.643 307.909 236.879C307.488 237.111 306.927 237.227 306.226 237.227ZM306.453 235.722C307.126 235.722 307.694 235.546 308.158 235.196C308.622 234.841 308.975 234.351 309.216 233.726C309.458 233.096 309.578 232.369 309.578 231.545C309.578 230.731 309.46 230.018 309.223 229.408C308.986 228.792 308.636 228.314 308.172 227.973C307.708 227.627 307.135 227.455 306.453 227.455C305.743 227.455 305.151 227.637 304.678 228.001C304.209 228.361 303.856 228.851 303.62 229.472C303.388 230.087 303.272 230.778 303.272 231.545C303.272 232.322 303.39 233.027 303.627 233.662C303.868 234.292 304.223 234.794 304.692 235.168C305.165 235.537 305.753 235.722 306.453 235.722ZM313.729 237V226.091H315.405V237H313.729ZM314.581 224.273C314.254 224.273 313.972 224.161 313.736 223.939C313.504 223.716 313.388 223.449 313.388 223.136C313.388 222.824 313.504 222.556 313.736 222.334C313.972 222.111 314.254 222 314.581 222C314.908 222 315.187 222.111 315.419 222.334C315.656 222.556 315.774 222.824 315.774 223.136C315.774 223.449 315.656 223.716 315.419 223.939C315.187 224.161 314.908 224.273 314.581 224.273ZM322.107 237.227C321.084 237.227 320.203 236.986 319.464 236.503C318.726 236.02 318.158 235.355 317.76 234.507C317.362 233.66 317.163 232.691 317.163 231.602C317.163 230.494 317.367 229.517 317.774 228.669C318.186 227.817 318.759 227.152 319.493 226.673C320.232 226.19 321.093 225.949 322.078 225.949C322.845 225.949 323.536 226.091 324.152 226.375C324.768 226.659 325.272 227.057 325.665 227.568C326.058 228.08 326.302 228.676 326.396 229.358H324.72C324.592 228.861 324.308 228.42 323.868 228.037C323.432 227.649 322.845 227.455 322.107 227.455C321.453 227.455 320.88 227.625 320.388 227.966C319.9 228.302 319.519 228.778 319.244 229.393C318.974 230.004 318.839 230.722 318.839 231.545C318.839 232.388 318.972 233.122 319.237 233.747C319.507 234.372 319.886 234.857 320.374 235.203C320.866 235.549 321.444 235.722 322.107 235.722C322.542 235.722 322.938 235.646 323.293 235.494C323.648 235.343 323.948 235.125 324.195 234.841C324.441 234.557 324.616 234.216 324.72 233.818H326.396C326.302 234.462 326.067 235.042 325.693 235.558C325.324 236.07 324.834 236.477 324.223 236.78C323.617 237.078 322.911 237.227 322.107 237.227ZM332.791 226.091V227.511H327.137V226.091H332.791ZM328.785 223.477H330.461V233.875C330.461 234.348 330.53 234.704 330.667 234.94C330.809 235.172 330.989 235.329 331.207 235.409C331.43 235.485 331.664 235.523 331.91 235.523C332.095 235.523 332.246 235.513 332.365 235.494C332.483 235.471 332.578 235.452 332.649 235.438L332.99 236.943C332.876 236.986 332.718 237.028 332.514 237.071C332.31 237.118 332.052 237.142 331.74 237.142C331.266 237.142 330.802 237.04 330.348 236.837C329.898 236.633 329.524 236.323 329.226 235.906C328.932 235.49 328.785 234.964 328.785 234.33V223.477ZM334.512 237V226.091H336.188V237H334.512ZM335.364 224.273C335.038 224.273 334.756 224.161 334.519 223.939C334.287 223.716 334.171 223.449 334.171 223.136C334.171 222.824 334.287 222.556 334.519 222.334C334.756 222.111 335.038 222 335.364 222C335.691 222 335.971 222.111 336.203 222.334C336.439 222.556 336.558 222.824 336.558 223.136C336.558 223.449 336.439 223.716 336.203 223.939C335.971 224.161 335.691 224.273 335.364 224.273ZM342.89 237.227C341.905 237.227 341.041 236.993 340.298 236.524C339.559 236.055 338.982 235.4 338.565 234.557C338.153 233.714 337.947 232.729 337.947 231.602C337.947 230.466 338.153 229.474 338.565 228.626C338.982 227.779 339.559 227.121 340.298 226.652C341.041 226.183 341.905 225.949 342.89 225.949C343.875 225.949 344.737 226.183 345.475 226.652C346.219 227.121 346.796 227.779 347.208 228.626C347.625 229.474 347.833 230.466 347.833 231.602C347.833 232.729 347.625 233.714 347.208 234.557C346.796 235.4 346.219 236.055 345.475 236.524C344.737 236.993 343.875 237.227 342.89 237.227ZM342.89 235.722C343.638 235.722 344.254 235.53 344.737 235.146C345.22 234.763 345.577 234.259 345.809 233.634C346.041 233.009 346.157 232.331 346.157 231.602C346.157 230.873 346.041 230.194 345.809 229.564C345.577 228.934 345.22 228.425 344.737 228.037C344.254 227.649 343.638 227.455 342.89 227.455C342.142 227.455 341.526 227.649 341.044 228.037C340.561 228.425 340.203 228.934 339.971 229.564C339.739 230.194 339.623 230.873 339.623 231.602C339.623 232.331 339.739 233.009 339.971 233.634C340.203 234.259 340.561 234.763 341.044 235.146C341.526 235.53 342.142 235.722 342.89 235.722ZM351.268 230.438V237H349.592V226.091H351.211V227.795H351.353C351.609 227.241 351.997 226.796 352.518 226.46C353.039 226.119 353.711 225.949 354.535 225.949C355.274 225.949 355.92 226.1 356.474 226.403C357.028 226.702 357.459 227.156 357.767 227.767C358.074 228.373 358.228 229.14 358.228 230.068V237H356.552V230.182C356.552 229.325 356.33 228.657 355.885 228.179C355.439 227.696 354.829 227.455 354.052 227.455C353.517 227.455 353.039 227.571 352.617 227.803C352.201 228.035 351.872 228.373 351.63 228.818C351.389 229.263 351.268 229.803 351.268 230.438ZM368.218 228.534L366.713 228.96C366.618 228.709 366.478 228.465 366.294 228.229C366.114 227.987 365.868 227.788 365.555 227.632C365.243 227.476 364.842 227.398 364.355 227.398C363.687 227.398 363.131 227.552 362.686 227.859C362.245 228.162 362.025 228.548 362.025 229.017C362.025 229.434 362.177 229.763 362.48 230.004C362.783 230.246 363.256 230.447 363.9 230.608L365.52 231.006C366.495 231.242 367.222 231.605 367.7 232.092C368.178 232.575 368.417 233.198 368.417 233.96C368.417 234.585 368.237 235.144 367.877 235.636C367.522 236.129 367.025 236.517 366.386 236.801C365.747 237.085 365.003 237.227 364.156 237.227C363.043 237.227 362.122 236.986 361.393 236.503C360.664 236.02 360.202 235.314 360.008 234.386L361.599 233.989C361.751 234.576 362.037 235.016 362.458 235.31C362.885 235.603 363.441 235.75 364.127 235.75C364.909 235.75 365.529 235.584 365.988 235.253C366.452 234.917 366.684 234.514 366.684 234.045C366.684 233.667 366.552 233.349 366.287 233.094C366.021 232.833 365.614 232.639 365.065 232.511L363.247 232.085C362.248 231.848 361.514 231.482 361.045 230.984C360.581 230.482 360.349 229.855 360.349 229.102C360.349 228.487 360.522 227.942 360.868 227.469C361.218 226.995 361.694 226.624 362.295 226.354C362.901 226.084 363.588 225.949 364.355 225.949C365.434 225.949 366.282 226.186 366.897 226.659C367.518 227.133 367.958 227.758 368.218 228.534Z" fill="black"/>
<path d="M245.066 281.378C245.197 281.246 245.376 281.172 245.562 281.172C245.749 281.172 245.927 281.246 246.059 281.378L253.297 288.614V269.687C253.297 269.501 253.371 269.322 253.503 269.19C253.635 269.058 253.813 268.984 254 268.984C254.186 268.984 254.365 269.058 254.497 269.19C254.629 269.322 254.703 269.501 254.703 269.687V288.614L261.941 281.378C262.074 281.254 262.25 281.186 262.432 281.189C262.614 281.192 262.788 281.266 262.917 281.395C263.046 281.524 263.12 281.698 263.123 281.88C263.126 282.062 263.059 282.238 262.934 282.372L254.497 290.809C254.365 290.941 254.186 291.015 254 291.015C253.814 291.015 253.635 290.941 253.503 290.809L245.066 282.372C244.934 282.24 244.86 282.061 244.86 281.875C244.86 281.688 244.934 281.51 245.066 281.378Z" fill="#11256D"/>
<rect x="5" y="301" width="498" height="58" rx="4" fill="white" stroke="#11256D" stroke-width="2"/>
<path d="M161.966 324.017V322.455H172.875V324.017H168.301V337H166.54V324.017H161.966ZM173.433 337V326.091H175.053V327.739H175.166C175.365 327.199 175.725 326.761 176.246 326.425C176.767 326.089 177.354 325.92 178.007 325.92C178.13 325.92 178.284 325.923 178.469 325.928C178.653 325.932 178.793 325.939 178.888 325.949V327.653C178.831 327.639 178.701 327.618 178.497 327.589C178.298 327.556 178.088 327.54 177.865 327.54C177.335 327.54 176.861 327.651 176.445 327.874C176.033 328.091 175.706 328.394 175.465 328.783C175.228 329.166 175.109 329.604 175.109 330.097V337H173.433ZM183.285 337.256C182.594 337.256 181.966 337.125 181.403 336.865C180.839 336.6 180.392 336.219 180.061 335.722C179.729 335.22 179.563 334.614 179.563 333.903C179.563 333.278 179.686 332.772 179.933 332.384C180.179 331.991 180.508 331.683 180.92 331.46C181.332 331.238 181.786 331.072 182.284 330.963C182.785 330.849 183.29 330.759 183.796 330.693C184.459 330.608 184.997 330.544 185.409 330.501C185.825 330.454 186.128 330.376 186.318 330.267C186.512 330.158 186.609 329.969 186.609 329.699V329.642C186.609 328.941 186.417 328.397 186.034 328.009C185.655 327.62 185.079 327.426 184.308 327.426C183.507 327.426 182.88 327.601 182.426 327.952C181.971 328.302 181.651 328.676 181.467 329.074L179.876 328.506C180.16 327.843 180.539 327.327 181.012 326.957C181.49 326.583 182.011 326.323 182.575 326.176C183.143 326.025 183.702 325.949 184.251 325.949C184.601 325.949 185.004 325.991 185.458 326.077C185.918 326.157 186.36 326.325 186.786 326.581C187.217 326.837 187.575 327.223 187.859 327.739C188.143 328.255 188.285 328.946 188.285 329.812V337H186.609V335.523H186.524C186.41 335.759 186.221 336.013 185.955 336.283C185.69 336.553 185.337 336.782 184.897 336.972C184.457 337.161 183.919 337.256 183.285 337.256ZM183.541 335.75C184.204 335.75 184.762 335.62 185.217 335.359C185.676 335.099 186.022 334.763 186.254 334.351C186.49 333.939 186.609 333.506 186.609 333.051V331.517C186.538 331.602 186.382 331.68 186.14 331.751C185.903 331.818 185.629 331.877 185.316 331.929C185.008 331.976 184.708 332.019 184.414 332.057C184.125 332.09 183.891 332.118 183.711 332.142C183.275 332.199 182.868 332.291 182.489 332.419C182.115 332.542 181.812 332.729 181.58 332.98C181.353 333.226 181.239 333.562 181.239 333.989C181.239 334.571 181.455 335.011 181.886 335.31C182.321 335.603 182.873 335.75 183.541 335.75ZM190.544 337V326.091H192.22V337H190.544ZM191.397 324.273C191.07 324.273 190.788 324.161 190.551 323.939C190.319 323.716 190.203 323.449 190.203 323.136C190.203 322.824 190.319 322.556 190.551 322.334C190.788 322.111 191.07 322 191.397 322C191.723 322 192.003 322.111 192.235 322.334C192.471 322.556 192.59 322.824 192.59 323.136C192.59 323.449 192.471 323.716 192.235 323.939C192.003 324.161 191.723 324.273 191.397 324.273ZM196.166 330.438V337H194.49V326.091H196.11V327.795H196.252C196.507 327.241 196.896 326.796 197.416 326.46C197.937 326.119 198.61 325.949 199.434 325.949C200.172 325.949 200.818 326.1 201.372 326.403C201.926 326.702 202.357 327.156 202.665 327.767C202.973 328.373 203.127 329.14 203.127 330.068V337H201.451V330.182C201.451 329.325 201.228 328.657 200.783 328.179C200.338 327.696 199.727 327.455 198.951 327.455C198.416 327.455 197.937 327.571 197.516 327.803C197.099 328.035 196.77 328.373 196.529 328.818C196.287 329.263 196.166 329.803 196.166 330.438ZM210.442 322.455H212.544L217.487 334.528H217.658L222.601 322.455H224.703V337H223.055V325.949H222.913L218.368 337H216.777L212.232 325.949H212.09V337H210.442V322.455ZM231.639 337.227C230.654 337.227 229.79 336.993 229.047 336.524C228.308 336.055 227.731 335.4 227.314 334.557C226.902 333.714 226.696 332.729 226.696 331.602C226.696 330.466 226.902 329.474 227.314 328.626C227.731 327.779 228.308 327.121 229.047 326.652C229.79 326.183 230.654 325.949 231.639 325.949C232.624 325.949 233.486 326.183 234.225 326.652C234.968 327.121 235.546 327.779 235.958 328.626C236.374 329.474 236.583 330.466 236.583 331.602C236.583 332.729 236.374 333.714 235.958 334.557C235.546 335.4 234.968 336.055 234.225 336.524C233.486 336.993 232.624 337.227 231.639 337.227ZM231.639 335.722C232.387 335.722 233.003 335.53 233.486 335.146C233.969 334.763 234.326 334.259 234.558 333.634C234.79 333.009 234.906 332.331 234.906 331.602C234.906 330.873 234.79 330.194 234.558 329.564C234.326 328.934 233.969 328.425 233.486 328.037C233.003 327.649 232.387 327.455 231.639 327.455C230.891 327.455 230.276 327.649 229.793 328.037C229.31 328.425 228.952 328.934 228.72 329.564C228.488 330.194 228.372 330.873 228.372 331.602C228.372 332.331 228.488 333.009 228.72 333.634C228.952 334.259 229.31 334.763 229.793 335.146C230.276 335.53 230.891 335.722 231.639 335.722ZM242.46 337.227C241.551 337.227 240.749 336.998 240.053 336.538C239.357 336.074 238.812 335.421 238.419 334.578C238.026 333.731 237.83 332.729 237.83 331.574C237.83 330.428 238.026 329.434 238.419 328.591C238.812 327.748 239.359 327.097 240.06 326.638C240.761 326.179 241.57 325.949 242.489 325.949C243.199 325.949 243.76 326.067 244.172 326.304C244.589 326.536 244.906 326.801 245.124 327.099C245.346 327.393 245.519 327.634 245.642 327.824H245.784V322.455H247.46V337H245.841V335.324H245.642C245.519 335.523 245.344 335.774 245.117 336.077C244.889 336.375 244.565 336.643 244.144 336.879C243.722 337.111 243.161 337.227 242.46 337.227ZM242.688 335.722C243.36 335.722 243.928 335.546 244.392 335.196C244.856 334.841 245.209 334.351 245.45 333.726C245.692 333.096 245.813 332.369 245.813 331.545C245.813 330.731 245.694 330.018 245.458 329.408C245.221 328.792 244.87 328.314 244.406 327.973C243.942 327.627 243.37 327.455 242.688 327.455C241.977 327.455 241.386 327.637 240.912 328.001C240.443 328.361 240.091 328.851 239.854 329.472C239.622 330.087 239.506 330.778 239.506 331.545C239.506 332.322 239.624 333.027 239.861 333.662C240.102 334.292 240.458 334.794 240.926 335.168C241.4 335.537 241.987 335.722 242.688 335.722ZM254.537 337.227C253.486 337.227 252.579 336.995 251.817 336.531C251.059 336.062 250.474 335.409 250.062 334.571C249.655 333.728 249.452 332.748 249.452 331.631C249.452 330.513 249.655 329.528 250.062 328.676C250.474 327.819 251.047 327.152 251.781 326.673C252.52 326.19 253.382 325.949 254.366 325.949C254.935 325.949 255.496 326.044 256.05 326.233C256.604 326.422 257.108 326.73 257.562 327.156C258.017 327.578 258.379 328.136 258.649 328.832C258.919 329.528 259.054 330.385 259.054 331.403V332.114H250.645V330.665H257.349C257.349 330.049 257.226 329.5 256.98 329.017C256.739 328.534 256.393 328.153 255.943 327.874C255.498 327.594 254.972 327.455 254.366 327.455C253.699 327.455 253.121 327.62 252.633 327.952C252.151 328.278 251.779 328.705 251.518 329.23C251.258 329.756 251.128 330.319 251.128 330.92V331.886C251.128 332.71 251.27 333.409 251.554 333.982C251.843 334.55 252.243 334.983 252.754 335.281C253.266 335.575 253.86 335.722 254.537 335.722C254.977 335.722 255.375 335.66 255.73 335.537C256.09 335.409 256.4 335.22 256.66 334.969C256.921 334.713 257.122 334.396 257.264 334.017L258.883 334.472C258.713 335.021 258.427 335.504 258.024 335.92C257.622 336.332 257.124 336.654 256.533 336.886C255.941 337.114 255.276 337.227 254.537 337.227ZM262.48 322.455V337H260.804V322.455H262.48ZM273.694 337.199C272.738 337.199 271.914 337.024 271.222 336.673C270.531 336.323 269.998 335.842 269.624 335.232C269.25 334.621 269.063 333.922 269.063 333.136C269.063 332.53 269.191 331.993 269.447 331.524C269.707 331.051 270.065 330.613 270.519 330.21C270.979 329.803 271.507 329.396 272.103 328.989L274.205 327.426C274.617 327.156 274.946 326.867 275.193 326.56C275.444 326.252 275.569 325.849 275.569 325.352C275.569 324.983 275.406 324.625 275.079 324.28C274.757 323.934 274.333 323.761 273.808 323.761C273.438 323.761 273.112 323.856 272.828 324.045C272.548 324.23 272.328 324.467 272.167 324.756C272.011 325.04 271.933 325.333 271.933 325.636C271.933 325.977 272.025 326.323 272.21 326.673C272.399 327.019 272.638 327.374 272.927 327.739C273.221 328.098 273.524 328.468 273.836 328.847L280.512 337H278.495L272.984 330.352C272.472 329.737 272.008 329.178 271.592 328.676C271.175 328.174 270.844 327.679 270.597 327.192C270.351 326.704 270.228 326.176 270.228 325.608C270.228 324.955 270.373 324.382 270.661 323.889C270.955 323.392 271.364 323.006 271.89 322.732C272.42 322.452 273.041 322.312 273.751 322.312C274.48 322.312 275.107 322.455 275.633 322.739C276.159 323.018 276.563 323.39 276.847 323.854C277.132 324.313 277.274 324.812 277.274 325.352C277.274 326.048 277.101 326.652 276.755 327.163C276.409 327.675 275.938 328.151 275.342 328.591L272.444 330.75C271.791 331.233 271.348 331.702 271.116 332.156C270.884 332.611 270.768 332.937 270.768 333.136C270.768 333.591 270.886 334.015 271.123 334.408C271.36 334.801 271.694 335.118 272.124 335.359C272.555 335.601 273.06 335.722 273.637 335.722C274.186 335.722 274.721 335.606 275.242 335.374C275.763 335.137 276.234 334.796 276.656 334.351C277.082 333.906 277.418 333.371 277.664 332.746C277.915 332.121 278.041 331.418 278.041 330.636H279.66C279.66 331.602 279.549 332.391 279.326 333.001C279.104 333.612 278.853 334.09 278.573 334.436C278.294 334.782 278.069 335.04 277.899 335.21C277.842 335.281 277.79 335.352 277.742 335.423C277.695 335.494 277.643 335.565 277.586 335.636C277.117 336.162 276.525 336.555 275.811 336.815C275.096 337.071 274.39 337.199 273.694 337.199ZM291.109 337H286.62V322.455H291.307C292.718 322.455 293.926 322.746 294.93 323.328C295.933 323.906 296.703 324.737 297.238 325.821C297.773 326.901 298.04 328.193 298.04 329.699C298.04 331.214 297.771 332.518 297.231 333.612C296.691 334.701 295.905 335.539 294.873 336.126C293.841 336.709 292.586 337 291.109 337ZM288.381 335.438H290.995C292.198 335.438 293.194 335.205 293.985 334.741C294.776 334.277 295.365 333.617 295.753 332.76C296.142 331.903 296.336 330.883 296.336 329.699C296.336 328.525 296.144 327.514 295.761 326.666C295.377 325.814 294.804 325.161 294.042 324.706C293.28 324.247 292.33 324.017 291.194 324.017H288.381V335.438ZM304.542 337.227C303.49 337.227 302.584 336.995 301.821 336.531C301.064 336.062 300.479 335.409 300.067 334.571C299.66 333.728 299.456 332.748 299.456 331.631C299.456 330.513 299.66 329.528 300.067 328.676C300.479 327.819 301.052 327.152 301.786 326.673C302.525 326.19 303.386 325.949 304.371 325.949C304.939 325.949 305.5 326.044 306.054 326.233C306.608 326.422 307.113 326.73 307.567 327.156C308.022 327.578 308.384 328.136 308.654 328.832C308.924 329.528 309.059 330.385 309.059 331.403V332.114H300.65V330.665H307.354C307.354 330.049 307.231 329.5 306.985 329.017C306.743 328.534 306.398 328.153 305.948 327.874C305.503 327.594 304.977 327.455 304.371 327.455C303.703 327.455 303.126 327.62 302.638 327.952C302.155 328.278 301.783 328.705 301.523 329.23C301.263 329.756 301.132 330.319 301.132 330.92V331.886C301.132 332.71 301.275 333.409 301.559 333.982C301.847 334.55 302.248 334.983 302.759 335.281C303.27 335.575 303.864 335.722 304.542 335.722C304.982 335.722 305.38 335.66 305.735 335.537C306.095 335.409 306.405 335.22 306.665 334.969C306.926 334.713 307.127 334.396 307.269 334.017L308.888 334.472C308.718 335.021 308.431 335.504 308.029 335.92C307.626 336.332 307.129 336.654 306.537 336.886C305.945 337.114 305.28 337.227 304.542 337.227ZM310.808 341.091V326.091H312.428V327.824H312.626C312.75 327.634 312.92 327.393 313.138 327.099C313.36 326.801 313.678 326.536 314.09 326.304C314.506 326.067 315.07 325.949 315.78 325.949C316.698 325.949 317.508 326.179 318.209 326.638C318.91 327.097 319.457 327.748 319.85 328.591C320.242 329.434 320.439 330.428 320.439 331.574C320.439 332.729 320.242 333.731 319.85 334.578C319.457 335.421 318.912 336.074 318.216 336.538C317.52 336.998 316.717 337.227 315.808 337.227C315.108 337.227 314.546 337.111 314.125 336.879C313.704 336.643 313.379 336.375 313.152 336.077C312.925 335.774 312.75 335.523 312.626 335.324H312.484V341.091H310.808ZM312.456 331.545C312.456 332.369 312.577 333.096 312.818 333.726C313.06 334.351 313.412 334.841 313.876 335.196C314.341 335.546 314.909 335.722 315.581 335.722C316.282 335.722 316.867 335.537 317.335 335.168C317.809 334.794 318.164 334.292 318.401 333.662C318.642 333.027 318.763 332.322 318.763 331.545C318.763 330.778 318.644 330.087 318.408 329.472C318.176 328.851 317.823 328.361 317.35 328.001C316.881 327.637 316.291 327.455 315.581 327.455C314.899 327.455 314.326 327.627 313.862 327.973C313.398 328.314 313.048 328.792 312.811 329.408C312.574 330.018 312.456 330.731 312.456 331.545ZM323.872 322.455V337H322.196V322.455H323.872ZM330.574 337.227C329.589 337.227 328.725 336.993 327.981 336.524C327.243 336.055 326.665 335.4 326.248 334.557C325.837 333.714 325.631 332.729 325.631 331.602C325.631 330.466 325.837 329.474 326.248 328.626C326.665 327.779 327.243 327.121 327.981 326.652C328.725 326.183 329.589 325.949 330.574 325.949C331.559 325.949 332.42 326.183 333.159 326.652C333.902 327.121 334.48 327.779 334.892 328.626C335.309 329.474 335.517 330.466 335.517 331.602C335.517 332.729 335.309 333.714 334.892 334.557C334.48 335.4 333.902 336.055 333.159 336.524C332.42 336.993 331.559 337.227 330.574 337.227ZM330.574 335.722C331.322 335.722 331.937 335.53 332.42 335.146C332.903 334.763 333.261 334.259 333.493 333.634C333.725 333.009 333.841 332.331 333.841 331.602C333.841 330.873 333.725 330.194 333.493 329.564C333.261 328.934 332.903 328.425 332.42 328.037C331.937 327.649 331.322 327.455 330.574 327.455C329.826 327.455 329.21 327.649 328.727 328.037C328.244 328.425 327.887 328.934 327.655 329.564C327.423 330.194 327.307 330.873 327.307 331.602C327.307 332.331 327.423 333.009 327.655 333.634C327.887 334.259 328.244 334.763 328.727 335.146C329.21 335.53 329.826 335.722 330.574 335.722ZM337.964 341.091C337.68 341.091 337.427 341.067 337.204 341.02C336.982 340.977 336.828 340.935 336.743 340.892L337.169 339.415C337.576 339.519 337.936 339.557 338.249 339.528C338.561 339.5 338.838 339.36 339.079 339.109C339.326 338.863 339.551 338.463 339.754 337.909L340.067 337.057L336.033 326.091H337.851L340.862 334.784H340.976L343.987 326.091H345.805L341.175 338.591C340.966 339.154 340.708 339.621 340.401 339.99C340.093 340.364 339.735 340.641 339.328 340.821C338.926 341.001 338.471 341.091 337.964 341.091Z" fill="black"/>
<path d="M281.593 185H279.729L283.917 173.364H285.945L290.133 185H288.269L284.979 175.477H284.888L281.593 185ZM281.905 180.443H287.951V181.92H281.905V180.443ZM296.565 181.381V176.273H298.27V185H296.599V183.489H296.508C296.308 183.955 295.986 184.343 295.542 184.653C295.103 184.96 294.556 185.114 293.9 185.114C293.34 185.114 292.844 184.991 292.412 184.744C291.984 184.494 291.647 184.125 291.4 183.636C291.158 183.148 291.037 182.544 291.037 181.824V176.273H292.736V181.619C292.736 182.214 292.9 182.687 293.23 183.04C293.559 183.392 293.987 183.568 294.514 183.568C294.832 183.568 295.148 183.489 295.463 183.33C295.781 183.17 296.044 182.93 296.253 182.608C296.465 182.286 296.569 181.877 296.565 181.381ZM303.986 176.273V177.636H299.219V176.273H303.986ZM300.498 174.182H302.196V182.438C302.196 182.767 302.246 183.015 302.344 183.182C302.443 183.345 302.57 183.456 302.725 183.517C302.884 183.574 303.056 183.602 303.242 183.602C303.378 183.602 303.498 183.593 303.6 183.574C303.702 183.555 303.782 183.54 303.838 183.528L304.145 184.932C304.047 184.97 303.907 185.008 303.725 185.045C303.543 185.087 303.316 185.11 303.043 185.114C302.596 185.121 302.179 185.042 301.793 184.875C301.407 184.708 301.094 184.451 300.856 184.102C300.617 183.754 300.498 183.316 300.498 182.79V174.182ZM308.808 185.176C307.99 185.176 307.276 184.989 306.666 184.614C306.056 184.239 305.582 183.714 305.245 183.04C304.908 182.366 304.74 181.578 304.74 180.676C304.74 179.771 304.908 178.979 305.245 178.301C305.582 177.623 306.056 177.097 306.666 176.722C307.276 176.347 307.99 176.159 308.808 176.159C309.626 176.159 310.34 176.347 310.95 176.722C311.56 177.097 312.033 177.623 312.37 178.301C312.707 178.979 312.876 179.771 312.876 180.676C312.876 181.578 312.707 182.366 312.37 183.04C312.033 183.714 311.56 184.239 310.95 184.614C310.34 184.989 309.626 185.176 308.808 185.176ZM308.814 183.75C309.344 183.75 309.783 183.61 310.132 183.33C310.48 183.049 310.738 182.676 310.904 182.21C311.075 181.744 311.16 181.231 311.16 180.67C311.16 180.114 311.075 179.602 310.904 179.136C310.738 178.667 310.48 178.29 310.132 178.006C309.783 177.722 309.344 177.58 308.814 177.58C308.279 177.58 307.836 177.722 307.484 178.006C307.136 178.29 306.876 178.667 306.706 179.136C306.539 179.602 306.456 180.114 306.456 180.67C306.456 181.231 306.539 181.744 306.706 182.21C306.876 182.676 307.136 183.049 307.484 183.33C307.836 183.61 308.279 183.75 308.814 183.75ZM319.274 179.347V180.818H314.115V179.347H319.274ZM321.035 185V173.364H325.183C326.088 173.364 326.838 173.528 327.433 173.858C328.027 174.187 328.472 174.638 328.768 175.21C329.063 175.778 329.211 176.419 329.211 177.131C329.211 177.847 329.061 178.491 328.762 179.062C328.467 179.631 328.02 180.081 327.421 180.415C326.827 180.744 326.079 180.909 325.177 180.909H322.325V179.42H325.018C325.59 179.42 326.054 179.322 326.41 179.125C326.766 178.924 327.027 178.652 327.194 178.307C327.361 177.962 327.444 177.57 327.444 177.131C327.444 176.691 327.361 176.301 327.194 175.96C327.027 175.619 326.764 175.352 326.404 175.159C326.048 174.966 325.579 174.869 324.995 174.869H322.791V185H321.035ZM330.493 185V176.273H332.135V177.659H332.226C332.385 177.189 332.665 176.82 333.067 176.551C333.472 176.278 333.93 176.142 334.442 176.142C334.548 176.142 334.673 176.146 334.817 176.153C334.965 176.161 335.08 176.17 335.163 176.182V177.807C335.095 177.788 334.974 177.767 334.8 177.744C334.626 177.718 334.451 177.705 334.277 177.705C333.876 177.705 333.518 177.79 333.203 177.96C332.893 178.127 332.646 178.36 332.465 178.659C332.283 178.955 332.192 179.292 332.192 179.67V185H330.493ZM339.442 185.176C338.583 185.176 337.842 184.992 337.221 184.625C336.603 184.254 336.126 183.733 335.789 183.062C335.456 182.388 335.289 181.598 335.289 180.693C335.289 179.799 335.456 179.011 335.789 178.33C336.126 177.648 336.596 177.116 337.198 176.733C337.804 176.35 338.513 176.159 339.323 176.159C339.816 176.159 340.293 176.241 340.755 176.403C341.217 176.566 341.632 176.822 341.999 177.17C342.367 177.519 342.656 177.972 342.869 178.528C343.081 179.081 343.187 179.754 343.187 180.545V181.148H336.249V179.875H341.522C341.522 179.428 341.431 179.032 341.249 178.688C341.067 178.339 340.812 178.064 340.482 177.864C340.156 177.663 339.774 177.562 339.335 177.562C338.857 177.562 338.441 177.68 338.085 177.915C337.732 178.146 337.46 178.449 337.266 178.824C337.077 179.195 336.982 179.598 336.982 180.034V181.028C336.982 181.612 337.085 182.108 337.289 182.517C337.497 182.926 337.787 183.239 338.158 183.455C338.53 183.667 338.963 183.773 339.46 183.773C339.781 183.773 340.075 183.727 340.34 183.636C340.605 183.542 340.835 183.402 341.028 183.216C341.221 183.03 341.369 182.801 341.471 182.528L343.079 182.818C342.95 183.292 342.719 183.706 342.386 184.062C342.056 184.415 341.641 184.689 341.141 184.886C340.645 185.08 340.079 185.176 339.442 185.176ZM347.699 185.17C346.994 185.17 346.365 184.991 345.812 184.631C345.263 184.267 344.831 183.75 344.517 183.08C344.206 182.405 344.051 181.597 344.051 180.653C344.051 179.71 344.208 178.903 344.523 178.233C344.841 177.562 345.276 177.049 345.829 176.693C346.382 176.337 347.009 176.159 347.71 176.159C348.252 176.159 348.687 176.25 349.017 176.432C349.35 176.61 349.608 176.818 349.79 177.057C349.975 177.295 350.119 177.506 350.222 177.688H350.324V173.364H352.023V185H350.364V183.642H350.222C350.119 183.828 349.972 184.04 349.778 184.278C349.589 184.517 349.328 184.725 348.994 184.903C348.661 185.081 348.229 185.17 347.699 185.17ZM348.074 183.722C348.562 183.722 348.975 183.593 349.312 183.335C349.653 183.074 349.911 182.712 350.085 182.25C350.263 181.788 350.352 181.25 350.352 180.636C350.352 180.03 350.265 179.5 350.091 179.045C349.917 178.591 349.661 178.237 349.324 177.983C348.987 177.729 348.57 177.602 348.074 177.602C347.562 177.602 347.136 177.735 346.795 178C346.454 178.265 346.197 178.627 346.023 179.085C345.852 179.544 345.767 180.061 345.767 180.636C345.767 181.22 345.854 181.744 346.028 182.21C346.203 182.676 346.46 183.045 346.801 183.318C347.146 183.587 347.57 183.722 348.074 183.722ZM353.807 185V176.273H355.506V185H353.807ZM354.665 174.926C354.37 174.926 354.116 174.828 353.904 174.631C353.696 174.43 353.591 174.191 353.591 173.915C353.591 173.634 353.696 173.396 353.904 173.199C354.116 172.998 354.37 172.898 354.665 172.898C354.961 172.898 355.213 172.998 355.421 173.199C355.633 173.396 355.739 173.634 355.739 173.915C355.739 174.191 355.633 174.43 355.421 174.631C355.213 174.828 354.961 174.926 354.665 174.926ZM360.828 185.176C359.983 185.176 359.256 184.985 358.646 184.602C358.04 184.216 357.574 183.684 357.248 183.006C356.923 182.328 356.76 181.551 356.76 180.676C356.76 179.79 356.926 179.008 357.26 178.33C357.593 177.648 358.063 177.116 358.669 176.733C359.275 176.35 359.989 176.159 360.811 176.159C361.474 176.159 362.065 176.282 362.584 176.528C363.102 176.771 363.521 177.112 363.839 177.551C364.161 177.991 364.352 178.504 364.413 179.091H362.76C362.669 178.682 362.46 178.33 362.135 178.034C361.813 177.739 361.381 177.591 360.839 177.591C360.366 177.591 359.951 177.716 359.595 177.966C359.243 178.212 358.968 178.564 358.771 179.023C358.574 179.477 358.476 180.015 358.476 180.636C358.476 181.273 358.572 181.822 358.765 182.284C358.959 182.746 359.231 183.104 359.584 183.358C359.94 183.612 360.358 183.739 360.839 183.739C361.161 183.739 361.453 183.68 361.714 183.562C361.979 183.441 362.201 183.269 362.379 183.045C362.561 182.822 362.688 182.553 362.76 182.239H364.413C364.352 182.803 364.169 183.307 363.862 183.75C363.555 184.193 363.144 184.542 362.629 184.795C362.118 185.049 361.517 185.176 360.828 185.176ZM369.664 176.273V177.636H364.897V176.273H369.664ZM366.175 174.182H367.874V182.438C367.874 182.767 367.923 183.015 368.022 183.182C368.12 183.345 368.247 183.456 368.402 183.517C368.561 183.574 368.734 183.602 368.919 183.602C369.056 183.602 369.175 183.593 369.277 183.574C369.38 183.555 369.459 183.54 369.516 183.528L369.823 184.932C369.724 184.97 369.584 185.008 369.402 185.045C369.221 185.087 368.993 185.11 368.721 185.114C368.274 185.121 367.857 185.042 367.471 184.875C367.084 184.708 366.772 184.451 366.533 184.102C366.294 183.754 366.175 183.316 366.175 182.79V174.182ZM370.903 185V176.273H372.602V185H370.903ZM371.761 174.926C371.465 174.926 371.212 174.828 371 174.631C370.791 174.43 370.687 174.191 370.687 173.915C370.687 173.634 370.791 173.396 371 173.199C371.212 172.998 371.465 172.898 371.761 172.898C372.056 172.898 372.308 172.998 372.517 173.199C372.729 173.396 372.835 173.634 372.835 173.915C372.835 174.191 372.729 174.43 372.517 174.631C372.308 174.828 372.056 174.926 371.761 174.926ZM377.923 185.176C377.105 185.176 376.391 184.989 375.781 184.614C375.172 184.239 374.698 183.714 374.361 183.04C374.024 182.366 373.855 181.578 373.855 180.676C373.855 179.771 374.024 178.979 374.361 178.301C374.698 177.623 375.172 177.097 375.781 176.722C376.391 176.347 377.105 176.159 377.923 176.159C378.742 176.159 379.456 176.347 380.066 176.722C380.675 177.097 381.149 177.623 381.486 178.301C381.823 178.979 381.992 179.771 381.992 180.676C381.992 181.578 381.823 182.366 381.486 183.04C381.149 183.714 380.675 184.239 380.066 184.614C379.456 184.989 378.742 185.176 377.923 185.176ZM377.929 183.75C378.459 183.75 378.899 183.61 379.247 183.33C379.596 183.049 379.853 182.676 380.02 182.21C380.191 181.744 380.276 181.231 380.276 180.67C380.276 180.114 380.191 179.602 380.02 179.136C379.853 178.667 379.596 178.29 379.247 178.006C378.899 177.722 378.459 177.58 377.929 177.58C377.395 177.58 376.952 177.722 376.6 178.006C376.251 178.29 375.992 178.667 375.821 179.136C375.655 179.602 375.571 180.114 375.571 180.67C375.571 181.231 375.655 181.744 375.821 182.21C375.992 182.676 376.251 183.049 376.6 183.33C376.952 183.61 377.395 183.75 377.929 183.75ZM384.947 179.818V185H383.248V176.273H384.879V177.693H384.987C385.187 177.231 385.502 176.86 385.93 176.58C386.362 176.299 386.905 176.159 387.56 176.159C388.155 176.159 388.676 176.284 389.123 176.534C389.57 176.78 389.917 177.148 390.163 177.636C390.409 178.125 390.532 178.729 390.532 179.449V185H388.833V179.653C388.833 179.021 388.668 178.527 388.339 178.17C388.009 177.811 387.557 177.631 386.981 177.631C386.587 177.631 386.237 177.716 385.93 177.886C385.627 178.057 385.386 178.307 385.208 178.636C385.034 178.962 384.947 179.356 384.947 179.818Z" fill="#11256D"/>
</g>
<defs>
<filter id="filter0_d_271_8829" x="0" y="0" width="508" height="368" filterUnits="userSpaceOnUse" color-interpolation-filters="sRGB">
<feFlood flood-opacity="0" result="BackgroundImageFix"/>
<feColorMatrix in="SourceAlpha" type="matrix" values="0 0 0 0 0 0 0 0 0 0 0 0 0 0 0 0 0 0 127 0" result="hardAlpha"/>
<feOffset dy="4"/>
<feGaussianBlur stdDeviation="2"/>
<feComposite in2="hardAlpha" operator="out"/>
<feColorMatrix type="matrix" values="0 0 0 0 0 0 0 0 0 0 0 0 0 0 0 0 0 0 0.25 0"/>
<feBlend mode="normal" in2="BackgroundImageFix" result="effect1_dropShadow_271_8829"/>
<feBlend mode="normal" in="SourceGraphic" in2="effect1_dropShadow_271_8829" result="shape"/>
</filter>
</defs>
</svg>
