<svg width="51" height="41" viewBox="0 0 51 41" fill="none" xmlns="http://www.w3.org/2000/svg">
<path d="M31.5595 14.3452H20.0833V2.86905H2.86905V37.2976H31.5595V14.3452ZM30.3717 11.4762L22.9524 4.05683V11.4762H30.3717ZM1.43452 0H22.9524L34.4286 11.4762V38.7321C34.4286 39.1126 34.2774 39.4775 34.0084 39.7465C33.7394 40.0155 33.3745 40.1667 32.994 40.1667H1.43452C1.05406 40.1667 0.689188 40.0155 0.420163 39.7465C0.151137 39.4775 0 39.1126 0 38.7321V1.43452C0 1.05406 0.151137 0.689188 0.420163 0.420162C0.689188 0.151137 1.05406 0 1.43452 0ZM8.60714 20.0833H25.8214V22.9524H8.60714V20.0833ZM8.60714 11.4762H15.7798V14.3452H8.60714V11.4762ZM8.60714 28.6905H25.8214V31.5595H8.60714V28.6905Z" fill="#11256D"/>
<path d="M41.0724 34.6973H44.8974V30.8722L41.0724 34.6973ZM41.0724 19.397H44.8974V23.222L41.0724 19.397ZM23.222 19.397H19.397V23.222L23.222 19.397ZM19.397 30.8722V34.6973H23.222L19.397 30.8722ZM32.1472 32.1472C30.7946 32.1472 29.4973 31.6099 28.5409 30.6534C27.5844 29.697 27.0471 28.3997 27.0471 27.0471C27.0471 25.6945 27.5844 24.3973 28.5409 23.4408C29.4973 22.4843 30.7946 21.947 32.1472 21.947C33.4998 21.947 34.7971 22.4843 35.7535 23.4408C36.71 24.3973 37.2473 25.6945 37.2473 27.0471C37.2473 28.3997 36.71 29.697 35.7535 30.6534C34.7971 31.6099 33.4998 32.1472 32.1472 32.1472ZM16.8469 14.2969H47.4475C48.1238 14.2969 48.7724 14.5655 49.2506 15.0438C49.7289 15.522 49.9975 16.1706 49.9975 16.8469V37.2473C49.9975 37.9236 49.7289 38.5722 49.2506 39.0505C48.7724 39.5287 48.1238 39.7974 47.4475 39.7974H16.8469C16.1706 39.7974 15.522 39.5287 15.0438 39.0505C14.5655 38.5722 14.2969 37.9236 14.2969 37.2473V16.8469C14.2969 16.1706 14.5655 15.522 15.0438 15.0438C15.522 14.5655 16.1706 14.2969 16.8469 14.2969Z" fill="white" stroke="#11256D" stroke-width="2"/>
<path d="M32.1458 31.7136C29.567 31.7136 27.4766 29.6231 27.4766 27.0443C27.4766 24.4654 29.567 22.375 32.1458 22.375C34.7247 22.375 36.8151 24.4654 36.8151 27.0443C36.8151 29.6231 34.7247 31.7136 32.1458 31.7136ZM32.1458 30.7797C33.1365 30.7797 34.0867 30.3861 34.7872 29.6856C35.4877 28.9851 35.8813 28.035 35.8813 27.0443C35.8813 26.0536 35.4877 25.1035 34.7872 24.4029C34.0867 23.7024 33.1365 23.3089 32.1458 23.3089C31.1551 23.3089 30.205 23.7024 29.5045 24.4029C28.804 25.1035 28.4104 26.0536 28.4104 27.0443C28.4104 28.035 28.804 28.9851 29.5045 29.6856C30.205 30.3861 31.1551 30.7797 32.1458 30.7797ZM30.5116 27.9781H33.0797C33.1416 27.9781 33.201 27.9535 33.2448 27.9098C33.2886 27.866 33.3132 27.8066 33.3132 27.7447C33.3132 27.6827 33.2886 27.6234 33.2448 27.5796C33.201 27.5358 33.1416 27.5112 33.0797 27.5112H31.212C30.9024 27.5112 30.6055 27.3882 30.3866 27.1693C30.1676 26.9504 30.0447 26.6535 30.0447 26.3439C30.0447 26.0343 30.1676 25.7374 30.3866 25.5185C30.6055 25.2996 30.9024 25.1766 31.212 25.1766H31.6789V24.2427H32.6128V25.1766H33.7801V26.1104H31.212C31.1501 26.1104 31.0907 26.135 31.0469 26.1788C31.0031 26.2226 30.9785 26.282 30.9785 26.3439C30.9785 26.4058 31.0031 26.4652 31.0469 26.509C31.0907 26.5528 31.1501 26.5773 31.212 26.5773H33.0797C33.3893 26.5773 33.6862 26.7003 33.9051 26.9192C34.124 27.1382 34.247 27.4351 34.247 27.7447C34.247 28.0543 34.124 28.3512 33.9051 28.5701C33.6862 28.789 33.3893 28.912 33.0797 28.912H32.6128V29.8458H31.6789V28.912H30.5116V27.9781Z" fill="#11256D"/>
</svg>
