<svg width="43" height="50" viewBox="0 0 43 50" fill="none" xmlns="http://www.w3.org/2000/svg">
<path d="M42.3209 13.0362L29.8211 0.536315C29.6639 0.361932 29.4707 0.22373 29.2549 0.131243C29.0391 0.0387563 28.8058 -0.00581391 28.5711 0.000607208H10.7142C9.76783 0.00343347 8.86108 0.380611 8.19193 1.04976C7.52277 1.71892 7.1456 2.62567 7.14277 3.57199V21.4289H3.57139C2.62449 21.4299 1.71664 21.8064 1.04708 22.476C0.377519 23.1456 0.000945483 24.0534 0 25.0003V35.7145C0.000945483 36.6614 0.377519 37.5692 1.04708 38.2388C1.71664 38.9083 2.62449 39.2849 3.57139 39.2858H7.14277V46.4286C7.1456 47.3749 7.52277 48.2817 8.19193 48.9508C8.86108 49.62 9.76783 49.9972 10.7142 50H39.2852C40.2316 49.9972 41.1383 49.62 41.8075 48.9508C42.4766 48.2817 42.8538 47.3749 42.8566 46.4286V14.2861C42.8629 14.0515 42.8183 13.8182 42.7258 13.6024C42.6333 13.3866 42.4952 13.1935 42.3209 13.0362ZM28.5711 4.28627L38.571 14.2861H28.5711V4.28627ZM3.57139 25.0003H20.7087L26.7854 30.3574L20.7265 35.7145H3.57139V25.0003ZM39.2852 46.4286H10.7142V39.2858H20.7301C21.5921 39.2837 22.4244 38.9712 23.0747 38.4055L29.1175 33.0645C29.505 32.7302 29.8162 32.3166 30.0301 31.8516C30.2439 31.3867 30.3555 30.8813 30.3572 30.3695C30.3589 29.8577 30.2507 29.3515 30.0399 28.8852C29.8291 28.4189 29.5206 28.0032 29.1354 27.6663L23.0569 22.2932C22.4103 21.736 21.5854 21.4294 20.7319 21.4289H10.7142V3.57199H24.9997V14.2861C25.0025 15.2325 25.3797 16.1392 26.0489 16.8084C26.718 17.4775 27.6248 17.8547 28.5711 17.8575H39.2852V46.4286Z" fill="#11256D"/>
</svg>
