<svg width="40" height="51" viewBox="0 0 40 51" fill="none" xmlns="http://www.w3.org/2000/svg">
<path d="M33.7739 14.0449H22.5379V2.80899H5.68399V36.5169H33.7739V14.0449ZM32.611 11.236L25.3469 3.97191V11.236H32.611ZM4.27949 0H25.3469L36.5829 11.236V37.9213C36.5829 38.2938 36.4349 38.6511 36.1715 38.9145C35.9081 39.1779 35.5509 39.3258 35.1784 39.3258H4.27949C3.907 39.3258 3.54976 39.1779 3.28637 38.9145C3.02297 38.6511 2.875 38.2938 2.875 37.9213V1.40449C2.875 1.032 3.02297 0.674761 3.28637 0.411367C3.54976 0.147973 3.907 0 4.27949 0ZM11.302 19.6629H28.1559V22.4719H11.302V19.6629ZM11.302 11.236H18.3244V14.0449H11.302V11.236ZM11.302 28.0899H28.1559V30.8989H11.302V28.0899Z" fill="#11256D"/>
<path d="M38.4532 46.2555V27.5289C38.4532 26.5356 38.0586 25.583 37.3562 24.8806C36.6538 24.1782 35.7012 23.7836 34.7079 23.7836H22.0412C21.3455 23.7836 20.6636 23.5898 20.0719 23.224C19.4801 22.8582 19.002 22.3348 18.691 21.7124L17.0169 18.3641C16.7057 17.7415 16.2273 17.2179 15.6352 16.8521C15.0431 16.4863 14.3608 16.2926 13.6648 16.293H4.74532C3.752 16.293 2.79936 16.6876 2.09698 17.3899C1.39459 18.0923 1 19.045 1 20.0383V46.2555C1 47.2488 1.39459 48.2015 2.09698 48.9039C2.79936 49.6062 3.752 50.0008 4.74532 50.0008H34.7079C35.7012 50.0008 36.6538 49.6062 37.3562 48.9039C38.0586 48.2015 38.4532 47.2488 38.4532 46.2555Z" fill="white" stroke="#11256D" stroke-width="2" stroke-linecap="round" stroke-linejoin="round"/>
<path d="M19.7274 36.8914H14.1094H19.7274Z" fill="white"/>
<path d="M19.7274 31.2734V36.8914M19.7274 36.8914V42.5094M19.7274 36.8914H25.3453M19.7274 36.8914H14.1094" stroke="#11256D" stroke-width="2" stroke-linecap="round"/>
</svg>
