<svg width="50" height="50" viewBox="0 0 50 50" fill="none" xmlns="http://www.w3.org/2000/svg">
<path d="M40.1563 14.5312L29.2188 3.59375C28.9063 3.28125 28.5938 3.125 28.125 3.125H12.5C10.7812 3.125 9.375 4.53125 9.375 6.25V43.75C9.375 45.4688 10.7812 46.875 12.5 46.875H37.5C39.2188 46.875 40.625 45.4688 40.625 43.75V15.625C40.625 15.1562 40.4688 14.8438 40.1563 14.5312ZM28.125 6.875L36.875 15.625H28.125V6.875ZM37.5 43.75H12.5V6.25H25V15.625C25 17.3438 26.4062 18.75 28.125 18.75H37.5V43.75Z" fill="#11256D"/>
 <path d="M21.6725 21.9875C20.482 22.3156 19.2996 22.6724 18.1263 23.0575C18.0191 23.0922 17.9239 23.1563 17.8514 23.2425C17.7789 23.3287 17.7321 23.4335 17.7163 23.545C17.0238 28.7413 18.6238 32.5325 20.5325 35.03C21.3407 36.098 22.3043 37.0389 23.3913 37.8212C23.8238 38.1262 24.2063 38.3462 24.5075 38.4875C24.6575 38.5587 24.78 38.6062 24.8738 38.635C24.9148 38.6494 24.957 38.6598 25 38.6662C25.0425 38.6593 25.0843 38.6489 25.125 38.635C25.22 38.6062 25.3425 38.5587 25.4925 38.4875C25.7925 38.3462 26.1763 38.125 26.6088 37.8212C27.6957 37.0388 28.6593 36.098 29.4675 35.03C31.3763 32.5338 32.9763 28.7413 32.2838 23.545C32.2681 23.4334 32.2213 23.3286 32.1488 23.2423C32.0763 23.1561 31.981 23.0921 31.8738 23.0575C31.06 22.7913 29.6863 22.3575 28.3275 21.9887C26.94 21.6125 25.6638 21.3338 25 21.3338C24.3375 21.3338 23.06 21.6125 21.6725 21.9887V21.9875ZM21.34 20.7C22.6963 20.3313 24.1375 20 25 20C25.8625 20 27.3038 20.3313 28.66 20.7C30.0475 21.075 31.4463 21.5187 32.2688 21.7875C32.6126 21.9011 32.9175 22.1093 33.1484 22.3884C33.3792 22.6674 33.5266 23.0059 33.5738 23.365C34.3188 28.9613 32.59 33.1088 30.4925 35.8525C29.6031 37.0262 28.5425 38.0598 27.3463 38.9188C26.9326 39.216 26.4944 39.4773 26.0363 39.7C25.6863 39.865 25.31 40 25 40C24.69 40 24.315 39.865 23.9638 39.7C23.5056 39.4773 23.0674 39.216 22.6538 38.9188C21.4575 38.0598 20.397 37.0262 19.5075 35.8525C17.41 33.1088 15.6813 28.9613 16.4263 23.365C16.4734 23.0059 16.6208 22.6674 16.8517 22.3884C17.0825 22.1093 17.3874 21.9011 17.7313 21.7875C18.9252 21.396 20.1285 21.0334 21.34 20.7V20.7Z" fill="#11256D"/>
<path d="M26.875 28.124C26.8752 28.5119 26.7551 28.8903 26.5312 29.2071C26.3073 29.5239 25.9907 29.7635 25.625 29.8928L26.1063 32.3803C26.1238 32.4707 26.121 32.564 26.0983 32.6533C26.0756 32.7426 26.0333 32.8257 25.9747 32.8968C25.916 32.9679 25.8424 33.0251 25.759 33.0644C25.6757 33.1037 25.5847 33.124 25.4925 33.124H24.5075C24.4155 33.1239 24.3246 33.1034 24.2414 33.064C24.1582 33.0246 24.0847 32.9674 24.0262 32.8963C23.9676 32.8253 23.9255 32.7422 23.9029 32.653C23.8802 32.5638 23.8775 32.4706 23.895 32.3803L24.375 29.8928C24.051 29.7782 23.7646 29.5768 23.5473 29.3105C23.33 29.0442 23.1901 28.7233 23.1428 28.3828C23.0955 28.0424 23.1428 27.6955 23.2793 27.3801C23.4159 27.0647 23.6365 26.7929 23.9171 26.5944C24.1977 26.3958 24.5274 26.2783 24.8703 26.2545C25.2132 26.2307 25.556 26.3016 25.8613 26.4595C26.1666 26.6174 26.4226 26.8562 26.6014 27.1497C26.7802 27.4433 26.8748 27.7803 26.875 28.124V28.124Z" fill="#11256D"/>
 </svg>
