<svg width="50" height="50" viewBox="0 0 50 50" fill="none" xmlns="http://www.w3.org/2000/svg">
<path d="M24.9984 2.7401C12.7047 2.7401 2.7401 12.7047 2.7401 24.9984C2.7401 37.2922 12.7047 47.2568 24.9984 47.2568C37.2922 47.2568 47.2568 37.2922 47.2568 24.9984C47.2318 12.7151 37.2818 2.7651 25.0005 2.7401H24.9984ZM24.9984 49.1922C11.6359 49.1922 0.804688 38.3609 0.804688 24.9984C0.804688 11.6359 11.6359 0.804688 24.9984 0.804688C38.3609 0.804688 49.1922 11.6359 49.1922 24.9984V25.0297C49.1922 38.3734 38.3755 49.1901 25.0318 49.1901H24.9984H25.0005L24.9984 49.1922Z" fill="#11256D"/>
<path d="M25 50C11.1937 50 0 38.8062 0 25C0 11.1937 11.1937 0 25 0C38.8062 0 50 11.1937 50 25C49.9292 38.7792 38.7792 49.9292 25.0063 50H25ZM25 1.6125C12.0833 1.6125 1.6125 12.0833 1.6125 25C1.6125 37.9167 12.0833 48.3875 25 48.3875C37.9167 48.3875 48.3875 37.9167 48.3875 25C48.3792 12.0875 37.9125 1.62292 25.0021 1.6125H25ZM25 48.225C12.2625 48.225 1.93542 37.8979 1.93542 25.1604C1.93542 12.4229 12.2625 2.09583 25 2.09583C37.7375 2.09583 48.0646 12.4229 48.0646 25.1604C48.0646 37.8979 37.7375 48.225 25 48.225ZM25 3.54792C13.1521 3.54792 3.54792 13.1521 3.54792 25C3.54792 36.8479 13.1521 46.4521 25 46.4521C36.8479 46.4521 46.4521 36.8479 46.4521 25V24.9896C46.4521 13.1479 36.8521 3.54792 25.0104 3.54792H25Z" fill="#11256D"/>
<path d="M37.7409 29.6766V29.7516C37.7409 33.111 36.4064 36.3328 34.0309 38.7083C31.6554 41.0837 28.4336 42.4182 25.0742 42.4182H24.9951H24.9992H24.9242C21.5648 42.4182 18.343 41.0837 15.9675 38.7083C13.5921 36.3328 12.2576 33.111 12.2576 29.7516V29.6724V29.6766H37.7409ZM20.1596 20.6453V20.6641C20.1596 23.0599 18.218 25.0016 15.8221 25.0016H15.8034C14.9422 25.0016 14.1004 24.7462 13.3843 24.2678C12.6683 23.7893 12.1102 23.1093 11.7807 22.3137C11.4511 21.518 11.3649 20.6426 11.5329 19.7979C11.7009 18.9533 12.1156 18.1775 12.7245 17.5685C13.3335 16.9596 14.1093 16.5449 14.9539 16.3769C15.7986 16.2089 16.674 16.2951 17.4697 16.6247C18.2653 16.9542 18.9453 17.5123 19.4237 18.2284C19.9022 18.9444 20.1576 19.7862 20.1576 20.6474L20.1596 20.6453ZM38.7096 20.6453C38.7096 21.8001 38.2509 22.9076 37.4343 23.7242C36.6178 24.5407 35.5103 24.9995 34.3555 24.9995C33.2007 24.9995 32.0932 24.5407 31.2766 23.7242C30.46 22.9076 30.0013 21.8001 30.0013 20.6453V20.6266C30.0013 18.2307 31.943 16.2891 34.3388 16.2891H34.3576C35.5046 16.3114 36.5986 16.7768 37.4102 17.5877C38.2219 18.3985 38.6883 19.492 38.7117 20.6391V20.6432L38.7096 20.6453Z" fill="#11256D"/>
</svg>
