<svg width="36" height="50" viewBox="0 0 36 50" fill="none" xmlns="http://www.w3.org/2000/svg">
<path d="M7.37784 42.0568C7.20265 42.0568 7.05232 41.9941 6.92685 41.8686C6.80137 41.7431 6.73864 41.5928 6.73864 41.4176C6.73864 41.2424 6.80137 41.0921 6.92685 40.9666C7.05232 40.8411 7.20265 40.7784 7.37784 40.7784C7.55303 40.7784 7.70336 40.8411 7.82884 40.9666C7.95431 41.0921 8.01705 41.2424 8.01705 41.4176C8.01705 41.5336 7.98745 41.6402 7.92827 41.7372C7.87145 41.8343 7.79451 41.9124 7.69744 41.9716C7.60275 42.0284 7.49621 42.0568 7.37784 42.0568ZM8.89506 35.5085V34.7273H14.3496V35.5085H12.0627V42H11.182V35.5085H8.89506ZM16.1349 34.7273L18.0099 37.7528H18.0668L19.9418 34.7273H20.9787L18.6918 38.3636L20.9787 42H19.9418L18.0668 39.0312H18.0099L16.1349 42H15.098L17.4418 38.3636L15.098 34.7273H16.1349ZM21.7271 35.5085V34.7273H27.1816V35.5085H24.8947V42H24.014V35.5085H21.7271Z" fill="#11256D"/>
<path d="M35.1786 13.0357L22.6786 0.535714C22.3214 0.178571 21.9643 0 21.4286 0H3.57143C1.60714 0 0 1.60714 0 3.57143V46.4286C0 48.3929 1.60714 50 3.57143 50H32.1429C34.1071 50 35.7143 48.3929 35.7143 46.4286V14.2857C35.7143 13.75 35.5357 13.3929 35.1786 13.0357ZM21.4286 4.28571L31.4286 14.2857H21.4286V4.28571ZM32.1429 46.4286H3.57143V3.57143H17.8571V14.2857C17.8571 16.25 19.4643 17.8571 21.4286 17.8571H32.1429V46.4286Z" fill="#11256D"/>
<path d="M7.37784 30.0568C7.20265 30.0568 7.05232 29.9941 6.92685 29.8686C6.80137 29.7431 6.73864 29.5928 6.73864 29.4176C6.73864 29.2424 6.80137 29.0921 6.92685 28.9666C7.05232 28.8411 7.20265 28.7784 7.37784 28.7784C7.55303 28.7784 7.70336 28.8411 7.82884 28.9666C7.95431 29.0921 8.01705 29.2424 8.01705 29.4176C8.01705 29.5336 7.98745 29.6402 7.92827 29.7372C7.87145 29.8343 7.79451 29.9124 7.69744 29.9716C7.60275 30.0284 7.49621 30.0568 7.37784 30.0568ZM9.63459 30V22.7273H12.092C12.6625 22.7273 13.1289 22.8303 13.4911 23.0362C13.8557 23.2398 14.1256 23.5156 14.3008 23.8636C14.476 24.2116 14.5636 24.5999 14.5636 25.0284C14.5636 25.4569 14.476 25.8464 14.3008 26.1967C14.128 26.5471 13.8604 26.8265 13.4982 27.0348C13.136 27.2408 12.672 27.3438 12.1062 27.3438H10.3448V26.5625H12.0778C12.4684 26.5625 12.7821 26.495 13.0188 26.3601C13.2556 26.2251 13.4272 26.0429 13.5337 25.8132C13.6426 25.5812 13.6971 25.3196 13.6971 25.0284C13.6971 24.7372 13.6426 24.4768 13.5337 24.2472C13.4272 24.0175 13.2544 23.8376 13.0153 23.7074C12.7762 23.5748 12.4589 23.5085 12.0636 23.5085H10.5153V30H9.63459ZM18.2266 30H15.9822V22.7273H18.326C19.0315 22.7273 19.6352 22.8729 20.1371 23.1641C20.639 23.4529 21.0237 23.8684 21.2912 24.4105C21.5587 24.9503 21.6925 25.5966 21.6925 26.3494C21.6925 27.107 21.5575 27.7592 21.2876 28.3061C21.0178 28.8506 20.6248 29.2696 20.1087 29.5632C19.5926 29.8544 18.9652 30 18.2266 30ZM16.8629 29.2188H18.1697C18.7711 29.2188 19.2694 29.1027 19.6648 28.8707C20.0601 28.6387 20.3549 28.3085 20.549 27.88C20.7431 27.4515 20.8402 26.9413 20.8402 26.3494C20.8402 25.7623 20.7443 25.2569 20.5526 24.8331C20.3608 24.407 20.0743 24.0803 19.6932 23.853C19.312 23.6233 18.8374 23.5085 18.2692 23.5085H16.8629V29.2188ZM23.1697 30V22.7273H27.5305V23.5085H24.0504V25.9659H27.2038V26.7472H24.0504V30H23.1697Z" fill="#11256D"/>
</svg>
