<svg width="30" height="30" viewBox="0 0 30 30" fill="none" xmlns="http://www.w3.org/2000/svg">
<path d="M16.3781 23.9344C16.2465 23.8026 16.1725 23.6239 16.1725 23.4375C16.1725 23.2512 16.2465 23.0725 16.3781 22.9407L23.6145 15.7032H4.68751C4.50103 15.7032 4.32218 15.6291 4.19032 15.4972C4.05846 15.3654 3.98438 15.1865 3.98438 15C3.98438 14.8136 4.05846 14.6347 4.19032 14.5029C4.32218 14.371 4.50103 14.2969 4.68751 14.2969H23.6145L16.3781 7.05941C16.2539 6.92613 16.1863 6.74983 16.1895 6.56767C16.1927 6.38552 16.2665 6.21172 16.3954 6.08289C16.5242 5.95407 16.698 5.88028 16.8801 5.87706C17.0623 5.87385 17.2386 5.94146 17.3719 6.06566L25.8094 14.5032C25.9411 14.635 26.015 14.8137 26.015 15C26.015 15.1864 25.9411 15.3651 25.8094 15.4969L17.3719 23.9344C17.24 24.0661 17.0613 24.14 16.875 24.14C16.6887 24.14 16.51 24.0661 16.3781 23.9344Z" fill="#11256D"/>
</svg>
