<svg width="50" height="50" viewBox="0 0 50 50" fill="none" xmlns="http://www.w3.org/2000/svg">
<path d="M15.625 35.9375C17.3509 35.9375 18.75 34.5384 18.75 32.8125C18.75 31.0866 17.3509 29.6875 15.625 29.6875C13.8991 29.6875 12.5 31.0866 12.5 32.8125C12.5 34.5384 13.8991 35.9375 15.625 35.9375Z" fill="#F71735"/>
<path d="M35.9375 34.375C37.6634 34.375 39.0625 32.9759 39.0625 31.25C39.0625 29.5241 37.6634 28.125 35.9375 28.125C34.2116 28.125 32.8125 29.5241 32.8125 31.25C32.8125 32.9759 34.2116 34.375 35.9375 34.375Z" fill="#F71735"/>
<path d="M20.3125 18.75C22.0384 18.75 23.4375 17.3509 23.4375 15.625C23.4375 13.8991 22.0384 12.5 20.3125 12.5C18.5866 12.5 17.1875 13.8991 17.1875 15.625C17.1875 17.3509 18.5866 18.75 20.3125 18.75Z" fill="#F71735"/>
<path d="M21.875 25C22.7379 25 23.4375 24.3004 23.4375 23.4375C23.4375 22.5746 22.7379 21.875 21.875 21.875C21.0121 21.875 20.3125 22.5746 20.3125 23.4375C20.3125 24.3004 21.0121 25 21.875 25Z" fill="#F71735"/>
<path d="M35.9375 10.9375C37.6634 10.9375 39.0625 9.53839 39.0625 7.8125C39.0625 6.08661 37.6634 4.6875 35.9375 4.6875C34.2116 4.6875 32.8125 6.08661 32.8125 7.8125C32.8125 9.53839 34.2116 10.9375 35.9375 10.9375Z" fill="#F71735"/>
<path d="M45.3125 6.25C46.1754 6.25 46.875 5.55045 46.875 4.6875C46.875 3.82456 46.1754 3.125 45.3125 3.125C44.4496 3.125 43.75 3.82456 43.75 4.6875C43.75 5.55045 44.4496 6.25 45.3125 6.25Z" fill="#F71735"/>
<path d="M25 37.5C25.8629 37.5 26.5625 36.8004 26.5625 35.9375C26.5625 35.0746 25.8629 34.375 25 34.375C24.1371 34.375 23.4375 35.0746 23.4375 35.9375C23.4375 36.8004 24.1371 37.5 25 37.5Z" fill="#F71735"/>
<path d="M25 46.875C12.9688 46.875 3.125 37.0312 3.125 25C3.125 12.9688 12.9688 3.125 25 3.125H25.4687L27.6563 3.28125L27.1875 5.15625C27.0312 5.78125 26.875 6.5625 26.875 7.1875C26.875 11.5625 30.3125 15 34.6875 15C36.25 15 37.8125 14.5312 39.2188 13.5938L41.25 15.9375C40.625 16.5625 40.3125 17.3438 40.3125 18.125C40.3125 20.1562 42.3438 21.875 44.5312 21.0938L46.4062 20.3125L46.7188 22.3438C46.875 23.2812 46.875 24.2188 46.875 25C46.875 37.0312 37.0312 46.875 25 46.875ZM23.9062 6.25C14.0625 6.875 6.25 15 6.25 25C6.25 35.3125 14.6875 43.75 25 43.75C35.3125 43.75 43.75 35.3125 43.75 25V24.375C40.1562 24.5312 37.1875 21.7188 37.1875 18.125V17.8125C36.4062 17.9687 35.625 18.125 34.6875 18.125C28.5938 18.125 23.75 13.2812 23.75 7.1875C23.75 6.875 23.75 6.5625 23.9062 6.25Z" fill="#F71735"/>
</svg>
