<svg width="15" height="13" viewBox="0 0 15 13" fill="none" xmlns="http://www.w3.org/2000/svg">
<path d="M7.19425 9.25142C7.20889 9.26908 7.2276 9.28336 7.24896 9.29318C7.27031 9.303 7.29376 9.3081 7.31751 9.3081C7.34127 9.3081 7.36471 9.303 7.38607 9.29318C7.40743 9.28336 7.42613 9.26908 7.44078 9.25142L9.63212 6.6348C9.71234 6.53878 9.63994 6.39659 9.50885 6.39659H8.05905V0.147727C8.05905 0.0664773 7.98861 0 7.90252 0H6.72859C6.6425 0 6.57207 0.0664773 6.57207 0.147727V6.39474H5.12617C4.99508 6.39474 4.92269 6.53693 5.00291 6.63295L7.19425 9.25142ZM14.4785 8.60511H13.3046C13.2185 8.60511 13.148 8.67159 13.148 8.75284V11.5966H1.48698V8.75284C1.48698 8.67159 1.41655 8.60511 1.33046 8.60511H0.156524C0.070436 8.60511 0 8.67159 0 8.75284V12.4091C0 12.7359 0.279787 13 0.626097 13H14.0089C14.3552 13 14.635 12.7359 14.635 12.4091V8.75284C14.635 8.67159 14.5646 8.60511 14.4785 8.60511Z" fill="#11256D"/>
</svg>
