<svg width="23" height="23" viewBox="0 0 23 23" fill="none" xmlns="http://www.w3.org/2000/svg">
<g clip-path="url(#clip0_2915_852)">
<path fill-rule="evenodd" clip-rule="evenodd" d="M21.258 0H1.242C0.55575 0 0 0.55575 0 1.242V21.258C0 21.9443 0.55575 22.5 1.242 22.5H12.0173V13.7869H9.0855V10.3916H12.0173V7.88625C12.0173 4.97925 13.7925 3.3975 16.3856 3.3975C17.6276 3.3975 18.6941 3.48975 19.0057 3.53137V6.56888H17.208C15.7972 6.56888 15.525 7.23938 15.525 8.22262V10.3905H18.8876L18.4489 13.7857H15.5239V22.5H21.258C21.9443 22.5 22.5 21.9443 22.5 21.258V1.242C22.5 0.55575 21.9443 0 21.258 0Z" fill="black"/>
</g>
<defs>
<clipPath id="clip0_2915_852">
<rect width="22.5" height="22.5" fill="white"/>
</clipPath>
</defs>
</svg>
