<svg width="30" height="30" viewBox="0 0 30 30" fill="none" xmlns="http://www.w3.org/2000/svg">
<path d="M13.2362 16.7622C13.7487 17.2497 13.7487 18.0497 13.2362 18.5372C12.7487 19.0247 11.9487 19.0247 11.4612 18.5372C10.2904 17.3646 9.63281 15.7754 9.63281 14.1184C9.63281 12.4614 10.2904 10.8722 11.4612 9.69965L15.8862 5.27465C17.0587 4.10388 18.648 3.44629 20.3049 3.44629C21.9619 3.44629 23.5511 4.10388 24.7237 5.27465C25.8945 6.44719 26.552 8.03643 26.552 9.6934C26.552 11.3504 25.8945 12.9396 24.7237 14.1122L22.8612 15.9747C22.8737 14.9497 22.7112 13.9247 22.3612 12.9497L22.9487 12.3497C23.2991 12.003 23.5773 11.5903 23.7672 11.1354C23.957 10.6806 24.0548 10.1926 24.0548 9.69965C24.0548 9.20675 23.957 8.71874 23.7672 8.26387C23.5773 7.80899 23.2991 7.39629 22.9487 7.04965C22.602 6.69923 22.1893 6.42104 21.7345 6.23118C21.2796 6.04132 20.7916 5.94356 20.2987 5.94356C19.8058 5.94356 19.3178 6.04132 18.8629 6.23118C18.408 6.42104 17.9953 6.69923 17.6487 7.04965L13.2362 11.4622C12.8858 11.8088 12.6076 12.2215 12.4177 12.6764C12.2278 13.1312 12.1301 13.6192 12.1301 14.1122C12.1301 14.6051 12.2278 15.0931 12.4177 15.5479C12.6076 16.0028 12.8858 16.4155 13.2362 16.7622ZM16.7612 11.4622C17.2487 10.9747 18.0487 10.9747 18.5362 11.4622C19.707 12.6347 20.3645 14.2239 20.3645 15.8809C20.3645 17.5379 19.707 19.1271 18.5362 20.2997L14.1112 24.7247C12.9386 25.8954 11.3494 26.553 9.69243 26.553C8.03546 26.553 6.44621 25.8954 5.27368 24.7247C4.1029 23.5521 3.44531 21.9629 3.44531 20.3059C3.44531 18.6489 4.1029 17.0597 5.27368 15.8872L7.13618 14.0247C7.12368 15.0497 7.28618 16.0747 7.63618 17.0622L7.04868 17.6497C6.69825 17.9963 6.42006 18.409 6.2302 18.8639C6.04034 19.3187 5.94258 19.8067 5.94258 20.2997C5.94258 20.7926 6.04034 21.2806 6.2302 21.7354C6.42006 22.1903 6.69825 22.603 7.04868 22.9497C7.39532 23.3001 7.80802 23.5783 8.26289 23.7681C8.71776 23.958 9.20577 24.0557 9.69868 24.0557C10.1916 24.0557 10.6796 23.958 11.1345 23.7681C11.5893 23.5783 12.002 23.3001 12.3487 22.9497L16.7612 18.5372C17.1116 18.1905 17.3898 17.7778 17.5797 17.3229C17.7695 16.8681 17.8673 16.3801 17.8673 15.8872C17.8673 15.3942 17.7695 14.9062 17.5797 14.4514C17.3898 13.9965 17.1116 13.5838 16.7612 13.2372C16.6398 13.1234 16.543 12.9859 16.4768 12.8333C16.4107 12.6806 16.3766 12.516 16.3766 12.3497C16.3766 12.1833 16.4107 12.0187 16.4768 11.866C16.543 11.7134 16.6398 11.5759 16.7612 11.4622Z" fill="black"/>
</svg>
