<svg width="9" height="9" viewBox="0 0 9 9" fill="none" xmlns="http://www.w3.org/2000/svg">
<path d="M4.5 0.5625C2.94732 0.5625 1.6875 1.69646 1.6875 3.09375C1.6875 5.34375 4.5 8.4375 4.5 8.4375C4.5 8.4375 7.3125 5.34375 7.3125 3.09375C7.3125 1.69646 6.05268 0.5625 4.5 0.5625ZM4.5 4.5C4.2775 4.5 4.05999 4.43402 3.87498 4.3104C3.68998 4.18679 3.54578 4.01109 3.46064 3.80552C3.37549 3.59995 3.35321 3.37375 3.39662 3.15552C3.44002 2.93729 3.54717 2.73684 3.7045 2.5795C3.86184 2.42217 4.06229 2.31502 4.28052 2.27162C4.49875 2.22821 4.72495 2.25049 4.93052 2.33564C5.13609 2.42078 5.31179 2.56498 5.4354 2.74998C5.55902 2.93499 5.625 3.1525 5.625 3.375C5.62467 3.67327 5.50604 3.95923 5.29514 4.17014C5.08423 4.38104 4.79827 4.49967 4.5 4.5Z" fill="#666666"/>
</svg>
