<svg width="100" height="100" viewBox="0 0 100 100" fill="none" xmlns="http://www.w3.org/2000/svg">
<path d="M50 55C48.4777 54.9822 46.9866 55.4312 45.7272 56.2865C44.4678 57.1418 43.5007 58.3624 42.9561 59.784C42.4114 61.2056 42.3153 62.7599 42.6807 64.2378C43.0462 65.7157 43.8556 67.0461 45 68.05V75C45 76.3261 45.5268 77.5979 46.4645 78.5355C47.4021 79.4732 48.6739 80 50 80C51.3261 80 52.5979 79.4732 53.5355 78.5355C54.4732 77.5979 55 76.3261 55 75V68.05C56.1444 67.0461 56.9538 65.7157 57.3193 64.2378C57.6847 62.7599 57.5886 61.2056 57.0439 59.784C56.4993 58.3624 55.5322 57.1418 54.2728 56.2865C53.0134 55.4312 51.5223 54.9822 50 55ZM75 35V25C75 18.3696 72.3661 12.0107 67.6777 7.32233C62.9893 2.63392 56.6304 0 50 0C43.3696 0 37.0107 2.63392 32.3223 7.32233C27.6339 12.0107 25 18.3696 25 25V35C21.0218 35 17.2064 36.5803 14.3934 39.3934C11.5804 42.2064 10 46.0218 10 50V85C10 88.9782 11.5804 92.7936 14.3934 95.6066C17.2064 98.4196 21.0218 100 25 100H75C78.9782 100 82.7936 98.4196 85.6066 95.6066C88.4196 92.7936 90 88.9782 90 85V50C90 46.0218 88.4196 42.2064 85.6066 39.3934C82.7936 36.5803 78.9782 35 75 35ZM35 25C35 21.0218 36.5804 17.2064 39.3934 14.3934C42.2064 11.5804 46.0218 10 50 10C53.9782 10 57.7936 11.5804 60.6066 14.3934C63.4197 17.2064 65 21.0218 65 25V35H35V25ZM80 85C80 86.3261 79.4732 87.5979 78.5355 88.5355C77.5979 89.4732 76.3261 90 75 90H25C23.6739 90 22.4021 89.4732 21.4645 88.5355C20.5268 87.5979 20 86.3261 20 85V50C20 48.6739 20.5268 47.4021 21.4645 46.4645C22.4021 45.5268 23.6739 45 25 45H75C76.3261 45 77.5979 45.5268 78.5355 46.4645C79.4732 47.4021 80 48.6739 80 50V85Z" fill="white"/>
</svg>
