<svg width="22" height="22" viewBox="0 0 22 22" fill="none" xmlns="http://www.w3.org/2000/svg">
<path d="M4.23042 17.4173C3.80875 17.4173 3.45675 17.2761 3.17442 16.9938C2.89147 16.7109 2.75 16.3586 2.75 15.9369V6.0644C2.75 5.64273 2.89147 5.29073 3.17442 5.0084C3.45675 4.72546 3.80875 4.58398 4.23042 4.58398H17.7696C18.1913 4.58398 18.5433 4.72546 18.8256 5.0084C19.1085 5.29073 19.25 5.64273 19.25 6.0644V15.9369C19.25 16.3586 19.1088 16.7106 18.8265 16.9929C18.5436 17.2758 18.1913 17.4173 17.7696 17.4173H4.23042ZM11 11.1061L18.3333 6.3119L18.051 5.50065L11 10.084L3.949 5.50065L3.66667 6.3119L11 11.1061Z" fill="#CCCCCC"/>
</svg>
