<svg width="11" height="11" viewBox="0 0 11 11" fill="none" xmlns="http://www.w3.org/2000/svg">
<path d="M2.11521 8.70835C1.90437 8.70835 1.72838 8.63777 1.58721 8.4966C1.44574 8.35513 1.375 8.17898 1.375 7.96814V3.0319C1.375 2.82106 1.44574 2.64506 1.58721 2.5039C1.72838 2.36242 1.90437 2.29169 2.11521 2.29169H8.88479C9.09563 2.29169 9.27163 2.36242 9.41279 2.5039C9.55426 2.64506 9.625 2.82106 9.625 3.0319V7.96814C9.625 8.17898 9.55442 8.35498 9.41325 8.49614C9.27178 8.63762 9.09563 8.70835 8.88479 8.70835H2.11521ZM5.5 5.55273L9.16667 3.15565L9.0255 2.75002L5.5 5.04169L1.9745 2.75002L1.83333 3.15565L5.5 5.55273Z" fill="#666666"/>
</svg>
