<svg width="125" height="125" viewBox="0 0 125 125" fill="none" xmlns="http://www.w3.org/2000/svg">
<path d="M4.21872 30.2344L3.90622 23.4375C3.90622 19.2935 5.55242 15.3192 8.48267 12.389C11.4129 9.4587 15.3872 7.8125 19.5312 7.8125H48.2187C52.3624 7.81338 56.336 9.46017 59.2656 12.3906L65.7343 18.8594C68.6639 21.7898 72.6375 23.4366 76.7812 23.4375H107.891C110.062 23.4373 112.209 23.8896 114.196 24.7656C116.183 25.6415 117.965 26.922 119.429 28.5252C120.894 30.1284 122.008 32.0191 122.7 34.0769C123.393 36.1347 123.65 38.3142 123.453 40.4766L121.453 62.5H113.594L115.664 39.7656C115.762 38.6854 115.633 37.5967 115.287 36.5688C114.941 35.541 114.384 34.5964 113.653 33.7954C112.922 32.9943 112.032 32.3543 111.04 31.9161C110.048 31.4779 108.975 31.251 107.891 31.25H17.1093C16.0241 31.2499 14.9507 31.476 13.9576 31.9137C12.9646 32.3515 12.0736 32.9913 11.3415 33.7925C10.6095 34.5937 10.0523 35.5386 9.70567 36.567C9.35901 37.5954 9.23042 38.6848 9.32809 39.7656L14.3047 94.4531C14.4801 96.3942 15.3747 98.1997 16.8129 99.515C18.2511 100.83 20.1291 101.561 22.0781 101.562H70.3125V109.375H22.0781C18.1799 109.373 14.4232 107.915 11.5453 105.286C8.66735 102.656 6.87619 99.0462 6.5234 95.1641L1.54684 40.4766C1.21392 36.8577 2.1593 33.2365 4.21872 30.2422V30.2344ZM53.7422 17.9141C52.2774 16.4488 50.2906 15.6254 48.2187 15.625H19.5312C17.4847 15.6246 15.5197 16.4273 14.0588 17.8605C12.5978 19.2937 11.7576 21.2429 11.7187 23.2891L11.7656 24.375C13.4375 23.7656 15.2343 23.4375 17.1093 23.4375H59.2656L53.7422 17.9141Z" fill="#999999"/>
<path d="M92.6093 79.2656C91.8759 78.5332 90.8814 78.1221 89.8449 78.1228C88.8083 78.1236 87.8145 78.536 87.082 79.2695C86.3495 80.003 85.9385 80.9974 85.9392 82.034C85.9399 83.0706 86.3524 84.0644 87.0859 84.7969L96.039 93.75L87.0859 102.703C86.7227 103.066 86.4345 103.496 86.2378 103.971C86.041 104.445 85.9396 104.953 85.9392 105.466C85.9385 106.503 86.3495 107.497 87.082 108.23C87.8145 108.964 88.8083 109.376 89.8449 109.377C90.8814 109.378 91.8759 108.967 92.6093 108.234L101.562 99.2734L110.516 108.234C111.249 108.968 112.244 109.38 113.281 109.38C114.319 109.38 115.313 108.968 116.047 108.234C116.78 107.501 117.192 106.506 117.192 105.469C117.192 104.431 116.78 103.437 116.047 102.703L107.086 93.75L116.047 84.7969C116.78 84.0644 117.193 83.0706 117.194 82.034C117.194 80.9974 116.783 80.003 116.051 79.2695C115.318 78.536 114.324 78.1236 113.288 78.1228C112.251 78.1221 111.257 78.5332 110.523 79.2656L101.562 88.2266L92.6093 79.2656Z" fill="#999999"/>
<path d="M51.3889 54.3055V54.0278M73.6111 54.3055V54.0278" stroke="#999999" stroke-width="4" stroke-linecap="round"/>
<path d="M73.6111 73.6111C72.2222 69.4444 68.6389 65.2778 62.5 65.2778C56.3611 65.2778 52.7778 69.4444 51.3889 73.6111" stroke="#999999" stroke-width="4" stroke-linecap="round" stroke-linejoin="round"/>
</svg>
