<svg width="100" height="100" viewBox="0 0 100 100" fill="none" xmlns="http://www.w3.org/2000/svg">
<path d="M69.6591 82.3L66.9924 60.95C66.6145 57.9259 65.1449 55.1441 62.8598 53.1276C60.5747 51.1111 57.6317 49.9988 54.5841 50H45.4008C42.3546 50.0009 39.4136 51.114 37.1303 53.1303C34.847 55.1467 33.3785 57.9274 33.0008 60.95L30.3299 82.3C30.1834 83.473 30.288 84.6637 30.6369 85.7931C30.9859 86.9225 31.5711 87.9648 32.3537 88.8507C33.1364 89.7366 34.0985 90.4459 35.1763 90.9314C36.2541 91.4169 37.4228 91.6675 38.6049 91.6667H61.3883C62.57 91.6669 63.7383 91.4158 64.8156 90.9301C65.8929 90.4443 66.8545 89.735 67.6367 88.8492C68.4189 87.9633 69.0037 86.9213 69.3524 85.7921C69.7011 84.663 69.8056 83.4726 69.6591 82.3V82.3Z" stroke="white" stroke-width="3" stroke-linecap="round" stroke-linejoin="round"/>
<path d="M50 33.333C56.9036 33.333 62.5 27.7366 62.5 20.833C62.5 13.9294 56.9036 8.33301 50 8.33301C43.0964 8.33301 37.5 13.9294 37.5 20.833C37.5 27.7366 43.0964 33.333 50 33.333Z" stroke="white" stroke-width="3"/>
<path d="M16.6654 45.8327C21.2677 45.8327 24.9987 42.1017 24.9987 37.4994C24.9987 32.897 21.2677 29.166 16.6654 29.166C12.063 29.166 8.33203 32.897 8.33203 37.4994C8.33203 42.1017 12.063 45.8327 16.6654 45.8327Z" stroke="white" stroke-width="3"/>
<path d="M83.3333 45.8327C87.9357 45.8327 91.6667 42.1017 91.6667 37.4994C91.6667 32.897 87.9357 29.166 83.3333 29.166C78.731 29.166 75 32.897 75 37.4994C75 42.1017 78.731 45.8327 83.3333 45.8327Z" stroke="white" stroke-width="3"/>
<path d="M16.6648 58.333H15.3898C13.4172 58.3328 11.5084 59.0323 10.0031 60.3072C8.49774 61.5821 7.4935 63.3497 7.16899 65.2955L5.78149 73.6288C5.58238 74.8228 5.64575 76.0458 5.9672 77.2127C6.28865 78.3797 6.86046 79.4626 7.64286 80.3862C8.42526 81.3098 9.39946 82.0518 10.4977 82.5607C11.596 83.0696 12.7919 83.3332 14.0023 83.333H29.1648M83.3315 58.333H84.6065C86.5792 58.3328 88.4879 59.0323 89.9933 60.3072C91.4986 61.5821 92.5028 63.3497 92.8273 65.2955L94.2148 73.6288C94.4139 74.8228 94.3506 76.0458 94.0291 77.2127C93.7077 78.3797 93.1359 79.4626 92.3535 80.3862C91.5711 81.3098 90.5969 82.0518 89.4986 82.5607C88.4004 83.0696 87.2044 83.3332 85.994 83.333H70.8315" stroke="white" stroke-width="3" stroke-linecap="round" stroke-linejoin="round"/>
</svg>
