<svg width="152" height="130" viewBox="0 0 152 130" fill="none" xmlns="http://www.w3.org/2000/svg">
<g clip-path="url(#clip0_1704_404)">
<path d="M24.3186 30.3806C24.0801 28.2316 23.1186 26.2275 21.5917 24.6967C20.0648 23.1659 18.063 22.1993 15.9147 21.9554C13.7664 21.7115 11.5989 22.2048 9.76772 23.3543C7.9365 24.5038 6.55018 26.2414 5.83604 28.2822C4.19962 28.4162 2.67843 29.1779 1.59092 30.408C0.503397 31.6381 -0.0661488 33.2412 0.00149794 34.8817C0.0691447 36.5222 0.76874 38.0729 1.95384 39.2093C3.13894 40.3457 4.71768 40.9796 6.35957 40.9784H24.3758C25.7812 40.9708 27.1259 40.4052 28.1143 39.4061C29.1027 38.407 29.6537 37.0562 29.6461 35.6509C29.6385 34.2455 29.0729 32.9007 28.0738 31.9124C27.0747 30.924 25.7239 30.373 24.3186 30.3806Z" fill="#F0F2FA"/>
<path d="M30.8273 32.0162C30.3257 31.1333 29.6484 30.3626 28.8373 29.7516C28.0262 29.1406 27.0984 28.7023 26.1113 28.4639C25.3587 25.6144 23.555 23.1556 21.0632 21.5819C18.5713 20.0082 15.576 19.4364 12.6797 19.9814C13.4925 18.4846 14.7371 17.2671 16.2515 16.4876C17.7659 15.708 19.4799 15.4023 21.1704 15.6104C22.8609 15.8185 24.4496 16.5308 25.7297 17.6544C27.0098 18.778 27.9219 20.2609 28.3475 21.9102C29.5779 21.8474 30.7919 22.2153 31.7804 22.9507C32.769 23.6861 33.4703 24.743 33.7639 25.9396C34.0575 27.1362 33.9249 28.3977 33.3889 29.5072C32.853 30.6166 31.9472 31.5046 30.8273 32.0184V32.0162Z" fill="#F0F2FA"/>
</g>
<g clip-path="url(#clip1_1704_404)">
<path d="M138.684 31.0882C138.366 28.2229 137.084 25.5507 135.048 23.5097C133.012 21.4686 130.343 20.1798 127.479 19.8546C124.614 19.5294 121.724 20.1871 119.283 21.7198C116.841 23.2525 114.993 25.5693 114.041 28.2904C111.859 28.4689 109.83 29.4846 108.38 31.1247C106.93 32.7649 106.171 34.9023 106.261 37.0896C106.351 39.277 107.284 41.3446 108.864 42.8598C110.444 44.375 112.549 45.2202 114.739 45.2185H138.76C140.634 45.2084 142.427 44.4544 143.745 43.1222C145.063 41.7901 145.797 39.989 145.787 38.1152C145.777 36.2414 145.023 34.4484 143.691 33.1305C142.359 31.8127 140.558 31.0781 138.684 31.0882Z" fill="#F0F2FA"/>
<path d="M147.361 33.2697C146.692 32.0924 145.789 31.0648 144.708 30.2501C143.626 29.4355 142.389 28.8512 141.073 28.5332C140.069 24.7339 137.665 21.4555 134.342 19.3573C131.02 17.259 127.026 16.4966 123.164 17.2232C124.248 15.2275 125.907 13.6042 127.926 12.5648C129.946 11.5253 132.231 11.1178 134.485 11.3953C136.739 11.6728 138.857 12.6224 140.564 14.1205C142.271 15.6187 143.487 17.596 144.054 19.795C145.695 19.7112 147.314 20.2018 148.632 21.1823C149.95 22.1629 150.885 23.5721 151.276 25.1675C151.668 26.763 151.491 28.445 150.776 29.9243C150.062 31.4035 148.854 32.5875 147.361 33.2725V33.2697Z" fill="#F0F2FA"/>
</g>
<g clip-path="url(#clip2_1704_404)">
<path d="M134.16 110.219C133.842 107.354 132.56 104.682 130.525 102.641C128.489 100.599 125.82 99.3107 122.955 98.9855C120.091 98.6603 117.201 99.318 114.759 100.851C112.318 102.383 110.469 104.7 109.517 107.421C107.335 107.6 105.307 108.615 103.857 110.256C102.407 111.896 101.647 114.033 101.738 116.22C101.828 118.408 102.761 120.475 104.341 121.991C105.921 123.506 108.026 124.351 110.215 124.349H134.237C136.111 124.339 137.904 123.585 139.221 122.253C140.539 120.921 141.274 119.12 141.264 117.246C141.254 115.372 140.5 113.579 139.167 112.261C137.835 110.944 136.034 110.209 134.16 110.219Z" fill="#DAE2F4"/>
<path d="M142.837 112.401C142.169 111.223 141.266 110.196 140.184 109.381C139.103 108.566 137.866 107.982 136.549 107.664C135.546 103.865 133.141 100.586 129.819 98.4881C126.496 96.3899 122.502 95.6274 118.641 96.3541C119.724 94.3583 121.384 92.7351 123.403 91.6956C125.422 90.6562 127.708 90.2487 129.962 90.5262C132.216 90.8036 134.334 91.7533 136.041 93.2514C137.747 94.7495 138.964 96.7268 139.531 98.9258C141.172 98.8421 142.79 99.3326 144.108 100.313C145.426 101.294 146.361 102.703 146.753 104.298C147.144 105.894 146.968 107.576 146.253 109.055C145.538 110.534 144.331 111.718 142.837 112.403V112.401Z" fill="#DAE2F4"/>
</g>
<path d="M120.499 15.1558C120.022 14.6812 119.42 14.3527 118.763 14.2088C118.106 14.0648 117.421 14.1115 116.79 14.3433L39.0727 42.604C38.4025 42.8583 37.8254 43.3104 37.4183 43.9003C37.0111 44.4903 36.793 45.1902 36.793 45.907C36.793 46.6238 37.0111 47.3237 37.4183 47.9137C37.8254 48.5036 38.4025 48.9558 39.0727 49.21L69.4177 61.3268L91.8144 38.8595L96.7953 43.8404L74.2927 66.3431L86.4448 96.6881C86.7066 97.3454 87.1597 97.9089 87.7455 98.3057C88.3312 98.7025 89.0226 98.9143 89.7301 98.9136C90.444 98.899 91.1367 98.6683 91.7169 98.2521C92.2971 97.8359 92.7375 97.2536 92.9801 96.5821L121.241 18.865C121.482 18.24 121.54 17.5595 121.408 16.9027C121.277 16.246 120.962 15.6401 120.499 15.1558Z" fill="#11256D"/>
<defs>
<clipPath id="clip0_1704_404">
<rect width="33.9129" height="33.9129" fill="white" transform="translate(0 11.3047)"/>
</clipPath>
<clipPath id="clip1_1704_404">
<rect width="45.2172" height="45.2172" fill="white" transform="translate(106.262 5.65234)"/>
</clipPath>
<clipPath id="clip2_1704_404">
<rect width="45.2172" height="45.2172" fill="white" transform="translate(101.738 84.7832)"/>
</clipPath>
</defs>
</svg>
