<svg width="100" height="100" viewBox="0 0 100 100" fill="none" xmlns="http://www.w3.org/2000/svg">
<path d="M89.81 26.5449C89.9996 27.0016 90.0495 27.5043 89.9533 27.9893C89.8572 28.4744 89.6194 28.92 89.27 29.2699L79.27 39.2699C79.0374 39.5019 78.7614 39.6858 78.4576 39.8111C78.1539 39.9363 77.8285 40.0005 77.5 39.9999H63.535L56.77 46.7649C57.5326 48.3614 57.7062 50.1761 57.2602 51.8882C56.8142 53.6003 55.7773 55.0996 54.3327 56.1211C52.8881 57.1426 51.1289 57.6206 49.3661 57.4705C47.6032 57.3204 45.9502 56.5519 44.6991 55.3008C43.4481 54.0498 42.6796 52.3967 42.5294 50.6338C42.3793 48.871 42.8573 47.1118 43.8788 45.6672C44.9003 44.2227 46.3996 43.1857 48.1117 42.7397C49.8239 42.2937 51.6385 42.4673 53.235 43.2299L60 36.4649V22.4999C59.9994 22.1714 60.0636 21.846 60.1888 21.5423C60.3141 21.2385 60.498 20.9625 60.73 20.7299L70.73 10.7299C71.0796 10.3794 71.5255 10.1406 72.011 10.0437C72.4966 9.94688 73 9.9964 73.4573 10.186C73.9147 10.3756 74.3055 10.6967 74.5801 11.1086C74.8547 11.5206 75.0009 12.0048 75 12.4999V24.9999H87.5C87.9947 25 88.4783 25.1468 88.8895 25.4219C89.3007 25.6969 89.621 26.0877 89.81 26.5449ZM81.465 29.9999H72.5C71.837 29.9999 71.2011 29.7365 70.7322 29.2677C70.2634 28.7988 70 28.163 70 27.4999V18.5349L65 23.5349V34.9999H76.465L81.465 29.9999ZM88.035 37.5749C89.31 41.4849 90 45.6649 90 49.9999C89.9982 58.4496 87.3206 66.6817 82.3512 73.5156C77.3819 80.3496 70.376 85.4343 62.3384 88.0407C54.3007 90.6471 45.6441 90.6412 37.61 88.0239C29.5759 85.4067 22.577 80.3124 17.6169 73.4717C12.6568 66.6311 9.99041 58.3954 10 49.9457C10.0096 41.496 12.6948 33.2664 17.6704 26.437C22.6461 19.6076 29.6566 14.5294 37.6967 11.9304C45.7367 9.33138 54.3933 9.34522 62.425 11.9699L58.385 16.0099C50.963 14.1799 43.1459 14.8301 36.1281 17.8612C29.1104 20.8922 23.278 26.1375 19.5221 32.7955C15.7662 39.4535 14.2933 47.1581 15.3285 54.732C16.3637 62.3059 19.8501 69.3326 25.2549 74.7385C30.6598 80.1444 37.6858 83.6321 45.2595 84.6688C52.8332 85.7055 60.5381 84.2341 67.1968 80.4795C73.8556 76.7249 79.102 70.8935 82.1344 63.8764C85.1669 56.8593 85.8186 49.0423 83.99 41.6199L88.035 37.5749ZM74.5 44.9999C75.5738 50.2652 74.9225 55.7364 72.6426 60.6025C70.3627 65.4686 66.5755 69.4705 61.8424 72.0151C57.1094 74.5597 51.6824 75.5116 46.3659 74.7295C41.0494 73.9474 36.1264 71.4731 32.3266 67.6733C28.5268 63.8736 26.0525 58.9505 25.2704 53.634C24.4883 48.3175 25.4402 42.8905 27.9848 38.1575C30.5294 33.4244 34.5313 29.6372 39.3974 27.3573C44.2635 25.0774 49.7347 24.4261 55 25.4999V30.6299C50.7524 29.5341 46.2622 29.8652 42.2213 31.5723C38.1803 33.2793 34.8127 36.2676 32.6371 40.0768C30.4615 43.886 29.5986 48.3048 30.1813 52.6526C30.764 57.0005 32.76 61.0361 35.8619 64.138C38.9638 67.2399 42.9994 69.2359 47.3473 69.8186C51.6951 70.4013 56.114 69.5384 59.9232 67.3628C63.7323 65.1872 66.7206 61.8196 68.4276 57.7786C70.1347 53.7377 70.4658 49.2476 69.37 44.9999H74.5Z" fill="white"/>
</svg>
