<svg width="30" height="30" viewBox="0 0 30 30" fill="none" xmlns="http://www.w3.org/2000/svg">
<path d="M29.6101 7.64706C28.591 8.11029 27.4925 8.41471 26.3542 8.56029C27.5189 7.85882 28.4189 6.74706 28.8425 5.41029C27.7439 6.07206 26.5263 6.53529 25.2425 6.8C24.1969 5.66176 22.7278 5 21.0601 5C17.9498 5 15.4086 7.54118 15.4086 10.6779C15.4086 11.1279 15.4616 11.5647 15.5542 11.975C10.8425 11.7368 6.64687 9.47353 3.85423 6.04559C3.36452 6.87941 3.08658 7.85882 3.08658 8.89118C3.08658 10.8632 4.07923 12.6103 5.61452 13.6029C4.67482 13.6029 3.80129 13.3382 3.03364 12.9412V12.9809C3.03364 15.7338 4.99246 18.0368 7.58658 18.5529C6.75372 18.7809 5.87935 18.8126 5.03217 18.6456C5.39165 19.7739 6.09567 20.7611 7.04528 21.4686C7.99488 22.176 9.14232 22.5681 10.3263 22.5897C8.31933 24.1785 5.83158 25.0373 3.27187 25.025C2.82187 25.025 2.37187 24.9985 1.92188 24.9456C4.43658 26.5603 7.42776 27.5 10.6307 27.5C21.0601 27.5 26.791 18.8441 26.791 11.3397C26.791 11.0882 26.791 10.85 26.7778 10.5985C27.8895 9.80441 28.8425 8.79853 29.6101 7.64706Z" fill="black"/>
</svg>
