<svg width="11" height="11" viewBox="0 0 11 11" fill="none" xmlns="http://www.w3.org/2000/svg">
<path d="M5.0625 10.0625C4.94792 9.94792 4.88792 9.80208 4.8825 9.625C4.8775 9.44792 4.93229 9.30208 5.04687 9.1875L8.10937 6.125H1.125C0.947917 6.125 0.799375 6.065 0.679375 5.945C0.559792 5.82542 0.5 5.67708 0.5 5.5C0.5 5.32292 0.559792 5.17438 0.679375 5.05438C0.799375 4.93479 0.947917 4.875 1.125 4.875H8.10937L5.04687 1.8125C4.93229 1.69792 4.8775 1.55208 4.8825 1.375C4.88792 1.19792 4.94792 1.05208 5.0625 0.9375C5.17708 0.822916 5.32292 0.765625 5.5 0.765625C5.67708 0.765625 5.82292 0.822916 5.9375 0.9375L10.0625 5.0625C10.125 5.11458 10.1694 5.17958 10.1956 5.2575C10.2215 5.33583 10.2344 5.41667 10.2344 5.5C10.2344 5.58333 10.2215 5.66146 10.1956 5.73438C10.1694 5.80729 10.125 5.875 10.0625 5.9375L5.9375 10.0625C5.82292 10.1771 5.67708 10.2344 5.5 10.2344C5.32292 10.2344 5.17708 10.1771 5.0625 10.0625Z" fill="#11256D"/>
</svg>
