<svg width="96" height="70" viewBox="0 0 96 70" fill="none" xmlns="http://www.w3.org/2000/svg">
<path d="M55.9715 32.0269L55.9883 32.0101L56.0043 31.9924C57.3272 30.5373 57.3801 28.2218 55.8553 26.8176C54.3703 25.35 52.0587 25.3556 50.58 26.8343L42.0498 35.3645L39.1772 32.4122L39.1773 32.4121L39.1676 32.4024C37.6833 30.9182 35.3598 30.9182 33.8756 32.4024C32.3913 33.8867 32.3913 36.2102 33.8756 37.6945L33.8756 37.6945L33.8819 37.7007L39.5466 43.2661C40.2233 43.9409 41.1691 44.351 42.1395 44.351C43.1115 44.351 44.0588 43.9395 44.7358 43.2626L55.9715 32.0269ZM57.253 15.1182C57.7348 15.1182 58.0592 15.2449 58.3357 15.5213L64.3593 21.5449C64.6493 21.9193 64.8041 22.2885 64.8041 22.6693V47.3282C64.8041 47.81 64.6774 48.1344 64.401 48.4109L58.3774 54.4345C58.003 54.7245 57.6337 54.8793 57.253 54.8793H32.5941C32.1123 54.8793 31.7878 54.7526 31.5114 54.4762L25.4878 48.4526C25.1978 48.0782 25.043 47.7089 25.043 47.3282V22.6693C25.043 22.1875 25.1697 21.863 25.4461 21.5866L31.4697 15.563C31.8441 15.273 32.2133 15.1182 32.5941 15.1182H57.253Z" stroke="white" stroke-width="2"/>
<path d="M54.4689 10.4403C55.861 10.4403 56.9547 9.34654 56.9547 7.9545V2.48578C56.9547 1.09374 55.861 0 54.4689 0C53.0769 0 51.9832 1.19317 51.9832 2.58521V8.05393C51.9832 9.34654 53.0769 10.4403 54.4689 10.4403Z" fill="white"/>
<path d="M44.9235 10.4403C46.3156 10.4403 47.4093 9.34654 47.4093 7.9545V2.48578C47.4093 1.09374 46.3156 0 44.9235 0C43.5315 0 42.4377 1.09374 42.4377 2.48578V7.9545C42.4377 9.34654 43.5315 10.4403 44.9235 10.4403Z" fill="white"/>
<path d="M35.3784 10.4403C36.7704 10.4403 37.8641 9.34654 37.8641 7.9545V2.48578C37.8641 1.09374 36.7704 0 35.3784 0C33.9863 0 32.8926 1.09374 32.8926 2.48578V7.9545C32.8926 9.34654 34.0858 10.4403 35.3784 10.4403Z" fill="white"/>
<path d="M54.4689 59.5586C53.0769 59.5586 51.9832 60.6523 51.9832 62.0444V67.5131C51.9832 68.9051 53.0769 69.9989 54.4689 69.9989C55.861 69.9989 56.9547 68.8057 56.9547 67.4137V61.9449C56.9547 60.6523 55.7615 59.5586 54.4689 59.5586Z" fill="white"/>
<path d="M44.9235 59.5586C43.5315 59.5586 42.4377 60.6523 42.4377 62.0444V67.5131C42.4377 68.9051 43.5315 69.9989 44.9235 69.9989C46.3156 69.9989 47.4093 68.9051 47.4093 67.5131V62.0444C47.4093 60.6523 46.3156 59.5586 44.9235 59.5586Z" fill="white"/>
<path d="M35.3784 59.5586C33.9863 59.5586 32.8926 60.6523 32.8926 62.0444V67.5131C32.8926 68.9051 33.9863 69.9989 35.3784 69.9989C36.7704 69.9989 37.8641 68.9051 37.8641 67.5131V62.0444C37.8641 60.6523 36.7704 59.5586 35.3784 59.5586Z" fill="white"/>
<path d="M77.3383 42.0615H71.8696C70.4775 42.0615 69.3838 43.1553 69.3838 44.5473C69.3838 45.9393 70.4775 47.0331 71.8696 47.0331H77.3383C78.7303 47.0331 79.8241 45.9393 79.8241 44.5473C79.8241 43.1553 78.7303 42.0615 77.3383 42.0615Z" fill="white"/>
<path d="M71.9689 27.9403H77.4377C78.8297 27.9403 79.9234 26.8466 79.9234 25.4545C79.9234 24.0625 78.8297 22.9688 77.4377 22.9688H71.9689C70.5769 22.9688 69.4832 24.0625 69.4832 25.4545C69.4832 26.8466 70.5769 27.9403 71.9689 27.9403Z" fill="white"/>
<path d="M17.8783 42.0615H12.4096C11.0176 42.0615 9.92383 43.1553 9.92383 44.5473C9.92383 45.9393 11.0176 47.0331 12.4096 47.0331H17.8783C19.2704 47.0331 20.3641 45.9393 20.3641 44.5473C20.3641 43.1553 19.2704 42.0615 17.8783 42.0615Z" fill="white"/>
<path d="M17.8783 32.5137H3.2619C1.86987 32.5137 0.776123 33.6074 0.776123 34.9995C0.776123 36.3915 1.86987 37.4852 3.2619 37.4852H17.8783C19.2703 37.4852 20.3641 36.3915 20.3641 34.9995C20.3641 33.6074 19.2703 32.5137 17.8783 32.5137Z" fill="white"/>
<path d="M17.8783 22.9688H12.4096C11.0176 22.9688 9.92383 24.0625 9.92383 25.4545C9.92383 26.8466 11.0176 27.9403 12.4096 27.9403H17.8783C19.2704 27.9403 20.3641 26.8466 20.3641 25.4545C20.3641 24.0625 19.2704 22.9688 17.8783 22.9688Z" fill="white"/>
<path d="M94.5398 33.2107L88.0768 26.7477C87.0825 25.7534 85.4916 25.7534 84.5967 26.7477C83.7018 27.742 83.6024 29.3329 84.5967 30.2278L86.7842 32.4153H71.9689C70.5769 32.4153 69.4832 33.509 69.4832 34.9011C69.4832 36.2931 70.5769 37.3868 71.9689 37.3868H86.7842L84.5967 39.5743C83.6024 40.5686 83.6024 42.1595 84.5967 43.0544C85.0939 43.5516 85.6905 43.7504 86.3865 43.7504C87.0825 43.7504 87.6791 43.5516 88.1762 43.0544L94.6393 36.5914C95.4347 35.7959 95.4347 34.205 94.5398 33.2107Z" fill="white"/>
</svg>
