<svg width="70" height="70" viewBox="0 0 70 70" fill="none" xmlns="http://www.w3.org/2000/svg">
<path d="M49.5833 55.417L40.8333 49.5837M29.1667 43.7503L20.4167 37.917M20.4167 32.0837L29.1667 26.2503M40.8333 20.417L49.5833 14.5837M40.8333 26.2503L49.5833 32.0837M40.8333 43.7503L49.5833 37.917M14.5833 40.8337C16.1304 40.8337 17.6142 40.2191 18.7081 39.1251C19.8021 38.0312 20.4167 36.5474 20.4167 35.0003C20.4167 33.4532 19.8021 31.9695 18.7081 30.8755C17.6142 29.7816 16.1304 29.167 14.5833 29.167C13.0362 29.167 11.5525 29.7816 10.4585 30.8755C9.36458 31.9695 8.75 33.4532 8.75 35.0003C8.75 36.5474 9.36458 38.0312 10.4585 39.1251C11.5525 40.2191 13.0362 40.8337 14.5833 40.8337ZM35 52.5003C36.5471 52.5003 38.0308 51.8857 39.1248 50.7918C40.2188 49.6978 40.8333 48.2141 40.8333 46.667C40.8333 45.1199 40.2188 43.6362 39.1248 42.5422C38.0308 41.4482 36.5471 40.8337 35 40.8337C33.4529 40.8337 31.9692 41.4482 30.8752 42.5422C29.7812 43.6362 29.1667 45.1199 29.1667 46.667C29.1667 48.2141 29.7812 49.6978 30.8752 50.7918C31.9692 51.8857 33.4529 52.5003 35 52.5003ZM55.4167 40.8337C56.9638 40.8337 58.4475 40.2191 59.5415 39.1251C60.6354 38.0312 61.25 36.5474 61.25 35.0003C61.25 33.4532 60.6354 31.9695 59.5415 30.8755C58.4475 29.7816 56.9638 29.167 55.4167 29.167C53.8696 29.167 52.3858 29.7816 51.2919 30.8755C50.1979 31.9695 49.5833 33.4532 49.5833 35.0003C49.5833 36.5474 50.1979 38.0312 51.2919 39.1251C52.3858 40.2191 53.8696 40.8337 55.4167 40.8337ZM55.4167 17.5003C56.9638 17.5003 58.4475 16.8857 59.5415 15.7918C60.6354 14.6978 61.25 13.2141 61.25 11.667C61.25 10.1199 60.6354 8.63616 59.5415 7.5422C58.4475 6.44824 56.9638 5.83366 55.4167 5.83366C53.8696 5.83366 52.3858 6.44824 51.2919 7.5422C50.1979 8.63616 49.5833 10.1199 49.5833 11.667C49.5833 13.2141 50.1979 14.6978 51.2919 15.7918C52.3858 16.8857 53.8696 17.5003 55.4167 17.5003ZM55.4167 64.167C56.9638 64.167 58.4475 63.5524 59.5415 62.4584C60.6354 61.3645 61.25 59.8808 61.25 58.3337C61.25 56.7866 60.6354 55.3028 59.5415 54.2089C58.4475 53.1149 56.9638 52.5003 55.4167 52.5003C53.8696 52.5003 52.3858 53.1149 51.2919 54.2089C50.1979 55.3028 49.5833 56.7866 49.5833 58.3337C49.5833 59.8808 50.1979 61.3645 51.2919 62.4584C52.3858 63.5524 53.8696 64.167 55.4167 64.167ZM35 29.167C36.5471 29.167 38.0308 28.5524 39.1248 27.4584C40.2188 26.3645 40.8333 24.8808 40.8333 23.3337C40.8333 21.7866 40.2188 20.3028 39.1248 19.2089C38.0308 18.1149 36.5471 17.5003 35 17.5003C33.4529 17.5003 31.9692 18.1149 30.8752 19.2089C29.7812 20.3028 29.1667 21.7866 29.1667 23.3337C29.1667 24.8808 29.7812 26.3645 30.8752 27.4584C31.9692 28.5524 33.4529 29.167 35 29.167Z" stroke="white" stroke-width="2" stroke-linecap="round" stroke-linejoin="round"/>
</svg>
