<svg width="86" height="49" viewBox="0 0 86 49" fill="none" xmlns="http://www.w3.org/2000/svg">
<path d="M0 41.0938H20V36.0938H0V41.0938ZM0 32.7578H40V27.7578H0V32.7578ZM20 19.4297H0V24.4297H20V19.4297ZM0 11.0938V16.0938H40V11.0938H0Z" fill="white"/>
<path d="M63.7502 8.9166L58.7502 13.9166L56.4585 11.6249L57.046 11.0374L58.7502 12.7374L63.1627 8.3291L63.7502 8.9166Z" fill="white"/>
<path d="M71.7685 16H70.3835L74.3892 5.09091H75.7528L79.7585 16H78.3736L75.1136 6.81676H75.0284L71.7685 16ZM72.2798 11.7386H77.8622V12.9105H72.2798V11.7386Z" fill="white"/>
<rect x="50.5" y="0.5" width="35" height="21" rx="3.5" stroke="white"/>
<path d="M63.7502 35.9166L58.7502 40.9166L56.4585 38.6249L57.046 38.0374L58.7502 39.7374L63.1627 35.3291L63.7502 35.9166Z" fill="white"/>
<path d="M71.321 43V32.0909H75.1349C75.8949 32.0909 76.5217 32.2223 77.0153 32.4851C77.5089 32.7443 77.8764 33.0941 78.1179 33.5344C78.3594 33.9712 78.4801 34.456 78.4801 34.9886C78.4801 35.4574 78.3967 35.8445 78.2298 36.1499C78.0664 36.4553 77.8498 36.6967 77.5799 36.8743C77.3136 37.0518 77.0241 37.1832 76.7116 37.2685V37.375C77.0455 37.3963 77.381 37.5135 77.7184 37.7266C78.0558 37.9396 78.3381 38.245 78.5653 38.6428C78.7926 39.0405 78.9062 39.527 78.9062 40.1023C78.9062 40.6491 78.782 41.141 78.5334 41.5778C78.2848 42.0146 77.8924 42.3608 77.3562 42.6165C76.82 42.8722 76.1222 43 75.2628 43H71.321ZM72.642 41.8281H75.2628C76.1257 41.8281 76.7383 41.6612 77.1005 41.3274C77.4663 40.9901 77.6491 40.5817 77.6491 40.1023C77.6491 39.733 77.555 39.392 77.3668 39.0795C77.1786 38.7635 76.9105 38.5114 76.5625 38.3232C76.2145 38.1314 75.8026 38.0355 75.3267 38.0355H72.642V41.8281ZM72.642 36.8849H75.0923C75.4901 36.8849 75.8487 36.8068 76.1683 36.6506C76.4915 36.4943 76.7472 36.2741 76.9354 35.9901C77.1271 35.706 77.223 35.3722 77.223 34.9886C77.223 34.5092 77.0561 34.1026 76.7223 33.7688C76.3885 33.4315 75.8594 33.2628 75.1349 33.2628H72.642V36.8849Z" fill="white"/>
<rect x="50.5" y="27.5" width="34" height="21" rx="3.5" stroke="white"/>
</svg>
