<svg width="86" height="40" viewBox="0 0 86 40" fill="none" xmlns="http://www.w3.org/2000/svg">
<path d="M0 36.0938H20V31.0938H0V36.0938ZM0 27.7578H40V22.7578H0V27.7578ZM20 14.4297H0V19.4297H20V14.4297ZM0 6.09375V11.0938H40V6.09375H0Z" fill="white"/>
<path d="M63.7502 17.9166L58.7502 22.9166L56.4585 20.6249L57.046 20.0374L58.7502 21.7374L63.1627 17.3291L63.7502 17.9166Z" fill="white"/>
<path d="M71.7685 25H70.3835L74.3892 14.0909H75.7528L79.7585 25H78.3736L75.1136 15.8168H75.0284L71.7685 25ZM72.2798 20.7386H77.8622V21.9105H72.2798V20.7386Z" fill="white"/>
<rect x="50.5" y="9.5" width="35" height="21" rx="3.5" stroke="white"/>
</svg>
