<svg width="29" height="29" viewBox="0 0 29 29" fill="none" xmlns="http://www.w3.org/2000/svg">
<path d="M12.6875 9.0625H10.875V19.9375H12.6875V9.0625ZM18.125 9.0625H16.3125V19.9375H18.125V9.0625Z" fill="#888888"/>
<path d="M14.5 3.625C16.6509 3.625 18.7534 4.26281 20.5418 5.45777C22.3302 6.65273 23.7241 8.35117 24.5472 10.3383C25.3703 12.3255 25.5857 14.5121 25.166 16.6216C24.7464 18.7311 23.7107 20.6689 22.1898 22.1898C20.6689 23.7107 18.7312 24.7464 16.6216 25.166C14.5121 25.5857 12.3255 25.3703 10.3383 24.5472C8.35118 23.7241 6.65273 22.3302 5.45777 20.5418C4.26281 18.7534 3.62501 16.6509 3.62501 14.5C3.62501 11.6158 4.77076 8.84967 6.81022 6.81021C8.84968 4.77076 11.6158 3.625 14.5 3.625ZM14.5 1.8125C11.9907 1.8125 9.53766 2.55661 7.45121 3.95073C5.36476 5.34485 3.73857 7.32637 2.77828 9.6447C1.818 11.963 1.56674 14.5141 2.05629 16.9752C2.54584 19.4363 3.75421 21.697 5.52859 23.4714C7.30297 25.2458 9.56366 26.4542 12.0248 26.9437C14.4859 27.4333 17.037 27.182 19.3553 26.2217C21.6736 25.2614 23.6552 23.6352 25.0493 21.5488C26.4434 19.4623 27.1875 17.0094 27.1875 14.5C27.1875 11.1351 25.8508 7.90795 23.4714 5.52858C21.0921 3.14921 17.8649 1.8125 14.5 1.8125Z" fill="#888888"/>
</svg>
