<svg width="15" height="15" viewBox="0 0 15 15" fill="none" xmlns="http://www.w3.org/2000/svg">
<g clip-path="url(#clip0_271_14466)">
<path fill-rule="evenodd" clip-rule="evenodd" d="M7.94172 9.81721C7.82452 9.93438 7.66558 10.0002 7.49985 10.0002C7.33412 10.0002 7.17518 9.93438 7.05797 9.81721L3.52235 6.28159C3.46265 6.22393 3.41504 6.15497 3.38228 6.07871C3.34953 6.00246 3.33229 5.92045 3.33157 5.83746C3.33085 5.75448 3.34666 5.67218 3.37808 5.59537C3.40951 5.51856 3.45592 5.44877 3.5146 5.39009C3.57328 5.33141 3.64307 5.285 3.71988 5.25357C3.79669 5.22215 3.87899 5.20633 3.96197 5.20705C4.04496 5.20778 4.12697 5.22502 4.20323 5.25777C4.27948 5.29053 4.34844 5.33814 4.4061 5.39784L7.49985 8.49159L10.5936 5.39784C10.7115 5.28399 10.8694 5.22099 11.0332 5.22241C11.1971 5.22384 11.3539 5.28957 11.4697 5.40545C11.5856 5.52133 11.6513 5.67809 11.6528 5.84196C11.6542 6.00583 11.5912 6.16371 11.4773 6.28159L7.94172 9.81721Z" fill="black"/>
</g>
<defs>
<clipPath id="clip0_271_14466">
<rect width="15" height="15" fill="white"/>
</clipPath>
</defs>
</svg>
