<svg width="24" height="23" viewBox="0 0 24 23" fill="none" xmlns="http://www.w3.org/2000/svg">
<g clip-path="url(#clip0_3005_58)">
<path d="M8.43374 6.86195C8.41415 6.58566 8.50509 6.3129 8.68657 6.10366C8.86805 5.89441 9.12521 5.76581 9.40149 5.74613L16.0323 5.27492C16.3086 5.25533 16.5814 5.34627 16.7906 5.52775C16.9999 5.70923 17.1285 5.96639 17.1482 6.24267L17.6194 12.8735C17.634 13.147 17.5407 13.4153 17.3594 13.6207C17.1782 13.826 16.9235 13.952 16.6503 13.9714C16.3771 13.9908 16.1072 13.9021 15.8988 13.7245C15.6903 13.5468 15.56 13.2944 15.5358 13.0216L15.1845 8.9739L8.68264 16.4705C8.50113 16.6798 8.24391 16.8084 7.96757 16.8281C7.69123 16.8477 7.41841 16.7567 7.20912 16.5752C6.99983 16.3937 6.87122 16.1365 6.85159 15.8602C6.83195 15.5838 6.92289 15.311 7.10441 15.1017L13.6062 7.60509L9.54956 7.82969C9.27327 7.84929 9.00051 7.75834 8.79127 7.57686C8.58202 7.39538 8.45342 7.13823 8.43374 6.86195Z" fill="current"/>
</g>
<defs>
<clipPath id="clip0_3005_58">
<rect width="15.6685" height="15.6685" fill="white" transform="translate(0.94873 11.8368) rotate(-49.0648)"/>
</clipPath>
</defs>
</svg>
