<svg width="573" height="269" viewBox="0 0 573 269" fill="none" xmlns="http://www.w3.org/2000/svg">
<g filter="url(#filter0_d_3248_68)">
<path d="M557 1H303V253H557V1Z" fill="#11256D"/>
<path d="M557 1H303V253H557V1Z" stroke="#11256D"/>
</g>
<path d="M367.329 112.203V125H365.624L359.182 115.13V125H357.485V112.203H359.182L365.65 122.1V112.203H367.329ZM369.658 120.351V120.148C369.658 119.463 369.758 118.827 369.957 118.241C370.156 117.649 370.443 117.137 370.818 116.703C371.193 116.264 371.647 115.924 372.181 115.684C372.714 115.438 373.312 115.314 373.974 115.314C374.642 115.314 375.242 115.438 375.775 115.684C376.314 115.924 376.771 116.264 377.146 116.703C377.527 117.137 377.817 117.649 378.017 118.241C378.216 118.827 378.315 119.463 378.315 120.148V120.351C378.315 121.036 378.216 121.672 378.017 122.258C377.817 122.844 377.527 123.356 377.146 123.796C376.771 124.229 376.317 124.569 375.784 124.815C375.257 125.056 374.659 125.176 373.991 125.176C373.323 125.176 372.723 125.056 372.189 124.815C371.656 124.569 371.199 124.229 370.818 123.796C370.443 123.356 370.156 122.844 369.957 122.258C369.758 121.672 369.658 121.036 369.658 120.351ZM371.284 120.148V120.351C371.284 120.825 371.34 121.273 371.451 121.695C371.562 122.111 371.729 122.48 371.952 122.803C372.181 123.125 372.465 123.38 372.805 123.567C373.145 123.749 373.54 123.84 373.991 123.84C374.437 123.84 374.826 123.749 375.16 123.567C375.5 123.38 375.781 123.125 376.004 122.803C376.227 122.48 376.394 122.111 376.505 121.695C376.622 121.273 376.681 120.825 376.681 120.351V120.148C376.681 119.68 376.622 119.237 376.505 118.821C376.394 118.399 376.224 118.027 375.995 117.705C375.772 117.377 375.491 117.119 375.151 116.932C374.817 116.744 374.425 116.65 373.974 116.65C373.528 116.65 373.136 116.744 372.796 116.932C372.462 117.119 372.181 117.377 371.952 117.705C371.729 118.027 371.562 118.399 371.451 118.821C371.34 119.237 371.284 119.68 371.284 120.148ZM383.738 118.892V120.228H379.449V118.892H383.738ZM389.135 123.84C389.521 123.84 389.879 123.761 390.207 123.603C390.535 123.444 390.805 123.228 391.016 122.952C391.227 122.671 391.347 122.352 391.376 121.994H392.923C392.894 122.557 392.703 123.081 392.352 123.567C392.006 124.048 391.552 124.438 390.989 124.736C390.427 125.029 389.809 125.176 389.135 125.176C388.42 125.176 387.796 125.05 387.263 124.798C386.735 124.546 386.296 124.2 385.944 123.761C385.599 123.321 385.338 122.817 385.162 122.249C384.992 121.675 384.907 121.068 384.907 120.43V120.061C384.907 119.422 384.992 118.818 385.162 118.25C385.338 117.676 385.599 117.169 385.944 116.729C386.296 116.29 386.735 115.944 387.263 115.692C387.796 115.44 388.42 115.314 389.135 115.314C389.879 115.314 390.529 115.467 391.086 115.771C391.643 116.07 392.079 116.48 392.396 117.002C392.718 117.518 392.894 118.104 392.923 118.76H391.376C391.347 118.367 391.235 118.013 391.042 117.696C390.854 117.38 390.597 117.128 390.269 116.94C389.946 116.747 389.568 116.65 389.135 116.65C388.637 116.65 388.218 116.75 387.878 116.949C387.544 117.143 387.277 117.406 387.078 117.74C386.885 118.068 386.744 118.435 386.656 118.839C386.574 119.237 386.533 119.645 386.533 120.061V120.43C386.533 120.846 386.574 121.256 386.656 121.66C386.738 122.064 386.876 122.431 387.069 122.759C387.269 123.087 387.535 123.351 387.869 123.55C388.209 123.743 388.631 123.84 389.135 123.84ZM394.32 120.351V120.148C394.32 119.463 394.42 118.827 394.619 118.241C394.818 117.649 395.105 117.137 395.48 116.703C395.855 116.264 396.31 115.924 396.843 115.684C397.376 115.438 397.974 115.314 398.636 115.314C399.304 115.314 399.904 115.438 400.438 115.684C400.977 115.924 401.434 116.264 401.809 116.703C402.189 117.137 402.479 117.649 402.679 118.241C402.878 118.827 402.978 119.463 402.978 120.148V120.351C402.978 121.036 402.878 121.672 402.679 122.258C402.479 122.844 402.189 123.356 401.809 123.796C401.434 124.229 400.979 124.569 400.446 124.815C399.919 125.056 399.321 125.176 398.653 125.176C397.985 125.176 397.385 125.056 396.852 124.815C396.318 124.569 395.861 124.229 395.48 123.796C395.105 123.356 394.818 122.844 394.619 122.258C394.42 121.672 394.32 121.036 394.32 120.351ZM395.946 120.148V120.351C395.946 120.825 396.002 121.273 396.113 121.695C396.225 122.111 396.392 122.48 396.614 122.803C396.843 123.125 397.127 123.38 397.467 123.567C397.807 123.749 398.202 123.84 398.653 123.84C399.099 123.84 399.488 123.749 399.822 123.567C400.162 123.38 400.443 123.125 400.666 122.803C400.889 122.48 401.056 122.111 401.167 121.695C401.284 121.273 401.343 120.825 401.343 120.351V120.148C401.343 119.68 401.284 119.237 401.167 118.821C401.056 118.399 400.886 118.027 400.657 117.705C400.435 117.377 400.153 117.119 399.813 116.932C399.479 116.744 399.087 116.65 398.636 116.65C398.19 116.65 397.798 116.744 397.458 116.932C397.124 117.119 396.843 117.377 396.614 117.705C396.392 118.027 396.225 118.399 396.113 118.821C396.002 119.237 395.946 119.68 395.946 120.148ZM411.011 123.154V111.5H412.646V125H411.151L411.011 123.154ZM404.612 120.351V120.166C404.612 119.439 404.7 118.78 404.876 118.188C405.058 117.591 405.312 117.078 405.641 116.65C405.975 116.223 406.37 115.895 406.827 115.666C407.29 115.432 407.806 115.314 408.374 115.314C408.972 115.314 409.493 115.42 409.938 115.631C410.39 115.836 410.771 116.138 411.081 116.536C411.397 116.929 411.646 117.403 411.828 117.96C412.01 118.517 412.136 119.146 412.206 119.85V120.658C412.142 121.355 412.016 121.982 411.828 122.539C411.646 123.096 411.397 123.57 411.081 123.963C410.771 124.355 410.39 124.657 409.938 124.868C409.487 125.073 408.96 125.176 408.356 125.176C407.8 125.176 407.29 125.056 406.827 124.815C406.37 124.575 405.975 124.238 405.641 123.805C405.312 123.371 405.058 122.861 404.876 122.275C404.7 121.684 404.612 121.042 404.612 120.351ZM406.247 120.166V120.351C406.247 120.825 406.294 121.271 406.388 121.687C406.487 122.103 406.64 122.469 406.845 122.785C407.05 123.102 407.311 123.351 407.627 123.532C407.943 123.708 408.321 123.796 408.761 123.796C409.3 123.796 409.742 123.682 410.088 123.453C410.439 123.225 410.721 122.923 410.932 122.548C411.143 122.173 411.307 121.766 411.424 121.326V119.208C411.354 118.886 411.251 118.575 411.116 118.276C410.987 117.972 410.817 117.702 410.606 117.468C410.401 117.228 410.146 117.037 409.842 116.896C409.543 116.756 409.188 116.686 408.778 116.686C408.333 116.686 407.949 116.779 407.627 116.967C407.311 117.148 407.05 117.4 406.845 117.723C406.64 118.039 406.487 118.408 406.388 118.83C406.294 119.246 406.247 119.691 406.247 120.166ZM419.123 125.176C418.461 125.176 417.86 125.064 417.321 124.842C416.788 124.613 416.328 124.294 415.941 123.884C415.561 123.474 415.268 122.987 415.062 122.425C414.857 121.862 414.755 121.247 414.755 120.579V120.21C414.755 119.437 414.869 118.748 415.098 118.145C415.326 117.535 415.637 117.02 416.029 116.598C416.422 116.176 416.867 115.856 417.365 115.64C417.863 115.423 418.379 115.314 418.912 115.314C419.592 115.314 420.178 115.432 420.67 115.666C421.168 115.9 421.575 116.229 421.892 116.65C422.208 117.066 422.442 117.559 422.595 118.127C422.747 118.689 422.823 119.305 422.823 119.973V120.702H415.722V119.375H421.197V119.252C421.174 118.83 421.086 118.42 420.934 118.021C420.787 117.623 420.553 117.295 420.23 117.037C419.908 116.779 419.469 116.65 418.912 116.65C418.543 116.65 418.203 116.729 417.893 116.888C417.582 117.04 417.315 117.269 417.093 117.573C416.87 117.878 416.697 118.25 416.574 118.689C416.451 119.129 416.39 119.636 416.39 120.21V120.579C416.39 121.03 416.451 121.455 416.574 121.854C416.703 122.246 416.888 122.592 417.128 122.891C417.374 123.189 417.67 123.424 418.016 123.594C418.367 123.764 418.766 123.849 419.211 123.849C419.785 123.849 420.271 123.731 420.67 123.497C421.068 123.263 421.417 122.949 421.716 122.557L422.7 123.339C422.495 123.649 422.234 123.945 421.918 124.227C421.602 124.508 421.212 124.736 420.749 124.912C420.292 125.088 419.75 125.176 419.123 125.176ZM430.812 117.318V128.656H429.178V115.49H430.672L430.812 117.318ZM437.22 120.166V120.351C437.22 121.042 437.138 121.684 436.974 122.275C436.81 122.861 436.569 123.371 436.253 123.805C435.942 124.238 435.559 124.575 435.102 124.815C434.645 125.056 434.12 125.176 433.528 125.176C432.925 125.176 432.392 125.076 431.929 124.877C431.466 124.678 431.073 124.388 430.751 124.007C430.429 123.626 430.171 123.169 429.978 122.636C429.79 122.103 429.661 121.502 429.591 120.834V119.85C429.661 119.146 429.793 118.517 429.986 117.96C430.18 117.403 430.435 116.929 430.751 116.536C431.073 116.138 431.463 115.836 431.92 115.631C432.377 115.42 432.904 115.314 433.502 115.314C434.1 115.314 434.63 115.432 435.093 115.666C435.556 115.895 435.945 116.223 436.262 116.65C436.578 117.078 436.815 117.591 436.974 118.188C437.138 118.78 437.22 119.439 437.22 120.166ZM435.585 120.351V120.166C435.585 119.691 435.535 119.246 435.436 118.83C435.336 118.408 435.181 118.039 434.97 117.723C434.765 117.4 434.501 117.148 434.179 116.967C433.856 116.779 433.473 116.686 433.027 116.686C432.617 116.686 432.26 116.756 431.955 116.896C431.656 117.037 431.401 117.228 431.19 117.468C430.979 117.702 430.807 117.972 430.672 118.276C430.543 118.575 430.446 118.886 430.382 119.208V121.484C430.499 121.895 430.663 122.281 430.874 122.645C431.085 123.002 431.366 123.292 431.718 123.515C432.069 123.731 432.512 123.84 433.045 123.84C433.484 123.84 433.862 123.749 434.179 123.567C434.501 123.38 434.765 123.125 434.97 122.803C435.181 122.48 435.336 122.111 435.436 121.695C435.535 121.273 435.585 120.825 435.585 120.351ZM441.061 111.5V125H439.426V111.5H441.061ZM449.278 123.374V118.479C449.278 118.104 449.202 117.778 449.05 117.503C448.903 117.222 448.681 117.005 448.382 116.853C448.083 116.7 447.714 116.624 447.274 116.624C446.864 116.624 446.504 116.694 446.193 116.835C445.889 116.976 445.648 117.16 445.473 117.389C445.303 117.617 445.218 117.863 445.218 118.127H443.592C443.592 117.787 443.68 117.45 443.855 117.116C444.031 116.782 444.283 116.48 444.611 116.211C444.945 115.936 445.344 115.719 445.807 115.561C446.275 115.396 446.797 115.314 447.371 115.314C448.062 115.314 448.672 115.432 449.199 115.666C449.732 115.9 450.148 116.255 450.447 116.729C450.752 117.198 450.904 117.787 450.904 118.496V122.926C450.904 123.242 450.931 123.579 450.983 123.937C451.042 124.294 451.127 124.602 451.238 124.859V125H449.542C449.46 124.812 449.396 124.563 449.349 124.253C449.302 123.937 449.278 123.644 449.278 123.374ZM449.56 119.234L449.577 120.377H447.934C447.471 120.377 447.058 120.415 446.694 120.491C446.331 120.562 446.026 120.67 445.78 120.816C445.534 120.963 445.347 121.147 445.218 121.37C445.089 121.587 445.024 121.842 445.024 122.135C445.024 122.434 445.092 122.706 445.227 122.952C445.361 123.198 445.563 123.395 445.833 123.541C446.108 123.682 446.445 123.752 446.844 123.752C447.342 123.752 447.781 123.646 448.162 123.436C448.543 123.225 448.845 122.967 449.067 122.662C449.296 122.357 449.419 122.062 449.437 121.774L450.131 122.557C450.09 122.803 449.979 123.075 449.797 123.374C449.615 123.673 449.372 123.96 449.067 124.235C448.769 124.505 448.411 124.73 447.995 124.912C447.585 125.088 447.122 125.176 446.606 125.176C445.962 125.176 445.396 125.05 444.91 124.798C444.43 124.546 444.055 124.209 443.785 123.787C443.521 123.359 443.39 122.882 443.39 122.354C443.39 121.845 443.489 121.396 443.688 121.01C443.888 120.617 444.175 120.292 444.55 120.034C444.925 119.771 445.376 119.571 445.903 119.437C446.431 119.302 447.02 119.234 447.67 119.234H449.56ZM457.443 115.49V116.738H452.302V115.49H457.443ZM454.042 113.179H455.668V122.645C455.668 122.967 455.718 123.21 455.817 123.374C455.917 123.538 456.046 123.646 456.204 123.699C456.362 123.752 456.532 123.778 456.714 123.778C456.849 123.778 456.989 123.767 457.136 123.743C457.288 123.714 457.402 123.69 457.479 123.673L457.487 125C457.358 125.041 457.188 125.079 456.978 125.114C456.772 125.155 456.523 125.176 456.23 125.176C455.832 125.176 455.466 125.097 455.132 124.938C454.798 124.78 454.531 124.517 454.332 124.147C454.139 123.772 454.042 123.269 454.042 122.636V113.179ZM461.776 125H460.15V114.488C460.15 113.803 460.273 113.226 460.52 112.757C460.771 112.282 461.132 111.925 461.601 111.685C462.069 111.438 462.626 111.315 463.271 111.315C463.458 111.315 463.646 111.327 463.833 111.351C464.026 111.374 464.214 111.409 464.396 111.456L464.308 112.783C464.185 112.754 464.044 112.733 463.886 112.722C463.733 112.71 463.581 112.704 463.429 112.704C463.083 112.704 462.784 112.774 462.532 112.915C462.286 113.05 462.099 113.249 461.97 113.513C461.841 113.776 461.776 114.102 461.776 114.488V125ZM463.798 115.49V116.738H458.647V115.49H463.798ZM465.178 120.351V120.148C465.178 119.463 465.277 118.827 465.477 118.241C465.676 117.649 465.963 117.137 466.338 116.703C466.713 116.264 467.167 115.924 467.7 115.684C468.233 115.438 468.831 115.314 469.493 115.314C470.161 115.314 470.762 115.438 471.295 115.684C471.834 115.924 472.291 116.264 472.666 116.703C473.047 117.137 473.337 117.649 473.536 118.241C473.735 118.827 473.835 119.463 473.835 120.148V120.351C473.835 121.036 473.735 121.672 473.536 122.258C473.337 122.844 473.047 123.356 472.666 123.796C472.291 124.229 471.837 124.569 471.304 124.815C470.776 125.056 470.179 125.176 469.511 125.176C468.843 125.176 468.242 125.056 467.709 124.815C467.176 124.569 466.719 124.229 466.338 123.796C465.963 123.356 465.676 122.844 465.477 122.258C465.277 121.672 465.178 121.036 465.178 120.351ZM466.804 120.148V120.351C466.804 120.825 466.859 121.273 466.971 121.695C467.082 122.111 467.249 122.48 467.472 122.803C467.7 123.125 467.984 123.38 468.324 123.567C468.664 123.749 469.06 123.84 469.511 123.84C469.956 123.84 470.346 123.749 470.68 123.567C471.02 123.38 471.301 123.125 471.523 122.803C471.746 122.48 471.913 122.111 472.024 121.695C472.142 121.273 472.2 120.825 472.2 120.351V120.148C472.2 119.68 472.142 119.237 472.024 118.821C471.913 118.399 471.743 118.027 471.515 117.705C471.292 117.377 471.011 117.119 470.671 116.932C470.337 116.744 469.944 116.65 469.493 116.65C469.048 116.65 468.655 116.744 468.315 116.932C467.981 117.119 467.7 117.377 467.472 117.705C467.249 118.027 467.082 118.399 466.971 118.821C466.859 119.237 466.804 119.68 466.804 120.148ZM477.5 116.984V125H475.874V115.49H477.456L477.5 116.984ZM480.471 115.438L480.462 116.949C480.327 116.92 480.198 116.902 480.075 116.896C479.958 116.885 479.823 116.879 479.671 116.879C479.296 116.879 478.965 116.938 478.678 117.055C478.391 117.172 478.147 117.336 477.948 117.547C477.749 117.758 477.591 118.01 477.474 118.303C477.362 118.59 477.289 118.906 477.254 119.252L476.797 119.516C476.797 118.941 476.853 118.402 476.964 117.898C477.081 117.395 477.26 116.949 477.5 116.562C477.74 116.17 478.045 115.865 478.414 115.648C478.789 115.426 479.234 115.314 479.75 115.314C479.867 115.314 480.002 115.329 480.154 115.358C480.307 115.382 480.412 115.408 480.471 115.438ZM483.591 117.38V125H481.956V115.49H483.503L483.591 117.38ZM483.257 119.885L482.501 119.858C482.507 119.208 482.592 118.607 482.756 118.057C482.92 117.5 483.163 117.017 483.485 116.606C483.808 116.196 484.209 115.88 484.689 115.657C485.17 115.429 485.727 115.314 486.359 115.314C486.805 115.314 487.215 115.379 487.59 115.508C487.965 115.631 488.29 115.827 488.565 116.097C488.841 116.366 489.055 116.712 489.207 117.134C489.359 117.556 489.436 118.065 489.436 118.663V125H487.81V118.742C487.81 118.244 487.725 117.846 487.555 117.547C487.391 117.248 487.156 117.031 486.852 116.896C486.547 116.756 486.189 116.686 485.779 116.686C485.299 116.686 484.897 116.771 484.575 116.94C484.253 117.11 483.995 117.345 483.802 117.644C483.608 117.942 483.468 118.285 483.38 118.672C483.298 119.053 483.257 119.457 483.257 119.885ZM489.418 118.988L488.328 119.322C488.334 118.801 488.419 118.3 488.583 117.819C488.753 117.339 488.996 116.911 489.312 116.536C489.635 116.161 490.03 115.865 490.499 115.648C490.968 115.426 491.504 115.314 492.107 115.314C492.617 115.314 493.068 115.382 493.461 115.517C493.859 115.651 494.193 115.859 494.463 116.141C494.738 116.416 494.946 116.771 495.087 117.204C495.228 117.638 495.298 118.153 495.298 118.751V125H493.663V118.733C493.663 118.2 493.578 117.787 493.408 117.494C493.244 117.195 493.01 116.987 492.705 116.87C492.406 116.747 492.049 116.686 491.633 116.686C491.275 116.686 490.959 116.747 490.684 116.87C490.408 116.993 490.177 117.163 489.989 117.38C489.802 117.591 489.658 117.834 489.559 118.109C489.465 118.385 489.418 118.678 489.418 118.988ZM497.785 124.139C497.785 123.863 497.87 123.632 498.04 123.444C498.216 123.251 498.468 123.154 498.796 123.154C499.124 123.154 499.373 123.251 499.543 123.444C499.719 123.632 499.807 123.863 499.807 124.139C499.807 124.408 499.719 124.637 499.543 124.824C499.373 125.012 499.124 125.105 498.796 125.105C498.468 125.105 498.216 125.012 498.04 124.824C497.87 124.637 497.785 124.408 497.785 124.139Z" fill="white"/>
<path d="M403.306 196.766C403.306 196.467 403.259 196.203 403.165 195.975C403.077 195.74 402.919 195.529 402.69 195.342C402.468 195.154 402.157 194.976 401.759 194.806C401.366 194.636 400.868 194.463 400.265 194.287C399.632 194.1 399.061 193.892 398.551 193.663C398.041 193.429 397.604 193.162 397.241 192.863C396.878 192.564 396.6 192.222 396.406 191.835C396.213 191.448 396.116 191.006 396.116 190.508C396.116 190.01 396.219 189.55 396.424 189.128C396.629 188.706 396.922 188.34 397.303 188.029C397.689 187.713 398.149 187.467 398.683 187.291C399.216 187.115 399.811 187.027 400.467 187.027C401.428 187.027 402.242 187.212 402.91 187.581C403.584 187.944 404.097 188.422 404.448 189.014C404.8 189.6 404.976 190.227 404.976 190.895H403.288C403.288 190.414 403.186 189.989 402.98 189.62C402.775 189.245 402.465 188.952 402.049 188.741C401.633 188.524 401.105 188.416 400.467 188.416C399.863 188.416 399.365 188.507 398.973 188.688C398.58 188.87 398.287 189.116 398.094 189.427C397.906 189.737 397.812 190.092 397.812 190.49C397.812 190.76 397.868 191.006 397.979 191.229C398.097 191.445 398.275 191.647 398.516 191.835C398.762 192.022 399.072 192.195 399.447 192.354C399.828 192.512 400.282 192.664 400.81 192.811C401.536 193.016 402.163 193.244 402.69 193.496C403.218 193.748 403.651 194.032 403.991 194.349C404.337 194.659 404.592 195.014 404.756 195.412C404.926 195.805 405.011 196.25 405.011 196.748C405.011 197.27 404.905 197.741 404.694 198.163C404.483 198.585 404.182 198.945 403.789 199.244C403.396 199.543 402.925 199.774 402.374 199.938C401.829 200.097 401.22 200.176 400.546 200.176C399.954 200.176 399.371 200.094 398.797 199.93C398.229 199.766 397.71 199.52 397.241 199.191C396.778 198.863 396.406 198.459 396.125 197.979C395.85 197.492 395.712 196.93 395.712 196.291H397.399C397.399 196.73 397.484 197.108 397.654 197.425C397.824 197.735 398.056 197.993 398.349 198.198C398.647 198.403 398.984 198.556 399.359 198.655C399.74 198.749 400.136 198.796 400.546 198.796C401.138 198.796 401.639 198.714 402.049 198.55C402.459 198.386 402.77 198.151 402.98 197.847C403.197 197.542 403.306 197.182 403.306 196.766ZM410.732 198.84C411.119 198.84 411.477 198.761 411.805 198.603C412.133 198.444 412.402 198.228 412.613 197.952C412.824 197.671 412.944 197.352 412.974 196.994H414.521C414.491 197.557 414.301 198.081 413.949 198.567C413.604 199.048 413.149 199.438 412.587 199.736C412.024 200.029 411.406 200.176 410.732 200.176C410.018 200.176 409.394 200.05 408.86 199.798C408.333 199.546 407.894 199.2 407.542 198.761C407.196 198.321 406.936 197.817 406.76 197.249C406.59 196.675 406.505 196.068 406.505 195.43V195.061C406.505 194.422 406.59 193.818 406.76 193.25C406.936 192.676 407.196 192.169 407.542 191.729C407.894 191.29 408.333 190.944 408.86 190.692C409.394 190.44 410.018 190.314 410.732 190.314C411.477 190.314 412.127 190.467 412.684 190.771C413.24 191.07 413.677 191.48 413.993 192.002C414.315 192.518 414.491 193.104 414.521 193.76H412.974C412.944 193.367 412.833 193.013 412.64 192.696C412.452 192.38 412.194 192.128 411.866 191.94C411.544 191.747 411.166 191.65 410.732 191.65C410.234 191.65 409.815 191.75 409.476 191.949C409.142 192.143 408.875 192.406 408.676 192.74C408.482 193.068 408.342 193.435 408.254 193.839C408.172 194.237 408.131 194.645 408.131 195.061V195.43C408.131 195.846 408.172 196.256 408.254 196.66C408.336 197.064 408.474 197.431 408.667 197.759C408.866 198.087 409.133 198.351 409.467 198.55C409.807 198.743 410.229 198.84 410.732 198.84ZM421.956 198.374V193.479C421.956 193.104 421.88 192.778 421.728 192.503C421.581 192.222 421.358 192.005 421.06 191.853C420.761 191.7 420.392 191.624 419.952 191.624C419.542 191.624 419.182 191.694 418.871 191.835C418.566 191.976 418.326 192.16 418.15 192.389C417.98 192.617 417.896 192.863 417.896 193.127H416.27C416.27 192.787 416.357 192.45 416.533 192.116C416.709 191.782 416.961 191.48 417.289 191.211C417.623 190.936 418.021 190.719 418.484 190.561C418.953 190.396 419.475 190.314 420.049 190.314C420.74 190.314 421.35 190.432 421.877 190.666C422.41 190.9 422.826 191.255 423.125 191.729C423.43 192.198 423.582 192.787 423.582 193.496V197.926C423.582 198.242 423.608 198.579 423.661 198.937C423.72 199.294 423.805 199.602 423.916 199.859V200H422.22C422.138 199.812 422.073 199.563 422.026 199.253C421.979 198.937 421.956 198.644 421.956 198.374ZM422.237 194.234L422.255 195.377H420.611C420.148 195.377 419.735 195.415 419.372 195.491C419.009 195.562 418.704 195.67 418.458 195.816C418.212 195.963 418.024 196.147 417.896 196.37C417.767 196.587 417.702 196.842 417.702 197.135C417.702 197.434 417.77 197.706 417.904 197.952C418.039 198.198 418.241 198.395 418.511 198.541C418.786 198.682 419.123 198.752 419.521 198.752C420.02 198.752 420.459 198.646 420.84 198.436C421.221 198.225 421.522 197.967 421.745 197.662C421.974 197.357 422.097 197.062 422.114 196.774L422.809 197.557C422.768 197.803 422.656 198.075 422.475 198.374C422.293 198.673 422.05 198.96 421.745 199.235C421.446 199.505 421.089 199.73 420.673 199.912C420.263 200.088 419.8 200.176 419.284 200.176C418.64 200.176 418.074 200.05 417.588 199.798C417.107 199.546 416.732 199.209 416.463 198.787C416.199 198.359 416.067 197.882 416.067 197.354C416.067 196.845 416.167 196.396 416.366 196.01C416.565 195.617 416.853 195.292 417.228 195.034C417.603 194.771 418.054 194.571 418.581 194.437C419.108 194.302 419.697 194.234 420.348 194.234H422.237ZM427.906 186.5V200H426.271V186.5H427.906ZM436.124 198.374V193.479C436.124 193.104 436.048 192.778 435.896 192.503C435.749 192.222 435.526 192.005 435.228 191.853C434.929 191.7 434.56 191.624 434.12 191.624C433.71 191.624 433.35 191.694 433.039 191.835C432.734 191.976 432.494 192.16 432.318 192.389C432.148 192.617 432.063 192.863 432.063 193.127H430.438C430.438 192.787 430.525 192.45 430.701 192.116C430.877 191.782 431.129 191.48 431.457 191.211C431.791 190.936 432.189 190.719 432.652 190.561C433.121 190.396 433.643 190.314 434.217 190.314C434.908 190.314 435.518 190.432 436.045 190.666C436.578 190.9 436.994 191.255 437.293 191.729C437.598 192.198 437.75 192.787 437.75 193.496V197.926C437.75 198.242 437.776 198.579 437.829 198.937C437.888 199.294 437.973 199.602 438.084 199.859V200H436.388C436.306 199.812 436.241 199.563 436.194 199.253C436.147 198.937 436.124 198.644 436.124 198.374ZM436.405 194.234L436.423 195.377H434.779C434.316 195.377 433.903 195.415 433.54 195.491C433.177 195.562 432.872 195.67 432.626 195.816C432.38 195.963 432.192 196.147 432.063 196.37C431.935 196.587 431.87 196.842 431.87 197.135C431.87 197.434 431.938 197.706 432.072 197.952C432.207 198.198 432.409 198.395 432.679 198.541C432.954 198.682 433.291 198.752 433.689 198.752C434.188 198.752 434.627 198.646 435.008 198.436C435.389 198.225 435.69 197.967 435.913 197.662C436.142 197.357 436.265 197.062 436.282 196.774L436.977 197.557C436.936 197.803 436.824 198.075 436.643 198.374C436.461 198.673 436.218 198.96 435.913 199.235C435.614 199.505 435.257 199.73 434.841 199.912C434.431 200.088 433.968 200.176 433.452 200.176C432.808 200.176 432.242 200.05 431.756 199.798C431.275 199.546 430.9 199.209 430.631 198.787C430.367 198.359 430.235 197.882 430.235 197.354C430.235 196.845 430.335 196.396 430.534 196.01C430.733 195.617 431.021 195.292 431.396 195.034C431.771 194.771 432.222 194.571 432.749 194.437C433.276 194.302 433.865 194.234 434.516 194.234H436.405ZM440.299 186.5H441.934V198.154L441.793 200H440.299V186.5ZM448.358 195.166V195.351C448.358 196.042 448.276 196.684 448.112 197.275C447.948 197.861 447.708 198.371 447.392 198.805C447.075 199.238 446.688 199.575 446.231 199.815C445.774 200.056 445.25 200.176 444.658 200.176C444.055 200.176 443.524 200.073 443.067 199.868C442.616 199.657 442.235 199.355 441.925 198.963C441.614 198.57 441.365 198.096 441.178 197.539C440.996 196.982 440.87 196.355 440.8 195.658V194.85C440.87 194.146 440.996 193.517 441.178 192.96C441.365 192.403 441.614 191.929 441.925 191.536C442.235 191.138 442.616 190.836 443.067 190.631C443.519 190.42 444.043 190.314 444.641 190.314C445.238 190.314 445.769 190.432 446.231 190.666C446.694 190.895 447.081 191.223 447.392 191.65C447.708 192.078 447.948 192.591 448.112 193.188C448.276 193.78 448.358 194.439 448.358 195.166ZM446.724 195.351V195.166C446.724 194.691 446.68 194.246 446.592 193.83C446.504 193.408 446.363 193.039 446.17 192.723C445.977 192.4 445.722 192.148 445.405 191.967C445.089 191.779 444.699 191.686 444.236 191.686C443.826 191.686 443.469 191.756 443.164 191.896C442.865 192.037 442.61 192.228 442.399 192.468C442.188 192.702 442.016 192.972 441.881 193.276C441.752 193.575 441.655 193.886 441.591 194.208V196.326C441.685 196.736 441.837 197.132 442.048 197.513C442.265 197.888 442.552 198.195 442.909 198.436C443.272 198.676 443.721 198.796 444.254 198.796C444.693 198.796 445.068 198.708 445.379 198.532C445.695 198.351 445.95 198.102 446.144 197.785C446.343 197.469 446.489 197.103 446.583 196.687C446.677 196.271 446.724 195.825 446.724 195.351ZM452.182 186.5V200H450.547V186.5H452.182ZM458.738 200.176C458.076 200.176 457.476 200.064 456.937 199.842C456.403 199.613 455.943 199.294 455.557 198.884C455.176 198.474 454.883 197.987 454.678 197.425C454.473 196.862 454.37 196.247 454.37 195.579V195.21C454.37 194.437 454.484 193.748 454.713 193.145C454.941 192.535 455.252 192.02 455.645 191.598C456.037 191.176 456.482 190.856 456.98 190.64C457.479 190.423 457.994 190.314 458.527 190.314C459.207 190.314 459.793 190.432 460.285 190.666C460.783 190.9 461.19 191.229 461.507 191.65C461.823 192.066 462.058 192.559 462.21 193.127C462.362 193.689 462.438 194.305 462.438 194.973V195.702H455.337V194.375H460.812V194.252C460.789 193.83 460.701 193.42 460.549 193.021C460.402 192.623 460.168 192.295 459.846 192.037C459.523 191.779 459.084 191.65 458.527 191.65C458.158 191.65 457.818 191.729 457.508 191.888C457.197 192.04 456.931 192.269 456.708 192.573C456.485 192.878 456.312 193.25 456.189 193.689C456.066 194.129 456.005 194.636 456.005 195.21V195.579C456.005 196.03 456.066 196.455 456.189 196.854C456.318 197.246 456.503 197.592 456.743 197.891C456.989 198.189 457.285 198.424 457.631 198.594C457.982 198.764 458.381 198.849 458.826 198.849C459.4 198.849 459.887 198.731 460.285 198.497C460.684 198.263 461.032 197.949 461.331 197.557L462.315 198.339C462.11 198.649 461.85 198.945 461.533 199.227C461.217 199.508 460.827 199.736 460.364 199.912C459.907 200.088 459.365 200.176 458.738 200.176Z" fill="white"/>
<rect x="321" y="90" width="217" height="58" rx="8" stroke="#ABABAB" stroke-dasharray="2 2"/>
<rect x="321" y="164" width="217" height="58" rx="8" stroke="#ABABAB" stroke-dasharray="2 2"/>
<path d="M330 50.3182C328.288 50.3182 326.83 49.8523 325.625 48.9205C324.42 47.9811 323.5 46.6212 322.864 44.8409C322.227 43.053 321.909 40.8939 321.909 38.3636C321.909 35.8485 322.227 33.7008 322.864 31.9205C323.508 30.1326 324.432 28.7689 325.636 27.8295C326.848 26.8826 328.303 26.4091 330 26.4091C331.697 26.4091 333.148 26.8826 334.352 27.8295C335.564 28.7689 336.489 30.1326 337.125 31.9205C337.769 33.7008 338.091 35.8485 338.091 38.3636C338.091 40.8939 337.773 43.053 337.136 44.8409C336.5 46.6212 335.58 47.9811 334.375 48.9205C333.17 49.8523 331.712 50.3182 330 50.3182ZM330 47.8182C331.697 47.8182 333.015 47 333.955 45.3636C334.894 43.7273 335.364 41.3939 335.364 38.3636C335.364 36.3485 335.148 34.6326 334.716 33.2159C334.292 31.7992 333.678 30.7197 332.875 29.9773C332.08 29.2348 331.121 28.8636 330 28.8636C328.318 28.8636 327.004 29.6932 326.057 31.3523C325.11 33.0038 324.636 35.3409 324.636 38.3636C324.636 40.3788 324.848 42.0909 325.273 43.5C325.697 44.9091 326.307 45.9811 327.102 46.7159C327.905 47.4508 328.871 47.8182 330 47.8182ZM340.584 45.2273V42.9091L350.811 26.7273H352.493V30.3182H351.356L343.629 42.5455V42.7273H357.402V45.2273H340.584ZM351.538 50V44.5227V43.4432V26.7273H354.22V50H351.538Z" fill="white"/>
<g filter="url(#filter1_d_3248_68)">
<path d="M255 1H1V253H255V1Z" fill="#11256D"/>
<path d="M255 1H1V253H255V1Z" stroke="#11256D"/>
</g>
<path d="M30 50.3182C28.2879 50.3182 26.8295 49.8523 25.625 48.9205C24.4205 47.9811 23.5 46.6212 22.8636 44.8409C22.2273 43.053 21.9091 40.8939 21.9091 38.3636C21.9091 35.8485 22.2273 33.7008 22.8636 31.9205C23.5076 30.1326 24.4318 28.7689 25.6364 27.8295C26.8485 26.8826 28.303 26.4091 30 26.4091C31.697 26.4091 33.1477 26.8826 34.3523 27.8295C35.5644 28.7689 36.4886 30.1326 37.125 31.9205C37.7689 33.7008 38.0909 35.8485 38.0909 38.3636C38.0909 40.8939 37.7727 43.053 37.1364 44.8409C36.5 46.6212 35.5795 47.9811 34.375 48.9205C33.1705 49.8523 31.7121 50.3182 30 50.3182ZM30 47.8182C31.697 47.8182 33.0152 47 33.9545 45.3636C34.8939 43.7273 35.3636 41.3939 35.3636 38.3636C35.3636 36.3485 35.1477 34.6326 34.7159 33.2159C34.2917 31.7992 33.678 30.7197 32.875 29.9773C32.0795 29.2348 31.1212 28.8636 30 28.8636C28.3182 28.8636 27.0038 29.6932 26.0568 31.3523C25.1098 33.0038 24.6364 35.3409 24.6364 38.3636C24.6364 40.3788 24.8485 42.0909 25.2727 43.5C25.697 44.9091 26.3068 45.9811 27.1023 46.7159C27.9053 47.4508 28.8712 47.8182 30 47.8182ZM48.9927 50.3182C47.4927 50.3182 46.1556 50.0606 44.9814 49.5455C43.8147 49.0303 42.8867 48.3144 42.1973 47.3977C41.5155 46.4735 41.1442 45.4015 41.0836 44.1818H43.9473C44.0079 44.9318 44.2655 45.5795 44.72 46.125C45.1745 46.6629 45.7692 47.0795 46.5041 47.375C47.2389 47.6705 48.0533 47.8182 48.9473 47.8182C49.9473 47.8182 50.8336 47.6439 51.6064 47.2955C52.3791 46.947 52.9852 46.4621 53.4245 45.8409C53.8639 45.2197 54.0836 44.5 54.0836 43.6818C54.0836 42.8258 53.8715 42.072 53.4473 41.4205C53.023 40.7614 52.4018 40.2462 51.5836 39.875C50.7655 39.5038 49.7655 39.3182 48.5836 39.3182H46.72V36.8182H48.5836C49.5079 36.8182 50.3185 36.6515 51.0155 36.3182C51.72 35.9848 52.2692 35.5152 52.6632 34.9091C53.0647 34.303 53.2655 33.5909 53.2655 32.7727C53.2655 31.9848 53.0912 31.2992 52.7427 30.7159C52.3942 30.1326 51.9018 29.678 51.2655 29.3523C50.6367 29.0265 49.8942 28.8636 49.0382 28.8636C48.2352 28.8636 47.4776 29.0114 46.7655 29.3068C46.0609 29.5947 45.4852 30.0152 45.0382 30.5682C44.5912 31.1136 44.3488 31.7727 44.3109 32.5455H41.5836C41.6291 31.3258 41.9965 30.2576 42.6859 29.3409C43.3753 28.4167 44.2768 27.697 45.3905 27.1818C46.5117 26.6667 47.7427 26.4091 49.0836 26.4091C50.523 26.4091 51.7579 26.7008 52.7882 27.2841C53.8185 27.8598 54.6102 28.6212 55.1632 29.5682C55.7162 30.5152 55.9927 31.5379 55.9927 32.6364C55.9927 33.947 55.648 35.0644 54.9586 35.9886C54.2768 36.9129 53.3488 37.553 52.1745 37.9091V38.0909C53.6442 38.3333 54.792 38.9583 55.6177 39.9659C56.4435 40.9659 56.8564 42.2045 56.8564 43.6818C56.8564 44.947 56.5117 46.0833 55.8223 47.0909C55.1405 48.0909 54.2086 48.8788 53.0268 49.4545C51.845 50.0303 50.5003 50.3182 48.9927 50.3182Z" fill="white"/>
<path d="M60.3057 152.766C60.3057 152.467 60.2588 152.203 60.165 151.975C60.0771 151.74 59.9189 151.529 59.6904 151.342C59.4678 151.154 59.1572 150.976 58.7588 150.806C58.3662 150.636 57.8682 150.463 57.2646 150.287C56.6318 150.1 56.0605 149.892 55.5508 149.663C55.041 149.429 54.6045 149.162 54.2412 148.863C53.8779 148.564 53.5996 148.222 53.4062 147.835C53.2129 147.448 53.1162 147.006 53.1162 146.508C53.1162 146.01 53.2188 145.55 53.4238 145.128C53.6289 144.706 53.9219 144.34 54.3027 144.029C54.6895 143.713 55.1494 143.467 55.6826 143.291C56.2158 143.115 56.8105 143.027 57.4668 143.027C58.4277 143.027 59.2422 143.212 59.9102 143.581C60.584 143.944 61.0967 144.422 61.4482 145.014C61.7998 145.6 61.9756 146.227 61.9756 146.895H60.2881C60.2881 146.414 60.1855 145.989 59.9805 145.62C59.7754 145.245 59.4648 144.952 59.0488 144.741C58.6328 144.524 58.1055 144.416 57.4668 144.416C56.8633 144.416 56.3652 144.507 55.9727 144.688C55.5801 144.87 55.2871 145.116 55.0938 145.427C54.9062 145.737 54.8125 146.092 54.8125 146.49C54.8125 146.76 54.8682 147.006 54.9795 147.229C55.0967 147.445 55.2754 147.647 55.5156 147.835C55.7617 148.022 56.0723 148.195 56.4473 148.354C56.8281 148.512 57.2822 148.664 57.8096 148.811C58.5361 149.016 59.1631 149.244 59.6904 149.496C60.2178 149.748 60.6514 150.032 60.9912 150.349C61.3369 150.659 61.5918 151.014 61.7559 151.412C61.9258 151.805 62.0107 152.25 62.0107 152.748C62.0107 153.27 61.9053 153.741 61.6943 154.163C61.4834 154.585 61.1816 154.945 60.7891 155.244C60.3965 155.543 59.9248 155.774 59.374 155.938C58.8291 156.097 58.2197 156.176 57.5459 156.176C56.9541 156.176 56.3711 156.094 55.7969 155.93C55.2285 155.766 54.71 155.52 54.2412 155.191C53.7783 154.863 53.4062 154.459 53.125 153.979C52.8496 153.492 52.7119 152.93 52.7119 152.291H54.3994C54.3994 152.73 54.4844 153.108 54.6543 153.425C54.8242 153.735 55.0557 153.993 55.3486 154.198C55.6475 154.403 55.9844 154.556 56.3594 154.655C56.7402 154.749 57.1357 154.796 57.5459 154.796C58.1377 154.796 58.6387 154.714 59.0488 154.55C59.459 154.386 59.7695 154.151 59.9805 153.847C60.1973 153.542 60.3057 153.182 60.3057 152.766ZM67.873 156.176C67.2109 156.176 66.6104 156.064 66.0713 155.842C65.5381 155.613 65.0781 155.294 64.6914 154.884C64.3105 154.474 64.0176 153.987 63.8125 153.425C63.6074 152.862 63.5049 152.247 63.5049 151.579V151.21C63.5049 150.437 63.6191 149.748 63.8477 149.145C64.0762 148.535 64.3867 148.02 64.7793 147.598C65.1719 147.176 65.6172 146.856 66.1152 146.64C66.6133 146.423 67.1289 146.314 67.6621 146.314C68.3418 146.314 68.9277 146.432 69.4199 146.666C69.918 146.9 70.3252 147.229 70.6416 147.65C70.958 148.066 71.1924 148.559 71.3447 149.127C71.4971 149.689 71.5732 150.305 71.5732 150.973V151.702H64.4717V150.375H69.9473V150.252C69.9238 149.83 69.8359 149.42 69.6836 149.021C69.5371 148.623 69.3027 148.295 68.9805 148.037C68.6582 147.779 68.2188 147.65 67.6621 147.65C67.293 147.65 66.9531 147.729 66.6426 147.888C66.332 148.04 66.0654 148.269 65.8428 148.573C65.6201 148.878 65.4473 149.25 65.3242 149.689C65.2012 150.129 65.1396 150.636 65.1396 151.21V151.579C65.1396 152.03 65.2012 152.455 65.3242 152.854C65.4531 153.246 65.6377 153.592 65.8779 153.891C66.124 154.189 66.4199 154.424 66.7656 154.594C67.1172 154.764 67.5156 154.849 67.9609 154.849C68.5352 154.849 69.0215 154.731 69.4199 154.497C69.8184 154.263 70.167 153.949 70.4658 153.557L71.4502 154.339C71.2451 154.649 70.9844 154.945 70.668 155.227C70.3516 155.508 69.9619 155.736 69.499 155.912C69.042 156.088 68.5 156.176 67.873 156.176ZM79.0791 154.374V149.479C79.0791 149.104 79.0029 148.778 78.8506 148.503C78.7041 148.222 78.4814 148.005 78.1826 147.853C77.8838 147.7 77.5146 147.624 77.0752 147.624C76.665 147.624 76.3047 147.694 75.9941 147.835C75.6895 147.976 75.4492 148.16 75.2734 148.389C75.1035 148.617 75.0186 148.863 75.0186 149.127H73.3926C73.3926 148.787 73.4805 148.45 73.6562 148.116C73.832 147.782 74.084 147.48 74.4121 147.211C74.7461 146.936 75.1445 146.719 75.6074 146.561C76.0762 146.396 76.5977 146.314 77.1719 146.314C77.8633 146.314 78.4727 146.432 79 146.666C79.5332 146.9 79.9492 147.255 80.248 147.729C80.5527 148.198 80.7051 148.787 80.7051 149.496V153.926C80.7051 154.242 80.7314 154.579 80.7842 154.937C80.8428 155.294 80.9277 155.602 81.0391 155.859V156H79.3428C79.2607 155.812 79.1963 155.563 79.1494 155.253C79.1025 154.937 79.0791 154.644 79.0791 154.374ZM79.3604 150.234L79.3779 151.377H77.7344C77.2715 151.377 76.8584 151.415 76.4951 151.491C76.1318 151.562 75.8271 151.67 75.5811 151.816C75.335 151.963 75.1475 152.147 75.0186 152.37C74.8896 152.587 74.8252 152.842 74.8252 153.135C74.8252 153.434 74.8926 153.706 75.0273 153.952C75.1621 154.198 75.3643 154.395 75.6338 154.541C75.9092 154.682 76.2461 154.752 76.6445 154.752C77.1426 154.752 77.582 154.646 77.9629 154.436C78.3438 154.225 78.6455 153.967 78.8682 153.662C79.0967 153.357 79.2197 153.062 79.2373 152.774L79.9316 153.557C79.8906 153.803 79.7793 154.075 79.5977 154.374C79.416 154.673 79.1729 154.96 78.8682 155.235C78.5693 155.505 78.2119 155.73 77.7959 155.912C77.3857 156.088 76.9229 156.176 76.4072 156.176C75.7627 156.176 75.1973 156.05 74.7109 155.798C74.2305 155.546 73.8555 155.209 73.5859 154.787C73.3223 154.359 73.1904 153.882 73.1904 153.354C73.1904 152.845 73.29 152.396 73.4893 152.01C73.6885 151.617 73.9756 151.292 74.3506 151.034C74.7256 150.771 75.1768 150.571 75.7041 150.437C76.2314 150.302 76.8203 150.234 77.4707 150.234H79.3604ZM84.8887 147.984V156H83.2627V146.49H84.8447L84.8887 147.984ZM87.8594 146.438L87.8506 147.949C87.7158 147.92 87.5869 147.902 87.4639 147.896C87.3467 147.885 87.2119 147.879 87.0596 147.879C86.6846 147.879 86.3535 147.938 86.0664 148.055C85.7793 148.172 85.5361 148.336 85.3369 148.547C85.1377 148.758 84.9795 149.01 84.8623 149.303C84.751 149.59 84.6777 149.906 84.6426 150.252L84.1855 150.516C84.1855 149.941 84.2412 149.402 84.3525 148.898C84.4697 148.395 84.6484 147.949 84.8887 147.562C85.1289 147.17 85.4336 146.865 85.8027 146.648C86.1777 146.426 86.623 146.314 87.1387 146.314C87.2559 146.314 87.3906 146.329 87.543 146.358C87.6953 146.382 87.8008 146.408 87.8594 146.438ZM92.9922 154.84C93.3789 154.84 93.7363 154.761 94.0645 154.603C94.3926 154.444 94.6621 154.228 94.873 153.952C95.084 153.671 95.2041 153.352 95.2334 152.994H96.7803C96.751 153.557 96.5605 154.081 96.209 154.567C95.8633 155.048 95.4092 155.438 94.8467 155.736C94.2842 156.029 93.666 156.176 92.9922 156.176C92.2773 156.176 91.6533 156.05 91.1201 155.798C90.5928 155.546 90.1533 155.2 89.8018 154.761C89.4561 154.321 89.1953 153.817 89.0195 153.249C88.8496 152.675 88.7646 152.068 88.7646 151.43V151.061C88.7646 150.422 88.8496 149.818 89.0195 149.25C89.1953 148.676 89.4561 148.169 89.8018 147.729C90.1533 147.29 90.5928 146.944 91.1201 146.692C91.6533 146.44 92.2773 146.314 92.9922 146.314C93.7363 146.314 94.3867 146.467 94.9434 146.771C95.5 147.07 95.9365 147.48 96.2529 148.002C96.5752 148.518 96.751 149.104 96.7803 149.76H95.2334C95.2041 149.367 95.0928 149.013 94.8994 148.696C94.7119 148.38 94.4541 148.128 94.126 147.94C93.8037 147.747 93.4258 147.65 92.9922 147.65C92.4941 147.65 92.0752 147.75 91.7354 147.949C91.4014 148.143 91.1348 148.406 90.9355 148.74C90.7422 149.068 90.6016 149.435 90.5137 149.839C90.4316 150.237 90.3906 150.645 90.3906 151.061V151.43C90.3906 151.846 90.4316 152.256 90.5137 152.66C90.5957 153.064 90.7334 153.431 90.9268 153.759C91.126 154.087 91.3926 154.351 91.7266 154.55C92.0664 154.743 92.4883 154.84 92.9922 154.84ZM100.234 142.5V156H98.6084V142.5H100.234ZM99.8477 150.885L99.1709 150.858C99.1768 150.208 99.2734 149.607 99.4609 149.057C99.6484 148.5 99.9121 148.017 100.252 147.606C100.592 147.196 100.996 146.88 101.465 146.657C101.939 146.429 102.464 146.314 103.038 146.314C103.507 146.314 103.929 146.379 104.304 146.508C104.679 146.631 104.998 146.83 105.262 147.105C105.531 147.381 105.736 147.738 105.877 148.178C106.018 148.611 106.088 149.142 106.088 149.769V156H104.453V149.751C104.453 149.253 104.38 148.854 104.233 148.556C104.087 148.251 103.873 148.031 103.592 147.896C103.311 147.756 102.965 147.686 102.555 147.686C102.15 147.686 101.781 147.771 101.447 147.94C101.119 148.11 100.835 148.345 100.595 148.644C100.36 148.942 100.176 149.285 100.041 149.672C99.9121 150.053 99.8477 150.457 99.8477 150.885ZM116.969 146.49V147.738H111.827V146.49H116.969ZM113.567 144.179H115.193V153.645C115.193 153.967 115.243 154.21 115.343 154.374C115.442 154.538 115.571 154.646 115.729 154.699C115.888 154.752 116.058 154.778 116.239 154.778C116.374 154.778 116.515 154.767 116.661 154.743C116.813 154.714 116.928 154.69 117.004 154.673L117.013 156C116.884 156.041 116.714 156.079 116.503 156.114C116.298 156.155 116.049 156.176 115.756 156.176C115.357 156.176 114.991 156.097 114.657 155.938C114.323 155.78 114.057 155.517 113.857 155.147C113.664 154.772 113.567 154.269 113.567 153.636V144.179ZM120.502 142.5V156H118.876V142.5H120.502ZM120.115 150.885L119.438 150.858C119.444 150.208 119.541 149.607 119.729 149.057C119.916 148.5 120.18 148.017 120.52 147.606C120.859 147.196 121.264 146.88 121.732 146.657C122.207 146.429 122.731 146.314 123.306 146.314C123.774 146.314 124.196 146.379 124.571 146.508C124.946 146.631 125.266 146.83 125.529 147.105C125.799 147.381 126.004 147.738 126.145 148.178C126.285 148.611 126.355 149.142 126.355 149.769V156H124.721V149.751C124.721 149.253 124.647 148.854 124.501 148.556C124.354 148.251 124.141 148.031 123.859 147.896C123.578 147.756 123.232 147.686 122.822 147.686C122.418 147.686 122.049 147.771 121.715 147.94C121.387 148.11 121.103 148.345 120.862 148.644C120.628 148.942 120.443 149.285 120.309 149.672C120.18 150.053 120.115 150.457 120.115 150.885ZM130.416 147.984V156H128.79V146.49H130.372L130.416 147.984ZM133.387 146.438L133.378 147.949C133.243 147.92 133.114 147.902 132.991 147.896C132.874 147.885 132.739 147.879 132.587 147.879C132.212 147.879 131.881 147.938 131.594 148.055C131.307 148.172 131.063 148.336 130.864 148.547C130.665 148.758 130.507 149.01 130.39 149.303C130.278 149.59 130.205 149.906 130.17 150.252L129.713 150.516C129.713 149.941 129.769 149.402 129.88 148.898C129.997 148.395 130.176 147.949 130.416 147.562C130.656 147.17 130.961 146.865 131.33 146.648C131.705 146.426 132.15 146.314 132.666 146.314C132.783 146.314 132.918 146.329 133.07 146.358C133.223 146.382 133.328 146.408 133.387 146.438ZM134.283 151.351V151.148C134.283 150.463 134.383 149.827 134.582 149.241C134.781 148.649 135.068 148.137 135.443 147.703C135.818 147.264 136.272 146.924 136.806 146.684C137.339 146.438 137.937 146.314 138.599 146.314C139.267 146.314 139.867 146.438 140.4 146.684C140.939 146.924 141.396 147.264 141.771 147.703C142.152 148.137 142.442 148.649 142.642 149.241C142.841 149.827 142.94 150.463 142.94 151.148V151.351C142.94 152.036 142.841 152.672 142.642 153.258C142.442 153.844 142.152 154.356 141.771 154.796C141.396 155.229 140.942 155.569 140.409 155.815C139.882 156.056 139.284 156.176 138.616 156.176C137.948 156.176 137.348 156.056 136.814 155.815C136.281 155.569 135.824 155.229 135.443 154.796C135.068 154.356 134.781 153.844 134.582 153.258C134.383 152.672 134.283 152.036 134.283 151.351ZM135.909 151.148V151.351C135.909 151.825 135.965 152.273 136.076 152.695C136.188 153.111 136.354 153.48 136.577 153.803C136.806 154.125 137.09 154.38 137.43 154.567C137.77 154.749 138.165 154.84 138.616 154.84C139.062 154.84 139.451 154.749 139.785 154.567C140.125 154.38 140.406 154.125 140.629 153.803C140.852 153.48 141.019 153.111 141.13 152.695C141.247 152.273 141.306 151.825 141.306 151.351V151.148C141.306 150.68 141.247 150.237 141.13 149.821C141.019 149.399 140.849 149.027 140.62 148.705C140.397 148.377 140.116 148.119 139.776 147.932C139.442 147.744 139.05 147.65 138.599 147.65C138.153 147.65 137.761 147.744 137.421 147.932C137.087 148.119 136.806 148.377 136.577 148.705C136.354 149.027 136.188 149.399 136.076 149.821C135.965 150.237 135.909 150.68 135.909 151.148ZM150.798 153.803V146.49H152.433V156H150.877L150.798 153.803ZM151.105 151.799L151.782 151.781C151.782 152.414 151.715 153 151.58 153.539C151.451 154.072 151.24 154.535 150.947 154.928C150.654 155.32 150.271 155.628 149.796 155.851C149.321 156.067 148.744 156.176 148.064 156.176C147.602 156.176 147.177 156.108 146.79 155.974C146.409 155.839 146.081 155.631 145.806 155.35C145.53 155.068 145.316 154.702 145.164 154.251C145.018 153.8 144.944 153.258 144.944 152.625V146.49H146.57V152.643C146.57 153.07 146.617 153.425 146.711 153.706C146.811 153.981 146.942 154.201 147.106 154.365C147.276 154.523 147.464 154.635 147.669 154.699C147.88 154.764 148.097 154.796 148.319 154.796C149.011 154.796 149.559 154.664 149.963 154.4C150.367 154.131 150.657 153.771 150.833 153.319C151.015 152.862 151.105 152.355 151.105 151.799ZM161.072 146.49H162.549V155.798C162.549 156.636 162.379 157.351 162.039 157.942C161.699 158.534 161.225 158.982 160.615 159.287C160.012 159.598 159.314 159.753 158.523 159.753C158.195 159.753 157.809 159.7 157.363 159.595C156.924 159.495 156.49 159.322 156.062 159.076C155.641 158.836 155.286 158.511 154.999 158.101L155.852 157.134C156.25 157.614 156.666 157.948 157.1 158.136C157.539 158.323 157.973 158.417 158.4 158.417C158.916 158.417 159.361 158.32 159.736 158.127C160.111 157.934 160.401 157.646 160.606 157.266C160.817 156.891 160.923 156.428 160.923 155.877V148.582L161.072 146.49ZM154.524 151.351V151.166C154.524 150.439 154.609 149.78 154.779 149.188C154.955 148.591 155.204 148.078 155.526 147.65C155.854 147.223 156.25 146.895 156.713 146.666C157.176 146.432 157.697 146.314 158.277 146.314C158.875 146.314 159.396 146.42 159.842 146.631C160.293 146.836 160.674 147.138 160.984 147.536C161.301 147.929 161.55 148.403 161.731 148.96C161.913 149.517 162.039 150.146 162.109 150.85V151.658C162.045 152.355 161.919 152.982 161.731 153.539C161.55 154.096 161.301 154.57 160.984 154.963C160.674 155.355 160.293 155.657 159.842 155.868C159.391 156.073 158.863 156.176 158.26 156.176C157.691 156.176 157.176 156.056 156.713 155.815C156.256 155.575 155.863 155.238 155.535 154.805C155.207 154.371 154.955 153.861 154.779 153.275C154.609 152.684 154.524 152.042 154.524 151.351ZM156.15 151.166V151.351C156.15 151.825 156.197 152.271 156.291 152.687C156.391 153.103 156.54 153.469 156.739 153.785C156.944 154.102 157.205 154.351 157.521 154.532C157.838 154.708 158.216 154.796 158.655 154.796C159.194 154.796 159.64 154.682 159.991 154.453C160.343 154.225 160.621 153.923 160.826 153.548C161.037 153.173 161.201 152.766 161.318 152.326V150.208C161.254 149.886 161.154 149.575 161.02 149.276C160.891 148.972 160.721 148.702 160.51 148.468C160.305 148.228 160.05 148.037 159.745 147.896C159.44 147.756 159.083 147.686 158.673 147.686C158.228 147.686 157.844 147.779 157.521 147.967C157.205 148.148 156.944 148.4 156.739 148.723C156.54 149.039 156.391 149.408 156.291 149.83C156.197 150.246 156.15 150.691 156.15 151.166ZM166.645 142.5V156H165.019V142.5H166.645ZM166.258 150.885L165.581 150.858C165.587 150.208 165.684 149.607 165.871 149.057C166.059 148.5 166.322 148.017 166.662 147.606C167.002 147.196 167.406 146.88 167.875 146.657C168.35 146.429 168.874 146.314 169.448 146.314C169.917 146.314 170.339 146.379 170.714 146.508C171.089 146.631 171.408 146.83 171.672 147.105C171.941 147.381 172.146 147.738 172.287 148.178C172.428 148.611 172.498 149.142 172.498 149.769V156H170.863V149.751C170.863 149.253 170.79 148.854 170.644 148.556C170.497 148.251 170.283 148.031 170.002 147.896C169.721 147.756 169.375 147.686 168.965 147.686C168.561 147.686 168.191 147.771 167.857 147.94C167.529 148.11 167.245 148.345 167.005 148.644C166.771 148.942 166.586 149.285 166.451 149.672C166.322 150.053 166.258 150.457 166.258 150.885ZM59.0576 174.803V167.49H60.6924V177H59.1367L59.0576 174.803ZM59.3652 172.799L60.042 172.781C60.042 173.414 59.9746 174 59.8398 174.539C59.7109 175.072 59.5 175.535 59.207 175.928C58.9141 176.32 58.5303 176.628 58.0557 176.851C57.5811 177.067 57.0039 177.176 56.3242 177.176C55.8613 177.176 55.4365 177.108 55.0498 176.974C54.6689 176.839 54.3408 176.631 54.0654 176.35C53.79 176.068 53.5762 175.702 53.4238 175.251C53.2773 174.8 53.2041 174.258 53.2041 173.625V167.49H54.8301V173.643C54.8301 174.07 54.877 174.425 54.9707 174.706C55.0703 174.981 55.2021 175.201 55.3662 175.365C55.5361 175.523 55.7236 175.635 55.9287 175.699C56.1396 175.764 56.3564 175.796 56.5791 175.796C57.2705 175.796 57.8184 175.664 58.2227 175.4C58.627 175.131 58.917 174.771 59.0928 174.319C59.2744 173.862 59.3652 173.355 59.3652 172.799ZM64.7969 169.521V177H63.1709V167.49H64.709L64.7969 169.521ZM64.4102 171.885L63.7334 171.858C63.7393 171.208 63.8359 170.607 64.0234 170.057C64.2109 169.5 64.4746 169.017 64.8145 168.606C65.1543 168.196 65.5586 167.88 66.0273 167.657C66.502 167.429 67.0264 167.314 67.6006 167.314C68.0693 167.314 68.4912 167.379 68.8662 167.508C69.2412 167.631 69.5605 167.83 69.8242 168.105C70.0938 168.381 70.2988 168.738 70.4395 169.178C70.5801 169.611 70.6504 170.142 70.6504 170.769V177H69.0156V170.751C69.0156 170.253 68.9424 169.854 68.7959 169.556C68.6494 169.251 68.4355 169.031 68.1543 168.896C67.873 168.756 67.5273 168.686 67.1172 168.686C66.7129 168.686 66.3438 168.771 66.0098 168.94C65.6816 169.11 65.3975 169.345 65.1572 169.644C64.9229 169.942 64.7383 170.285 64.6035 170.672C64.4746 171.053 64.4102 171.457 64.4102 171.885ZM78.6572 174.478C78.6572 174.243 78.6045 174.026 78.499 173.827C78.3994 173.622 78.1914 173.438 77.875 173.273C77.5645 173.104 77.0957 172.957 76.4688 172.834C75.9414 172.723 75.4639 172.591 75.0361 172.438C74.6143 172.286 74.2539 172.102 73.9551 171.885C73.6621 171.668 73.4365 171.413 73.2783 171.12C73.1201 170.827 73.041 170.484 73.041 170.092C73.041 169.717 73.123 169.362 73.2871 169.028C73.457 168.694 73.6943 168.398 73.999 168.141C74.3096 167.883 74.6816 167.681 75.1152 167.534C75.5488 167.388 76.0322 167.314 76.5654 167.314C77.3271 167.314 77.9775 167.449 78.5166 167.719C79.0557 167.988 79.4688 168.349 79.7559 168.8C80.043 169.245 80.1865 169.74 80.1865 170.285H78.5605C78.5605 170.021 78.4814 169.767 78.3232 169.521C78.1709 169.269 77.9453 169.061 77.6465 168.896C77.3535 168.732 76.9932 168.65 76.5654 168.65C76.1143 168.65 75.748 168.721 75.4668 168.861C75.1914 168.996 74.9893 169.169 74.8604 169.38C74.7373 169.591 74.6758 169.813 74.6758 170.048C74.6758 170.224 74.7051 170.382 74.7637 170.522C74.8281 170.657 74.9395 170.783 75.0977 170.9C75.2559 171.012 75.4785 171.117 75.7656 171.217C76.0527 171.316 76.4189 171.416 76.8643 171.516C77.6436 171.691 78.2852 171.902 78.7891 172.148C79.293 172.395 79.668 172.696 79.9141 173.054C80.1602 173.411 80.2832 173.845 80.2832 174.354C80.2832 174.771 80.1953 175.151 80.0195 175.497C79.8496 175.843 79.6006 176.142 79.2725 176.394C78.9502 176.64 78.5635 176.833 78.1123 176.974C77.667 177.108 77.166 177.176 76.6094 177.176C75.7715 177.176 75.0625 177.026 74.4824 176.728C73.9023 176.429 73.4629 176.042 73.1641 175.567C72.8652 175.093 72.7158 174.592 72.7158 174.064H74.3506C74.374 174.51 74.5029 174.864 74.7373 175.128C74.9717 175.386 75.2588 175.57 75.5986 175.682C75.9385 175.787 76.2754 175.84 76.6094 175.84C77.0547 175.84 77.4268 175.781 77.7256 175.664C78.0303 175.547 78.2617 175.386 78.4199 175.181C78.5781 174.976 78.6572 174.741 78.6572 174.478ZM86.4004 167.49V168.738H81.2588V167.49H86.4004ZM82.999 165.179H84.625V174.645C84.625 174.967 84.6748 175.21 84.7744 175.374C84.874 175.538 85.0029 175.646 85.1611 175.699C85.3193 175.752 85.4893 175.778 85.6709 175.778C85.8057 175.778 85.9463 175.767 86.0928 175.743C86.2451 175.714 86.3594 175.69 86.4355 175.673L86.4443 177C86.3154 177.041 86.1455 177.079 85.9346 177.114C85.7295 177.155 85.4805 177.176 85.1875 177.176C84.7891 177.176 84.4229 177.097 84.0889 176.938C83.7549 176.78 83.4883 176.517 83.2891 176.147C83.0957 175.772 82.999 175.269 82.999 174.636V165.179ZM89.9336 168.984V177H88.3076V167.49H89.8896L89.9336 168.984ZM92.9043 167.438L92.8955 168.949C92.7607 168.92 92.6318 168.902 92.5088 168.896C92.3916 168.885 92.2568 168.879 92.1045 168.879C91.7295 168.879 91.3984 168.938 91.1113 169.055C90.8242 169.172 90.5811 169.336 90.3818 169.547C90.1826 169.758 90.0244 170.01 89.9072 170.303C89.7959 170.59 89.7227 170.906 89.6875 171.252L89.2305 171.516C89.2305 170.941 89.2861 170.402 89.3975 169.898C89.5146 169.395 89.6934 168.949 89.9336 168.562C90.1738 168.17 90.4785 167.865 90.8477 167.648C91.2227 167.426 91.668 167.314 92.1836 167.314C92.3008 167.314 92.4355 167.329 92.5879 167.358C92.7402 167.382 92.8457 167.408 92.9043 167.438ZM100.226 174.803V167.49H101.86V177H100.305L100.226 174.803ZM100.533 172.799L101.21 172.781C101.21 173.414 101.143 174 101.008 174.539C100.879 175.072 100.668 175.535 100.375 175.928C100.082 176.32 99.6982 176.628 99.2236 176.851C98.749 177.067 98.1719 177.176 97.4922 177.176C97.0293 177.176 96.6045 177.108 96.2178 176.974C95.8369 176.839 95.5088 176.631 95.2334 176.35C94.958 176.068 94.7441 175.702 94.5918 175.251C94.4453 174.8 94.3721 174.258 94.3721 173.625V167.49H95.998V173.643C95.998 174.07 96.0449 174.425 96.1387 174.706C96.2383 174.981 96.3701 175.201 96.5342 175.365C96.7041 175.523 96.8916 175.635 97.0967 175.699C97.3076 175.764 97.5244 175.796 97.7471 175.796C98.4385 175.796 98.9863 175.664 99.3906 175.4C99.7949 175.131 100.085 174.771 100.261 174.319C100.442 173.862 100.533 173.355 100.533 172.799ZM108.145 175.84C108.531 175.84 108.889 175.761 109.217 175.603C109.545 175.444 109.814 175.228 110.025 174.952C110.236 174.671 110.356 174.352 110.386 173.994H111.933C111.903 174.557 111.713 175.081 111.361 175.567C111.016 176.048 110.562 176.438 109.999 176.736C109.437 177.029 108.818 177.176 108.145 177.176C107.43 177.176 106.806 177.05 106.272 176.798C105.745 176.546 105.306 176.2 104.954 175.761C104.608 175.321 104.348 174.817 104.172 174.249C104.002 173.675 103.917 173.068 103.917 172.43V172.061C103.917 171.422 104.002 170.818 104.172 170.25C104.348 169.676 104.608 169.169 104.954 168.729C105.306 168.29 105.745 167.944 106.272 167.692C106.806 167.44 107.43 167.314 108.145 167.314C108.889 167.314 109.539 167.467 110.096 167.771C110.652 168.07 111.089 168.48 111.405 169.002C111.728 169.518 111.903 170.104 111.933 170.76H110.386C110.356 170.367 110.245 170.013 110.052 169.696C109.864 169.38 109.606 169.128 109.278 168.94C108.956 168.747 108.578 168.65 108.145 168.65C107.646 168.65 107.228 168.75 106.888 168.949C106.554 169.143 106.287 169.406 106.088 169.74C105.895 170.068 105.754 170.435 105.666 170.839C105.584 171.237 105.543 171.645 105.543 172.061V172.43C105.543 172.846 105.584 173.256 105.666 173.66C105.748 174.064 105.886 174.431 106.079 174.759C106.278 175.087 106.545 175.351 106.879 175.55C107.219 175.743 107.641 175.84 108.145 175.84ZM117.742 167.49V168.738H112.601V167.49H117.742ZM114.341 165.179H115.967V174.645C115.967 174.967 116.017 175.21 116.116 175.374C116.216 175.538 116.345 175.646 116.503 175.699C116.661 175.752 116.831 175.778 117.013 175.778C117.147 175.778 117.288 175.767 117.435 175.743C117.587 175.714 117.701 175.69 117.777 175.673L117.786 177C117.657 177.041 117.487 177.079 117.276 177.114C117.071 177.155 116.822 177.176 116.529 177.176C116.131 177.176 115.765 177.097 115.431 176.938C115.097 176.78 114.83 176.517 114.631 176.147C114.438 175.772 114.341 175.269 114.341 174.636V165.179ZM125.468 174.803V167.49H127.103V177H125.547L125.468 174.803ZM125.775 172.799L126.452 172.781C126.452 173.414 126.385 174 126.25 174.539C126.121 175.072 125.91 175.535 125.617 175.928C125.324 176.32 124.94 176.628 124.466 176.851C123.991 177.067 123.414 177.176 122.734 177.176C122.271 177.176 121.847 177.108 121.46 176.974C121.079 176.839 120.751 176.631 120.476 176.35C120.2 176.068 119.986 175.702 119.834 175.251C119.688 174.8 119.614 174.258 119.614 173.625V167.49H121.24V173.643C121.24 174.07 121.287 174.425 121.381 174.706C121.48 174.981 121.612 175.201 121.776 175.365C121.946 175.523 122.134 175.635 122.339 175.699C122.55 175.764 122.767 175.796 122.989 175.796C123.681 175.796 124.229 175.664 124.633 175.4C125.037 175.131 125.327 174.771 125.503 174.319C125.685 173.862 125.775 173.355 125.775 172.799ZM131.207 168.984V177H129.581V167.49H131.163L131.207 168.984ZM134.178 167.438L134.169 168.949C134.034 168.92 133.905 168.902 133.782 168.896C133.665 168.885 133.53 168.879 133.378 168.879C133.003 168.879 132.672 168.938 132.385 169.055C132.098 169.172 131.854 169.336 131.655 169.547C131.456 169.758 131.298 170.01 131.181 170.303C131.069 170.59 130.996 170.906 130.961 171.252L130.504 171.516C130.504 170.941 130.56 170.402 130.671 169.898C130.788 169.395 130.967 168.949 131.207 168.562C131.447 168.17 131.752 167.865 132.121 167.648C132.496 167.426 132.941 167.314 133.457 167.314C133.574 167.314 133.709 167.329 133.861 167.358C134.014 167.382 134.119 167.408 134.178 167.438ZM139.451 177.176C138.789 177.176 138.188 177.064 137.649 176.842C137.116 176.613 136.656 176.294 136.27 175.884C135.889 175.474 135.596 174.987 135.391 174.425C135.186 173.862 135.083 173.247 135.083 172.579V172.21C135.083 171.437 135.197 170.748 135.426 170.145C135.654 169.535 135.965 169.02 136.357 168.598C136.75 168.176 137.195 167.856 137.693 167.64C138.191 167.423 138.707 167.314 139.24 167.314C139.92 167.314 140.506 167.432 140.998 167.666C141.496 167.9 141.903 168.229 142.22 168.65C142.536 169.066 142.771 169.559 142.923 170.127C143.075 170.689 143.151 171.305 143.151 171.973V172.702H136.05V171.375H141.525V171.252C141.502 170.83 141.414 170.42 141.262 170.021C141.115 169.623 140.881 169.295 140.559 169.037C140.236 168.779 139.797 168.65 139.24 168.65C138.871 168.65 138.531 168.729 138.221 168.888C137.91 169.04 137.644 169.269 137.421 169.573C137.198 169.878 137.025 170.25 136.902 170.689C136.779 171.129 136.718 171.636 136.718 172.21V172.579C136.718 173.03 136.779 173.455 136.902 173.854C137.031 174.246 137.216 174.592 137.456 174.891C137.702 175.189 137.998 175.424 138.344 175.594C138.695 175.764 139.094 175.849 139.539 175.849C140.113 175.849 140.6 175.731 140.998 175.497C141.396 175.263 141.745 174.949 142.044 174.557L143.028 175.339C142.823 175.649 142.562 175.945 142.246 176.227C141.93 176.508 141.54 176.736 141.077 176.912C140.62 177.088 140.078 177.176 139.451 177.176ZM151.044 175.154V163.5H152.679V177H151.185L151.044 175.154ZM144.646 172.351V172.166C144.646 171.439 144.733 170.78 144.909 170.188C145.091 169.591 145.346 169.078 145.674 168.65C146.008 168.223 146.403 167.895 146.86 167.666C147.323 167.432 147.839 167.314 148.407 167.314C149.005 167.314 149.526 167.42 149.972 167.631C150.423 167.836 150.804 168.138 151.114 168.536C151.431 168.929 151.68 169.403 151.861 169.96C152.043 170.517 152.169 171.146 152.239 171.85V172.658C152.175 173.355 152.049 173.982 151.861 174.539C151.68 175.096 151.431 175.57 151.114 175.963C150.804 176.355 150.423 176.657 149.972 176.868C149.521 177.073 148.993 177.176 148.39 177.176C147.833 177.176 147.323 177.056 146.86 176.815C146.403 176.575 146.008 176.238 145.674 175.805C145.346 175.371 145.091 174.861 144.909 174.275C144.733 173.684 144.646 173.042 144.646 172.351ZM146.28 172.166V172.351C146.28 172.825 146.327 173.271 146.421 173.687C146.521 174.103 146.673 174.469 146.878 174.785C147.083 175.102 147.344 175.351 147.66 175.532C147.977 175.708 148.354 175.796 148.794 175.796C149.333 175.796 149.775 175.682 150.121 175.453C150.473 175.225 150.754 174.923 150.965 174.548C151.176 174.173 151.34 173.766 151.457 173.326V171.208C151.387 170.886 151.284 170.575 151.149 170.276C151.021 169.972 150.851 169.702 150.64 169.468C150.435 169.228 150.18 169.037 149.875 168.896C149.576 168.756 149.222 168.686 148.812 168.686C148.366 168.686 147.982 168.779 147.66 168.967C147.344 169.148 147.083 169.4 146.878 169.723C146.673 170.039 146.521 170.408 146.421 170.83C146.327 171.246 146.28 171.691 146.28 172.166ZM165.669 175.154V163.5H167.304V177H165.81L165.669 175.154ZM159.271 172.351V172.166C159.271 171.439 159.358 170.78 159.534 170.188C159.716 169.591 159.971 169.078 160.299 168.65C160.633 168.223 161.028 167.895 161.485 167.666C161.948 167.432 162.464 167.314 163.032 167.314C163.63 167.314 164.151 167.42 164.597 167.631C165.048 167.836 165.429 168.138 165.739 168.536C166.056 168.929 166.305 169.403 166.486 169.96C166.668 170.517 166.794 171.146 166.864 171.85V172.658C166.8 173.355 166.674 173.982 166.486 174.539C166.305 175.096 166.056 175.57 165.739 175.963C165.429 176.355 165.048 176.657 164.597 176.868C164.146 177.073 163.618 177.176 163.015 177.176C162.458 177.176 161.948 177.056 161.485 176.815C161.028 176.575 160.633 176.238 160.299 175.805C159.971 175.371 159.716 174.861 159.534 174.275C159.358 173.684 159.271 173.042 159.271 172.351ZM160.905 172.166V172.351C160.905 172.825 160.952 173.271 161.046 173.687C161.146 174.103 161.298 174.469 161.503 174.785C161.708 175.102 161.969 175.351 162.285 175.532C162.602 175.708 162.979 175.796 163.419 175.796C163.958 175.796 164.4 175.682 164.746 175.453C165.098 175.225 165.379 174.923 165.59 174.548C165.801 174.173 165.965 173.766 166.082 173.326V171.208C166.012 170.886 165.909 170.575 165.774 170.276C165.646 169.972 165.476 169.702 165.265 169.468C165.06 169.228 164.805 169.037 164.5 168.896C164.201 168.756 163.847 168.686 163.437 168.686C162.991 168.686 162.607 168.779 162.285 168.967C161.969 169.148 161.708 169.4 161.503 169.723C161.298 170.039 161.146 170.408 161.046 170.83C160.952 171.246 160.905 171.691 160.905 172.166ZM175.442 175.374V170.479C175.442 170.104 175.366 169.778 175.214 169.503C175.067 169.222 174.845 169.005 174.546 168.853C174.247 168.7 173.878 168.624 173.438 168.624C173.028 168.624 172.668 168.694 172.357 168.835C172.053 168.976 171.812 169.16 171.637 169.389C171.467 169.617 171.382 169.863 171.382 170.127H169.756C169.756 169.787 169.844 169.45 170.02 169.116C170.195 168.782 170.447 168.48 170.775 168.211C171.109 167.936 171.508 167.719 171.971 167.561C172.439 167.396 172.961 167.314 173.535 167.314C174.227 167.314 174.836 167.432 175.363 167.666C175.896 167.9 176.312 168.255 176.611 168.729C176.916 169.198 177.068 169.787 177.068 170.496V174.926C177.068 175.242 177.095 175.579 177.147 175.937C177.206 176.294 177.291 176.602 177.402 176.859V177H175.706C175.624 176.812 175.56 176.563 175.513 176.253C175.466 175.937 175.442 175.644 175.442 175.374ZM175.724 171.234L175.741 172.377H174.098C173.635 172.377 173.222 172.415 172.858 172.491C172.495 172.562 172.19 172.67 171.944 172.816C171.698 172.963 171.511 173.147 171.382 173.37C171.253 173.587 171.188 173.842 171.188 174.135C171.188 174.434 171.256 174.706 171.391 174.952C171.525 175.198 171.728 175.395 171.997 175.541C172.272 175.682 172.609 175.752 173.008 175.752C173.506 175.752 173.945 175.646 174.326 175.436C174.707 175.225 175.009 174.967 175.231 174.662C175.46 174.357 175.583 174.062 175.601 173.774L176.295 174.557C176.254 174.803 176.143 175.075 175.961 175.374C175.779 175.673 175.536 175.96 175.231 176.235C174.933 176.505 174.575 176.73 174.159 176.912C173.749 177.088 173.286 177.176 172.771 177.176C172.126 177.176 171.561 177.05 171.074 176.798C170.594 176.546 170.219 176.209 169.949 175.787C169.686 175.359 169.554 174.882 169.554 174.354C169.554 173.845 169.653 173.396 169.853 173.01C170.052 172.617 170.339 172.292 170.714 172.034C171.089 171.771 171.54 171.571 172.067 171.437C172.595 171.302 173.184 171.234 173.834 171.234H175.724ZM183.607 167.49V168.738H178.466V167.49H183.607ZM180.206 165.179H181.832V174.645C181.832 174.967 181.882 175.21 181.981 175.374C182.081 175.538 182.21 175.646 182.368 175.699C182.526 175.752 182.696 175.778 182.878 175.778C183.013 175.778 183.153 175.767 183.3 175.743C183.452 175.714 183.566 175.69 183.643 175.673L183.651 177C183.522 177.041 183.353 177.079 183.142 177.114C182.937 177.155 182.688 177.176 182.395 177.176C181.996 177.176 181.63 177.097 181.296 176.938C180.962 176.78 180.695 176.517 180.496 176.147C180.303 175.772 180.206 175.269 180.206 174.636V165.179ZM191.122 175.374V170.479C191.122 170.104 191.046 169.778 190.894 169.503C190.747 169.222 190.524 169.005 190.226 168.853C189.927 168.7 189.558 168.624 189.118 168.624C188.708 168.624 188.348 168.694 188.037 168.835C187.732 168.976 187.492 169.16 187.316 169.389C187.146 169.617 187.062 169.863 187.062 170.127H185.436C185.436 169.787 185.523 169.45 185.699 169.116C185.875 168.782 186.127 168.48 186.455 168.211C186.789 167.936 187.188 167.719 187.65 167.561C188.119 167.396 188.641 167.314 189.215 167.314C189.906 167.314 190.516 167.432 191.043 167.666C191.576 167.9 191.992 168.255 192.291 168.729C192.596 169.198 192.748 169.787 192.748 170.496V174.926C192.748 175.242 192.774 175.579 192.827 175.937C192.886 176.294 192.971 176.602 193.082 176.859V177H191.386C191.304 176.812 191.239 176.563 191.192 176.253C191.146 175.937 191.122 175.644 191.122 175.374ZM191.403 171.234L191.421 172.377H189.777C189.314 172.377 188.901 172.415 188.538 172.491C188.175 172.562 187.87 172.67 187.624 172.816C187.378 172.963 187.19 173.147 187.062 173.37C186.933 173.587 186.868 173.842 186.868 174.135C186.868 174.434 186.936 174.706 187.07 174.952C187.205 175.198 187.407 175.395 187.677 175.541C187.952 175.682 188.289 175.752 188.688 175.752C189.186 175.752 189.625 175.646 190.006 175.436C190.387 175.225 190.688 174.967 190.911 174.662C191.14 174.357 191.263 174.062 191.28 173.774L191.975 174.557C191.934 174.803 191.822 175.075 191.641 175.374C191.459 175.673 191.216 175.96 190.911 176.235C190.612 176.505 190.255 176.73 189.839 176.912C189.429 177.088 188.966 177.176 188.45 177.176C187.806 177.176 187.24 177.05 186.754 176.798C186.273 176.546 185.898 176.209 185.629 175.787C185.365 175.359 185.233 174.882 185.233 174.354C185.233 173.845 185.333 173.396 185.532 173.01C185.731 172.617 186.019 172.292 186.394 172.034C186.769 171.771 187.22 171.571 187.747 171.437C188.274 171.302 188.863 171.234 189.514 171.234H191.403ZM195.332 176.139C195.332 175.863 195.417 175.632 195.587 175.444C195.763 175.251 196.015 175.154 196.343 175.154C196.671 175.154 196.92 175.251 197.09 175.444C197.266 175.632 197.354 175.863 197.354 176.139C197.354 176.408 197.266 176.637 197.09 176.824C196.92 177.012 196.671 177.105 196.343 177.105C196.015 177.105 195.763 177.012 195.587 176.824C195.417 176.637 195.332 176.408 195.332 176.139Z" fill="white"/>
<rect x="20" y="102" width="217" height="118" rx="8" stroke="#ABABAB" stroke-dasharray="2 2"/>
<defs>
<filter id="filter0_d_3248_68" x="302.5" y="0.5" width="270.1" height="268.1" filterUnits="userSpaceOnUse" color-interpolation-filters="sRGB">
<feFlood flood-opacity="0" result="BackgroundImageFix"/>
<feColorMatrix in="SourceAlpha" type="matrix" values="0 0 0 0 0 0 0 0 0 0 0 0 0 0 0 0 0 0 127 0" result="hardAlpha"/>
<feOffset dx="9" dy="9"/>
<feGaussianBlur stdDeviation="3.05"/>
<feComposite in2="hardAlpha" operator="out"/>
<feColorMatrix type="matrix" values="0 0 0 0 0 0 0 0 0 0 0 0 0 0 0 0 0 0 0.25 0"/>
<feBlend mode="normal" in2="BackgroundImageFix" result="effect1_dropShadow_3248_68"/>
<feBlend mode="normal" in="SourceGraphic" in2="effect1_dropShadow_3248_68" result="shape"/>
</filter>
<filter id="filter1_d_3248_68" x="0.5" y="0.5" width="270.1" height="268.1" filterUnits="userSpaceOnUse" color-interpolation-filters="sRGB">
<feFlood flood-opacity="0" result="BackgroundImageFix"/>
<feColorMatrix in="SourceAlpha" type="matrix" values="0 0 0 0 0 0 0 0 0 0 0 0 0 0 0 0 0 0 127 0" result="hardAlpha"/>
<feOffset dx="9" dy="9"/>
<feGaussianBlur stdDeviation="3.05"/>
<feComposite in2="hardAlpha" operator="out"/>
<feColorMatrix type="matrix" values="0 0 0 0 0 0 0 0 0 0 0 0 0 0 0 0 0 0 0.25 0"/>
<feBlend mode="normal" in2="BackgroundImageFix" result="effect1_dropShadow_3248_68"/>
<feBlend mode="normal" in="SourceGraphic" in2="effect1_dropShadow_3248_68" result="shape"/>
</filter>
</defs>
</svg>
