<svg width="573" height="269" viewBox="0 0 573 269" fill="none" xmlns="http://www.w3.org/2000/svg">
<g filter="url(#filter0_d_3248_65)">
<path d="M255 1H1V253H255V1Z" fill="#11256D"/>
<path d="M255 1H1V253H255V1Z" stroke="#11256D"/>
</g>
<path d="M30 50.3182C28.2879 50.3182 26.8295 49.8523 25.625 48.9205C24.4205 47.9811 23.5 46.6212 22.8636 44.8409C22.2273 43.053 21.9091 40.8939 21.9091 38.3636C21.9091 35.8485 22.2273 33.7008 22.8636 31.9205C23.5076 30.1326 24.4318 28.7689 25.6364 27.8295C26.8485 26.8826 28.303 26.4091 30 26.4091C31.697 26.4091 33.1477 26.8826 34.3523 27.8295C35.5644 28.7689 36.4886 30.1326 37.125 31.9205C37.7689 33.7008 38.0909 35.8485 38.0909 38.3636C38.0909 40.8939 37.7727 43.053 37.1364 44.8409C36.5 46.6212 35.5795 47.9811 34.375 48.9205C33.1705 49.8523 31.7121 50.3182 30 50.3182ZM30 47.8182C31.697 47.8182 33.0152 47 33.9545 45.3636C34.8939 43.7273 35.3636 41.3939 35.3636 38.3636C35.3636 36.3485 35.1477 34.6326 34.7159 33.2159C34.2917 31.7992 33.678 30.7197 32.875 29.9773C32.0795 29.2348 31.1212 28.8636 30 28.8636C28.3182 28.8636 27.0038 29.6932 26.0568 31.3523C25.1098 33.0038 24.6364 35.3409 24.6364 38.3636C24.6364 40.3788 24.8485 42.0909 25.2727 43.5C25.697 44.9091 26.3068 45.9811 27.1023 46.7159C27.9053 47.4508 28.8712 47.8182 30 47.8182ZM49.3109 26.7273V50H46.4927V29.6818H46.3564L40.6745 33.4545V30.5909L46.4927 26.7273H49.3109Z" fill="white"/>
<path d="M48.2227 134.337L43.9863 146H42.2549L47.1328 133.203H48.249L48.2227 134.337ZM51.7734 146L47.5283 134.337L47.502 133.203H48.6182L53.5137 146H51.7734ZM51.5537 141.263V142.651H44.3643V141.263H51.5537ZM60.6943 143.803V136.49H62.3291V146H60.7734L60.6943 143.803ZM61.002 141.799L61.6787 141.781C61.6787 142.414 61.6113 143 61.4766 143.539C61.3477 144.072 61.1367 144.535 60.8438 144.928C60.5508 145.32 60.167 145.628 59.6924 145.851C59.2178 146.067 58.6406 146.176 57.9609 146.176C57.498 146.176 57.0732 146.108 56.6865 145.974C56.3057 145.839 55.9775 145.631 55.7021 145.35C55.4268 145.068 55.2129 144.702 55.0605 144.251C54.9141 143.8 54.8408 143.258 54.8408 142.625V136.49H56.4668V142.643C56.4668 143.07 56.5137 143.425 56.6074 143.706C56.707 143.981 56.8389 144.201 57.0029 144.365C57.1729 144.523 57.3604 144.635 57.5654 144.699C57.7764 144.764 57.9932 144.796 58.2158 144.796C58.9072 144.796 59.4551 144.664 59.8594 144.4C60.2637 144.131 60.5537 143.771 60.7295 143.319C60.9111 142.862 61.002 142.355 61.002 141.799ZM68.7891 136.49V137.738H63.6475V136.49H68.7891ZM65.3877 134.179H67.0137V143.645C67.0137 143.967 67.0635 144.21 67.1631 144.374C67.2627 144.538 67.3916 144.646 67.5498 144.699C67.708 144.752 67.8779 144.778 68.0596 144.778C68.1943 144.778 68.335 144.767 68.4814 144.743C68.6338 144.714 68.748 144.69 68.8242 144.673L68.833 146C68.7041 146.041 68.5342 146.079 68.3232 146.114C68.1182 146.155 67.8691 146.176 67.5762 146.176C67.1777 146.176 66.8115 146.097 66.4775 145.938C66.1436 145.78 65.877 145.517 65.6777 145.147C65.4844 144.772 65.3877 144.269 65.3877 143.636V134.179ZM70.0898 141.351V141.148C70.0898 140.463 70.1895 139.827 70.3887 139.241C70.5879 138.649 70.875 138.137 71.25 137.703C71.625 137.264 72.0791 136.924 72.6123 136.684C73.1455 136.438 73.7432 136.314 74.4053 136.314C75.0732 136.314 75.6738 136.438 76.207 136.684C76.7461 136.924 77.2031 137.264 77.5781 137.703C77.959 138.137 78.249 138.649 78.4482 139.241C78.6475 139.827 78.7471 140.463 78.7471 141.148V141.351C78.7471 142.036 78.6475 142.672 78.4482 143.258C78.249 143.844 77.959 144.356 77.5781 144.796C77.2031 145.229 76.749 145.569 76.2158 145.815C75.6885 146.056 75.0908 146.176 74.4229 146.176C73.7549 146.176 73.1543 146.056 72.6211 145.815C72.0879 145.569 71.6309 145.229 71.25 144.796C70.875 144.356 70.5879 143.844 70.3887 143.258C70.1895 142.672 70.0898 142.036 70.0898 141.351ZM71.7158 141.148V141.351C71.7158 141.825 71.7715 142.273 71.8828 142.695C71.9941 143.111 72.1611 143.48 72.3838 143.803C72.6123 144.125 72.8965 144.38 73.2363 144.567C73.5762 144.749 73.9717 144.84 74.4229 144.84C74.8682 144.84 75.2578 144.749 75.5918 144.567C75.9316 144.38 76.2129 144.125 76.4355 143.803C76.6582 143.48 76.8252 143.111 76.9365 142.695C77.0537 142.273 77.1123 141.825 77.1123 141.351V141.148C77.1123 140.68 77.0537 140.237 76.9365 139.821C76.8252 139.399 76.6553 139.027 76.4268 138.705C76.2041 138.377 75.9229 138.119 75.583 137.932C75.249 137.744 74.8564 137.65 74.4053 137.65C73.96 137.65 73.5674 137.744 73.2275 137.932C72.8936 138.119 72.6123 138.377 72.3838 138.705C72.1611 139.027 71.9941 139.399 71.8828 139.821C71.7715 140.237 71.7158 140.68 71.7158 141.148ZM82.4033 138.38V146H80.7686V136.49H82.3154L82.4033 138.38ZM82.0693 140.885L81.3135 140.858C81.3193 140.208 81.4043 139.607 81.5684 139.057C81.7324 138.5 81.9756 138.017 82.2979 137.606C82.6201 137.196 83.0215 136.88 83.502 136.657C83.9824 136.429 84.5391 136.314 85.1719 136.314C85.6172 136.314 86.0273 136.379 86.4023 136.508C86.7773 136.631 87.1025 136.827 87.3779 137.097C87.6533 137.366 87.8672 137.712 88.0195 138.134C88.1719 138.556 88.248 139.065 88.248 139.663V146H86.6221V139.742C86.6221 139.244 86.5371 138.846 86.3672 138.547C86.2031 138.248 85.9688 138.031 85.6641 137.896C85.3594 137.756 85.002 137.686 84.5918 137.686C84.1113 137.686 83.71 137.771 83.3877 137.94C83.0654 138.11 82.8076 138.345 82.6143 138.644C82.4209 138.942 82.2803 139.285 82.1924 139.672C82.1104 140.053 82.0693 140.457 82.0693 140.885ZM88.2305 139.988L87.1406 140.322C87.1465 139.801 87.2314 139.3 87.3955 138.819C87.5654 138.339 87.8086 137.911 88.125 137.536C88.4473 137.161 88.8428 136.865 89.3115 136.648C89.7803 136.426 90.3164 136.314 90.9199 136.314C91.4297 136.314 91.8809 136.382 92.2734 136.517C92.6719 136.651 93.0059 136.859 93.2754 137.141C93.5508 137.416 93.7588 137.771 93.8994 138.204C94.04 138.638 94.1104 139.153 94.1104 139.751V146H92.4756V139.733C92.4756 139.2 92.3906 138.787 92.2207 138.494C92.0566 138.195 91.8223 137.987 91.5176 137.87C91.2188 137.747 90.8613 137.686 90.4453 137.686C90.0879 137.686 89.7715 137.747 89.4961 137.87C89.2207 137.993 88.9893 138.163 88.8018 138.38C88.6143 138.591 88.4707 138.834 88.3711 139.109C88.2773 139.385 88.2305 139.678 88.2305 139.988ZM102.179 144.374V139.479C102.179 139.104 102.103 138.778 101.95 138.503C101.804 138.222 101.581 138.005 101.282 137.853C100.983 137.7 100.614 137.624 100.175 137.624C99.7646 137.624 99.4043 137.694 99.0938 137.835C98.7891 137.976 98.5488 138.16 98.373 138.389C98.2031 138.617 98.1182 138.863 98.1182 139.127H96.4922C96.4922 138.787 96.5801 138.45 96.7559 138.116C96.9316 137.782 97.1836 137.48 97.5117 137.211C97.8457 136.936 98.2441 136.719 98.707 136.561C99.1758 136.396 99.6973 136.314 100.271 136.314C100.963 136.314 101.572 136.432 102.1 136.666C102.633 136.9 103.049 137.255 103.348 137.729C103.652 138.198 103.805 138.787 103.805 139.496V143.926C103.805 144.242 103.831 144.579 103.884 144.937C103.942 145.294 104.027 145.602 104.139 145.859V146H102.442C102.36 145.812 102.296 145.563 102.249 145.253C102.202 144.937 102.179 144.644 102.179 144.374ZM102.46 140.234L102.478 141.377H100.834C100.371 141.377 99.958 141.415 99.5947 141.491C99.2314 141.562 98.9268 141.67 98.6807 141.816C98.4346 141.963 98.2471 142.147 98.1182 142.37C97.9893 142.587 97.9248 142.842 97.9248 143.135C97.9248 143.434 97.9922 143.706 98.127 143.952C98.2617 144.198 98.4639 144.395 98.7334 144.541C99.0088 144.682 99.3457 144.752 99.7441 144.752C100.242 144.752 100.682 144.646 101.062 144.436C101.443 144.225 101.745 143.967 101.968 143.662C102.196 143.357 102.319 143.062 102.337 142.774L103.031 143.557C102.99 143.803 102.879 144.075 102.697 144.374C102.516 144.673 102.272 144.96 101.968 145.235C101.669 145.505 101.312 145.73 100.896 145.912C100.485 146.088 100.022 146.176 99.5068 146.176C98.8623 146.176 98.2969 146.05 97.8105 145.798C97.3301 145.546 96.9551 145.209 96.6855 144.787C96.4219 144.359 96.29 143.882 96.29 143.354C96.29 142.845 96.3896 142.396 96.5889 142.01C96.7881 141.617 97.0752 141.292 97.4502 141.034C97.8252 140.771 98.2764 140.571 98.8037 140.437C99.3311 140.302 99.9199 140.234 100.57 140.234H102.46ZM110.344 136.49V137.738H105.202V136.49H110.344ZM106.942 134.179H108.568V143.645C108.568 143.967 108.618 144.21 108.718 144.374C108.817 144.538 108.946 144.646 109.104 144.699C109.263 144.752 109.433 144.778 109.614 144.778C109.749 144.778 109.89 144.767 110.036 144.743C110.188 144.714 110.303 144.69 110.379 144.673L110.388 146C110.259 146.041 110.089 146.079 109.878 146.114C109.673 146.155 109.424 146.176 109.131 146.176C108.732 146.176 108.366 146.097 108.032 145.938C107.698 145.78 107.432 145.517 107.232 145.147C107.039 144.772 106.942 144.269 106.942 143.636V134.179ZM114.018 136.49V146H112.383V136.49H114.018ZM112.26 133.968C112.26 133.704 112.339 133.481 112.497 133.3C112.661 133.118 112.901 133.027 113.218 133.027C113.528 133.027 113.766 133.118 113.93 133.3C114.1 133.481 114.185 133.704 114.185 133.968C114.185 134.22 114.1 134.437 113.93 134.618C113.766 134.794 113.528 134.882 113.218 134.882C112.901 134.882 112.661 134.794 112.497 134.618C112.339 134.437 112.26 134.22 112.26 133.968ZM120.434 144.84C120.82 144.84 121.178 144.761 121.506 144.603C121.834 144.444 122.104 144.228 122.314 143.952C122.525 143.671 122.646 143.352 122.675 142.994H124.222C124.192 143.557 124.002 144.081 123.65 144.567C123.305 145.048 122.851 145.438 122.288 145.736C121.726 146.029 121.107 146.176 120.434 146.176C119.719 146.176 119.095 146.05 118.562 145.798C118.034 145.546 117.595 145.2 117.243 144.761C116.897 144.321 116.637 143.817 116.461 143.249C116.291 142.675 116.206 142.068 116.206 141.43V141.061C116.206 140.422 116.291 139.818 116.461 139.25C116.637 138.676 116.897 138.169 117.243 137.729C117.595 137.29 118.034 136.944 118.562 136.692C119.095 136.44 119.719 136.314 120.434 136.314C121.178 136.314 121.828 136.467 122.385 136.771C122.941 137.07 123.378 137.48 123.694 138.002C124.017 138.518 124.192 139.104 124.222 139.76H122.675C122.646 139.367 122.534 139.013 122.341 138.696C122.153 138.38 121.896 138.128 121.567 137.94C121.245 137.747 120.867 137.65 120.434 137.65C119.936 137.65 119.517 137.75 119.177 137.949C118.843 138.143 118.576 138.406 118.377 138.74C118.184 139.068 118.043 139.435 117.955 139.839C117.873 140.237 117.832 140.645 117.832 141.061V141.43C117.832 141.846 117.873 142.256 117.955 142.66C118.037 143.064 118.175 143.431 118.368 143.759C118.567 144.087 118.834 144.351 119.168 144.55C119.508 144.743 119.93 144.84 120.434 144.84ZM131.657 144.374V139.479C131.657 139.104 131.581 138.778 131.429 138.503C131.282 138.222 131.06 138.005 130.761 137.853C130.462 137.7 130.093 137.624 129.653 137.624C129.243 137.624 128.883 137.694 128.572 137.835C128.268 137.976 128.027 138.16 127.852 138.389C127.682 138.617 127.597 138.863 127.597 139.127H125.971C125.971 138.787 126.059 138.45 126.234 138.116C126.41 137.782 126.662 137.48 126.99 137.211C127.324 136.936 127.723 136.719 128.186 136.561C128.654 136.396 129.176 136.314 129.75 136.314C130.441 136.314 131.051 136.432 131.578 136.666C132.111 136.9 132.527 137.255 132.826 137.729C133.131 138.198 133.283 138.787 133.283 139.496V143.926C133.283 144.242 133.31 144.579 133.362 144.937C133.421 145.294 133.506 145.602 133.617 145.859V146H131.921C131.839 145.812 131.774 145.563 131.728 145.253C131.681 144.937 131.657 144.644 131.657 144.374ZM131.938 140.234L131.956 141.377H130.312C129.85 141.377 129.437 141.415 129.073 141.491C128.71 141.562 128.405 141.67 128.159 141.816C127.913 141.963 127.726 142.147 127.597 142.37C127.468 142.587 127.403 142.842 127.403 143.135C127.403 143.434 127.471 143.706 127.605 143.952C127.74 144.198 127.942 144.395 128.212 144.541C128.487 144.682 128.824 144.752 129.223 144.752C129.721 144.752 130.16 144.646 130.541 144.436C130.922 144.225 131.224 143.967 131.446 143.662C131.675 143.357 131.798 143.062 131.815 142.774L132.51 143.557C132.469 143.803 132.357 144.075 132.176 144.374C131.994 144.673 131.751 144.96 131.446 145.235C131.147 145.505 130.79 145.73 130.374 145.912C129.964 146.088 129.501 146.176 128.985 146.176C128.341 146.176 127.775 146.05 127.289 145.798C126.809 145.546 126.434 145.209 126.164 144.787C125.9 144.359 125.769 143.882 125.769 143.354C125.769 142.845 125.868 142.396 126.067 142.01C126.267 141.617 126.554 141.292 126.929 141.034C127.304 140.771 127.755 140.571 128.282 140.437C128.81 140.302 129.398 140.234 130.049 140.234H131.938ZM137.607 132.5V146H135.973V132.5H137.607ZM141.984 132.5V146H140.35V132.5H141.984ZM147.267 145.016L149.912 136.49H151.652L147.838 147.468C147.75 147.702 147.633 147.954 147.486 148.224C147.346 148.499 147.164 148.76 146.941 149.006C146.719 149.252 146.449 149.451 146.133 149.604C145.822 149.762 145.45 149.841 145.017 149.841C144.888 149.841 144.724 149.823 144.524 149.788C144.325 149.753 144.185 149.724 144.103 149.7L144.094 148.382C144.141 148.388 144.214 148.394 144.313 148.399C144.419 148.411 144.492 148.417 144.533 148.417C144.902 148.417 145.216 148.367 145.474 148.268C145.731 148.174 145.948 148.013 146.124 147.784C146.306 147.562 146.461 147.254 146.59 146.861L147.267 145.016ZM145.324 136.49L147.794 143.873L148.216 145.587L147.047 146.185L143.549 136.49H145.324ZM159.352 132.5V146H157.717V132.5H159.352ZM167.569 144.374V139.479C167.569 139.104 167.493 138.778 167.341 138.503C167.194 138.222 166.972 138.005 166.673 137.853C166.374 137.7 166.005 137.624 165.565 137.624C165.155 137.624 164.795 137.694 164.484 137.835C164.18 137.976 163.939 138.16 163.764 138.389C163.594 138.617 163.509 138.863 163.509 139.127H161.883C161.883 138.787 161.971 138.45 162.146 138.116C162.322 137.782 162.574 137.48 162.902 137.211C163.236 136.936 163.635 136.719 164.098 136.561C164.566 136.396 165.088 136.314 165.662 136.314C166.354 136.314 166.963 136.432 167.49 136.666C168.023 136.9 168.439 137.255 168.738 137.729C169.043 138.198 169.195 138.787 169.195 139.496V143.926C169.195 144.242 169.222 144.579 169.274 144.937C169.333 145.294 169.418 145.602 169.529 145.859V146H167.833C167.751 145.812 167.687 145.563 167.64 145.253C167.593 144.937 167.569 144.644 167.569 144.374ZM167.851 140.234L167.868 141.377H166.225C165.762 141.377 165.349 141.415 164.985 141.491C164.622 141.562 164.317 141.67 164.071 141.816C163.825 141.963 163.638 142.147 163.509 142.37C163.38 142.587 163.315 142.842 163.315 143.135C163.315 143.434 163.383 143.706 163.518 143.952C163.652 144.198 163.854 144.395 164.124 144.541C164.399 144.682 164.736 144.752 165.135 144.752C165.633 144.752 166.072 144.646 166.453 144.436C166.834 144.225 167.136 143.967 167.358 143.662C167.587 143.357 167.71 143.062 167.728 142.774L168.422 143.557C168.381 143.803 168.27 144.075 168.088 144.374C167.906 144.673 167.663 144.96 167.358 145.235C167.06 145.505 166.702 145.73 166.286 145.912C165.876 146.088 165.413 146.176 164.897 146.176C164.253 146.176 163.688 146.05 163.201 145.798C162.721 145.546 162.346 145.209 162.076 144.787C161.812 144.359 161.681 143.882 161.681 143.354C161.681 142.845 161.78 142.396 161.979 142.01C162.179 141.617 162.466 141.292 162.841 141.034C163.216 140.771 163.667 140.571 164.194 140.437C164.722 140.302 165.311 140.234 165.961 140.234H167.851ZM171.744 132.5H173.379V144.154L173.238 146H171.744V132.5ZM179.804 141.166V141.351C179.804 142.042 179.722 142.684 179.558 143.275C179.394 143.861 179.153 144.371 178.837 144.805C178.521 145.238 178.134 145.575 177.677 145.815C177.22 146.056 176.695 146.176 176.104 146.176C175.5 146.176 174.97 146.073 174.513 145.868C174.062 145.657 173.681 145.355 173.37 144.963C173.06 144.57 172.811 144.096 172.623 143.539C172.441 142.982 172.315 142.355 172.245 141.658V140.85C172.315 140.146 172.441 139.517 172.623 138.96C172.811 138.403 173.06 137.929 173.37 137.536C173.681 137.138 174.062 136.836 174.513 136.631C174.964 136.42 175.488 136.314 176.086 136.314C176.684 136.314 177.214 136.432 177.677 136.666C178.14 136.895 178.526 137.223 178.837 137.65C179.153 138.078 179.394 138.591 179.558 139.188C179.722 139.78 179.804 140.439 179.804 141.166ZM178.169 141.351V141.166C178.169 140.691 178.125 140.246 178.037 139.83C177.949 139.408 177.809 139.039 177.615 138.723C177.422 138.4 177.167 138.148 176.851 137.967C176.534 137.779 176.145 137.686 175.682 137.686C175.271 137.686 174.914 137.756 174.609 137.896C174.311 138.037 174.056 138.228 173.845 138.468C173.634 138.702 173.461 138.972 173.326 139.276C173.197 139.575 173.101 139.886 173.036 140.208V142.326C173.13 142.736 173.282 143.132 173.493 143.513C173.71 143.888 173.997 144.195 174.354 144.436C174.718 144.676 175.166 144.796 175.699 144.796C176.139 144.796 176.514 144.708 176.824 144.532C177.141 144.351 177.396 144.102 177.589 143.785C177.788 143.469 177.935 143.103 178.028 142.687C178.122 142.271 178.169 141.825 178.169 141.351ZM185.807 146.176C185.145 146.176 184.544 146.064 184.005 145.842C183.472 145.613 183.012 145.294 182.625 144.884C182.244 144.474 181.951 143.987 181.746 143.425C181.541 142.862 181.438 142.247 181.438 141.579V141.21C181.438 140.437 181.553 139.748 181.781 139.145C182.01 138.535 182.32 138.02 182.713 137.598C183.105 137.176 183.551 136.856 184.049 136.64C184.547 136.423 185.062 136.314 185.596 136.314C186.275 136.314 186.861 136.432 187.354 136.666C187.852 136.9 188.259 137.229 188.575 137.65C188.892 138.066 189.126 138.559 189.278 139.127C189.431 139.689 189.507 140.305 189.507 140.973V141.702H182.405V140.375H187.881V140.252C187.857 139.83 187.77 139.42 187.617 139.021C187.471 138.623 187.236 138.295 186.914 138.037C186.592 137.779 186.152 137.65 185.596 137.65C185.227 137.65 184.887 137.729 184.576 137.888C184.266 138.04 183.999 138.269 183.776 138.573C183.554 138.878 183.381 139.25 183.258 139.689C183.135 140.129 183.073 140.636 183.073 141.21V141.579C183.073 142.03 183.135 142.455 183.258 142.854C183.387 143.246 183.571 143.592 183.812 143.891C184.058 144.189 184.354 144.424 184.699 144.594C185.051 144.764 185.449 144.849 185.895 144.849C186.469 144.849 186.955 144.731 187.354 144.497C187.752 144.263 188.101 143.949 188.399 143.557L189.384 144.339C189.179 144.649 188.918 144.945 188.602 145.227C188.285 145.508 187.896 145.736 187.433 145.912C186.976 146.088 186.434 146.176 185.807 146.176ZM193.172 132.5V146H191.537V132.5H193.172ZM44.8652 158.318V169.656H43.2305V156.49H44.7246L44.8652 158.318ZM51.2725 161.166V161.351C51.2725 162.042 51.1904 162.684 51.0264 163.275C50.8623 163.861 50.6221 164.371 50.3057 164.805C49.9951 165.238 49.6113 165.575 49.1543 165.815C48.6973 166.056 48.1729 166.176 47.5811 166.176C46.9775 166.176 46.4443 166.076 45.9814 165.877C45.5186 165.678 45.126 165.388 44.8037 165.007C44.4814 164.626 44.2236 164.169 44.0303 163.636C43.8428 163.103 43.7139 162.502 43.6436 161.834V160.85C43.7139 160.146 43.8457 159.517 44.0391 158.96C44.2324 158.403 44.4873 157.929 44.8037 157.536C45.126 157.138 45.5156 156.836 45.9727 156.631C46.4297 156.42 46.957 156.314 47.5547 156.314C48.1523 156.314 48.6826 156.432 49.1455 156.666C49.6084 156.895 49.998 157.223 50.3145 157.65C50.6309 158.078 50.8682 158.591 51.0264 159.188C51.1904 159.78 51.2725 160.439 51.2725 161.166ZM49.6377 161.351V161.166C49.6377 160.691 49.5879 160.246 49.4883 159.83C49.3887 159.408 49.2334 159.039 49.0225 158.723C48.8174 158.4 48.5537 158.148 48.2314 157.967C47.9092 157.779 47.5254 157.686 47.0801 157.686C46.6699 157.686 46.3125 157.756 46.0078 157.896C45.709 158.037 45.4541 158.228 45.2432 158.468C45.0322 158.702 44.8594 158.972 44.7246 159.276C44.5957 159.575 44.499 159.886 44.4346 160.208V162.484C44.5518 162.895 44.7158 163.281 44.9268 163.645C45.1377 164.002 45.4189 164.292 45.7705 164.515C46.1221 164.731 46.5645 164.84 47.0977 164.84C47.5371 164.84 47.915 164.749 48.2314 164.567C48.5537 164.38 48.8174 164.125 49.0225 163.803C49.2334 163.48 49.3887 163.111 49.4883 162.695C49.5879 162.273 49.6377 161.825 49.6377 161.351ZM58.9541 164.374V159.479C58.9541 159.104 58.8779 158.778 58.7256 158.503C58.5791 158.222 58.3564 158.005 58.0576 157.853C57.7588 157.7 57.3896 157.624 56.9502 157.624C56.54 157.624 56.1797 157.694 55.8691 157.835C55.5645 157.976 55.3242 158.16 55.1484 158.389C54.9785 158.617 54.8936 158.863 54.8936 159.127H53.2676C53.2676 158.787 53.3555 158.45 53.5312 158.116C53.707 157.782 53.959 157.48 54.2871 157.211C54.6211 156.936 55.0195 156.719 55.4824 156.561C55.9512 156.396 56.4727 156.314 57.0469 156.314C57.7383 156.314 58.3477 156.432 58.875 156.666C59.4082 156.9 59.8242 157.255 60.123 157.729C60.4277 158.198 60.5801 158.787 60.5801 159.496V163.926C60.5801 164.242 60.6064 164.579 60.6592 164.937C60.7178 165.294 60.8027 165.602 60.9141 165.859V166H59.2178C59.1357 165.812 59.0713 165.563 59.0244 165.253C58.9775 164.937 58.9541 164.644 58.9541 164.374ZM59.2354 160.234L59.2529 161.377H57.6094C57.1465 161.377 56.7334 161.415 56.3701 161.491C56.0068 161.562 55.7021 161.67 55.4561 161.816C55.21 161.963 55.0225 162.147 54.8936 162.37C54.7646 162.587 54.7002 162.842 54.7002 163.135C54.7002 163.434 54.7676 163.706 54.9023 163.952C55.0371 164.198 55.2393 164.395 55.5088 164.541C55.7842 164.682 56.1211 164.752 56.5195 164.752C57.0176 164.752 57.457 164.646 57.8379 164.436C58.2188 164.225 58.5205 163.967 58.7432 163.662C58.9717 163.357 59.0947 163.062 59.1123 162.774L59.8066 163.557C59.7656 163.803 59.6543 164.075 59.4727 164.374C59.291 164.673 59.0479 164.96 58.7432 165.235C58.4443 165.505 58.0869 165.73 57.6709 165.912C57.2607 166.088 56.7979 166.176 56.2822 166.176C55.6377 166.176 55.0723 166.05 54.5859 165.798C54.1055 165.546 53.7305 165.209 53.4609 164.787C53.1973 164.359 53.0654 163.882 53.0654 163.354C53.0654 162.845 53.165 162.396 53.3643 162.01C53.5635 161.617 53.8506 161.292 54.2256 161.034C54.6006 160.771 55.0518 160.571 55.5791 160.437C56.1064 160.302 56.6953 160.234 57.3457 160.234H59.2354ZM64.7637 157.984V166H63.1377V156.49H64.7197L64.7637 157.984ZM67.7344 156.438L67.7256 157.949C67.5908 157.92 67.4619 157.902 67.3389 157.896C67.2217 157.885 67.0869 157.879 66.9346 157.879C66.5596 157.879 66.2285 157.938 65.9414 158.055C65.6543 158.172 65.4111 158.336 65.2119 158.547C65.0127 158.758 64.8545 159.01 64.7373 159.303C64.626 159.59 64.5527 159.906 64.5176 160.252L64.0605 160.516C64.0605 159.941 64.1162 159.402 64.2275 158.898C64.3447 158.395 64.5234 157.949 64.7637 157.562C65.0039 157.17 65.3086 156.865 65.6777 156.648C66.0527 156.426 66.498 156.314 67.0137 156.314C67.1309 156.314 67.2656 156.329 67.418 156.358C67.5703 156.382 67.6758 156.408 67.7344 156.438ZM73.6582 156.49V157.738H68.5166V156.49H73.6582ZM70.2568 154.179H71.8828V163.645C71.8828 163.967 71.9326 164.21 72.0322 164.374C72.1318 164.538 72.2607 164.646 72.4189 164.699C72.5771 164.752 72.7471 164.778 72.9287 164.778C73.0635 164.778 73.2041 164.767 73.3506 164.743C73.5029 164.714 73.6172 164.69 73.6934 164.673L73.7021 166C73.5732 166.041 73.4033 166.079 73.1924 166.114C72.9873 166.155 72.7383 166.176 72.4453 166.176C72.0469 166.176 71.6807 166.097 71.3467 165.938C71.0127 165.78 70.7461 165.517 70.5469 165.147C70.3535 164.772 70.2568 164.269 70.2568 163.636V154.179ZM77.332 156.49V166H75.6973V156.49H77.332ZM75.5742 153.968C75.5742 153.704 75.6533 153.481 75.8115 153.3C75.9756 153.118 76.2158 153.027 76.5322 153.027C76.8428 153.027 77.0801 153.118 77.2441 153.3C77.4141 153.481 77.499 153.704 77.499 153.968C77.499 154.22 77.4141 154.437 77.2441 154.618C77.0801 154.794 76.8428 154.882 76.5322 154.882C76.2158 154.882 75.9756 154.794 75.8115 154.618C75.6533 154.437 75.5742 154.22 75.5742 153.968ZM85.5498 164.374V159.479C85.5498 159.104 85.4736 158.778 85.3213 158.503C85.1748 158.222 84.9521 158.005 84.6533 157.853C84.3545 157.7 83.9854 157.624 83.5459 157.624C83.1357 157.624 82.7754 157.694 82.4648 157.835C82.1602 157.976 81.9199 158.16 81.7441 158.389C81.5742 158.617 81.4893 158.863 81.4893 159.127H79.8633C79.8633 158.787 79.9512 158.45 80.127 158.116C80.3027 157.782 80.5547 157.48 80.8828 157.211C81.2168 156.936 81.6152 156.719 82.0781 156.561C82.5469 156.396 83.0684 156.314 83.6426 156.314C84.334 156.314 84.9434 156.432 85.4707 156.666C86.0039 156.9 86.4199 157.255 86.7188 157.729C87.0234 158.198 87.1758 158.787 87.1758 159.496V163.926C87.1758 164.242 87.2021 164.579 87.2549 164.937C87.3135 165.294 87.3984 165.602 87.5098 165.859V166H85.8135C85.7314 165.812 85.667 165.563 85.6201 165.253C85.5732 164.937 85.5498 164.644 85.5498 164.374ZM85.8311 160.234L85.8486 161.377H84.2051C83.7422 161.377 83.3291 161.415 82.9658 161.491C82.6025 161.562 82.2979 161.67 82.0518 161.816C81.8057 161.963 81.6182 162.147 81.4893 162.37C81.3604 162.587 81.2959 162.842 81.2959 163.135C81.2959 163.434 81.3633 163.706 81.498 163.952C81.6328 164.198 81.835 164.395 82.1045 164.541C82.3799 164.682 82.7168 164.752 83.1152 164.752C83.6133 164.752 84.0527 164.646 84.4336 164.436C84.8145 164.225 85.1162 163.967 85.3389 163.662C85.5674 163.357 85.6904 163.062 85.708 162.774L86.4023 163.557C86.3613 163.803 86.25 164.075 86.0684 164.374C85.8867 164.673 85.6436 164.96 85.3389 165.235C85.04 165.505 84.6826 165.73 84.2666 165.912C83.8564 166.088 83.3936 166.176 82.8779 166.176C82.2334 166.176 81.668 166.05 81.1816 165.798C80.7012 165.546 80.3262 165.209 80.0566 164.787C79.793 164.359 79.6611 163.882 79.6611 163.354C79.6611 162.845 79.7607 162.396 79.96 162.01C80.1592 161.617 80.4463 161.292 80.8213 161.034C81.1963 160.771 81.6475 160.571 82.1748 160.437C82.7021 160.302 83.291 160.234 83.9414 160.234H85.8311ZM91.5 152.5V166H89.8652V152.5H91.5ZM95.877 152.5V166H94.2422V152.5H95.877ZM101.159 165.016L103.805 156.49H105.545L101.73 167.468C101.643 167.702 101.525 167.954 101.379 168.224C101.238 168.499 101.057 168.76 100.834 169.006C100.611 169.252 100.342 169.451 100.025 169.604C99.7148 169.762 99.3428 169.841 98.9092 169.841C98.7803 169.841 98.6162 169.823 98.417 169.788C98.2178 169.753 98.0771 169.724 97.9951 169.7L97.9863 168.382C98.0332 168.388 98.1064 168.394 98.2061 168.399C98.3115 168.411 98.3848 168.417 98.4258 168.417C98.7949 168.417 99.1084 168.367 99.3662 168.268C99.624 168.174 99.8408 168.013 100.017 167.784C100.198 167.562 100.354 167.254 100.482 166.861L101.159 165.016ZM99.2168 156.49L101.687 163.873L102.108 165.587L100.939 166.185L97.4414 156.49H99.2168ZM113.244 152.5V166H111.609V152.5H113.244ZM121.462 164.374V159.479C121.462 159.104 121.386 158.778 121.233 158.503C121.087 158.222 120.864 158.005 120.565 157.853C120.267 157.7 119.897 157.624 119.458 157.624C119.048 157.624 118.688 157.694 118.377 157.835C118.072 157.976 117.832 158.16 117.656 158.389C117.486 158.617 117.401 158.863 117.401 159.127H115.775C115.775 158.787 115.863 158.45 116.039 158.116C116.215 157.782 116.467 157.48 116.795 157.211C117.129 156.936 117.527 156.719 117.99 156.561C118.459 156.396 118.98 156.314 119.555 156.314C120.246 156.314 120.855 156.432 121.383 156.666C121.916 156.9 122.332 157.255 122.631 157.729C122.936 158.198 123.088 158.787 123.088 159.496V163.926C123.088 164.242 123.114 164.579 123.167 164.937C123.226 165.294 123.311 165.602 123.422 165.859V166H121.726C121.644 165.812 121.579 165.563 121.532 165.253C121.485 164.937 121.462 164.644 121.462 164.374ZM121.743 160.234L121.761 161.377H120.117C119.654 161.377 119.241 161.415 118.878 161.491C118.515 161.562 118.21 161.67 117.964 161.816C117.718 161.963 117.53 162.147 117.401 162.37C117.272 162.587 117.208 162.842 117.208 163.135C117.208 163.434 117.275 163.706 117.41 163.952C117.545 164.198 117.747 164.395 118.017 164.541C118.292 164.682 118.629 164.752 119.027 164.752C119.525 164.752 119.965 164.646 120.346 164.436C120.727 164.225 121.028 163.967 121.251 163.662C121.479 163.357 121.603 163.062 121.62 162.774L122.314 163.557C122.273 163.803 122.162 164.075 121.98 164.374C121.799 164.673 121.556 164.96 121.251 165.235C120.952 165.505 120.595 165.73 120.179 165.912C119.769 166.088 119.306 166.176 118.79 166.176C118.146 166.176 117.58 166.05 117.094 165.798C116.613 165.546 116.238 165.209 115.969 164.787C115.705 164.359 115.573 163.882 115.573 163.354C115.573 162.845 115.673 162.396 115.872 162.01C116.071 161.617 116.358 161.292 116.733 161.034C117.108 160.771 117.56 160.571 118.087 160.437C118.614 160.302 119.203 160.234 119.854 160.234H121.743ZM125.637 152.5H127.271V164.154L127.131 166H125.637V152.5ZM133.696 161.166V161.351C133.696 162.042 133.614 162.684 133.45 163.275C133.286 163.861 133.046 164.371 132.729 164.805C132.413 165.238 132.026 165.575 131.569 165.815C131.112 166.056 130.588 166.176 129.996 166.176C129.393 166.176 128.862 166.073 128.405 165.868C127.954 165.657 127.573 165.355 127.263 164.963C126.952 164.57 126.703 164.096 126.516 163.539C126.334 162.982 126.208 162.355 126.138 161.658V160.85C126.208 160.146 126.334 159.517 126.516 158.96C126.703 158.403 126.952 157.929 127.263 157.536C127.573 157.138 127.954 156.836 128.405 156.631C128.856 156.42 129.381 156.314 129.979 156.314C130.576 156.314 131.106 156.432 131.569 156.666C132.032 156.895 132.419 157.223 132.729 157.65C133.046 158.078 133.286 158.591 133.45 159.188C133.614 159.78 133.696 160.439 133.696 161.166ZM132.062 161.351V161.166C132.062 160.691 132.018 160.246 131.93 159.83C131.842 159.408 131.701 159.039 131.508 158.723C131.314 158.4 131.06 158.148 130.743 157.967C130.427 157.779 130.037 157.686 129.574 157.686C129.164 157.686 128.807 157.756 128.502 157.896C128.203 158.037 127.948 158.228 127.737 158.468C127.526 158.702 127.354 158.972 127.219 159.276C127.09 159.575 126.993 159.886 126.929 160.208V162.326C127.022 162.736 127.175 163.132 127.386 163.513C127.603 163.888 127.89 164.195 128.247 164.436C128.61 164.676 129.059 164.796 129.592 164.796C130.031 164.796 130.406 164.708 130.717 164.532C131.033 164.351 131.288 164.102 131.481 163.785C131.681 163.469 131.827 163.103 131.921 162.687C132.015 162.271 132.062 161.825 132.062 161.351ZM139.699 166.176C139.037 166.176 138.437 166.064 137.897 165.842C137.364 165.613 136.904 165.294 136.518 164.884C136.137 164.474 135.844 163.987 135.639 163.425C135.434 162.862 135.331 162.247 135.331 161.579V161.21C135.331 160.437 135.445 159.748 135.674 159.145C135.902 158.535 136.213 158.02 136.605 157.598C136.998 157.176 137.443 156.856 137.941 156.64C138.439 156.423 138.955 156.314 139.488 156.314C140.168 156.314 140.754 156.432 141.246 156.666C141.744 156.9 142.151 157.229 142.468 157.65C142.784 158.066 143.019 158.559 143.171 159.127C143.323 159.689 143.399 160.305 143.399 160.973V161.702H136.298V160.375H141.773V160.252C141.75 159.83 141.662 159.42 141.51 159.021C141.363 158.623 141.129 158.295 140.807 158.037C140.484 157.779 140.045 157.65 139.488 157.65C139.119 157.65 138.779 157.729 138.469 157.888C138.158 158.04 137.892 158.269 137.669 158.573C137.446 158.878 137.273 159.25 137.15 159.689C137.027 160.129 136.966 160.636 136.966 161.21V161.579C136.966 162.03 137.027 162.455 137.15 162.854C137.279 163.246 137.464 163.592 137.704 163.891C137.95 164.189 138.246 164.424 138.592 164.594C138.943 164.764 139.342 164.849 139.787 164.849C140.361 164.849 140.848 164.731 141.246 164.497C141.645 164.263 141.993 163.949 142.292 163.557L143.276 164.339C143.071 164.649 142.811 164.945 142.494 165.227C142.178 165.508 141.788 165.736 141.325 165.912C140.868 166.088 140.326 166.176 139.699 166.176ZM147.064 152.5V166H145.43V152.5H147.064ZM153.621 166.176C152.959 166.176 152.358 166.064 151.819 165.842C151.286 165.613 150.826 165.294 150.439 164.884C150.059 164.474 149.766 163.987 149.561 163.425C149.355 162.862 149.253 162.247 149.253 161.579V161.21C149.253 160.437 149.367 159.748 149.596 159.145C149.824 158.535 150.135 158.02 150.527 157.598C150.92 157.176 151.365 156.856 151.863 156.64C152.361 156.423 152.877 156.314 153.41 156.314C154.09 156.314 154.676 156.432 155.168 156.666C155.666 156.9 156.073 157.229 156.39 157.65C156.706 158.066 156.94 158.559 157.093 159.127C157.245 159.689 157.321 160.305 157.321 160.973V161.702H150.22V160.375H155.695V160.252C155.672 159.83 155.584 159.42 155.432 159.021C155.285 158.623 155.051 158.295 154.729 158.037C154.406 157.779 153.967 157.65 153.41 157.65C153.041 157.65 152.701 157.729 152.391 157.888C152.08 158.04 151.813 158.269 151.591 158.573C151.368 158.878 151.195 159.25 151.072 159.689C150.949 160.129 150.888 160.636 150.888 161.21V161.579C150.888 162.03 150.949 162.455 151.072 162.854C151.201 163.246 151.386 163.592 151.626 163.891C151.872 164.189 152.168 164.424 152.514 164.594C152.865 164.764 153.264 164.849 153.709 164.849C154.283 164.849 154.77 164.731 155.168 164.497C155.566 164.263 155.915 163.949 156.214 163.557L157.198 164.339C156.993 164.649 156.732 164.945 156.416 165.227C156.1 165.508 155.71 165.736 155.247 165.912C154.79 166.088 154.248 166.176 153.621 166.176ZM165.214 164.154V152.5H166.849V166H165.354L165.214 164.154ZM158.815 161.351V161.166C158.815 160.439 158.903 159.78 159.079 159.188C159.261 158.591 159.516 158.078 159.844 157.65C160.178 157.223 160.573 156.895 161.03 156.666C161.493 156.432 162.009 156.314 162.577 156.314C163.175 156.314 163.696 156.42 164.142 156.631C164.593 156.836 164.974 157.138 165.284 157.536C165.601 157.929 165.85 158.403 166.031 158.96C166.213 159.517 166.339 160.146 166.409 160.85V161.658C166.345 162.355 166.219 162.982 166.031 163.539C165.85 164.096 165.601 164.57 165.284 164.963C164.974 165.355 164.593 165.657 164.142 165.868C163.69 166.073 163.163 166.176 162.56 166.176C162.003 166.176 161.493 166.056 161.03 165.815C160.573 165.575 160.178 165.238 159.844 164.805C159.516 164.371 159.261 163.861 159.079 163.275C158.903 162.684 158.815 162.042 158.815 161.351ZM160.45 161.166V161.351C160.45 161.825 160.497 162.271 160.591 162.687C160.69 163.103 160.843 163.469 161.048 163.785C161.253 164.102 161.514 164.351 161.83 164.532C162.146 164.708 162.524 164.796 162.964 164.796C163.503 164.796 163.945 164.682 164.291 164.453C164.643 164.225 164.924 163.923 165.135 163.548C165.346 163.173 165.51 162.766 165.627 162.326V160.208C165.557 159.886 165.454 159.575 165.319 159.276C165.19 158.972 165.021 158.702 164.81 158.468C164.604 158.228 164.35 158.037 164.045 157.896C163.746 157.756 163.392 157.686 162.981 157.686C162.536 157.686 162.152 157.779 161.83 157.967C161.514 158.148 161.253 158.4 161.048 158.723C160.843 159.039 160.69 159.408 160.591 159.83C160.497 160.246 160.45 160.691 160.45 161.166ZM179.839 164.154V152.5H181.474V166H179.979L179.839 164.154ZM173.44 161.351V161.166C173.44 160.439 173.528 159.78 173.704 159.188C173.886 158.591 174.141 158.078 174.469 157.65C174.803 157.223 175.198 156.895 175.655 156.666C176.118 156.432 176.634 156.314 177.202 156.314C177.8 156.314 178.321 156.42 178.767 156.631C179.218 156.836 179.599 157.138 179.909 157.536C180.226 157.929 180.475 158.403 180.656 158.96C180.838 159.517 180.964 160.146 181.034 160.85V161.658C180.97 162.355 180.844 162.982 180.656 163.539C180.475 164.096 180.226 164.57 179.909 164.963C179.599 165.355 179.218 165.657 178.767 165.868C178.315 166.073 177.788 166.176 177.185 166.176C176.628 166.176 176.118 166.056 175.655 165.815C175.198 165.575 174.803 165.238 174.469 164.805C174.141 164.371 173.886 163.861 173.704 163.275C173.528 162.684 173.44 162.042 173.44 161.351ZM175.075 161.166V161.351C175.075 161.825 175.122 162.271 175.216 162.687C175.315 163.103 175.468 163.469 175.673 163.785C175.878 164.102 176.139 164.351 176.455 164.532C176.771 164.708 177.149 164.796 177.589 164.796C178.128 164.796 178.57 164.682 178.916 164.453C179.268 164.225 179.549 163.923 179.76 163.548C179.971 163.173 180.135 162.766 180.252 162.326V160.208C180.182 159.886 180.079 159.575 179.944 159.276C179.815 158.972 179.646 158.702 179.435 158.468C179.229 158.228 178.975 158.037 178.67 157.896C178.371 157.756 178.017 157.686 177.606 157.686C177.161 157.686 176.777 157.779 176.455 157.967C176.139 158.148 175.878 158.4 175.673 158.723C175.468 159.039 175.315 159.408 175.216 159.83C175.122 160.246 175.075 160.691 175.075 161.166ZM189.612 164.374V159.479C189.612 159.104 189.536 158.778 189.384 158.503C189.237 158.222 189.015 158.005 188.716 157.853C188.417 157.7 188.048 157.624 187.608 157.624C187.198 157.624 186.838 157.694 186.527 157.835C186.223 157.976 185.982 158.16 185.807 158.389C185.637 158.617 185.552 158.863 185.552 159.127H183.926C183.926 158.787 184.014 158.45 184.189 158.116C184.365 157.782 184.617 157.48 184.945 157.211C185.279 156.936 185.678 156.719 186.141 156.561C186.609 156.396 187.131 156.314 187.705 156.314C188.396 156.314 189.006 156.432 189.533 156.666C190.066 156.9 190.482 157.255 190.781 157.729C191.086 158.198 191.238 158.787 191.238 159.496V163.926C191.238 164.242 191.265 164.579 191.317 164.937C191.376 165.294 191.461 165.602 191.572 165.859V166H189.876C189.794 165.812 189.729 165.563 189.683 165.253C189.636 164.937 189.612 164.644 189.612 164.374ZM189.894 160.234L189.911 161.377H188.268C187.805 161.377 187.392 161.415 187.028 161.491C186.665 161.562 186.36 161.67 186.114 161.816C185.868 161.963 185.681 162.147 185.552 162.37C185.423 162.587 185.358 162.842 185.358 163.135C185.358 163.434 185.426 163.706 185.561 163.952C185.695 164.198 185.897 164.395 186.167 164.541C186.442 164.682 186.779 164.752 187.178 164.752C187.676 164.752 188.115 164.646 188.496 164.436C188.877 164.225 189.179 163.967 189.401 163.662C189.63 163.357 189.753 163.062 189.771 162.774L190.465 163.557C190.424 163.803 190.312 164.075 190.131 164.374C189.949 164.673 189.706 164.96 189.401 165.235C189.103 165.505 188.745 165.73 188.329 165.912C187.919 166.088 187.456 166.176 186.94 166.176C186.296 166.176 185.73 166.05 185.244 165.798C184.764 165.546 184.389 165.209 184.119 164.787C183.855 164.359 183.724 163.882 183.724 163.354C183.724 162.845 183.823 162.396 184.022 162.01C184.222 161.617 184.509 161.292 184.884 161.034C185.259 160.771 185.71 160.571 186.237 160.437C186.765 160.302 187.354 160.234 188.004 160.234H189.894ZM197.777 156.49V157.738H192.636V156.49H197.777ZM194.376 154.179H196.002V163.645C196.002 163.967 196.052 164.21 196.151 164.374C196.251 164.538 196.38 164.646 196.538 164.699C196.696 164.752 196.866 164.778 197.048 164.778C197.183 164.778 197.323 164.767 197.47 164.743C197.622 164.714 197.736 164.69 197.812 164.673L197.821 166C197.692 166.041 197.522 166.079 197.312 166.114C197.106 166.155 196.857 166.176 196.564 166.176C196.166 166.176 195.8 166.097 195.466 165.938C195.132 165.78 194.865 165.517 194.666 165.147C194.473 164.772 194.376 164.269 194.376 163.636V154.179ZM205.292 164.374V159.479C205.292 159.104 205.216 158.778 205.063 158.503C204.917 158.222 204.694 158.005 204.396 157.853C204.097 157.7 203.728 157.624 203.288 157.624C202.878 157.624 202.518 157.694 202.207 157.835C201.902 157.976 201.662 158.16 201.486 158.389C201.316 158.617 201.231 158.863 201.231 159.127H199.605C199.605 158.787 199.693 158.45 199.869 158.116C200.045 157.782 200.297 157.48 200.625 157.211C200.959 156.936 201.357 156.719 201.82 156.561C202.289 156.396 202.811 156.314 203.385 156.314C204.076 156.314 204.686 156.432 205.213 156.666C205.746 156.9 206.162 157.255 206.461 157.729C206.766 158.198 206.918 158.787 206.918 159.496V163.926C206.918 164.242 206.944 164.579 206.997 164.937C207.056 165.294 207.141 165.602 207.252 165.859V166H205.556C205.474 165.812 205.409 165.563 205.362 165.253C205.315 164.937 205.292 164.644 205.292 164.374ZM205.573 160.234L205.591 161.377H203.947C203.484 161.377 203.071 161.415 202.708 161.491C202.345 161.562 202.04 161.67 201.794 161.816C201.548 161.963 201.36 162.147 201.231 162.37C201.103 162.587 201.038 162.842 201.038 163.135C201.038 163.434 201.105 163.706 201.24 163.952C201.375 164.198 201.577 164.395 201.847 164.541C202.122 164.682 202.459 164.752 202.857 164.752C203.355 164.752 203.795 164.646 204.176 164.436C204.557 164.225 204.858 163.967 205.081 163.662C205.31 163.357 205.433 163.062 205.45 162.774L206.145 163.557C206.104 163.803 205.992 164.075 205.811 164.374C205.629 164.673 205.386 164.96 205.081 165.235C204.782 165.505 204.425 165.73 204.009 165.912C203.599 166.088 203.136 166.176 202.62 166.176C201.976 166.176 201.41 166.05 200.924 165.798C200.443 165.546 200.068 165.209 199.799 164.787C199.535 164.359 199.403 163.882 199.403 163.354C199.403 162.845 199.503 162.396 199.702 162.01C199.901 161.617 200.188 161.292 200.563 161.034C200.938 160.771 201.39 160.571 201.917 160.437C202.444 160.302 203.033 160.234 203.684 160.234H205.573ZM209.502 165.139C209.502 164.863 209.587 164.632 209.757 164.444C209.933 164.251 210.185 164.154 210.513 164.154C210.841 164.154 211.09 164.251 211.26 164.444C211.436 164.632 211.523 164.863 211.523 165.139C211.523 165.408 211.436 165.637 211.26 165.824C211.09 166.012 210.841 166.105 210.513 166.105C210.185 166.105 209.933 166.012 209.757 165.824C209.587 165.637 209.502 165.408 209.502 165.139Z" fill="white"/>
<rect x="20" y="92" width="217" height="118" rx="8" stroke="#ABABAB" stroke-dasharray="2 2"/>
<g filter="url(#filter1_d_3248_65)">
<path d="M557 1H303V253H557V1Z" fill="#11256D"/>
<path d="M557 1H303V253H557V1Z" stroke="#11256D"/>
</g>
<path d="M330 50.3182C328.288 50.3182 326.83 49.8523 325.625 48.9205C324.42 47.9811 323.5 46.6212 322.864 44.8409C322.227 43.053 321.909 40.8939 321.909 38.3636C321.909 35.8485 322.227 33.7008 322.864 31.9205C323.508 30.1326 324.432 28.7689 325.636 27.8295C326.848 26.8826 328.303 26.4091 330 26.4091C331.697 26.4091 333.148 26.8826 334.352 27.8295C335.564 28.7689 336.489 30.1326 337.125 31.9205C337.769 33.7008 338.091 35.8485 338.091 38.3636C338.091 40.8939 337.773 43.053 337.136 44.8409C336.5 46.6212 335.58 47.9811 334.375 48.9205C333.17 49.8523 331.712 50.3182 330 50.3182ZM330 47.8182C331.697 47.8182 333.015 47 333.955 45.3636C334.894 43.7273 335.364 41.3939 335.364 38.3636C335.364 36.3485 335.148 34.6326 334.716 33.2159C334.292 31.7992 333.678 30.7197 332.875 29.9773C332.08 29.2348 331.121 28.8636 330 28.8636C328.318 28.8636 327.004 29.6932 326.057 31.3523C325.11 33.0038 324.636 35.3409 324.636 38.3636C324.636 40.3788 324.848 42.0909 325.273 43.5C325.697 44.9091 326.307 45.9811 327.102 46.7159C327.905 47.4508 328.871 47.8182 330 47.8182ZM341.129 50V47.9545L348.811 39.5455C349.712 38.5606 350.455 37.7045 351.038 36.9773C351.622 36.2424 352.053 35.553 352.334 34.9091C352.622 34.2576 352.765 33.5758 352.765 32.8636C352.765 32.0455 352.568 31.3371 352.175 30.7386C351.788 30.1402 351.258 29.678 350.584 29.3523C349.909 29.0265 349.152 28.8636 348.311 28.8636C347.417 28.8636 346.637 29.0492 345.97 29.4205C345.311 29.7841 344.8 30.2955 344.436 30.9545C344.08 31.6136 343.902 32.3864 343.902 33.2727H341.22C341.22 31.9091 341.534 30.7121 342.163 29.6818C342.792 28.6515 343.648 27.8485 344.731 27.2727C345.822 26.697 347.046 26.4091 348.402 26.4091C349.765 26.4091 350.974 26.697 352.027 27.2727C353.08 27.8485 353.906 28.625 354.504 29.6023C355.103 30.5795 355.402 31.6667 355.402 32.8636C355.402 33.7197 355.247 34.5568 354.936 35.375C354.633 36.1856 354.103 37.0909 353.345 38.0909C352.595 39.0833 351.553 40.2955 350.22 41.7273L344.993 47.3182V47.5H355.811V50H341.129Z" fill="white"/>
<path d="M359.223 134.337L354.986 146H353.255L358.133 133.203H359.249L359.223 134.337ZM362.773 146L358.528 134.337L358.502 133.203H359.618L364.514 146H362.773ZM362.554 141.263V142.651H355.364V141.263H362.554ZM371.694 143.803V136.49H373.329V146H371.773L371.694 143.803ZM372.002 141.799L372.679 141.781C372.679 142.414 372.611 143 372.477 143.539C372.348 144.072 372.137 144.535 371.844 144.928C371.551 145.32 371.167 145.628 370.692 145.851C370.218 146.067 369.641 146.176 368.961 146.176C368.498 146.176 368.073 146.108 367.687 145.974C367.306 145.839 366.978 145.631 366.702 145.35C366.427 145.068 366.213 144.702 366.061 144.251C365.914 143.8 365.841 143.258 365.841 142.625V136.49H367.467V142.643C367.467 143.07 367.514 143.425 367.607 143.706C367.707 143.981 367.839 144.201 368.003 144.365C368.173 144.523 368.36 144.635 368.565 144.699C368.776 144.764 368.993 144.796 369.216 144.796C369.907 144.796 370.455 144.664 370.859 144.4C371.264 144.131 371.554 143.771 371.729 143.319C371.911 142.862 372.002 142.355 372.002 141.799ZM379.789 136.49V137.738H374.647V136.49H379.789ZM376.388 134.179H378.014V143.645C378.014 143.967 378.063 144.21 378.163 144.374C378.263 144.538 378.392 144.646 378.55 144.699C378.708 144.752 378.878 144.778 379.06 144.778C379.194 144.778 379.335 144.767 379.481 144.743C379.634 144.714 379.748 144.69 379.824 144.673L379.833 146C379.704 146.041 379.534 146.079 379.323 146.114C379.118 146.155 378.869 146.176 378.576 146.176C378.178 146.176 377.812 146.097 377.478 145.938C377.144 145.78 376.877 145.517 376.678 145.147C376.484 144.772 376.388 144.269 376.388 143.636V134.179ZM381.09 141.351V141.148C381.09 140.463 381.189 139.827 381.389 139.241C381.588 138.649 381.875 138.137 382.25 137.703C382.625 137.264 383.079 136.924 383.612 136.684C384.146 136.438 384.743 136.314 385.405 136.314C386.073 136.314 386.674 136.438 387.207 136.684C387.746 136.924 388.203 137.264 388.578 137.703C388.959 138.137 389.249 138.649 389.448 139.241C389.647 139.827 389.747 140.463 389.747 141.148V141.351C389.747 142.036 389.647 142.672 389.448 143.258C389.249 143.844 388.959 144.356 388.578 144.796C388.203 145.229 387.749 145.569 387.216 145.815C386.688 146.056 386.091 146.176 385.423 146.176C384.755 146.176 384.154 146.056 383.621 145.815C383.088 145.569 382.631 145.229 382.25 144.796C381.875 144.356 381.588 143.844 381.389 143.258C381.189 142.672 381.09 142.036 381.09 141.351ZM382.716 141.148V141.351C382.716 141.825 382.771 142.273 382.883 142.695C382.994 143.111 383.161 143.48 383.384 143.803C383.612 144.125 383.896 144.38 384.236 144.567C384.576 144.749 384.972 144.84 385.423 144.84C385.868 144.84 386.258 144.749 386.592 144.567C386.932 144.38 387.213 144.125 387.436 143.803C387.658 143.48 387.825 143.111 387.937 142.695C388.054 142.273 388.112 141.825 388.112 141.351V141.148C388.112 140.68 388.054 140.237 387.937 139.821C387.825 139.399 387.655 139.027 387.427 138.705C387.204 138.377 386.923 138.119 386.583 137.932C386.249 137.744 385.856 137.65 385.405 137.65C384.96 137.65 384.567 137.744 384.228 137.932C383.894 138.119 383.612 138.377 383.384 138.705C383.161 139.027 382.994 139.399 382.883 139.821C382.771 140.237 382.716 140.68 382.716 141.148ZM393.403 138.38V146H391.769V136.49H393.315L393.403 138.38ZM393.069 140.885L392.313 140.858C392.319 140.208 392.404 139.607 392.568 139.057C392.732 138.5 392.976 138.017 393.298 137.606C393.62 137.196 394.021 136.88 394.502 136.657C394.982 136.429 395.539 136.314 396.172 136.314C396.617 136.314 397.027 136.379 397.402 136.508C397.777 136.631 398.103 136.827 398.378 137.097C398.653 137.366 398.867 137.712 399.02 138.134C399.172 138.556 399.248 139.065 399.248 139.663V146H397.622V139.742C397.622 139.244 397.537 138.846 397.367 138.547C397.203 138.248 396.969 138.031 396.664 137.896C396.359 137.756 396.002 137.686 395.592 137.686C395.111 137.686 394.71 137.771 394.388 137.94C394.065 138.11 393.808 138.345 393.614 138.644C393.421 138.942 393.28 139.285 393.192 139.672C393.11 140.053 393.069 140.457 393.069 140.885ZM399.23 139.988L398.141 140.322C398.146 139.801 398.231 139.3 398.396 138.819C398.565 138.339 398.809 137.911 399.125 137.536C399.447 137.161 399.843 136.865 400.312 136.648C400.78 136.426 401.316 136.314 401.92 136.314C402.43 136.314 402.881 136.382 403.273 136.517C403.672 136.651 404.006 136.859 404.275 137.141C404.551 137.416 404.759 137.771 404.899 138.204C405.04 138.638 405.11 139.153 405.11 139.751V146H403.476V139.733C403.476 139.2 403.391 138.787 403.221 138.494C403.057 138.195 402.822 137.987 402.518 137.87C402.219 137.747 401.861 137.686 401.445 137.686C401.088 137.686 400.771 137.747 400.496 137.87C400.221 137.993 399.989 138.163 399.802 138.38C399.614 138.591 399.471 138.834 399.371 139.109C399.277 139.385 399.23 139.678 399.23 139.988ZM413.179 144.374V139.479C413.179 139.104 413.103 138.778 412.95 138.503C412.804 138.222 412.581 138.005 412.282 137.853C411.983 137.7 411.614 137.624 411.175 137.624C410.765 137.624 410.404 137.694 410.094 137.835C409.789 137.976 409.549 138.16 409.373 138.389C409.203 138.617 409.118 138.863 409.118 139.127H407.492C407.492 138.787 407.58 138.45 407.756 138.116C407.932 137.782 408.184 137.48 408.512 137.211C408.846 136.936 409.244 136.719 409.707 136.561C410.176 136.396 410.697 136.314 411.271 136.314C411.963 136.314 412.572 136.432 413.1 136.666C413.633 136.9 414.049 137.255 414.348 137.729C414.652 138.198 414.805 138.787 414.805 139.496V143.926C414.805 144.242 414.831 144.579 414.884 144.937C414.942 145.294 415.027 145.602 415.139 145.859V146H413.442C413.36 145.812 413.296 145.563 413.249 145.253C413.202 144.937 413.179 144.644 413.179 144.374ZM413.46 140.234L413.478 141.377H411.834C411.371 141.377 410.958 141.415 410.595 141.491C410.231 141.562 409.927 141.67 409.681 141.816C409.435 141.963 409.247 142.147 409.118 142.37C408.989 142.587 408.925 142.842 408.925 143.135C408.925 143.434 408.992 143.706 409.127 143.952C409.262 144.198 409.464 144.395 409.733 144.541C410.009 144.682 410.346 144.752 410.744 144.752C411.242 144.752 411.682 144.646 412.062 144.436C412.443 144.225 412.745 143.967 412.968 143.662C413.196 143.357 413.319 143.062 413.337 142.774L414.031 143.557C413.99 143.803 413.879 144.075 413.697 144.374C413.516 144.673 413.272 144.96 412.968 145.235C412.669 145.505 412.312 145.73 411.896 145.912C411.485 146.088 411.022 146.176 410.507 146.176C409.862 146.176 409.297 146.05 408.811 145.798C408.33 145.546 407.955 145.209 407.686 144.787C407.422 144.359 407.29 143.882 407.29 143.354C407.29 142.845 407.39 142.396 407.589 142.01C407.788 141.617 408.075 141.292 408.45 141.034C408.825 140.771 409.276 140.571 409.804 140.437C410.331 140.302 410.92 140.234 411.57 140.234H413.46ZM421.344 136.49V137.738H416.202V136.49H421.344ZM417.942 134.179H419.568V143.645C419.568 143.967 419.618 144.21 419.718 144.374C419.817 144.538 419.946 144.646 420.104 144.699C420.263 144.752 420.433 144.778 420.614 144.778C420.749 144.778 420.89 144.767 421.036 144.743C421.188 144.714 421.303 144.69 421.379 144.673L421.388 146C421.259 146.041 421.089 146.079 420.878 146.114C420.673 146.155 420.424 146.176 420.131 146.176C419.732 146.176 419.366 146.097 419.032 145.938C418.698 145.78 418.432 145.517 418.232 145.147C418.039 144.772 417.942 144.269 417.942 143.636V134.179ZM425.018 136.49V146H423.383V136.49H425.018ZM423.26 133.968C423.26 133.704 423.339 133.481 423.497 133.3C423.661 133.118 423.901 133.027 424.218 133.027C424.528 133.027 424.766 133.118 424.93 133.3C425.1 133.481 425.185 133.704 425.185 133.968C425.185 134.22 425.1 134.437 424.93 134.618C424.766 134.794 424.528 134.882 424.218 134.882C423.901 134.882 423.661 134.794 423.497 134.618C423.339 134.437 423.26 134.22 423.26 133.968ZM431.434 144.84C431.82 144.84 432.178 144.761 432.506 144.603C432.834 144.444 433.104 144.228 433.314 143.952C433.525 143.671 433.646 143.352 433.675 142.994H435.222C435.192 143.557 435.002 144.081 434.65 144.567C434.305 145.048 433.851 145.438 433.288 145.736C432.726 146.029 432.107 146.176 431.434 146.176C430.719 146.176 430.095 146.05 429.562 145.798C429.034 145.546 428.595 145.2 428.243 144.761C427.897 144.321 427.637 143.817 427.461 143.249C427.291 142.675 427.206 142.068 427.206 141.43V141.061C427.206 140.422 427.291 139.818 427.461 139.25C427.637 138.676 427.897 138.169 428.243 137.729C428.595 137.29 429.034 136.944 429.562 136.692C430.095 136.44 430.719 136.314 431.434 136.314C432.178 136.314 432.828 136.467 433.385 136.771C433.941 137.07 434.378 137.48 434.694 138.002C435.017 138.518 435.192 139.104 435.222 139.76H433.675C433.646 139.367 433.534 139.013 433.341 138.696C433.153 138.38 432.896 138.128 432.567 137.94C432.245 137.747 431.867 137.65 431.434 137.65C430.936 137.65 430.517 137.75 430.177 137.949C429.843 138.143 429.576 138.406 429.377 138.74C429.184 139.068 429.043 139.435 428.955 139.839C428.873 140.237 428.832 140.645 428.832 141.061V141.43C428.832 141.846 428.873 142.256 428.955 142.66C429.037 143.064 429.175 143.431 429.368 143.759C429.567 144.087 429.834 144.351 430.168 144.55C430.508 144.743 430.93 144.84 431.434 144.84ZM442.657 144.374V139.479C442.657 139.104 442.581 138.778 442.429 138.503C442.282 138.222 442.06 138.005 441.761 137.853C441.462 137.7 441.093 137.624 440.653 137.624C440.243 137.624 439.883 137.694 439.572 137.835C439.268 137.976 439.027 138.16 438.852 138.389C438.682 138.617 438.597 138.863 438.597 139.127H436.971C436.971 138.787 437.059 138.45 437.234 138.116C437.41 137.782 437.662 137.48 437.99 137.211C438.324 136.936 438.723 136.719 439.186 136.561C439.654 136.396 440.176 136.314 440.75 136.314C441.441 136.314 442.051 136.432 442.578 136.666C443.111 136.9 443.527 137.255 443.826 137.729C444.131 138.198 444.283 138.787 444.283 139.496V143.926C444.283 144.242 444.31 144.579 444.362 144.937C444.421 145.294 444.506 145.602 444.617 145.859V146H442.921C442.839 145.812 442.774 145.563 442.728 145.253C442.681 144.937 442.657 144.644 442.657 144.374ZM442.938 140.234L442.956 141.377H441.312C440.85 141.377 440.437 141.415 440.073 141.491C439.71 141.562 439.405 141.67 439.159 141.816C438.913 141.963 438.726 142.147 438.597 142.37C438.468 142.587 438.403 142.842 438.403 143.135C438.403 143.434 438.471 143.706 438.605 143.952C438.74 144.198 438.942 144.395 439.212 144.541C439.487 144.682 439.824 144.752 440.223 144.752C440.721 144.752 441.16 144.646 441.541 144.436C441.922 144.225 442.224 143.967 442.446 143.662C442.675 143.357 442.798 143.062 442.815 142.774L443.51 143.557C443.469 143.803 443.357 144.075 443.176 144.374C442.994 144.673 442.751 144.96 442.446 145.235C442.147 145.505 441.79 145.73 441.374 145.912C440.964 146.088 440.501 146.176 439.985 146.176C439.341 146.176 438.775 146.05 438.289 145.798C437.809 145.546 437.434 145.209 437.164 144.787C436.9 144.359 436.769 143.882 436.769 143.354C436.769 142.845 436.868 142.396 437.067 142.01C437.267 141.617 437.554 141.292 437.929 141.034C438.304 140.771 438.755 140.571 439.282 140.437C439.81 140.302 440.398 140.234 441.049 140.234H442.938ZM448.607 132.5V146H446.973V132.5H448.607ZM452.984 132.5V146H451.35V132.5H452.984ZM458.267 145.016L460.912 136.49H462.652L458.838 147.468C458.75 147.702 458.633 147.954 458.486 148.224C458.346 148.499 458.164 148.76 457.941 149.006C457.719 149.252 457.449 149.451 457.133 149.604C456.822 149.762 456.45 149.841 456.017 149.841C455.888 149.841 455.724 149.823 455.524 149.788C455.325 149.753 455.185 149.724 455.103 149.7L455.094 148.382C455.141 148.388 455.214 148.394 455.313 148.399C455.419 148.411 455.492 148.417 455.533 148.417C455.902 148.417 456.216 148.367 456.474 148.268C456.731 148.174 456.948 148.013 457.124 147.784C457.306 147.562 457.461 147.254 457.59 146.861L458.267 145.016ZM456.324 136.49L458.794 143.873L459.216 145.587L458.047 146.185L454.549 136.49H456.324ZM470.352 132.5V146H468.717V132.5H470.352ZM478.569 144.374V139.479C478.569 139.104 478.493 138.778 478.341 138.503C478.194 138.222 477.972 138.005 477.673 137.853C477.374 137.7 477.005 137.624 476.565 137.624C476.155 137.624 475.795 137.694 475.484 137.835C475.18 137.976 474.939 138.16 474.764 138.389C474.594 138.617 474.509 138.863 474.509 139.127H472.883C472.883 138.787 472.971 138.45 473.146 138.116C473.322 137.782 473.574 137.48 473.902 137.211C474.236 136.936 474.635 136.719 475.098 136.561C475.566 136.396 476.088 136.314 476.662 136.314C477.354 136.314 477.963 136.432 478.49 136.666C479.023 136.9 479.439 137.255 479.738 137.729C480.043 138.198 480.195 138.787 480.195 139.496V143.926C480.195 144.242 480.222 144.579 480.274 144.937C480.333 145.294 480.418 145.602 480.529 145.859V146H478.833C478.751 145.812 478.687 145.563 478.64 145.253C478.593 144.937 478.569 144.644 478.569 144.374ZM478.851 140.234L478.868 141.377H477.225C476.762 141.377 476.349 141.415 475.985 141.491C475.622 141.562 475.317 141.67 475.071 141.816C474.825 141.963 474.638 142.147 474.509 142.37C474.38 142.587 474.315 142.842 474.315 143.135C474.315 143.434 474.383 143.706 474.518 143.952C474.652 144.198 474.854 144.395 475.124 144.541C475.399 144.682 475.736 144.752 476.135 144.752C476.633 144.752 477.072 144.646 477.453 144.436C477.834 144.225 478.136 143.967 478.358 143.662C478.587 143.357 478.71 143.062 478.728 142.774L479.422 143.557C479.381 143.803 479.27 144.075 479.088 144.374C478.906 144.673 478.663 144.96 478.358 145.235C478.06 145.505 477.702 145.73 477.286 145.912C476.876 146.088 476.413 146.176 475.897 146.176C475.253 146.176 474.688 146.05 474.201 145.798C473.721 145.546 473.346 145.209 473.076 144.787C472.812 144.359 472.681 143.882 472.681 143.354C472.681 142.845 472.78 142.396 472.979 142.01C473.179 141.617 473.466 141.292 473.841 141.034C474.216 140.771 474.667 140.571 475.194 140.437C475.722 140.302 476.311 140.234 476.961 140.234H478.851ZM482.744 132.5H484.379V144.154L484.238 146H482.744V132.5ZM490.804 141.166V141.351C490.804 142.042 490.722 142.684 490.558 143.275C490.394 143.861 490.153 144.371 489.837 144.805C489.521 145.238 489.134 145.575 488.677 145.815C488.22 146.056 487.695 146.176 487.104 146.176C486.5 146.176 485.97 146.073 485.513 145.868C485.062 145.657 484.681 145.355 484.37 144.963C484.06 144.57 483.811 144.096 483.623 143.539C483.441 142.982 483.315 142.355 483.245 141.658V140.85C483.315 140.146 483.441 139.517 483.623 138.96C483.811 138.403 484.06 137.929 484.37 137.536C484.681 137.138 485.062 136.836 485.513 136.631C485.964 136.42 486.488 136.314 487.086 136.314C487.684 136.314 488.214 136.432 488.677 136.666C489.14 136.895 489.526 137.223 489.837 137.65C490.153 138.078 490.394 138.591 490.558 139.188C490.722 139.78 490.804 140.439 490.804 141.166ZM489.169 141.351V141.166C489.169 140.691 489.125 140.246 489.037 139.83C488.949 139.408 488.809 139.039 488.615 138.723C488.422 138.4 488.167 138.148 487.851 137.967C487.534 137.779 487.145 137.686 486.682 137.686C486.271 137.686 485.914 137.756 485.609 137.896C485.311 138.037 485.056 138.228 484.845 138.468C484.634 138.702 484.461 138.972 484.326 139.276C484.197 139.575 484.101 139.886 484.036 140.208V142.326C484.13 142.736 484.282 143.132 484.493 143.513C484.71 143.888 484.997 144.195 485.354 144.436C485.718 144.676 486.166 144.796 486.699 144.796C487.139 144.796 487.514 144.708 487.824 144.532C488.141 144.351 488.396 144.102 488.589 143.785C488.788 143.469 488.935 143.103 489.028 142.687C489.122 142.271 489.169 141.825 489.169 141.351ZM496.807 146.176C496.145 146.176 495.544 146.064 495.005 145.842C494.472 145.613 494.012 145.294 493.625 144.884C493.244 144.474 492.951 143.987 492.746 143.425C492.541 142.862 492.438 142.247 492.438 141.579V141.21C492.438 140.437 492.553 139.748 492.781 139.145C493.01 138.535 493.32 138.02 493.713 137.598C494.105 137.176 494.551 136.856 495.049 136.64C495.547 136.423 496.062 136.314 496.596 136.314C497.275 136.314 497.861 136.432 498.354 136.666C498.852 136.9 499.259 137.229 499.575 137.65C499.892 138.066 500.126 138.559 500.278 139.127C500.431 139.689 500.507 140.305 500.507 140.973V141.702H493.405V140.375H498.881V140.252C498.857 139.83 498.77 139.42 498.617 139.021C498.471 138.623 498.236 138.295 497.914 138.037C497.592 137.779 497.152 137.65 496.596 137.65C496.227 137.65 495.887 137.729 495.576 137.888C495.266 138.04 494.999 138.269 494.776 138.573C494.554 138.878 494.381 139.25 494.258 139.689C494.135 140.129 494.073 140.636 494.073 141.21V141.579C494.073 142.03 494.135 142.455 494.258 142.854C494.387 143.246 494.571 143.592 494.812 143.891C495.058 144.189 495.354 144.424 495.699 144.594C496.051 144.764 496.449 144.849 496.895 144.849C497.469 144.849 497.955 144.731 498.354 144.497C498.752 144.263 499.101 143.949 499.399 143.557L500.384 144.339C500.179 144.649 499.918 144.945 499.602 145.227C499.285 145.508 498.896 145.736 498.433 145.912C497.976 146.088 497.434 146.176 496.807 146.176ZM504.172 132.5V146H502.537V132.5H504.172ZM360.058 164.803V157.49H361.692V167H360.137L360.058 164.803ZM360.365 162.799L361.042 162.781C361.042 163.414 360.975 164 360.84 164.539C360.711 165.072 360.5 165.535 360.207 165.928C359.914 166.32 359.53 166.628 359.056 166.851C358.581 167.067 358.004 167.176 357.324 167.176C356.861 167.176 356.437 167.108 356.05 166.974C355.669 166.839 355.341 166.631 355.065 166.35C354.79 166.068 354.576 165.702 354.424 165.251C354.277 164.8 354.204 164.258 354.204 163.625V157.49H355.83V163.643C355.83 164.07 355.877 164.425 355.971 164.706C356.07 164.981 356.202 165.201 356.366 165.365C356.536 165.523 356.724 165.635 356.929 165.699C357.14 165.764 357.356 165.796 357.579 165.796C358.271 165.796 358.818 165.664 359.223 165.4C359.627 165.131 359.917 164.771 360.093 164.319C360.274 163.862 360.365 163.355 360.365 162.799ZM365.797 159.521V167H364.171V157.49H365.709L365.797 159.521ZM365.41 161.885L364.733 161.858C364.739 161.208 364.836 160.607 365.023 160.057C365.211 159.5 365.475 159.017 365.814 158.606C366.154 158.196 366.559 157.88 367.027 157.657C367.502 157.429 368.026 157.314 368.601 157.314C369.069 157.314 369.491 157.379 369.866 157.508C370.241 157.631 370.561 157.83 370.824 158.105C371.094 158.381 371.299 158.738 371.439 159.178C371.58 159.611 371.65 160.142 371.65 160.769V167H370.016V160.751C370.016 160.253 369.942 159.854 369.796 159.556C369.649 159.251 369.436 159.031 369.154 158.896C368.873 158.756 368.527 158.686 368.117 158.686C367.713 158.686 367.344 158.771 367.01 158.94C366.682 159.11 366.397 159.345 366.157 159.644C365.923 159.942 365.738 160.285 365.604 160.672C365.475 161.053 365.41 161.457 365.41 161.885ZM379.657 164.478C379.657 164.243 379.604 164.026 379.499 163.827C379.399 163.622 379.191 163.438 378.875 163.273C378.564 163.104 378.096 162.957 377.469 162.834C376.941 162.723 376.464 162.591 376.036 162.438C375.614 162.286 375.254 162.102 374.955 161.885C374.662 161.668 374.437 161.413 374.278 161.12C374.12 160.827 374.041 160.484 374.041 160.092C374.041 159.717 374.123 159.362 374.287 159.028C374.457 158.694 374.694 158.398 374.999 158.141C375.31 157.883 375.682 157.681 376.115 157.534C376.549 157.388 377.032 157.314 377.565 157.314C378.327 157.314 378.978 157.449 379.517 157.719C380.056 157.988 380.469 158.349 380.756 158.8C381.043 159.245 381.187 159.74 381.187 160.285H379.561C379.561 160.021 379.481 159.767 379.323 159.521C379.171 159.269 378.945 159.061 378.646 158.896C378.354 158.732 377.993 158.65 377.565 158.65C377.114 158.65 376.748 158.721 376.467 158.861C376.191 158.996 375.989 159.169 375.86 159.38C375.737 159.591 375.676 159.813 375.676 160.048C375.676 160.224 375.705 160.382 375.764 160.522C375.828 160.657 375.939 160.783 376.098 160.9C376.256 161.012 376.479 161.117 376.766 161.217C377.053 161.316 377.419 161.416 377.864 161.516C378.644 161.691 379.285 161.902 379.789 162.148C380.293 162.395 380.668 162.696 380.914 163.054C381.16 163.411 381.283 163.845 381.283 164.354C381.283 164.771 381.195 165.151 381.02 165.497C380.85 165.843 380.601 166.142 380.272 166.394C379.95 166.64 379.563 166.833 379.112 166.974C378.667 167.108 378.166 167.176 377.609 167.176C376.771 167.176 376.062 167.026 375.482 166.728C374.902 166.429 374.463 166.042 374.164 165.567C373.865 165.093 373.716 164.592 373.716 164.064H375.351C375.374 164.51 375.503 164.864 375.737 165.128C375.972 165.386 376.259 165.57 376.599 165.682C376.938 165.787 377.275 165.84 377.609 165.84C378.055 165.84 378.427 165.781 378.726 165.664C379.03 165.547 379.262 165.386 379.42 165.181C379.578 164.976 379.657 164.741 379.657 164.478ZM387.4 157.49V158.738H382.259V157.49H387.4ZM383.999 155.179H385.625V164.645C385.625 164.967 385.675 165.21 385.774 165.374C385.874 165.538 386.003 165.646 386.161 165.699C386.319 165.752 386.489 165.778 386.671 165.778C386.806 165.778 386.946 165.767 387.093 165.743C387.245 165.714 387.359 165.69 387.436 165.673L387.444 167C387.315 167.041 387.146 167.079 386.935 167.114C386.729 167.155 386.48 167.176 386.188 167.176C385.789 167.176 385.423 167.097 385.089 166.938C384.755 166.78 384.488 166.517 384.289 166.147C384.096 165.772 383.999 165.269 383.999 164.636V155.179ZM390.934 158.984V167H389.308V157.49H390.89L390.934 158.984ZM393.904 157.438L393.896 158.949C393.761 158.92 393.632 158.902 393.509 158.896C393.392 158.885 393.257 158.879 393.104 158.879C392.729 158.879 392.398 158.938 392.111 159.055C391.824 159.172 391.581 159.336 391.382 159.547C391.183 159.758 391.024 160.01 390.907 160.303C390.796 160.59 390.723 160.906 390.688 161.252L390.23 161.516C390.23 160.941 390.286 160.402 390.397 159.898C390.515 159.395 390.693 158.949 390.934 158.562C391.174 158.17 391.479 157.865 391.848 157.648C392.223 157.426 392.668 157.314 393.184 157.314C393.301 157.314 393.436 157.329 393.588 157.358C393.74 157.382 393.846 157.408 393.904 157.438ZM401.226 164.803V157.49H402.86V167H401.305L401.226 164.803ZM401.533 162.799L402.21 162.781C402.21 163.414 402.143 164 402.008 164.539C401.879 165.072 401.668 165.535 401.375 165.928C401.082 166.32 400.698 166.628 400.224 166.851C399.749 167.067 399.172 167.176 398.492 167.176C398.029 167.176 397.604 167.108 397.218 166.974C396.837 166.839 396.509 166.631 396.233 166.35C395.958 166.068 395.744 165.702 395.592 165.251C395.445 164.8 395.372 164.258 395.372 163.625V157.49H396.998V163.643C396.998 164.07 397.045 164.425 397.139 164.706C397.238 164.981 397.37 165.201 397.534 165.365C397.704 165.523 397.892 165.635 398.097 165.699C398.308 165.764 398.524 165.796 398.747 165.796C399.438 165.796 399.986 165.664 400.391 165.4C400.795 165.131 401.085 164.771 401.261 164.319C401.442 163.862 401.533 163.355 401.533 162.799ZM409.145 165.84C409.531 165.84 409.889 165.761 410.217 165.603C410.545 165.444 410.814 165.228 411.025 164.952C411.236 164.671 411.356 164.352 411.386 163.994H412.933C412.903 164.557 412.713 165.081 412.361 165.567C412.016 166.048 411.562 166.438 410.999 166.736C410.437 167.029 409.818 167.176 409.145 167.176C408.43 167.176 407.806 167.05 407.272 166.798C406.745 166.546 406.306 166.2 405.954 165.761C405.608 165.321 405.348 164.817 405.172 164.249C405.002 163.675 404.917 163.068 404.917 162.43V162.061C404.917 161.422 405.002 160.818 405.172 160.25C405.348 159.676 405.608 159.169 405.954 158.729C406.306 158.29 406.745 157.944 407.272 157.692C407.806 157.44 408.43 157.314 409.145 157.314C409.889 157.314 410.539 157.467 411.096 157.771C411.652 158.07 412.089 158.48 412.405 159.002C412.728 159.518 412.903 160.104 412.933 160.76H411.386C411.356 160.367 411.245 160.013 411.052 159.696C410.864 159.38 410.606 159.128 410.278 158.94C409.956 158.747 409.578 158.65 409.145 158.65C408.646 158.65 408.228 158.75 407.888 158.949C407.554 159.143 407.287 159.406 407.088 159.74C406.895 160.068 406.754 160.435 406.666 160.839C406.584 161.237 406.543 161.645 406.543 162.061V162.43C406.543 162.846 406.584 163.256 406.666 163.66C406.748 164.064 406.886 164.431 407.079 164.759C407.278 165.087 407.545 165.351 407.879 165.55C408.219 165.743 408.641 165.84 409.145 165.84ZM418.742 157.49V158.738H413.601V157.49H418.742ZM415.341 155.179H416.967V164.645C416.967 164.967 417.017 165.21 417.116 165.374C417.216 165.538 417.345 165.646 417.503 165.699C417.661 165.752 417.831 165.778 418.013 165.778C418.147 165.778 418.288 165.767 418.435 165.743C418.587 165.714 418.701 165.69 418.777 165.673L418.786 167C418.657 167.041 418.487 167.079 418.276 167.114C418.071 167.155 417.822 167.176 417.529 167.176C417.131 167.176 416.765 167.097 416.431 166.938C416.097 166.78 415.83 166.517 415.631 166.147C415.438 165.772 415.341 165.269 415.341 164.636V155.179ZM426.468 164.803V157.49H428.103V167H426.547L426.468 164.803ZM426.775 162.799L427.452 162.781C427.452 163.414 427.385 164 427.25 164.539C427.121 165.072 426.91 165.535 426.617 165.928C426.324 166.32 425.94 166.628 425.466 166.851C424.991 167.067 424.414 167.176 423.734 167.176C423.271 167.176 422.847 167.108 422.46 166.974C422.079 166.839 421.751 166.631 421.476 166.35C421.2 166.068 420.986 165.702 420.834 165.251C420.688 164.8 420.614 164.258 420.614 163.625V157.49H422.24V163.643C422.24 164.07 422.287 164.425 422.381 164.706C422.48 164.981 422.612 165.201 422.776 165.365C422.946 165.523 423.134 165.635 423.339 165.699C423.55 165.764 423.767 165.796 423.989 165.796C424.681 165.796 425.229 165.664 425.633 165.4C426.037 165.131 426.327 164.771 426.503 164.319C426.685 163.862 426.775 163.355 426.775 162.799ZM432.207 158.984V167H430.581V157.49H432.163L432.207 158.984ZM435.178 157.438L435.169 158.949C435.034 158.92 434.905 158.902 434.782 158.896C434.665 158.885 434.53 158.879 434.378 158.879C434.003 158.879 433.672 158.938 433.385 159.055C433.098 159.172 432.854 159.336 432.655 159.547C432.456 159.758 432.298 160.01 432.181 160.303C432.069 160.59 431.996 160.906 431.961 161.252L431.504 161.516C431.504 160.941 431.56 160.402 431.671 159.898C431.788 159.395 431.967 158.949 432.207 158.562C432.447 158.17 432.752 157.865 433.121 157.648C433.496 157.426 433.941 157.314 434.457 157.314C434.574 157.314 434.709 157.329 434.861 157.358C435.014 157.382 435.119 157.408 435.178 157.438ZM440.451 167.176C439.789 167.176 439.188 167.064 438.649 166.842C438.116 166.613 437.656 166.294 437.27 165.884C436.889 165.474 436.596 164.987 436.391 164.425C436.186 163.862 436.083 163.247 436.083 162.579V162.21C436.083 161.437 436.197 160.748 436.426 160.145C436.654 159.535 436.965 159.02 437.357 158.598C437.75 158.176 438.195 157.856 438.693 157.64C439.191 157.423 439.707 157.314 440.24 157.314C440.92 157.314 441.506 157.432 441.998 157.666C442.496 157.9 442.903 158.229 443.22 158.65C443.536 159.066 443.771 159.559 443.923 160.127C444.075 160.689 444.151 161.305 444.151 161.973V162.702H437.05V161.375H442.525V161.252C442.502 160.83 442.414 160.42 442.262 160.021C442.115 159.623 441.881 159.295 441.559 159.037C441.236 158.779 440.797 158.65 440.24 158.65C439.871 158.65 439.531 158.729 439.221 158.888C438.91 159.04 438.644 159.269 438.421 159.573C438.198 159.878 438.025 160.25 437.902 160.689C437.779 161.129 437.718 161.636 437.718 162.21V162.579C437.718 163.03 437.779 163.455 437.902 163.854C438.031 164.246 438.216 164.592 438.456 164.891C438.702 165.189 438.998 165.424 439.344 165.594C439.695 165.764 440.094 165.849 440.539 165.849C441.113 165.849 441.6 165.731 441.998 165.497C442.396 165.263 442.745 164.949 443.044 164.557L444.028 165.339C443.823 165.649 443.562 165.945 443.246 166.227C442.93 166.508 442.54 166.736 442.077 166.912C441.62 167.088 441.078 167.176 440.451 167.176ZM452.044 165.154V153.5H453.679V167H452.185L452.044 165.154ZM445.646 162.351V162.166C445.646 161.439 445.733 160.78 445.909 160.188C446.091 159.591 446.346 159.078 446.674 158.65C447.008 158.223 447.403 157.895 447.86 157.666C448.323 157.432 448.839 157.314 449.407 157.314C450.005 157.314 450.526 157.42 450.972 157.631C451.423 157.836 451.804 158.138 452.114 158.536C452.431 158.929 452.68 159.403 452.861 159.96C453.043 160.517 453.169 161.146 453.239 161.85V162.658C453.175 163.355 453.049 163.982 452.861 164.539C452.68 165.096 452.431 165.57 452.114 165.963C451.804 166.355 451.423 166.657 450.972 166.868C450.521 167.073 449.993 167.176 449.39 167.176C448.833 167.176 448.323 167.056 447.86 166.815C447.403 166.575 447.008 166.238 446.674 165.805C446.346 165.371 446.091 164.861 445.909 164.275C445.733 163.684 445.646 163.042 445.646 162.351ZM447.28 162.166V162.351C447.28 162.825 447.327 163.271 447.421 163.687C447.521 164.103 447.673 164.469 447.878 164.785C448.083 165.102 448.344 165.351 448.66 165.532C448.977 165.708 449.354 165.796 449.794 165.796C450.333 165.796 450.775 165.682 451.121 165.453C451.473 165.225 451.754 164.923 451.965 164.548C452.176 164.173 452.34 163.766 452.457 163.326V161.208C452.387 160.886 452.284 160.575 452.149 160.276C452.021 159.972 451.851 159.702 451.64 159.468C451.435 159.228 451.18 159.037 450.875 158.896C450.576 158.756 450.222 158.686 449.812 158.686C449.366 158.686 448.982 158.779 448.66 158.967C448.344 159.148 448.083 159.4 447.878 159.723C447.673 160.039 447.521 160.408 447.421 160.83C447.327 161.246 447.28 161.691 447.28 162.166ZM466.669 165.154V153.5H468.304V167H466.81L466.669 165.154ZM460.271 162.351V162.166C460.271 161.439 460.358 160.78 460.534 160.188C460.716 159.591 460.971 159.078 461.299 158.65C461.633 158.223 462.028 157.895 462.485 157.666C462.948 157.432 463.464 157.314 464.032 157.314C464.63 157.314 465.151 157.42 465.597 157.631C466.048 157.836 466.429 158.138 466.739 158.536C467.056 158.929 467.305 159.403 467.486 159.96C467.668 160.517 467.794 161.146 467.864 161.85V162.658C467.8 163.355 467.674 163.982 467.486 164.539C467.305 165.096 467.056 165.57 466.739 165.963C466.429 166.355 466.048 166.657 465.597 166.868C465.146 167.073 464.618 167.176 464.015 167.176C463.458 167.176 462.948 167.056 462.485 166.815C462.028 166.575 461.633 166.238 461.299 165.805C460.971 165.371 460.716 164.861 460.534 164.275C460.358 163.684 460.271 163.042 460.271 162.351ZM461.905 162.166V162.351C461.905 162.825 461.952 163.271 462.046 163.687C462.146 164.103 462.298 164.469 462.503 164.785C462.708 165.102 462.969 165.351 463.285 165.532C463.602 165.708 463.979 165.796 464.419 165.796C464.958 165.796 465.4 165.682 465.746 165.453C466.098 165.225 466.379 164.923 466.59 164.548C466.801 164.173 466.965 163.766 467.082 163.326V161.208C467.012 160.886 466.909 160.575 466.774 160.276C466.646 159.972 466.476 159.702 466.265 159.468C466.06 159.228 465.805 159.037 465.5 158.896C465.201 158.756 464.847 158.686 464.437 158.686C463.991 158.686 463.607 158.779 463.285 158.967C462.969 159.148 462.708 159.4 462.503 159.723C462.298 160.039 462.146 160.408 462.046 160.83C461.952 161.246 461.905 161.691 461.905 162.166ZM476.442 165.374V160.479C476.442 160.104 476.366 159.778 476.214 159.503C476.067 159.222 475.845 159.005 475.546 158.853C475.247 158.7 474.878 158.624 474.438 158.624C474.028 158.624 473.668 158.694 473.357 158.835C473.053 158.976 472.812 159.16 472.637 159.389C472.467 159.617 472.382 159.863 472.382 160.127H470.756C470.756 159.787 470.844 159.45 471.02 159.116C471.195 158.782 471.447 158.48 471.775 158.211C472.109 157.936 472.508 157.719 472.971 157.561C473.439 157.396 473.961 157.314 474.535 157.314C475.227 157.314 475.836 157.432 476.363 157.666C476.896 157.9 477.312 158.255 477.611 158.729C477.916 159.198 478.068 159.787 478.068 160.496V164.926C478.068 165.242 478.095 165.579 478.147 165.937C478.206 166.294 478.291 166.602 478.402 166.859V167H476.706C476.624 166.812 476.56 166.563 476.513 166.253C476.466 165.937 476.442 165.644 476.442 165.374ZM476.724 161.234L476.741 162.377H475.098C474.635 162.377 474.222 162.415 473.858 162.491C473.495 162.562 473.19 162.67 472.944 162.816C472.698 162.963 472.511 163.147 472.382 163.37C472.253 163.587 472.188 163.842 472.188 164.135C472.188 164.434 472.256 164.706 472.391 164.952C472.525 165.198 472.728 165.395 472.997 165.541C473.272 165.682 473.609 165.752 474.008 165.752C474.506 165.752 474.945 165.646 475.326 165.436C475.707 165.225 476.009 164.967 476.231 164.662C476.46 164.357 476.583 164.062 476.601 163.774L477.295 164.557C477.254 164.803 477.143 165.075 476.961 165.374C476.779 165.673 476.536 165.96 476.231 166.235C475.933 166.505 475.575 166.73 475.159 166.912C474.749 167.088 474.286 167.176 473.771 167.176C473.126 167.176 472.561 167.05 472.074 166.798C471.594 166.546 471.219 166.209 470.949 165.787C470.686 165.359 470.554 164.882 470.554 164.354C470.554 163.845 470.653 163.396 470.853 163.01C471.052 162.617 471.339 162.292 471.714 162.034C472.089 161.771 472.54 161.571 473.067 161.437C473.595 161.302 474.184 161.234 474.834 161.234H476.724ZM484.607 157.49V158.738H479.466V157.49H484.607ZM481.206 155.179H482.832V164.645C482.832 164.967 482.882 165.21 482.981 165.374C483.081 165.538 483.21 165.646 483.368 165.699C483.526 165.752 483.696 165.778 483.878 165.778C484.013 165.778 484.153 165.767 484.3 165.743C484.452 165.714 484.566 165.69 484.643 165.673L484.651 167C484.522 167.041 484.353 167.079 484.142 167.114C483.937 167.155 483.688 167.176 483.395 167.176C482.996 167.176 482.63 167.097 482.296 166.938C481.962 166.78 481.695 166.517 481.496 166.147C481.303 165.772 481.206 165.269 481.206 164.636V155.179ZM492.122 165.374V160.479C492.122 160.104 492.046 159.778 491.894 159.503C491.747 159.222 491.524 159.005 491.226 158.853C490.927 158.7 490.558 158.624 490.118 158.624C489.708 158.624 489.348 158.694 489.037 158.835C488.732 158.976 488.492 159.16 488.316 159.389C488.146 159.617 488.062 159.863 488.062 160.127H486.436C486.436 159.787 486.523 159.45 486.699 159.116C486.875 158.782 487.127 158.48 487.455 158.211C487.789 157.936 488.188 157.719 488.65 157.561C489.119 157.396 489.641 157.314 490.215 157.314C490.906 157.314 491.516 157.432 492.043 157.666C492.576 157.9 492.992 158.255 493.291 158.729C493.596 159.198 493.748 159.787 493.748 160.496V164.926C493.748 165.242 493.774 165.579 493.827 165.937C493.886 166.294 493.971 166.602 494.082 166.859V167H492.386C492.304 166.812 492.239 166.563 492.192 166.253C492.146 165.937 492.122 165.644 492.122 165.374ZM492.403 161.234L492.421 162.377H490.777C490.314 162.377 489.901 162.415 489.538 162.491C489.175 162.562 488.87 162.67 488.624 162.816C488.378 162.963 488.19 163.147 488.062 163.37C487.933 163.587 487.868 163.842 487.868 164.135C487.868 164.434 487.936 164.706 488.07 164.952C488.205 165.198 488.407 165.395 488.677 165.541C488.952 165.682 489.289 165.752 489.688 165.752C490.186 165.752 490.625 165.646 491.006 165.436C491.387 165.225 491.688 164.967 491.911 164.662C492.14 164.357 492.263 164.062 492.28 163.774L492.975 164.557C492.934 164.803 492.822 165.075 492.641 165.374C492.459 165.673 492.216 165.96 491.911 166.235C491.612 166.505 491.255 166.73 490.839 166.912C490.429 167.088 489.966 167.176 489.45 167.176C488.806 167.176 488.24 167.05 487.754 166.798C487.273 166.546 486.898 166.209 486.629 165.787C486.365 165.359 486.233 164.882 486.233 164.354C486.233 163.845 486.333 163.396 486.532 163.01C486.731 162.617 487.019 162.292 487.394 162.034C487.769 161.771 488.22 161.571 488.747 161.437C489.274 161.302 489.863 161.234 490.514 161.234H492.403ZM496.332 166.139C496.332 165.863 496.417 165.632 496.587 165.444C496.763 165.251 497.015 165.154 497.343 165.154C497.671 165.154 497.92 165.251 498.09 165.444C498.266 165.632 498.354 165.863 498.354 166.139C498.354 166.408 498.266 166.637 498.09 166.824C497.92 167.012 497.671 167.105 497.343 167.105C497.015 167.105 496.763 167.012 496.587 166.824C496.417 166.637 496.332 166.408 496.332 166.139Z" fill="white"/>
<rect x="321" y="92" width="217" height="118" rx="8" stroke="#ABABAB" stroke-dasharray="2 2"/>
<defs>
<filter id="filter0_d_3248_65" x="0.5" y="0.5" width="270.1" height="268.1" filterUnits="userSpaceOnUse" color-interpolation-filters="sRGB">
<feFlood flood-opacity="0" result="BackgroundImageFix"/>
<feColorMatrix in="SourceAlpha" type="matrix" values="0 0 0 0 0 0 0 0 0 0 0 0 0 0 0 0 0 0 127 0" result="hardAlpha"/>
<feOffset dx="9" dy="9"/>
<feGaussianBlur stdDeviation="3.05"/>
<feComposite in2="hardAlpha" operator="out"/>
<feColorMatrix type="matrix" values="0 0 0 0 0 0 0 0 0 0 0 0 0 0 0 0 0 0 0.25 0"/>
<feBlend mode="normal" in2="BackgroundImageFix" result="effect1_dropShadow_3248_65"/>
<feBlend mode="normal" in="SourceGraphic" in2="effect1_dropShadow_3248_65" result="shape"/>
</filter>
<filter id="filter1_d_3248_65" x="302.5" y="0.5" width="270.1" height="268.1" filterUnits="userSpaceOnUse" color-interpolation-filters="sRGB">
<feFlood flood-opacity="0" result="BackgroundImageFix"/>
<feColorMatrix in="SourceAlpha" type="matrix" values="0 0 0 0 0 0 0 0 0 0 0 0 0 0 0 0 0 0 127 0" result="hardAlpha"/>
<feOffset dx="9" dy="9"/>
<feGaussianBlur stdDeviation="3.05"/>
<feComposite in2="hardAlpha" operator="out"/>
<feColorMatrix type="matrix" values="0 0 0 0 0 0 0 0 0 0 0 0 0 0 0 0 0 0 0.25 0"/>
<feBlend mode="normal" in2="BackgroundImageFix" result="effect1_dropShadow_3248_65"/>
<feBlend mode="normal" in="SourceGraphic" in2="effect1_dropShadow_3248_65" result="shape"/>
</filter>
</defs>
</svg>
